<svg width="800" height="800" viewBox="67.48 69.58 666.38 662.65" xmlns="http://www.w3.org/2000/svg"><path d="M 568.93 380.19 C 571.98 381.39, 574.14 383.17, 577.35 383.90 C 580.55 384.64, 584.97 384.03, 588.14 384.59 C 591.32 385.14, 595.73 384.78, 596.37 387.25 C 597.02 389.72, 592.14 395.82, 592.01 399.38 C 591.88 402.94, 593.53 406.03, 595.61 408.61 C 597.68 411.19, 601.45 413.22, 604.47 414.84 C 607.49 416.46, 611.64 419.85, 613.72 418.32 C 615.80 416.79, 616.02 409.22, 616.93 405.64 C 617.84 402.06, 618.95 399.94, 619.18 396.85 C 619.42 393.76, 617.91 390.27, 618.34 387.10 C 618.77 383.94, 619.57 379.68, 621.77 377.86 C 623.96 376.04, 628.20 376.72, 631.51 376.18 C 634.81 375.65, 638.50 375.29, 641.60 374.65 C 644.69 374.01, 647.12 373.30, 650.06 372.35 C 653.01 371.40, 655.78 369.73, 659.26 368.93 C 662.74 368.12, 667.26 367.42, 670.93 367.52 C 674.60 367.61, 679.78 367.38, 681.28 369.52 C 682.78 371.65, 681.57 377.50, 679.94 380.33 C 678.30 383.15, 674.75 384.90, 671.46 386.47 C 668.16 388.03, 663.58 388.13, 660.18 389.71 C 656.77 391.29, 653.87 394.36, 651.03 395.94 C 648.19 397.53, 645.23 397.30, 643.14 399.21 C 641.06 401.13, 639.83 404.25, 638.54 407.46 C 637.25 410.67, 636.51 415.05, 635.39 418.48 C 634.28 421.92, 631.26 425.48, 631.87 428.09 C 632.48 430.70, 635.70 432.32, 639.03 434.14 C 642.37 435.97, 648.73 439.19, 651.89 439.01 C 655.04 438.82, 656.77 435.80, 657.96 433.02 C 659.16 430.25, 658.29 425.36, 659.05 422.36 C 659.80 419.37, 660.52 417.46, 662.48 415.07 C 664.43 412.67, 667.23 410.09, 670.79 407.98 C 674.36 405.87, 681.79 402.34, 683.86 402.42 C 685.93 402.50, 683.23 405.69, 683.21 408.45 C 683.19 411.22, 683.96 415.89, 683.76 418.99 C 683.57 422.08, 682.59 424.29, 682.06 427.03 C 681.52 429.77, 681.49 432.71, 680.55 435.44 C 679.61 438.18, 677.78 440.65, 676.43 443.43 C 675.08 446.22, 672.99 448.83, 672.44 452.15 C 671.90 455.47, 674.50 461.75, 673.13 463.36 C 671.77 464.96, 667.76 462.56, 664.26 461.78 C 660.77 460.99, 655.76 459.64, 652.17 458.64 C 648.59 457.64, 646.11 456.56, 642.74 455.76 C 639.38 454.96, 635.43 455.33, 632.00 453.83 C 628.56 452.33, 625.41 448.90, 622.13 446.77 C 618.84 444.64, 615.61 442.50, 612.29 441.07 C 608.97 439.64, 605.66 439.42, 602.22 438.20 C 598.78 436.97, 594.65 435.59, 591.67 433.73 C 588.69 431.86, 586.77 429.13, 584.35 427.01 C 581.94 424.88, 579.05 423.87, 577.17 420.98 C 575.29 418.09, 574.84 412.42, 573.05 409.68 C 571.26 406.94, 569.47 405.38, 566.42 404.53 C 563.37 403.68, 557.75 402.92, 554.75 404.59 C 551.75 406.27, 550.79 413.11, 548.40 414.57 C 546.01 416.03, 543.60 412.96, 540.41 413.34 C 537.23 413.72, 532.54 415.46, 529.29 416.85 C 526.04 418.24, 521.20 418.97, 520.91 421.66 C 520.61 424.35, 525.19 429.95, 527.54 432.99 C 529.89 436.03, 532.17 438.50, 535.00 439.89 C 537.83 441.27, 541.38 441.28, 544.51 441.30 C 547.64 441.32, 550.76 440.35, 553.77 440.01 C 556.78 439.66, 559.83 438.08, 562.59 439.23 C 565.36 440.39, 567.73 444.54, 570.36 446.94 C 572.98 449.35, 575.57 451.77, 578.34 453.66 C 581.10 455.56, 584.15 456.74, 586.96 458.30 C 589.77 459.86, 592.15 461.90, 595.22 463.02 C 598.29 464.15, 602.08 463.91, 605.38 465.06 C 608.68 466.21, 612.11 468.23, 615.03 469.93 C 617.95 471.63, 619.56 473.98, 622.91 475.26 C 626.26 476.55, 631.39 476.65, 635.14 477.64 C 638.89 478.62, 641.99 480.10, 645.42 481.17 C 648.84 482.24, 652.19 483.16, 655.71 484.04 C 659.22 484.92, 665.39 483.82, 666.52 486.46 C 667.65 489.09, 664.12 496.13, 662.49 499.85 C 660.85 503.57, 659.59 507.58, 656.71 508.76 C 653.83 509.94, 649.00 508.47, 645.21 506.94 C 641.41 505.41, 637.53 501.45, 633.93 499.58 C 630.32 497.72, 627.24 497.07, 623.57 495.74 C 619.90 494.42, 615.66 492.86, 611.90 491.65 C 608.14 490.43, 604.42 489.55, 601.00 488.48 C 597.58 487.41, 594.68 486.49, 591.38 485.22 C 588.08 483.95, 584.68 482.68, 581.22 480.84 C 577.76 479.01, 573.83 476.40, 570.61 474.19 C 567.40 471.98, 565.15 469.17, 561.92 467.59 C 558.69 466.01, 554.59 465.19, 551.21 464.72 C 547.83 464.26, 545.10 464.94, 541.64 464.81 C 538.18 464.69, 533.99 464.91, 530.43 463.96 C 526.88 463.01, 522.78 461.37, 520.29 459.13 C 517.81 456.88, 517.53 453.67, 515.52 450.48 C 513.50 447.29, 510.54 443.33, 508.22 439.99 C 505.89 436.65, 503.51 433.34, 501.58 430.43 C 499.65 427.52, 498.90 424.78, 496.63 422.52 C 494.37 420.26, 490.97 418.83, 488.01 416.88 C 485.05 414.92, 481.93 412.46, 478.89 410.81 C 475.85 409.16, 472.69 408.87, 469.78 406.99 C 466.87 405.10, 463.88 402.16, 461.44 399.50 C 459.01 396.84, 457.29 394.07, 455.17 391.02 C 453.05 387.97, 451.24 382.35, 448.71 381.19 C 446.18 380.03, 443.01 383.97, 439.99 384.05 C 436.96 384.13, 433.62 382.80, 430.57 381.67 C 427.52 380.54, 424.52 377.94, 421.67 377.25 C 418.83 376.57, 416.29 376.60, 413.52 377.58 C 410.75 378.55, 407.56 381.13, 405.03 383.09 C 402.51 385.05, 399.49 386.58, 398.36 389.34 C 397.22 392.09, 396.64 397.28, 398.21 399.59 C 399.78 401.91, 404.42 402.31, 407.78 403.21 C 411.14 404.11, 414.97 404.42, 418.40 404.98 C 421.83 405.55, 425.42 406.09, 428.37 406.62 C 431.31 407.16, 433.44 406.57, 436.06 408.18 C 438.68 409.80, 441.35 414.12, 444.09 416.29 C 446.82 418.47, 449.64 419.34, 452.46 421.24 C 455.28 423.14, 458.30 425.48, 461.01 427.70 C 463.72 429.91, 466.13 432.32, 468.71 434.52 C 471.30 436.72, 474.07 438.71, 476.54 440.89 C 479.01 443.06, 481.23 445.08, 483.54 447.56 C 485.86 450.04, 488.35 452.82, 490.45 455.78 C 492.54 458.74, 494.35 462.23, 496.11 465.30 C 497.87 468.38, 499.17 471.76, 501.01 474.25 C 502.85 476.74, 504.55 478.49, 507.13 480.25 C 509.72 482.02, 513.60 482.91, 516.51 484.84 C 519.43 486.76, 521.58 490.98, 524.60 491.82 C 527.61 492.66, 530.97 490.23, 534.60 489.89 C 538.23 489.54, 542.85 489.61, 546.37 489.76 C 549.88 489.91, 552.64 489.41, 555.70 490.77 C 558.76 492.13, 561.61 495.71, 564.71 497.92 C 567.82 500.13, 571.43 502.04, 574.35 504.02 C 577.27 505.99, 579.53 508.33, 582.26 509.79 C 584.98 511.26, 587.68 512.28, 590.69 512.80 C 593.71 513.32, 596.87 512.52, 600.36 512.92 C 603.85 513.32, 608.06 514.26, 611.61 515.20 C 615.17 516.14, 618.51 517.21, 621.70 518.54 C 624.90 519.86, 627.66 521.51, 630.79 523.15 C 633.91 524.79, 637.65 526.69, 640.46 528.39 C 643.28 530.08, 647.52 530.67, 647.68 533.33 C 647.84 535.99, 643.58 540.48, 641.42 544.35 C 639.27 548.23, 636.98 555.41, 634.77 556.58 C 632.56 557.75, 630.74 553.23, 628.19 551.38 C 625.63 549.53, 621.83 547.57, 619.45 545.50 C 617.07 543.43, 616.59 540.77, 613.90 538.94 C 611.21 537.11, 606.84 535.06, 603.30 534.52 C 599.75 533.97, 594.64 533.88, 592.63 535.65 C 590.61 537.42, 590.94 541.98, 591.20 545.13 C 591.45 548.28, 593.01 551.58, 594.16 554.54 C 595.31 557.51, 596.28 560.84, 598.09 562.92 C 599.90 564.99, 601.93 565.40, 605.02 567.01 C 608.12 568.63, 614.38 570.29, 616.66 572.59 C 618.93 574.90, 620.33 578.70, 618.67 580.84 C 617.01 582.98, 609.78 583.55, 606.69 585.42 C 603.61 587.28, 601.45 589.53, 600.18 592.05 C 598.91 594.56, 600.14 597.76, 599.07 600.52 C 598.00 603.27, 596.18 605.90, 593.75 608.57 C 591.31 611.24, 587.39 614.29, 584.46 616.53 C 581.53 618.78, 577.56 623.18, 576.16 622.06 C 574.75 620.94, 576.40 613.65, 576.04 609.81 C 575.67 605.97, 574.07 602.21, 573.97 599.03 C 573.86 595.85, 573.93 593.53, 575.38 590.72 C 576.84 587.90, 582.04 584.78, 582.70 582.16 C 583.37 579.55, 580.91 577.57, 579.36 575.01 C 577.81 572.46, 574.66 569.71, 573.40 566.84 C 572.14 563.98, 572.48 560.60, 571.81 557.81 C 571.14 555.02, 569.71 553.14, 569.37 550.09 C 569.02 547.05, 569.75 542.77, 569.75 539.53 C 569.75 536.29, 570.33 533.20, 569.36 530.65 C 568.38 528.10, 566.14 526.55, 563.90 524.25 C 561.66 521.95, 558.79 518.86, 555.92 516.86 C 553.04 514.85, 550.03 512.90, 546.64 512.21 C 543.26 511.53, 537.89 511.17, 535.60 512.76 C 533.32 514.36, 532.81 518.34, 532.95 521.76 C 533.08 525.18, 534.70 530.34, 536.42 533.29 C 538.15 536.24, 541.97 537.12, 543.30 539.47 C 544.64 541.82, 544.01 544.31, 544.45 547.39 C 544.89 550.46, 545.19 554.93, 545.94 557.90 C 546.70 560.88, 548.27 562.28, 549.00 565.24 C 549.73 568.19, 549.88 572.38, 550.32 575.62 C 550.76 578.86, 551.39 581.72, 551.65 584.69 C 551.91 587.66, 551.85 590.25, 551.88 593.44 C 551.91 596.62, 551.47 600.40, 551.81 603.80 C 552.15 607.19, 553.03 610.34, 553.91 613.80 C 554.78 617.27, 556.95 621.06, 557.06 624.57 C 557.18 628.08, 556.70 632.09, 554.60 634.87 C 552.50 637.65, 547.05 641.39, 544.46 641.27 C 541.87 641.15, 540.99 637.19, 539.07 634.14 C 537.15 631.08, 534.03 626.33, 532.94 622.95 C 531.85 619.56, 533.00 617.16, 532.53 613.81 C 532.07 610.46, 530.98 606.14, 530.17 602.84 C 529.37 599.53, 527.79 597.01, 527.70 593.98 C 527.61 590.95, 529.75 587.80, 529.61 584.67 C 529.47 581.54, 527.63 578.29, 526.85 575.19 C 526.07 572.09, 525.55 568.92, 524.95 566.08 C 524.35 563.24, 524.08 560.69, 523.24 558.16 C 522.40 555.62, 521.07 553.73, 519.91 550.86 C 518.75 547.99, 517.98 543.99, 516.28 540.94 C 514.58 537.88, 510.58 535.26, 509.69 532.53 C 508.79 529.80, 510.12 527.75, 510.90 524.56 C 511.68 521.37, 514.55 516.64, 514.35 513.39 C 514.14 510.14, 512.19 506.73, 509.67 505.07 C 507.15 503.40, 502.46 503.82, 499.23 503.41 C 496.00 503.01, 492.82 503.76, 490.29 502.64 C 487.77 501.53, 485.59 499.37, 484.08 496.74 C 482.56 494.12, 482.48 489.96, 481.20 486.90 C 479.92 483.83, 477.90 481.16, 476.38 478.37 C 474.86 475.57, 473.65 473.00, 472.08 470.12 C 470.51 467.24, 469.21 463.54, 466.97 461.09 C 464.72 458.63, 461.23 457.32, 458.63 455.38 C 456.03 453.45, 453.96 451.77, 451.36 449.47 C 448.75 447.17, 445.88 443.68, 443.00 441.59 C 440.13 439.50, 436.79 438.58, 434.09 436.91 C 431.39 435.24, 429.49 433.01, 426.81 431.55 C 424.12 430.09, 420.98 429.33, 417.96 428.15 C 414.94 426.96, 412.09 425.58, 408.70 424.46 C 405.31 423.33, 400.90 420.92, 397.62 421.38 C 394.34 421.85, 389.89 424.06, 389.05 427.27 C 388.20 430.48, 390.99 437.01, 392.56 440.63 C 394.14 444.25, 396.20 446.95, 398.50 448.99 C 400.80 451.04, 403.37 451.74, 406.35 452.90 C 409.32 454.05, 412.96 454.74, 416.35 455.93 C 419.74 457.12, 423.91 458.27, 426.68 460.01 C 429.46 461.75, 430.74 464.16, 433.01 466.37 C 435.28 468.58, 437.72 471.29, 440.28 473.29 C 442.85 475.28, 446.46 476.09, 448.39 478.36 C 450.33 480.63, 450.22 483.95, 451.90 486.90 C 453.58 489.85, 456.65 493.05, 458.46 496.03 C 460.26 499.01, 461.51 501.77, 462.72 504.77 C 463.94 507.78, 464.41 511.00, 465.75 514.08 C 467.08 517.16, 468.22 521.45, 470.74 523.25 C 473.27 525.05, 478.19 523.74, 480.90 524.87 C 483.60 526.01, 485.88 527.30, 486.98 530.08 C 488.08 532.86, 486.77 538.32, 487.50 541.56 C 488.24 544.81, 489.82 546.70, 491.40 549.54 C 492.97 552.38, 495.83 555.69, 496.95 558.60 C 498.06 561.51, 497.54 563.84, 498.08 567.00 C 498.61 570.17, 499.14 574.71, 500.16 577.60 C 501.17 580.49, 503.37 581.42, 504.16 584.34 C 504.95 587.26, 504.66 591.77, 504.90 595.13 C 505.14 598.49, 505.00 601.46, 505.62 604.50 C 506.24 607.53, 507.66 610.15, 508.62 613.35 C 509.58 616.55, 510.17 620.40, 511.36 623.69 C 512.55 626.98, 514.36 629.63, 515.76 633.10 C 517.16 636.57, 518.71 641.07, 519.78 644.49 C 520.85 647.92, 523.93 651.48, 522.17 653.63 C 520.42 655.79, 512.85 658.11, 509.23 657.44 C 505.60 656.77, 502.78 652.63, 500.42 649.62 C 498.07 646.60, 496.65 642.77, 495.08 639.36 C 493.50 635.96, 492.34 632.66, 490.96 629.17 C 489.59 625.67, 487.82 622.07, 486.84 618.39 C 485.85 614.72, 485.80 610.60, 485.05 607.09 C 484.31 603.59, 483.23 600.86, 482.38 597.34 C 481.52 593.81, 480.75 589.50, 479.92 585.95 C 479.10 582.40, 478.34 579.01, 477.43 576.04 C 476.52 573.08, 475.61 571.05, 474.46 568.15 C 473.32 565.25, 471.83 561.88, 470.57 558.62 C 469.31 555.37, 468.57 551.33, 466.90 548.60 C 465.23 545.87, 463.46 543.81, 460.55 542.23 C 457.64 540.65, 451.77 541.26, 449.44 539.14 C 447.11 537.01, 447.81 532.59, 446.57 529.50 C 445.32 526.40, 443.06 523.50, 441.99 520.59 C 440.92 517.68, 441.07 514.92, 440.14 512.04 C 439.21 509.16, 437.97 506.11, 436.40 503.32 C 434.83 500.52, 432.84 497.69, 430.71 495.25 C 428.57 492.81, 425.89 491.17, 423.58 488.66 C 421.26 486.15, 419.54 482.26, 416.83 480.17 C 414.11 478.07, 410.50 476.81, 407.26 476.09 C 404.03 475.36, 399.59 474.14, 397.42 475.81 C 395.26 477.48, 394.85 482.54, 394.30 486.12 C 393.76 489.69, 392.57 494.31, 394.15 497.27 C 395.72 500.24, 401.01 502.03, 403.77 503.89 C 406.52 505.75, 408.75 506.31, 410.70 508.45 C 412.65 510.58, 414.03 513.49, 415.47 516.72 C 416.90 519.94, 418.16 524.45, 419.29 527.81 C 420.43 531.17, 422.26 533.70, 422.30 536.86 C 422.33 540.02, 419.67 543.41, 419.51 546.78 C 419.35 550.14, 419.22 555.05, 421.35 557.05 C 423.47 559.05, 428.81 558.02, 432.26 558.76 C 435.72 559.51, 439.52 559.74, 442.07 561.51 C 444.62 563.27, 445.95 566.84, 447.56 569.36 C 449.17 571.89, 450.46 573.61, 451.74 576.67 C 453.02 579.74, 454.16 584.34, 455.25 587.73 C 456.34 591.13, 457.46 593.82, 458.29 597.05 C 459.12 600.28, 459.56 603.49, 460.24 607.12 C 460.92 610.74, 461.42 615.33, 462.39 618.82 C 463.35 622.31, 464.76 625.02, 466.03 628.05 C 467.31 631.08, 468.89 633.93, 470.05 636.98 C 471.22 640.03, 471.11 642.87, 473.02 646.35 C 474.94 649.83, 479.52 654.36, 481.54 657.86 C 483.56 661.37, 486.36 665.06, 485.14 667.37 C 483.91 669.67, 477.88 670.91, 474.20 671.70 C 470.52 672.49, 465.79 673.79, 463.05 672.09 C 460.31 670.39, 459.63 665.05, 457.75 661.50 C 455.87 657.96, 453.43 654.27, 451.78 650.84 C 450.13 647.40, 449.21 644.32, 447.85 640.90 C 446.50 637.48, 444.84 633.70, 443.65 630.30 C 442.46 626.90, 441.80 623.84, 440.74 620.49 C 439.68 617.14, 438.07 613.79, 437.29 610.19 C 436.51 606.59, 436.97 602.37, 436.06 598.89 C 435.14 595.41, 433.53 592.34, 431.78 589.31 C 430.04 586.28, 428.52 582.32, 425.61 580.73 C 422.69 579.13, 417.00 578.05, 414.27 579.73 C 411.54 581.41, 409.81 587.03, 409.22 590.81 C 408.62 594.59, 409.91 599.06, 410.70 602.39 C 411.49 605.72, 412.96 607.62, 413.94 610.79 C 414.93 613.96, 416.01 617.96, 416.62 621.42 C 417.23 624.88, 416.58 628.39, 417.60 631.55 C 418.61 634.71, 421.45 637.42, 422.71 640.38 C 423.97 643.33, 424.10 646.42, 425.17 649.25 C 426.23 652.09, 427.39 654.64, 429.09 657.41 C 430.80 660.18, 433.42 662.69, 435.41 665.90 C 437.41 669.10, 441.50 674.36, 441.09 676.66 C 440.68 678.96, 436.28 678.74, 432.96 679.67 C 429.64 680.60, 424.98 681.84, 421.19 682.23 C 417.40 682.62, 412.54 683.50, 410.21 682.01 C 407.88 680.52, 407.95 676.44, 407.21 673.29 C 406.47 670.14, 406.59 666.26, 405.75 663.10 C 404.92 659.95, 403.32 657.37, 402.21 654.33 C 401.09 651.29, 400.31 647.69, 399.06 644.86 C 397.81 642.03, 395.67 640.22, 394.71 637.35 C 393.74 634.47, 393.61 630.88, 393.27 627.59 C 392.93 624.31, 393.10 621.02, 392.69 617.62 C 392.28 614.22, 391.41 610.85, 390.83 607.19 C 390.25 603.53, 389.52 599.59, 389.20 595.66 C 388.88 591.73, 388.37 587.16, 388.88 583.60 C 389.40 580.04, 390.86 577.27, 392.31 574.31 C 393.75 571.34, 396.74 569.22, 397.57 565.82 C 398.40 562.42, 397.47 557.54, 397.27 553.90 C 397.08 550.26, 396.46 547.46, 396.41 544.00 C 396.35 540.54, 397.45 536.60, 396.94 533.15 C 396.44 529.70, 395.61 526.45, 393.37 523.31 C 391.12 520.18, 386.69 515.52, 383.48 514.34 C 380.27 513.15, 376.56 514.52, 374.12 516.20 C 371.67 517.89, 369.32 521.21, 368.80 524.46 C 368.28 527.70, 370.64 532.27, 370.97 535.68 C 371.31 539.10, 370.73 541.71, 370.79 544.93 C 370.85 548.15, 371.55 551.99, 371.33 555.01 C 371.10 558.04, 370.74 560.22, 369.44 563.08 C 368.14 565.94, 364.68 569.16, 363.53 572.17 C 362.39 575.19, 362.30 578.01, 362.57 581.15 C 362.84 584.28, 364.24 587.39, 365.16 590.99 C 366.07 594.58, 367.78 599.00, 368.07 602.72 C 368.36 606.44, 367.03 609.77, 366.89 613.30 C 366.76 616.84, 366.79 620.53, 367.27 623.94 C 367.76 627.34, 369.52 630.39, 369.81 633.75 C 370.10 637.11, 368.62 640.82, 369.01 644.10 C 369.40 647.38, 370.49 650.90, 372.16 653.42 C 373.83 655.95, 377.12 656.51, 379.05 659.25 C 380.98 661.99, 383.15 666.47, 383.74 669.87 C 384.33 673.27, 384.50 677.72, 382.57 679.64 C 380.64 681.57, 375.56 681.90, 372.18 681.40 C 368.79 680.91, 364.70 678.79, 362.26 676.68 C 359.82 674.58, 359.85 669.44, 357.52 668.78 C 355.20 668.12, 351.76 671.59, 348.29 672.74 C 344.81 673.89, 340.04 676.09, 336.66 675.68 C 333.28 675.28, 328.40 672.83, 327.99 670.32 C 327.58 667.80, 332.19 663.70, 334.21 660.58 C 336.23 657.46, 337.91 654.20, 340.13 651.61 C 342.35 649.02, 346.70 647.89, 347.53 645.05 C 348.36 642.22, 345.60 637.90, 345.12 634.60 C 344.64 631.30, 344.91 628.37, 344.65 625.26 C 344.40 622.15, 343.38 619.09, 343.61 615.94 C 343.85 612.79, 345.92 609.75, 346.07 606.34 C 346.23 602.94, 345.67 598.68, 344.52 595.52 C 343.37 592.36, 341.89 587.72, 339.16 587.38 C 336.44 587.04, 330.81 591.12, 328.17 593.46 C 325.53 595.80, 324.69 598.25, 323.34 601.41 C 321.98 604.58, 320.59 609.09, 320.01 612.48 C 319.44 615.87, 319.61 618.56, 319.86 621.76 C 320.12 624.96, 321.57 628.41, 321.55 631.68 C 321.52 634.95, 320.82 638.16, 319.72 641.39 C 318.62 644.62, 316.87 647.44, 314.93 651.06 C 312.99 654.69, 311.07 661.21, 308.08 663.16 C 305.10 665.11, 299.32 664.36, 297.02 662.78 C 294.72 661.21, 294.33 657.15, 294.29 653.71 C 294.24 650.27, 296.32 645.78, 296.77 642.13 C 297.21 638.48, 297.07 634.88, 296.93 631.80 C 296.80 628.72, 295.91 626.62, 295.96 623.65 C 296.00 620.69, 296.51 617.36, 297.23 614.00 C 297.95 610.65, 299.37 606.95, 300.30 603.51 C 301.23 600.06, 301.83 596.65, 302.80 593.34 C 303.78 590.02, 305.06 586.83, 306.15 583.64 C 307.24 580.45, 307.19 576.26, 309.34 574.19 C 311.49 572.12, 315.76 572.15, 319.04 571.21 C 322.32 570.28, 325.53 569.04, 329.03 568.57 C 332.53 568.10, 337.51 569.84, 340.04 568.40 C 342.56 566.96, 342.85 562.86, 344.18 559.91 C 345.50 556.95, 347.49 553.84, 348.00 550.68 C 348.52 547.52, 347.33 544.19, 347.26 540.96 C 347.19 537.72, 347.59 534.56, 347.58 531.26 C 347.57 527.96, 346.87 524.64, 347.22 521.17 C 347.56 517.70, 348.38 513.61, 349.67 510.45 C 350.95 507.29, 352.72 504.43, 354.94 502.21 C 357.17 499.99, 360.24 498.77, 363.03 497.13 C 365.81 495.49, 370.12 494.82, 371.66 492.38 C 373.20 489.94, 371.64 485.57, 372.27 482.49 C 372.90 479.40, 374.40 476.91, 375.43 473.88 C 376.47 470.86, 378.26 467.41, 378.48 464.33 C 378.70 461.24, 377.50 458.85, 376.76 455.39 C 376.03 451.93, 375.81 446.54, 374.08 443.55 C 372.35 440.57, 369.46 438.06, 366.38 437.48 C 363.30 436.90, 358.42 438.71, 355.59 440.10 C 352.76 441.49, 350.00 442.74, 349.41 445.83 C 348.81 448.92, 351.83 454.85, 352.03 458.63 C 352.23 462.41, 351.54 465.46, 350.61 468.49 C 349.67 471.53, 348.37 474.24, 346.40 476.85 C 344.42 479.46, 341.09 481.86, 338.76 484.14 C 336.44 486.43, 334.13 488.15, 332.45 490.55 C 330.77 492.96, 330.31 495.70, 328.67 498.57 C 327.03 501.45, 323.39 504.54, 322.63 507.81 C 321.86 511.09, 324.15 515.08, 324.10 518.21 C 324.05 521.34, 322.20 523.49, 322.32 526.60 C 322.44 529.72, 325.21 533.41, 324.81 536.91 C 324.41 540.42, 322.42 545.63, 319.93 547.64 C 317.43 549.66, 312.72 550.43, 309.85 549.03 C 306.98 547.62, 304.52 542.58, 302.71 539.22 C 300.91 535.86, 299.60 531.98, 299.02 528.88 C 298.44 525.78, 299.16 523.72, 299.24 520.63 C 299.32 517.54, 298.99 513.67, 299.48 510.35 C 299.97 507.03, 301.10 503.71, 302.20 500.69 C 303.30 497.66, 305.12 495.33, 306.10 492.20 C 307.08 489.08, 307.11 484.67, 308.09 481.94 C 309.08 479.21, 310.22 478.13, 312.03 475.82 C 313.83 473.51, 316.52 470.25, 318.93 468.08 C 321.33 465.92, 324.61 465.15, 326.45 462.81 C 328.30 460.48, 329.45 457.54, 330.02 454.08 C 330.58 450.63, 331.30 445.00, 329.84 442.08 C 328.39 439.17, 324.34 437.06, 321.28 436.60 C 318.22 436.14, 314.16 437.48, 311.48 439.32 C 308.81 441.17, 307.41 445.37, 305.22 447.66 C 303.04 449.95, 300.68 450.93, 298.36 453.07 C 296.04 455.21, 293.57 458.28, 291.29 460.48 C 289.01 462.67, 285.70 463.54, 284.67 466.24 C 283.63 468.94, 285.52 473.29, 285.10 476.66 C 284.68 480.03, 283.60 483.57, 282.13 486.47 C 280.67 489.37, 277.88 491.41, 276.31 494.07 C 274.74 496.73, 272.84 499.43, 272.71 502.43 C 272.57 505.44, 275.25 508.73, 275.52 512.10 C 275.79 515.47, 274.24 519.50, 274.34 522.63 C 274.44 525.75, 275.47 527.91, 276.13 530.85 C 276.78 533.79, 276.90 537.25, 278.26 540.27 C 279.62 543.30, 282.68 546.01, 284.27 548.98 C 285.87 551.94, 287.33 555.15, 287.84 558.06 C 288.35 560.98, 287.95 563.57, 287.34 566.45 C 286.73 569.32, 285.21 572.34, 284.18 575.33 C 283.14 578.32, 281.93 581.18, 281.13 584.40 C 280.34 587.62, 280.44 591.44, 279.40 594.64 C 278.36 597.84, 276.14 600.62, 274.89 603.60 C 273.65 606.57, 272.43 609.51, 271.92 612.48 C 271.40 615.45, 271.44 618.71, 271.79 621.43 C 272.14 624.15, 273.48 625.63, 274.01 628.78 C 274.54 631.94, 274.95 636.54, 274.98 640.35 C 275.00 644.16, 275.68 649.83, 274.17 651.65 C 272.65 653.46, 268.83 652.35, 265.88 651.24 C 262.94 650.13, 258.62 647.50, 256.49 644.99 C 254.37 642.47, 254.29 638.73, 253.14 636.16 C 252.00 633.60, 252.00 630.37, 249.63 629.60 C 247.27 628.82, 242.59 631.84, 238.97 631.50 C 235.36 631.17, 230.07 629.66, 227.95 627.60 C 225.83 625.54, 224.79 621.69, 226.24 619.14 C 227.68 616.59, 233.17 613.81, 236.62 612.30 C 240.07 610.78, 244.41 611.50, 246.94 610.06 C 249.47 608.61, 250.38 606.21, 251.80 603.62 C 253.22 601.02, 254.22 597.59, 255.45 594.47 C 256.68 591.35, 258.35 588.18, 259.19 584.88 C 260.02 581.59, 259.62 577.77, 260.46 574.71 C 261.29 571.65, 263.90 569.56, 264.19 566.52 C 264.47 563.49, 262.91 559.86, 262.17 556.50 C 261.42 553.13, 261.70 548.23, 259.71 546.35 C 257.73 544.47, 253.58 544.67, 250.27 545.22 C 246.95 545.77, 242.01 547.70, 239.84 549.64 C 237.66 551.59, 237.52 554.17, 237.21 556.88 C 236.89 559.59, 237.88 562.85, 237.96 565.90 C 238.05 568.96, 238.40 572.31, 237.72 575.22 C 237.03 578.13, 235.02 580.91, 233.84 583.39 C 232.66 585.87, 232.54 587.77, 230.65 590.11 C 228.76 592.45, 225.51 595.06, 222.49 597.41 C 219.47 599.76, 215.39 602.57, 212.54 604.21 C 209.68 605.84, 206.72 608.80, 205.36 607.21 C 203.99 605.63, 203.64 598.58, 204.35 594.70 C 205.05 590.83, 208.24 587.21, 209.60 583.95 C 210.96 580.69, 211.65 577.79, 212.50 575.15 C 213.36 572.51, 213.97 570.98, 214.73 568.11 C 215.48 565.24, 217.12 561.05, 217.02 557.92 C 216.93 554.79, 216.33 551.17, 214.15 549.34 C 211.98 547.51, 207.31 546.76, 203.96 546.95 C 200.61 547.14, 196.32 548.71, 194.08 550.49 C 191.83 552.26, 190.88 555.13, 190.50 557.61 C 190.11 560.09, 191.91 562.27, 191.75 565.37 C 191.59 568.47, 190.44 572.36, 189.52 576.22 C 188.60 580.08, 187.74 587.58, 186.23 588.52 C 184.72 589.47, 182.75 584.92, 180.48 581.88 C 178.20 578.85, 174.76 573.37, 172.57 570.31 C 170.38 567.25, 168.57 566.34, 167.33 563.54 C 166.09 560.73, 166.70 556.37, 165.13 553.47 C 163.57 550.57, 157.62 548.19, 157.95 546.14 C 158.28 544.09, 163.86 542.63, 167.09 541.17 C 170.32 539.72, 174.32 538.71, 177.32 537.41 C 180.32 536.11, 182.42 535.04, 185.10 533.36 C 187.77 531.68, 190.26 528.60, 193.37 527.33 C 196.48 526.06, 200.44 525.87, 203.76 525.74 C 207.09 525.60, 210.07 525.46, 213.31 526.53 C 216.54 527.60, 220.36 531.33, 223.16 532.16 C 225.97 532.99, 227.42 532.28, 230.15 531.51 C 232.87 530.73, 236.07 528.46, 239.52 527.50 C 242.96 526.54, 248.41 527.77, 250.83 525.75 C 253.25 523.74, 253.95 518.81, 254.04 515.39 C 254.12 511.96, 253.65 507.09, 251.34 505.21 C 249.03 503.33, 243.56 504.01, 240.16 504.10 C 236.76 504.18, 233.78 505.54, 230.94 505.71 C 228.11 505.88, 226.08 505.37, 223.15 505.10 C 220.21 504.83, 216.40 504.57, 213.33 504.09 C 210.26 503.61, 207.93 502.92, 204.74 502.24 C 201.54 501.57, 197.24 499.27, 194.16 500.04 C 191.08 500.80, 189.48 504.89, 186.25 506.80 C 183.02 508.72, 178.03 509.97, 174.79 511.53 C 171.55 513.09, 169.79 514.37, 166.84 516.15 C 163.89 517.94, 160.24 520.67, 157.09 522.22 C 153.94 523.77, 150.31 526.60, 147.94 525.46 C 145.57 524.32, 144.17 518.95, 142.87 515.39 C 141.57 511.82, 138.83 506.83, 140.13 504.07 C 141.43 501.31, 147.17 500.25, 150.67 498.83 C 154.17 497.40, 157.55 496.85, 161.12 495.52 C 164.68 494.18, 169.64 493.00, 172.08 490.83 C 174.52 488.67, 176.17 485.40, 175.76 482.51 C 175.35 479.61, 172.20 475.52, 169.63 473.45 C 167.05 471.37, 163.64 470.21, 160.32 470.08 C 156.99 469.96, 152.78 471.48, 149.67 472.70 C 146.56 473.93, 144.46 475.92, 141.67 477.44 C 138.87 478.97, 135.32 482.44, 132.90 481.85 C 130.49 481.27, 128.75 477.06, 127.19 473.94 C 125.62 470.83, 124.37 466.96, 123.50 463.19 C 122.62 459.41, 121.25 454.11, 121.95 451.31 C 122.64 448.52, 124.97 446.60, 127.65 446.40 C 130.33 446.21, 134.71 449.58, 138.01 450.15 C 141.32 450.72, 144.22 450.12, 147.46 449.81 C 150.70 449.51, 154.30 448.75, 157.45 448.33 C 160.60 447.91, 163.39 446.88, 166.37 447.29 C 169.36 447.70, 172.17 450.16, 175.36 450.77 C 178.54 451.39, 183.08 449.24, 185.50 450.97 C 187.92 452.69, 188.55 457.95, 189.85 461.12 C 191.16 464.29, 192.12 467.00, 193.34 469.99 C 194.57 472.97, 194.91 477.37, 197.22 479.03 C 199.52 480.69, 203.92 479.41, 207.17 479.95 C 210.42 480.49, 213.66 481.88, 216.74 482.26 C 219.81 482.63, 222.23 482.13, 225.61 482.21 C 228.99 482.29, 233.35 482.57, 237.00 482.73 C 240.65 482.89, 244.10 482.95, 247.52 483.16 C 250.94 483.38, 255.04 485.49, 257.50 484.03 C 259.96 482.56, 261.21 477.96, 262.27 474.39 C 263.33 470.81, 265.30 465.01, 263.85 462.58 C 262.39 460.14, 256.88 460.60, 253.54 459.80 C 250.20 459.01, 247.20 457.93, 243.80 457.81 C 240.40 457.69, 236.69 458.70, 233.15 459.09 C 229.61 459.48, 225.84 460.85, 222.55 460.14 C 219.27 459.42, 216.07 457.19, 213.46 454.81 C 210.85 452.43, 206.81 448.58, 206.89 445.85 C 206.97 443.13, 211.27 440.64, 213.92 438.47 C 216.57 436.29, 219.69 433.30, 222.80 432.81 C 225.92 432.32, 229.30 434.82, 232.63 435.52 C 235.95 436.21, 239.22 436.76, 242.76 436.96 C 246.29 437.17, 250.29 436.31, 253.85 436.75 C 257.41 437.19, 260.47 438.67, 264.11 439.59 C 267.75 440.51, 272.33 442.93, 275.69 442.26 C 279.04 441.59, 282.06 438.21, 284.24 435.59 C 286.42 432.97, 286.50 429.01, 288.76 426.55 C 291.03 424.09, 294.78 422.16, 297.82 420.84 C 300.85 419.53, 303.64 419.73, 306.95 418.65 C 310.25 417.56, 314.24 414.57, 317.64 414.34 C 321.04 414.11, 324.11 416.13, 327.36 417.25 C 330.62 418.37, 333.97 420.59, 337.16 421.06 C 340.35 421.54, 343.18 420.92, 346.52 420.09 C 349.85 419.26, 353.59 416.70, 357.19 416.08 C 360.79 415.47, 364.80 417.32, 368.11 416.41 C 371.42 415.49, 375.31 413.55, 377.07 410.62 C 378.83 407.69, 379.25 402.26, 378.67 398.80 C 378.09 395.34, 376.37 391.40, 373.58 389.85 C 370.79 388.30, 365.41 389.00, 361.92 389.51 C 358.44 390.03, 355.83 391.80, 352.66 392.93 C 349.49 394.07, 346.37 395.96, 342.90 396.32 C 339.42 396.68, 335.49 396.12, 331.80 395.08 C 328.10 394.05, 324.14 391.02, 320.71 390.10 C 317.29 389.19, 314.65 388.96, 311.25 389.58 C 307.85 390.20, 303.96 392.42, 300.30 393.82 C 296.64 395.22, 292.83 396.31, 289.28 398.00 C 285.74 399.68, 282.04 401.65, 279.02 403.95 C 276.00 406.24, 273.87 409.69, 271.14 411.74 C 268.41 413.80, 265.97 415.92, 262.66 416.29 C 259.36 416.66, 255.29 414.44, 251.32 413.96 C 247.36 413.48, 242.70 414.12, 238.87 413.43 C 235.03 412.74, 231.61 410.78, 228.30 409.82 C 225.00 408.85, 222.24 407.04, 219.03 407.65 C 215.82 408.25, 211.95 411.33, 209.04 413.45 C 206.14 415.57, 204.36 418.24, 201.58 420.37 C 198.79 422.50, 195.54 425.24, 192.33 426.22 C 189.12 427.19, 185.70 426.74, 182.31 426.21 C 178.92 425.68, 175.55 423.61, 172.00 423.04 C 168.44 422.47, 164.37 422.45, 160.99 422.79 C 157.61 423.12, 154.95 424.42, 151.72 425.06 C 148.49 425.70, 145.11 426.55, 141.61 426.64 C 138.11 426.73, 134.02 426.35, 130.71 425.60 C 127.40 424.85, 123.74 424.96, 121.75 422.15 C 119.76 419.34, 117.97 411.74, 118.79 408.74 C 119.61 405.73, 123.34 405.06, 126.67 404.10 C 130.00 403.14, 135.24 403.55, 138.76 402.98 C 142.27 402.42, 144.63 401.29, 147.76 400.70 C 150.90 400.11, 154.37 400.02, 157.57 399.43 C 160.77 398.85, 163.92 396.93, 166.96 397.20 C 170.01 397.47, 172.63 400.20, 175.85 401.06 C 179.06 401.93, 182.77 402.98, 186.27 402.38 C 189.76 401.77, 194.73 399.78, 196.81 397.41 C 198.88 395.05, 199.69 391.43, 198.71 388.18 C 197.73 384.94, 193.62 380.41, 190.93 377.97 C 188.23 375.53, 185.44 374.23, 182.54 373.55 C 179.64 372.86, 176.78 373.90, 173.52 373.85 C 170.26 373.81, 166.56 373.56, 162.97 373.28 C 159.38 373.00, 155.18 371.80, 151.98 372.16 C 148.79 372.52, 146.57 374.33, 143.78 375.44 C 140.98 376.55, 138.45 377.80, 135.20 378.83 C 131.95 379.85, 127.24 382.00, 124.28 381.61 C 121.33 381.22, 118.38 378.59, 117.48 376.48 C 116.58 374.37, 118.37 371.46, 118.89 368.94 C 119.41 366.42, 119.51 364.15, 120.62 361.36 C 121.72 358.57, 123.20 353.77, 125.54 352.22 C 127.87 350.66, 131.06 352.13, 134.61 352.04 C 138.17 351.95, 142.99 352.27, 146.89 351.69 C 150.78 351.10, 154.54 349.01, 157.98 348.53 C 161.43 348.05, 164.14 348.60, 167.57 348.80 C 171.00 349.00, 174.75 349.68, 178.57 349.74 C 182.39 349.81, 186.88 348.61, 190.49 349.17 C 194.09 349.73, 197.44 351.23, 200.18 353.10 C 202.93 354.98, 204.61 357.51, 206.95 360.41 C 209.29 363.32, 212.37 367.26, 214.22 370.54 C 216.08 373.82, 216.18 377.64, 218.07 380.09 C 219.96 382.55, 222.47 383.76, 225.56 385.27 C 228.65 386.78, 233.31 387.76, 236.61 389.14 C 239.91 390.52, 242.02 392.69, 245.37 393.55 C 248.72 394.40, 253.03 395.25, 256.71 394.28 C 260.39 393.32, 265.71 390.12, 267.45 387.74 C 269.19 385.36, 268.67 382.53, 267.16 380.00 C 265.64 377.48, 261.01 374.69, 258.34 372.58 C 255.68 370.48, 253.74 368.68, 251.16 367.38 C 248.59 366.07, 245.27 366.03, 242.91 364.77 C 240.54 363.51, 238.97 361.75, 236.96 359.83 C 234.94 357.91, 232.66 355.81, 230.82 353.26 C 228.99 350.70, 227.63 347.26, 225.95 344.52 C 224.28 341.77, 223.13 338.95, 220.77 336.79 C 218.40 334.63, 214.72 333.15, 211.75 331.55 C 208.78 329.95, 205.92 328.79, 202.97 327.18 C 200.02 325.57, 197.20 322.47, 194.06 321.89 C 190.92 321.30, 187.51 323.37, 184.13 323.68 C 180.75 324.00, 177.18 324.33, 173.79 323.78 C 170.39 323.24, 166.93 320.24, 163.76 320.42 C 160.58 320.60, 158.42 323.64, 154.74 324.87 C 151.06 326.10, 145.73 327.44, 141.68 327.78 C 137.63 328.13, 132.08 329.20, 130.46 326.94 C 128.84 324.67, 130.13 317.80, 131.96 314.22 C 133.80 310.63, 138.78 308.05, 141.48 305.40 C 144.19 302.76, 147.57 301.67, 148.17 298.35 C 148.77 295.03, 144.81 289.46, 145.09 285.50 C 145.37 281.53, 147.39 277.84, 149.86 274.54 C 152.32 271.24, 156.54 265.69, 159.88 265.70 C 163.21 265.72, 168.23 271.10, 169.87 274.62 C 171.51 278.14, 169.62 282.72, 169.71 286.83 C 169.80 290.94, 168.35 296.93, 170.39 299.26 C 172.44 301.59, 178.46 301.47, 182.01 300.79 C 185.56 300.11, 188.40 295.58, 191.69 295.18 C 194.98 294.78, 198.64 296.83, 201.75 298.38 C 204.85 299.93, 207.14 302.90, 210.33 304.47 C 213.52 306.04, 217.53 306.39, 220.89 307.80 C 224.25 309.21, 227.61 310.72, 230.49 312.93 C 233.37 315.15, 235.80 318.51, 238.16 321.10 C 240.53 323.69, 242.62 325.68, 244.67 328.49 C 246.72 331.30, 248.24 335.33, 250.47 337.95 C 252.69 340.57, 255.52 342.26, 258.05 344.22 C 260.58 346.18, 263.12 347.64, 265.65 349.71 C 268.18 351.77, 270.90 354.00, 273.22 356.62 C 275.55 359.23, 277.24 362.41, 279.61 365.39 C 281.98 368.37, 284.15 373.26, 287.42 374.53 C 290.70 375.79, 295.99 374.38, 299.27 372.98 C 302.54 371.59, 306.84 369.20, 307.08 366.16 C 307.32 363.11, 302.77 358.12, 300.72 354.72 C 298.66 351.32, 297.39 348.71, 294.73 345.76 C 292.07 342.81, 287.45 340.11, 284.76 337.04 C 282.07 333.97, 281.05 330.17, 278.57 327.36 C 276.10 324.55, 272.52 322.58, 269.89 320.18 C 267.27 317.79, 265.23 315.44, 262.84 312.99 C 260.45 310.55, 257.49 308.43, 255.55 305.50 C 253.60 302.56, 253.08 297.99, 251.17 295.39 C 249.26 292.80, 247.25 291.50, 244.09 289.93 C 240.92 288.36, 235.96 287.46, 232.19 285.98 C 228.41 284.50, 225.04 282.78, 221.45 281.05 C 217.86 279.31, 214.14 277.46, 210.64 275.57 C 207.14 273.69, 203.71 271.23, 200.44 269.76 C 197.18 268.29, 193.40 269.35, 191.06 266.75 C 188.71 264.15, 188.76 257.55, 186.38 254.17 C 183.99 250.79, 178.57 249.74, 176.74 246.45 C 174.90 243.16, 174.14 238.42, 175.37 234.43 C 176.60 230.43, 181.11 225.31, 184.14 222.48 C 187.17 219.66, 190.94 216.41, 193.54 217.47 C 196.14 218.54, 197.88 225.31, 199.77 228.86 C 201.65 232.41, 203.15 235.74, 204.85 238.77 C 206.55 241.79, 207.75 244.75, 209.99 247.01 C 212.22 249.28, 215.38 250.42, 218.25 252.34 C 221.12 254.27, 223.87 256.81, 227.19 258.55 C 230.51 260.29, 234.80 261.49, 238.19 262.79 C 241.58 264.09, 244.19 265.11, 247.53 266.34 C 250.87 267.56, 255.18 268.79, 258.24 270.12 C 261.30 271.46, 263.65 272.09, 265.89 274.33 C 268.13 276.57, 269.71 280.23, 271.67 283.57 C 273.64 286.91, 275.33 291.52, 277.70 294.36 C 280.07 297.19, 283.63 298.45, 285.87 300.60 C 288.12 302.75, 289.42 304.59, 291.18 307.27 C 292.93 309.95, 294.35 313.84, 296.41 316.67 C 298.47 319.49, 301.00 321.71, 303.55 324.23 C 306.10 326.75, 309.17 329.16, 311.72 331.80 C 314.27 334.43, 316.31 337.83, 318.86 340.05 C 321.40 342.28, 325.77 342.53, 326.99 345.15 C 328.21 347.78, 326.17 352.13, 326.18 355.80 C 326.20 359.46, 325.59 364.36, 327.08 367.12 C 328.57 369.89, 331.70 371.46, 335.12 372.41 C 338.55 373.35, 344.59 373.81, 347.63 372.81 C 350.67 371.81, 352.48 369.41, 353.36 366.42 C 354.24 363.44, 353.11 358.42, 352.91 354.91 C 352.71 351.40, 352.01 348.60, 352.16 345.36 C 352.30 342.12, 354.78 338.18, 353.77 335.45 C 352.76 332.73, 349.08 331.35, 346.12 329.00 C 343.16 326.64, 339.02 323.51, 336.00 321.32 C 332.97 319.14, 330.49 318.38, 327.98 315.89 C 325.47 313.39, 322.80 309.42, 320.93 306.34 C 319.06 303.26, 318.74 300.44, 316.74 297.41 C 314.75 294.39, 311.39 291.01, 308.98 288.20 C 306.56 285.39, 304.66 282.93, 302.25 280.53 C 299.84 278.13, 296.74 276.50, 294.52 273.79 C 292.29 271.07, 290.31 267.29, 288.88 264.26 C 287.45 261.24, 287.17 258.77, 285.96 255.66 C 284.74 252.54, 284.19 247.19, 281.57 245.58 C 278.94 243.97, 273.88 246.31, 270.23 246.01 C 266.58 245.71, 263.58 244.81, 259.66 243.80 C 255.74 242.78, 250.51 241.41, 246.72 239.91 C 242.92 238.41, 239.89 237.29, 236.91 234.80 C 233.93 232.31, 230.99 228.14, 228.83 224.96 C 226.68 221.78, 225.80 218.72, 223.98 215.72 C 222.16 212.72, 220.19 209.89, 217.91 206.97 C 215.63 204.04, 210.24 201.12, 210.30 198.16 C 210.35 195.20, 215.21 192.04, 218.23 189.21 C 221.26 186.38, 224.86 183.19, 228.45 181.17 C 232.03 179.15, 237.05 175.61, 239.74 177.09 C 242.42 178.57, 243.86 186.25, 244.54 190.05 C 245.23 193.86, 243.51 196.63, 243.86 199.91 C 244.21 203.19, 244.68 206.78, 246.64 209.73 C 248.60 212.68, 252.46 215.62, 255.61 217.60 C 258.76 219.57, 261.80 220.65, 265.54 221.56 C 269.28 222.48, 275.64 224.96, 278.04 223.09 C 280.45 221.22, 279.63 214.18, 279.96 210.35 C 280.28 206.52, 281.54 202.87, 280.00 200.10 C 278.46 197.32, 272.65 196.57, 270.71 193.70 C 268.78 190.83, 269.05 186.67, 268.39 182.87 C 267.74 179.08, 267.95 174.59, 266.79 170.92 C 265.63 167.26, 260.77 163.73, 261.43 160.89 C 262.09 158.06, 267.29 156.13, 270.76 153.93 C 274.23 151.74, 279.15 147.94, 282.24 147.74 C 285.34 147.54, 287.59 149.96, 289.33 152.72 C 291.07 155.49, 291.99 160.80, 292.70 164.33 C 293.41 167.86, 293.15 170.43, 293.61 173.90 C 294.07 177.38, 294.18 181.64, 295.44 185.20 C 296.69 188.75, 300.07 191.33, 301.15 195.23 C 302.23 199.13, 301.92 204.16, 301.92 208.59 C 301.92 213.02, 301.33 217.89, 301.17 221.81 C 301.00 225.72, 300.22 228.82, 300.93 232.09 C 301.65 235.37, 303.89 238.34, 305.47 241.45 C 307.06 244.56, 308.79 247.73, 310.46 250.75 C 312.12 253.76, 313.55 256.83, 315.48 259.53 C 317.41 262.24, 319.77 264.80, 322.03 266.97 C 324.29 269.13, 326.97 270.13, 329.02 272.51 C 331.06 274.90, 332.50 278.15, 334.29 281.29 C 336.08 284.42, 338.12 288.09, 339.76 291.34 C 341.41 294.59, 341.61 298.02, 344.14 300.78 C 346.67 303.54, 351.63 305.81, 354.95 307.89 C 358.27 309.97, 361.80 314.50, 364.06 313.27 C 366.32 312.04, 367.84 304.35, 368.51 300.49 C 369.18 296.63, 369.08 293.51, 368.09 290.12 C 367.10 286.72, 364.15 283.28, 362.57 280.11 C 360.98 276.94, 360.00 274.20, 358.59 271.10 C 357.18 268.00, 355.96 264.29, 354.09 261.53 C 352.22 258.77, 349.69 257.11, 347.38 254.55 C 345.07 251.98, 342.48 248.67, 340.23 246.17 C 337.98 243.66, 335.74 242.19, 333.88 239.51 C 332.02 236.83, 330.45 233.42, 329.07 230.07 C 327.70 226.73, 326.00 222.93, 325.64 219.44 C 325.28 215.95, 326.95 212.72, 326.90 209.11 C 326.85 205.49, 325.63 201.21, 325.35 197.76 C 325.06 194.31, 325.78 191.60, 325.18 188.38 C 324.57 185.16, 322.54 181.69, 321.73 178.44 C 320.93 175.18, 320.98 172.14, 320.36 168.86 C 319.74 165.57, 318.68 161.97, 318.02 158.72 C 317.36 155.47, 317.88 152.79, 316.42 149.34 C 314.96 145.89, 309.07 140.73, 309.24 138.02 C 309.41 135.31, 314.42 134.74, 317.45 133.08 C 320.49 131.42, 324.04 129.53, 327.43 128.07 C 330.82 126.61, 334.41 124.13, 337.78 124.33 C 341.16 124.53, 346.64 126.43, 347.71 129.25 C 348.77 132.07, 345.21 137.90, 344.15 141.27 C 343.09 144.64, 341.47 146.60, 341.34 149.44 C 341.21 152.29, 342.48 155.16, 343.35 158.34 C 344.22 161.51, 345.63 165.22, 346.57 168.49 C 347.52 171.77, 348.54 174.86, 349.02 178.00 C 349.51 181.14, 349.40 184.05, 349.47 187.35 C 349.55 190.65, 349.27 194.37, 349.46 197.79 C 349.66 201.21, 350.23 204.17, 350.64 207.86 C 351.04 211.54, 350.96 216.54, 351.88 219.90 C 352.80 223.26, 354.31 225.59, 356.15 228.04 C 358.00 230.48, 360.94 232.36, 362.95 234.57 C 364.97 236.78, 366.40 238.58, 368.26 241.30 C 370.12 244.01, 371.85 248.00, 374.13 250.88 C 376.41 253.75, 380.35 255.59, 381.94 258.54 C 383.54 261.48, 382.94 265.09, 383.71 268.55 C 384.48 272.01, 385.67 275.61, 386.56 279.28 C 387.46 282.96, 387.80 286.89, 389.07 290.61 C 390.35 294.33, 393.92 298.06, 394.20 301.59 C 394.49 305.11, 392.33 308.65, 390.78 311.76 C 389.22 314.87, 387.01 317.48, 384.87 320.25 C 382.74 323.02, 379.23 325.35, 377.94 328.37 C 376.65 331.39, 377.40 335.24, 377.14 338.36 C 376.87 341.49, 376.76 343.96, 376.37 347.14 C 375.99 350.32, 374.87 353.96, 374.84 357.44 C 374.82 360.93, 374.86 365.63, 376.24 368.05 C 377.61 370.47, 380.27 371.96, 383.11 371.96 C 385.95 371.95, 390.00 370.03, 393.28 368.01 C 396.56 365.99, 401.01 362.61, 402.78 359.84 C 404.54 357.08, 404.04 354.39, 403.87 351.44 C 403.70 348.50, 401.63 345.38, 401.76 342.18 C 401.88 338.99, 402.73 335.31, 404.62 332.27 C 406.51 329.24, 411.02 326.87, 413.09 323.98 C 415.16 321.09, 415.62 317.99, 417.06 314.93 C 418.50 311.87, 421.40 308.76, 421.72 305.62 C 422.05 302.48, 420.84 299.39, 419.01 296.07 C 417.17 292.75, 412.48 289.27, 410.74 285.68 C 408.99 282.09, 409.21 278.22, 408.54 274.55 C 407.87 270.89, 406.71 267.32, 406.72 263.69 C 406.73 260.06, 409.23 256.03, 408.59 252.77 C 407.96 249.51, 404.92 246.84, 402.92 244.11 C 400.92 241.38, 398.78 239.10, 396.61 236.37 C 394.44 233.65, 392.09 230.36, 389.90 227.78 C 387.71 225.19, 385.28 223.60, 383.46 220.86 C 381.64 218.11, 380.47 214.31, 378.99 211.29 C 377.51 208.27, 375.00 205.98, 374.59 202.74 C 374.19 199.50, 376.39 195.26, 376.55 191.86 C 376.72 188.45, 375.85 185.60, 375.58 182.30 C 375.30 179.00, 375.65 175.63, 374.90 172.03 C 374.16 168.44, 371.97 164.23, 371.11 160.73 C 370.25 157.24, 369.92 154.44, 369.74 151.06 C 369.56 147.67, 370.05 144.26, 370.00 140.43 C 369.96 136.60, 368.15 131.56, 369.46 128.09 C 370.76 124.61, 374.31 120.66, 377.83 119.58 C 381.36 118.49, 387.78 119.59, 390.61 121.59 C 393.45 123.60, 394.63 127.84, 394.84 131.61 C 395.05 135.37, 391.74 140.78, 391.87 144.19 C 392.01 147.60, 394.91 148.90, 395.67 152.07 C 396.42 155.24, 395.66 159.71, 396.39 163.23 C 397.11 166.74, 399.60 169.90, 400.02 173.17 C 400.43 176.44, 398.72 179.49, 398.90 182.82 C 399.07 186.16, 400.45 189.92, 401.04 193.18 C 401.64 196.44, 401.52 199.26, 402.46 202.39 C 403.41 205.51, 404.91 209.28, 406.71 211.93 C 408.51 214.57, 411.13 215.82, 413.26 218.25 C 415.39 220.67, 417.63 223.66, 419.48 226.49 C 421.34 229.31, 421.71 233.51, 424.39 235.20 C 427.07 236.89, 432.09 235.28, 435.56 236.64 C 439.03 238.00, 444.78 240.90, 445.20 243.38 C 445.62 245.85, 440.63 249.10, 438.09 251.49 C 435.56 253.88, 431.60 254.92, 430.00 257.71 C 428.40 260.49, 428.33 264.64, 428.49 268.20 C 428.66 271.77, 429.01 276.32, 430.99 279.09 C 432.98 281.86, 437.39 285.01, 440.40 284.82 C 443.42 284.64, 446.44 280.32, 449.07 277.97 C 451.71 275.62, 454.17 273.17, 456.20 270.71 C 458.23 268.26, 459.62 265.96, 461.27 263.25 C 462.91 260.54, 464.58 257.47, 466.06 254.45 C 467.55 251.42, 467.68 246.88, 470.16 245.09 C 472.65 243.30, 478.26 245.17, 480.96 243.71 C 483.67 242.26, 484.66 239.47, 486.39 236.38 C 488.13 233.28, 490.96 228.48, 491.37 225.14 C 491.78 221.80, 491.18 217.99, 488.85 216.33 C 486.51 214.67, 480.90 214.48, 477.37 215.18 C 473.83 215.88, 470.68 219.32, 467.63 220.52 C 464.58 221.71, 461.99 222.82, 459.08 222.33 C 456.16 221.85, 452.98 219.39, 450.14 217.61 C 447.30 215.82, 444.67 213.73, 442.06 211.62 C 439.45 209.50, 436.66 207.55, 434.49 204.91 C 432.31 202.28, 430.43 198.70, 429.01 195.79 C 427.59 192.88, 426.22 190.55, 425.97 187.46 C 425.72 184.37, 427.03 180.62, 427.51 177.24 C 427.99 173.86, 429.57 170.33, 428.83 167.18 C 428.10 164.02, 424.85 161.48, 423.10 158.31 C 421.35 155.13, 418.96 151.71, 418.33 148.11 C 417.70 144.51, 419.56 140.47, 419.32 136.70 C 419.08 132.94, 415.83 128.09, 416.89 125.52 C 417.95 122.94, 422.39 122.01, 425.68 121.25 C 428.97 120.49, 433.05 120.38, 436.61 120.93 C 440.17 121.47, 445.91 122.07, 447.05 124.52 C 448.19 126.97, 443.99 131.94, 443.43 135.62 C 442.88 139.31, 442.44 143.71, 443.72 146.63 C 444.99 149.55, 447.65 152.33, 451.09 153.14 C 454.54 153.95, 461.09 153.07, 464.39 151.49 C 467.70 149.91, 469.70 147.07, 470.92 143.67 C 472.14 140.27, 469.69 132.90, 471.71 131.07 C 473.74 129.25, 479.71 131.33, 483.06 132.71 C 486.40 134.09, 488.77 137.40, 491.76 139.33 C 494.75 141.26, 497.36 142.74, 501.01 144.29 C 504.66 145.84, 509.60 147.64, 513.68 148.62 C 517.77 149.60, 522.68 148.07, 525.50 150.16 C 528.33 152.25, 530.90 157.56, 530.64 161.17 C 530.37 164.79, 526.80 169.89, 523.91 171.85 C 521.03 173.80, 516.95 173.22, 513.34 172.91 C 509.73 172.61, 506.04 171.56, 502.24 170.02 C 498.45 168.49, 494.18 164.38, 490.57 163.71 C 486.96 163.05, 484.08 164.76, 480.58 166.05 C 477.09 167.35, 473.48 170.37, 469.59 171.49 C 465.71 172.61, 460.51 171.31, 457.29 172.78 C 454.07 174.25, 450.95 177.06, 450.28 180.32 C 449.61 183.59, 450.95 189.54, 453.26 192.37 C 455.56 195.21, 460.43 197.04, 464.10 197.35 C 467.77 197.66, 471.69 195.38, 475.29 194.25 C 478.89 193.12, 482.65 190.93, 485.69 190.59 C 488.74 190.25, 490.61 191.42, 493.58 192.22 C 496.55 193.02, 500.08 194.70, 503.52 195.40 C 506.96 196.10, 512.71 194.43, 514.20 196.42 C 515.69 198.41, 512.77 203.76, 512.48 207.36 C 512.20 210.95, 512.49 214.53, 512.51 218.00 C 512.53 221.46, 513.07 224.74, 512.59 228.16 C 512.11 231.58, 510.74 235.30, 509.62 238.52 C 508.50 241.74, 507.25 244.57, 505.87 247.47 C 504.48 250.36, 503.59 253.09, 501.31 255.89 C 499.02 258.69, 494.85 261.93, 492.15 264.24 C 489.44 266.56, 487.22 267.27, 485.06 269.76 C 482.89 272.24, 481.32 276.29, 479.17 279.14 C 477.01 282.00, 474.57 284.47, 472.15 286.91 C 469.72 289.34, 467.24 291.37, 464.62 293.76 C 462.00 296.15, 459.53 299.27, 456.43 301.22 C 453.32 303.17, 448.11 303.10, 446.00 305.45 C 443.89 307.80, 444.62 312.13, 443.77 315.34 C 442.92 318.54, 442.10 321.67, 440.90 324.68 C 439.69 327.68, 438.62 330.88, 436.54 333.34 C 434.47 335.80, 430.15 336.58, 428.44 339.44 C 426.72 342.30, 425.70 347.37, 426.26 350.49 C 426.81 353.61, 429.03 356.65, 431.78 358.17 C 434.53 359.69, 439.14 358.93, 442.74 359.61 C 446.34 360.29, 451.08 363.50, 453.38 362.27 C 455.68 361.05, 454.89 355.44, 456.54 352.26 C 458.18 349.09, 462.04 346.28, 463.26 343.25 C 464.48 340.22, 463.28 337.17, 463.84 334.07 C 464.40 330.98, 464.84 327.67, 466.61 324.67 C 468.38 321.66, 471.70 318.63, 474.45 316.04 C 477.19 313.44, 480.40 311.46, 483.09 309.10 C 485.77 306.74, 487.81 303.79, 490.54 301.85 C 493.27 299.90, 497.07 299.79, 499.47 297.42 C 501.88 295.05, 502.94 290.20, 504.95 287.60 C 506.97 285.01, 509.45 284.31, 511.57 281.86 C 513.68 279.42, 515.82 275.96, 517.66 272.94 C 519.49 269.91, 520.39 266.90, 522.57 263.72 C 524.75 260.53, 528.57 256.66, 530.72 253.82 C 532.87 250.97, 534.60 249.80, 535.47 246.65 C 536.35 243.49, 536.13 238.76, 535.99 234.88 C 535.85 231.01, 534.52 227.28, 534.62 223.37 C 534.72 219.47, 536.19 215.27, 536.59 211.47 C 536.99 207.68, 536.64 204.25, 537.03 200.61 C 537.42 196.96, 537.06 192.38, 538.92 189.59 C 540.79 186.81, 545.17 185.29, 548.21 183.90 C 551.25 182.50, 553.93 182.15, 557.16 181.23 C 560.40 180.31, 564.08 177.38, 567.63 178.37 C 571.19 179.36, 575.55 184.68, 578.51 187.17 C 581.46 189.67, 585.73 190.87, 585.35 193.32 C 584.96 195.77, 579.62 199.98, 576.21 201.88 C 572.79 203.78, 567.75 203.61, 564.86 204.71 C 561.96 205.82, 560.08 205.85, 558.83 208.53 C 557.58 211.21, 557.60 217.09, 557.35 220.78 C 557.10 224.47, 557.19 227.17, 557.33 230.67 C 557.48 234.17, 555.86 239.78, 558.20 241.78 C 560.54 243.79, 567.66 243.50, 571.38 242.71 C 575.10 241.91, 578.73 239.72, 580.50 237.03 C 582.28 234.34, 580.82 229.65, 582.02 226.57 C 583.22 223.49, 585.06 221.05, 587.69 218.56 C 590.31 216.07, 594.46 213.04, 597.76 211.63 C 601.07 210.22, 604.43 208.87, 607.49 210.08 C 610.56 211.28, 615.54 216.13, 616.15 218.87 C 616.76 221.62, 613.67 223.62, 611.15 226.54 C 608.63 229.45, 603.22 232.73, 601.03 236.35 C 598.84 239.98, 596.80 246.51, 598.01 248.28 C 599.23 250.05, 604.58 247.57, 608.31 246.97 C 612.04 246.37, 616.85 245.95, 620.41 244.68 C 623.97 243.41, 626.72 239.44, 629.69 239.36 C 632.65 239.28, 636.62 241.53, 638.21 244.19 C 639.80 246.85, 640.77 252.22, 639.23 255.33 C 637.68 258.43, 632.59 261.03, 628.92 262.81 C 625.24 264.58, 620.55 264.65, 617.19 265.97 C 613.83 267.29, 611.42 269.62, 608.77 270.73 C 606.12 271.85, 604.24 272.79, 601.29 272.67 C 598.34 272.56, 594.44 271.55, 591.08 270.02 C 587.72 268.49, 584.37 264.64, 581.13 263.48 C 577.90 262.33, 575.14 263.32, 571.67 263.08 C 568.20 262.83, 563.92 262.17, 560.32 262.03 C 556.71 261.89, 552.47 260.65, 550.04 262.23 C 547.61 263.80, 547.52 268.30, 545.74 271.48 C 543.95 274.66, 541.17 278.46, 539.34 281.33 C 537.51 284.20, 536.52 285.95, 534.73 288.70 C 532.94 291.46, 530.33 294.92, 528.60 297.85 C 526.87 300.77, 525.99 303.58, 524.35 306.27 C 522.72 308.95, 521.21 311.68, 518.78 313.95 C 516.35 316.21, 512.65 318.43, 509.78 319.88 C 506.90 321.34, 504.48 321.20, 501.52 322.67 C 498.56 324.15, 494.60 325.99, 492.01 328.73 C 489.43 331.47, 485.31 336.41, 486.03 339.10 C 486.75 341.80, 492.65 343.23, 496.33 344.90 C 500.02 346.58, 504.82 349.10, 508.13 349.16 C 511.44 349.23, 513.40 346.85, 516.18 345.29 C 518.96 343.72, 522.08 341.87, 524.79 339.78 C 527.50 337.69, 529.46 334.46, 532.45 332.74 C 535.43 331.03, 539.51 330.55, 542.69 329.48 C 545.87 328.40, 550.37 328.98, 551.53 326.31 C 552.69 323.65, 548.98 317.03, 549.64 313.49 C 550.30 309.94, 554.11 307.80, 555.51 305.04 C 556.91 302.27, 556.60 299.83, 558.05 296.90 C 559.49 293.96, 561.31 288.89, 564.19 287.42 C 567.08 285.94, 572.18 286.95, 575.35 288.06 C 578.52 289.16, 582.11 291.09, 583.22 294.03 C 584.33 296.97, 583.12 302.28, 582.00 305.69 C 580.87 309.11, 578.19 311.51, 576.47 314.51 C 574.76 317.52, 571.71 320.55, 571.70 323.70 C 571.68 326.86, 573.82 331.21, 576.38 333.44 C 578.93 335.68, 583.49 336.70, 587.04 337.10 C 590.59 337.50, 594.45 336.70, 597.70 335.84 C 600.95 334.99, 605.65 334.68, 606.54 331.96 C 607.43 329.24, 603.61 323.21, 603.05 319.53 C 602.50 315.86, 602.78 313.08, 603.21 309.90 C 603.63 306.73, 604.29 303.32, 605.62 300.48 C 606.96 297.65, 608.51 294.65, 611.22 292.88 C 613.93 291.12, 618.28 291.22, 621.89 289.89 C 625.49 288.56, 629.48 286.59, 632.84 284.89 C 636.20 283.20, 639.01 281.59, 642.08 279.73 C 645.14 277.88, 649.15 273.15, 651.25 273.74 C 653.34 274.34, 652.98 280.61, 654.66 283.28 C 656.35 285.96, 659.18 286.72, 661.33 289.81 C 663.49 292.90, 666.53 298.38, 667.57 301.82 C 668.61 305.25, 669.81 309.32, 667.57 310.44 C 665.34 311.55, 657.75 309.28, 654.16 308.50 C 650.56 307.72, 648.79 306.46, 645.98 305.75 C 643.17 305.04, 640.13 303.77, 637.27 304.24 C 634.42 304.71, 631.23 306.15, 628.86 308.56 C 626.48 310.97, 623.32 315.33, 623.03 318.70 C 622.74 322.08, 624.81 326.91, 627.11 328.79 C 629.41 330.67, 633.39 329.74, 636.84 329.98 C 640.30 330.22, 643.96 330.33, 647.83 330.24 C 651.71 330.14, 656.22 328.96, 660.07 329.41 C 663.92 329.87, 668.36 330.81, 670.93 332.96 C 673.50 335.12, 676.30 339.84, 675.49 342.36 C 674.67 344.87, 669.74 346.82, 666.05 348.04 C 662.35 349.25, 657.35 349.27, 653.31 349.63 C 649.27 350.00, 645.23 349.79, 641.81 350.24 C 638.39 350.69, 635.76 352.64, 632.81 352.34 C 629.85 352.03, 627.25 348.52, 624.09 348.40 C 620.94 348.28, 616.60 349.61, 613.88 351.61 C 611.17 353.61, 610.12 358.51, 607.81 360.40 C 605.49 362.28, 602.87 362.94, 600.01 362.92 C 597.15 362.89, 593.78 360.86, 590.66 360.24 C 587.53 359.62, 584.34 360.17, 581.26 359.20 C 578.18 358.24, 575.21 355.83, 572.18 354.45 C 569.14 353.07, 565.95 351.72, 563.05 350.93 C 560.15 350.14, 557.94 349.26, 554.77 349.71 C 551.60 350.16, 546.88 351.92, 544.02 353.61 C 541.16 355.31, 540.13 357.97, 537.60 359.86 C 535.06 361.76, 531.61 363.17, 528.82 364.98 C 526.04 366.78, 523.77 369.25, 520.90 370.70 C 518.03 372.14, 514.89 373.89, 511.62 373.67 C 508.35 373.45, 504.56 370.81, 501.29 369.39 C 498.01 367.97, 495.50 366.53, 491.99 365.16 C 488.48 363.79, 483.55 360.63, 480.23 361.19 C 476.91 361.75, 473.44 365.44, 472.07 368.50 C 470.71 371.55, 470.56 376.46, 472.03 379.52 C 473.51 382.58, 477.85 384.97, 480.94 386.86 C 484.03 388.76, 487.50 389.43, 490.58 390.89 C 493.66 392.35, 496.68 393.60, 499.41 395.63 C 502.15 397.65, 504.36 402.42, 506.99 403.03 C 509.63 403.64, 512.03 400.63, 515.24 399.27 C 518.46 397.91, 523.12 396.32, 526.31 394.87 C 529.49 393.42, 531.65 391.96, 534.37 390.56 C 537.08 389.16, 539.79 388.07, 542.61 386.47 C 545.42 384.87, 548.52 382.60, 551.26 380.97 C 554.01 379.34, 556.10 376.83, 559.05 376.70 C 561.99 376.57, 565.88 378.99, 568.93 380.19" stroke="red" stroke-width="3" fill="black" /></svg>