<svg width="800" height="800" viewBox="-14.36 39.15 813.09 729.04" xmlns="http://www.w3.org/2000/svg"><path d="M 489.55 400.56 C 487.31 400.28, 484.99 399.77, 482.90 399.21 C 480.81 398.66, 478.92 398.07, 477.02 397.22 C 475.11 396.37, 473.25 395.00, 471.47 394.12 C 469.68 393.24, 468.11 392.31, 466.29 391.94 C 464.47 391.56, 462.64 391.73, 460.56 391.87 C 458.49 392.01, 455.78 392.50, 453.84 392.77 C 451.90 393.04, 450.79 393.87, 448.90 393.48 C 447.00 393.09, 444.56 391.84, 442.46 390.43 C 440.35 389.02, 438.32 386.21, 436.27 385.01 C 434.23 383.81, 431.58 382.57, 430.21 383.25 C 428.84 383.92, 428.90 386.57, 428.05 389.07 C 427.20 391.56, 425.71 395.67, 425.12 398.19 C 424.54 400.72, 423.87 402.49, 424.55 404.22 C 425.23 405.95, 427.57 407.42, 429.21 408.57 C 430.85 409.73, 432.51 410.17, 434.39 411.14 C 436.26 412.10, 438.30 414.14, 440.48 414.35 C 442.65 414.56, 445.26 412.51, 447.44 412.38 C 449.61 412.25, 451.41 413.24, 453.52 413.58 C 455.63 413.92, 457.99 414.35, 460.09 414.41 C 462.19 414.48, 464.09 413.65, 466.14 413.98 C 468.19 414.30, 470.39 415.73, 472.39 416.38 C 474.38 417.02, 475.87 417.49, 478.12 417.84 C 480.37 418.19, 483.28 418.44, 485.88 418.49 C 488.48 418.53, 490.99 418.10, 493.74 418.12 C 496.49 418.15, 499.63 418.64, 502.38 418.64 C 505.14 418.65, 508.01 417.82, 510.26 418.13 C 512.51 418.44, 513.95 420.19, 515.88 420.52 C 517.81 420.85, 519.67 420.45, 521.84 420.10 C 524.02 419.76, 525.92 418.83, 528.93 418.45 C 531.94 418.07, 535.96 417.60, 539.92 417.84 C 543.88 418.09, 548.95 419.26, 552.71 419.90 C 556.47 420.54, 559.04 420.68, 562.50 421.70 C 565.96 422.71, 570.41 424.70, 573.48 425.98 C 576.54 427.26, 578.44 428.34, 580.88 429.38 C 583.32 430.41, 585.60 431.28, 588.13 432.19 C 590.66 433.11, 593.46 434.11, 596.05 434.87 C 598.63 435.63, 601.03 436.04, 603.65 436.75 C 606.27 437.47, 608.96 438.49, 611.77 439.16 C 614.59 439.83, 617.71 440.10, 620.55 440.79 C 623.39 441.49, 626.06 442.80, 628.81 443.32 C 631.56 443.83, 634.49 443.72, 637.04 443.87 C 639.58 444.02, 641.52 443.02, 644.09 444.23 C 646.67 445.44, 650.44 448.88, 652.49 451.13 C 654.55 453.37, 656.38 455.00, 656.44 457.72 C 656.50 460.45, 654.56 465.34, 652.87 467.47 C 651.17 469.60, 648.98 470.65, 646.27 470.50 C 643.57 470.35, 639.65 467.71, 636.63 466.59 C 633.61 465.47, 631.01 464.80, 628.15 463.77 C 625.29 462.73, 622.21 461.52, 619.47 460.38 C 616.73 459.24, 614.39 457.87, 611.72 456.92 C 609.05 455.96, 606.50 455.47, 603.43 454.65 C 600.37 453.83, 596.61 453.00, 593.33 452.00 C 590.06 451.00, 586.84 449.86, 583.79 448.66 C 580.74 447.46, 577.81 446.42, 575.03 444.80 C 572.26 443.18, 569.51 440.48, 567.15 438.96 C 564.79 437.45, 563.31 436.65, 560.88 435.73 C 558.46 434.81, 555.83 434.29, 552.59 433.44 C 549.35 432.59, 544.57 430.67, 541.42 430.62 C 538.27 430.58, 534.64 431.75, 533.68 433.19 C 532.73 434.63, 534.37 437.36, 535.69 439.27 C 537.01 441.18, 539.13 443.00, 541.59 444.63 C 544.04 446.26, 547.85 447.64, 550.43 449.05 C 553.02 450.45, 554.44 451.78, 557.08 453.06 C 559.72 454.34, 563.25 455.21, 566.27 456.74 C 569.30 458.26, 572.30 460.71, 575.25 462.19 C 578.20 463.67, 580.93 464.37, 583.97 465.63 C 587.01 466.89, 590.27 468.42, 593.50 469.73 C 596.73 471.05, 600.43 472.09, 603.36 473.52 C 606.28 474.95, 608.48 476.78, 611.05 478.31 C 613.62 479.84, 616.00 481.41, 618.80 482.71 C 621.59 484.01, 624.74 484.82, 627.81 486.10 C 630.87 487.38, 634.19 489.17, 637.19 490.40 C 640.20 491.62, 642.76 492.68, 645.84 493.44 C 648.92 494.20, 652.55 494.82, 655.67 494.95 C 658.78 495.07, 662.21 495.76, 664.54 494.18 C 666.87 492.60, 668.10 488.51, 669.66 485.45 C 671.22 482.39, 672.39 478.82, 673.91 475.83 C 675.43 472.85, 676.78 469.89, 678.75 467.53 C 680.73 465.17, 682.93 462.04, 685.73 461.68 C 688.54 461.33, 692.50 463.14, 695.60 465.41 C 698.70 467.69, 703.85 471.93, 704.32 475.33 C 704.80 478.74, 700.80 482.37, 698.46 485.84 C 696.12 489.31, 692.12 492.68, 690.30 496.15 C 688.47 499.62, 689.54 503.52, 687.50 506.67 C 685.47 509.83, 681.32 512.98, 678.08 515.08 C 674.84 517.18, 671.47 518.87, 668.07 519.29 C 664.66 519.70, 661.29 517.78, 657.67 517.57 C 654.04 517.37, 649.61 518.28, 646.31 518.06 C 643.01 517.83, 640.46 517.52, 637.88 516.22 C 635.30 514.92, 633.49 512.04, 630.82 510.26 C 628.14 508.49, 624.63 507.12, 621.86 505.57 C 619.08 504.02, 616.79 502.32, 614.17 500.95 C 611.55 499.57, 608.81 499.04, 606.13 497.34 C 603.45 495.64, 600.81 492.55, 598.08 490.74 C 595.35 488.93, 592.43 487.83, 589.76 486.47 C 587.09 485.11, 584.65 483.95, 582.06 482.59 C 579.47 481.23, 577.11 480.08, 574.24 478.31 C 571.38 476.54, 567.90 473.72, 564.88 471.99 C 561.85 470.27, 559.31 469.61, 556.10 467.96 C 552.89 466.32, 548.94 463.80, 545.63 462.12 C 542.32 460.44, 539.42 459.85, 536.24 457.89 C 533.07 455.93, 529.23 452.50, 526.58 450.38 C 523.93 448.25, 522.11 446.64, 520.35 445.13 C 518.60 443.61, 517.58 442.53, 516.07 441.27 C 514.56 440.01, 513.17 438.54, 511.29 437.55 C 509.41 436.56, 507.12 435.83, 504.78 435.34 C 502.45 434.85, 499.51 434.76, 497.27 434.62 C 495.03 434.49, 493.64 434.46, 491.36 434.54 C 489.09 434.63, 486.11 434.67, 483.62 435.12 C 481.13 435.58, 478.47 436.80, 476.43 437.29 C 474.39 437.79, 473.02 438.46, 471.38 438.12 C 469.73 437.77, 468.32 436.12, 466.57 435.21 C 464.81 434.30, 463.12 433.28, 460.86 432.65 C 458.61 432.02, 455.50 431.75, 453.04 431.45 C 450.59 431.15, 447.43 429.83, 446.14 430.85 C 444.84 431.86, 444.96 435.19, 445.27 437.53 C 445.59 439.87, 446.96 442.65, 448.03 444.89 C 449.09 447.13, 450.24 449.55, 451.66 450.98 C 453.07 452.40, 455.02 452.16, 456.52 453.43 C 458.02 454.71, 459.16 457.39, 460.66 458.63 C 462.16 459.88, 463.68 459.86, 465.50 460.90 C 467.32 461.94, 469.88 465.32, 471.58 464.89 C 473.27 464.46, 474.11 459.92, 475.68 458.32 C 477.24 456.73, 478.86 456.36, 480.96 455.33 C 483.07 454.31, 486.01 452.47, 488.30 452.19 C 490.59 451.91, 492.38 453.27, 494.72 453.66 C 497.05 454.05, 499.87 454.00, 502.29 454.50 C 504.71 455.01, 506.31 455.50, 509.25 456.70 C 512.19 457.89, 516.16 459.65, 519.93 461.65 C 523.70 463.64, 528.59 466.56, 531.87 468.68 C 535.15 470.81, 536.77 472.58, 539.60 474.40 C 542.44 476.22, 545.81 477.63, 548.88 479.60 C 551.94 481.57, 555.35 484.14, 557.98 486.22 C 560.61 488.30, 562.38 490.26, 564.63 492.08 C 566.88 493.90, 569.21 495.44, 571.48 497.13 C 573.74 498.82, 576.09 500.51, 578.23 502.21 C 580.36 503.90, 582.09 505.83, 584.28 507.31 C 586.48 508.79, 589.20 509.74, 591.41 511.11 C 593.61 512.48, 595.23 513.85, 597.52 515.53 C 599.81 517.21, 602.73 519.47, 605.12 521.20 C 607.52 522.94, 609.60 524.34, 611.88 525.95 C 614.17 527.56, 616.48 528.93, 618.83 530.85 C 621.19 532.78, 623.79 534.80, 626.02 537.49 C 628.25 540.18, 629.52 545.53, 632.20 546.99 C 634.88 548.45, 638.80 547.25, 642.08 546.26 C 645.36 545.28, 648.44 541.39, 651.87 541.10 C 655.29 540.80, 660.25 541.68, 662.63 544.49 C 665.01 547.30, 667.14 554.12, 666.16 557.98 C 665.19 561.83, 660.70 565.87, 656.80 567.64 C 652.89 569.40, 646.00 566.51, 642.72 568.55 C 639.44 570.60, 639.61 579.33, 637.14 579.89 C 634.67 580.45, 631.18 574.08, 627.90 571.91 C 624.61 569.74, 620.01 568.73, 617.41 566.89 C 614.82 565.05, 614.02 563.19, 612.34 560.86 C 610.66 558.53, 609.09 555.58, 607.34 552.91 C 605.59 550.25, 603.84 547.05, 601.84 544.85 C 599.84 542.65, 597.56 541.48, 595.33 539.73 C 593.11 537.99, 590.55 536.10, 588.47 534.40 C 586.39 532.69, 584.91 531.11, 582.87 529.52 C 580.83 527.93, 578.63 526.44, 576.24 524.86 C 573.84 523.27, 570.71 521.45, 568.51 520.03 C 566.30 518.61, 564.90 517.63, 563.00 516.33 C 561.10 515.04, 558.79 513.79, 557.11 512.26 C 555.44 510.74, 554.10 509.07, 552.96 507.16 C 551.83 505.26, 551.80 503.28, 550.31 500.86 C 548.81 498.44, 546.34 495.10, 544.01 492.65 C 541.67 490.19, 539.37 488.22, 536.30 486.12 C 533.23 484.02, 528.63 482.04, 525.60 480.04 C 522.56 478.04, 520.56 475.45, 518.10 474.14 C 515.65 472.83, 513.54 473.05, 510.86 472.20 C 508.18 471.34, 505.29 469.40, 502.03 469.00 C 498.76 468.61, 494.11 469.06, 491.27 469.82 C 488.44 470.57, 485.23 472.19, 485.01 473.56 C 484.79 474.92, 487.83 476.46, 489.95 478.01 C 492.08 479.55, 495.26 481.32, 497.76 482.82 C 500.26 484.32, 502.38 485.77, 504.96 487.00 C 507.54 488.23, 510.51 489.16, 513.23 490.20 C 515.96 491.24, 518.96 491.90, 521.31 493.21 C 523.66 494.53, 525.43 496.18, 527.32 498.11 C 529.21 500.04, 531.36 502.46, 532.63 504.81 C 533.91 507.15, 535.42 510.55, 534.96 512.16 C 534.51 513.76, 532.11 514.48, 529.90 514.45 C 527.69 514.43, 524.40 513.10, 521.71 511.99 C 519.02 510.88, 516.13 509.20, 513.76 507.79 C 511.40 506.38, 509.85 504.87, 507.52 503.53 C 505.18 502.19, 502.28 500.98, 499.75 499.77 C 497.21 498.56, 495.06 497.77, 492.32 496.28 C 489.58 494.79, 485.94 492.58, 483.29 490.82 C 480.64 489.06, 477.65 485.31, 476.41 485.71 C 475.18 486.12, 475.98 490.58, 475.90 493.26 C 475.82 495.94, 475.17 499.03, 475.94 501.79 C 476.71 504.55, 479.06 507.75, 480.50 509.84 C 481.94 511.93, 482.81 513.51, 484.60 514.34 C 486.39 515.18, 489.04 514.52, 491.22 514.86 C 493.41 515.20, 494.99 515.62, 497.71 516.40 C 500.44 517.18, 503.55 517.43, 507.58 519.56 C 511.61 521.68, 517.42 527.52, 521.90 529.16 C 526.37 530.80, 530.90 529.39, 534.43 529.39 C 537.96 529.39, 540.44 528.81, 543.08 529.15 C 545.71 529.50, 548.21 530.26, 550.22 531.46 C 552.24 532.66, 553.02 534.69, 555.16 536.37 C 557.30 538.05, 560.55 539.72, 563.05 541.52 C 565.54 543.32, 567.97 545.38, 570.15 547.19 C 572.34 548.99, 573.86 550.42, 576.15 552.34 C 578.44 554.27, 581.56 556.16, 583.89 558.73 C 586.22 561.30, 590.41 564.80, 590.14 567.78 C 589.87 570.76, 585.39 574.91, 582.27 576.63 C 579.15 578.35, 574.51 578.63, 571.42 578.11 C 568.32 577.59, 566.01 575.38, 563.68 573.50 C 561.36 571.63, 559.62 568.87, 557.46 566.85 C 555.30 564.84, 552.55 563.38, 550.72 561.40 C 548.90 559.42, 548.29 556.62, 546.50 554.98 C 544.71 553.34, 542.20 553.10, 539.99 551.57 C 537.77 550.03, 536.03 547.78, 533.24 545.79 C 530.45 543.80, 526.92 541.98, 523.26 539.62 C 519.60 537.26, 514.37 532.92, 511.28 531.62 C 508.19 530.32, 507.06 531.94, 504.73 531.82 C 502.39 531.71, 499.91 530.69, 497.27 530.94 C 494.62 531.19, 489.95 531.82, 488.85 533.32 C 487.76 534.82, 489.37 537.75, 490.69 539.95 C 492.01 542.14, 494.98 544.50, 496.78 546.49 C 498.57 548.47, 499.53 550.93, 501.46 551.85 C 503.39 552.77, 506.25 551.40, 508.34 551.99 C 510.42 552.59, 512.18 554.44, 513.96 555.41 C 515.74 556.38, 517.54 556.51, 519.02 557.80 C 520.49 559.10, 521.51 561.25, 522.81 563.19 C 524.12 565.14, 525.23 567.88, 526.87 569.47 C 528.52 571.07, 530.95 571.25, 532.68 572.77 C 534.40 574.28, 535.75 576.77, 537.21 578.58 C 538.67 580.39, 539.92 581.88, 541.45 583.61 C 542.98 585.34, 544.74 587.17, 546.38 588.97 C 548.03 590.77, 549.38 593.11, 551.34 594.40 C 553.30 595.70, 555.59 595.67, 558.16 596.72 C 560.73 597.78, 563.88 599.27, 566.76 600.72 C 569.64 602.17, 572.42 604.76, 575.44 605.44 C 578.46 606.12, 582.19 606.26, 584.90 604.79 C 587.61 603.31, 589.23 599.31, 591.71 596.59 C 594.19 593.88, 596.94 589.70, 599.80 588.51 C 602.66 587.32, 605.62 587.95, 608.86 589.44 C 612.10 590.94, 617.93 593.99, 619.25 597.48 C 620.57 600.97, 619.07 607.01, 616.77 610.37 C 614.47 613.72, 608.96 615.09, 605.45 617.60 C 601.94 620.10, 598.92 622.98, 595.71 625.41 C 592.50 627.84, 589.54 630.70, 586.17 632.18 C 582.81 633.66, 578.75 635.05, 575.53 634.29 C 572.30 633.54, 569.58 629.65, 566.80 627.65 C 564.02 625.65, 561.44 623.78, 558.86 622.27 C 556.28 620.77, 554.08 619.90, 551.32 618.60 C 548.56 617.31, 545.10 615.94, 542.30 614.50 C 539.50 613.06, 536.95 611.70, 534.53 609.98 C 532.11 608.26, 529.47 606.06, 527.78 604.19 C 526.09 602.32, 525.78 600.75, 524.39 598.75 C 522.99 596.76, 520.91 594.24, 519.41 592.20 C 517.92 590.17, 516.89 588.57, 515.41 586.54 C 513.94 584.51, 512.45 581.73, 510.57 580.01 C 508.68 578.30, 506.01 577.78, 504.09 576.26 C 502.18 574.73, 500.93 572.65, 499.08 570.87 C 497.23 569.10, 495.05 567.44, 492.98 565.60 C 490.91 563.75, 488.65 562.49, 486.65 559.79 C 484.65 557.08, 482.68 553.14, 480.98 549.35 C 479.28 545.56, 477.64 540.90, 476.46 537.05 C 475.28 533.20, 475.19 529.11, 473.89 526.27 C 472.58 523.43, 470.21 522.57, 468.64 520.02 C 467.06 517.46, 465.65 513.95, 464.44 510.94 C 463.24 507.94, 462.27 504.98, 461.43 502.01 C 460.60 499.03, 459.62 495.72, 459.44 493.08 C 459.27 490.44, 460.40 488.48, 460.40 486.17 C 460.40 483.86, 460.37 480.98, 459.43 479.23 C 458.50 477.49, 456.58 476.83, 454.77 475.69 C 452.95 474.55, 450.53 473.83, 448.54 472.39 C 446.55 470.94, 444.65 468.91, 442.83 467.02 C 441.01 465.12, 439.24 463.02, 437.65 461.00 C 436.06 458.99, 434.40 456.79, 433.30 454.93 C 432.20 453.07, 431.95 451.91, 431.06 449.84 C 430.17 447.78, 428.31 444.89, 427.96 442.55 C 427.62 440.21, 428.91 437.91, 429.00 435.79 C 429.09 433.67, 429.38 431.69, 428.48 429.84 C 427.57 427.98, 425.51 426.11, 423.58 424.67 C 421.65 423.23, 419.10 421.71, 416.89 421.19 C 414.68 420.68, 412.00 420.74, 410.34 421.57 C 408.68 422.40, 407.33 423.99, 406.94 426.16 C 406.54 428.33, 407.56 432.10, 407.97 434.60 C 408.37 437.10, 409.09 438.89, 409.37 441.17 C 409.65 443.44, 409.09 446.06, 409.64 448.27 C 410.19 450.48, 411.83 452.40, 412.68 454.44 C 413.52 456.47, 414.10 458.51, 414.69 460.50 C 415.29 462.48, 415.39 464.61, 416.25 466.35 C 417.11 468.09, 418.00 469.37, 419.86 470.94 C 421.73 472.51, 425.37 474.11, 427.44 475.75 C 429.50 477.39, 430.94 478.97, 432.26 480.78 C 433.59 482.59, 434.04 484.90, 435.37 486.64 C 436.69 488.37, 439.02 489.25, 440.21 491.19 C 441.40 493.14, 441.98 496.13, 442.52 498.29 C 443.05 500.45, 442.75 502.05, 443.39 504.17 C 444.03 506.30, 445.19 509.12, 446.36 511.03 C 447.53 512.93, 448.48 513.04, 450.42 515.61 C 452.35 518.19, 455.71 522.87, 457.97 526.45 C 460.24 530.03, 462.38 533.27, 463.98 537.12 C 465.58 540.97, 466.31 545.57, 467.56 549.57 C 468.81 553.56, 469.99 557.75, 471.47 561.11 C 472.95 564.46, 474.82 566.66, 476.43 569.70 C 478.04 572.73, 479.35 576.48, 481.12 579.31 C 482.89 582.14, 485.21 584.39, 487.05 586.67 C 488.90 588.96, 490.55 590.97, 492.18 593.03 C 493.81 595.10, 495.38 596.87, 496.86 599.07 C 498.33 601.28, 499.46 604.06, 501.03 606.26 C 502.61 608.47, 504.50 609.95, 506.31 612.32 C 508.11 614.68, 510.31 617.87, 511.87 620.46 C 513.42 623.05, 513.52 626.24, 515.64 627.84 C 517.77 629.44, 521.53 628.44, 524.63 630.05 C 527.72 631.65, 531.10 635.38, 534.20 637.48 C 537.30 639.59, 540.14 640.75, 543.22 642.68 C 546.30 644.60, 551.14 645.90, 552.65 649.03 C 554.16 652.16, 554.01 658.20, 552.26 661.44 C 550.50 664.69, 545.07 666.98, 542.11 668.51 C 539.15 670.04, 536.94 669.90, 534.48 670.65 C 532.03 671.40, 528.95 674.61, 527.38 673.01 C 525.80 671.42, 526.69 664.79, 525.06 661.07 C 523.42 657.35, 520.13 652.36, 517.58 650.69 C 515.02 649.02, 512.83 649.64, 509.71 651.06 C 506.60 652.48, 500.89 655.43, 498.88 659.21 C 496.86 662.98, 499.25 672.20, 497.61 673.71 C 495.96 675.21, 490.63 672.11, 489.01 668.23 C 487.38 664.35, 487.47 654.90, 487.83 650.41 C 488.19 645.93, 489.96 644.15, 491.17 641.31 C 492.39 638.47, 495.52 635.86, 495.12 633.35 C 494.72 630.84, 490.36 628.54, 488.76 626.25 C 487.17 623.95, 486.88 621.82, 485.58 619.59 C 484.27 617.36, 482.48 615.22, 480.93 612.86 C 479.38 610.50, 477.56 607.87, 476.25 605.43 C 474.94 602.99, 474.29 600.73, 473.07 598.21 C 471.85 595.69, 470.33 592.89, 468.95 590.30 C 467.56 587.71, 466.07 585.51, 464.77 582.66 C 463.47 579.81, 462.33 576.18, 461.15 573.20 C 459.97 570.22, 458.64 567.69, 457.69 564.79 C 456.74 561.88, 456.27 558.61, 455.46 555.78 C 454.66 552.94, 453.70 550.40, 452.87 547.78 C 452.04 545.16, 451.63 542.87, 450.48 540.06 C 449.33 537.26, 447.53 533.20, 445.99 530.95 C 444.46 528.71, 442.80 526.31, 441.27 526.61 C 439.74 526.92, 437.80 530.20, 436.81 532.80 C 435.83 535.40, 435.22 538.98, 435.36 542.20 C 435.49 545.41, 436.84 549.10, 437.62 552.09 C 438.41 555.08, 439.43 557.17, 440.07 560.14 C 440.71 563.11, 440.61 566.90, 441.48 569.90 C 442.35 572.90, 444.14 575.31, 445.30 578.15 C 446.46 581.00, 447.35 584.11, 448.42 586.98 C 449.50 589.85, 450.54 592.35, 451.74 595.38 C 452.94 598.40, 454.50 602.03, 455.64 605.12 C 456.79 608.21, 457.60 610.90, 458.61 613.91 C 459.63 616.92, 460.53 620.28, 461.74 623.20 C 462.95 626.12, 465.00 628.83, 465.85 631.41 C 466.70 634.00, 466.60 635.89, 466.84 638.71 C 467.07 641.54, 467.42 645.28, 467.25 648.36 C 467.09 651.44, 466.38 654.05, 465.85 657.19 C 465.31 660.33, 463.91 663.74, 464.04 667.19 C 464.16 670.65, 466.39 674.28, 466.59 677.93 C 466.80 681.58, 467.43 686.35, 465.25 689.11 C 463.08 691.87, 457.21 692.54, 453.55 694.51 C 449.89 696.47, 447.14 699.19, 443.29 700.88 C 439.45 702.57, 434.99 703.63, 430.50 704.65 C 426.01 705.66, 419.50 708.56, 416.37 707.00 C 413.23 705.43, 411.68 699.13, 411.69 695.26 C 411.70 691.40, 413.93 686.50, 416.44 683.80 C 418.94 681.10, 423.05 680.27, 426.71 679.07 C 430.36 677.87, 436.02 678.55, 438.35 676.63 C 440.69 674.70, 439.94 670.56, 440.71 667.52 C 441.47 664.49, 442.24 661.52, 442.95 658.40 C 443.65 655.27, 444.50 651.78, 444.93 648.77 C 445.35 645.77, 445.73 643.25, 445.48 640.38 C 445.23 637.52, 443.85 634.24, 443.42 631.58 C 442.98 628.92, 443.48 627.33, 442.87 624.42 C 442.26 621.51, 440.60 617.58, 439.74 614.09 C 438.89 610.61, 438.62 606.91, 437.75 603.50 C 436.89 600.09, 435.69 597.46, 434.56 593.64 C 433.44 589.82, 432.17 584.62, 431.01 580.60 C 429.85 576.58, 428.80 573.32, 427.61 569.52 C 426.42 565.72, 424.74 561.36, 423.88 557.81 C 423.02 554.26, 422.91 551.45, 422.45 548.22 C 422.00 545.00, 421.17 541.56, 421.13 538.44 C 421.09 535.32, 421.73 532.31, 422.22 529.51 C 422.71 526.71, 423.59 523.86, 424.07 521.64 C 424.55 519.42, 424.84 517.95, 425.10 516.20 C 425.37 514.45, 425.69 513.10, 425.64 511.14 C 425.59 509.18, 425.36 506.44, 424.79 504.42 C 424.22 502.40, 423.29 501.10, 422.24 499.02 C 421.20 496.93, 419.97 494.09, 418.54 491.92 C 417.11 489.76, 415.40 487.61, 413.67 486.02 C 411.93 484.44, 409.72 482.02, 408.16 482.43 C 406.59 482.84, 405.12 485.99, 404.25 488.48 C 403.38 490.96, 403.07 494.62, 402.91 497.34 C 402.76 500.06, 403.12 502.55, 403.33 504.82 C 403.54 507.10, 404.00 508.87, 404.17 510.98 C 404.34 513.09, 404.21 515.28, 404.36 517.47 C 404.51 519.67, 404.88 521.87, 405.05 524.17 C 405.23 526.47, 404.93 528.45, 405.41 531.27 C 405.89 534.09, 407.39 537.78, 407.95 541.09 C 408.52 544.40, 407.98 547.30, 408.81 551.15 C 409.64 554.99, 411.71 559.97, 412.92 564.16 C 414.12 568.35, 415.14 572.41, 416.02 576.28 C 416.90 580.15, 417.47 583.83, 418.19 587.38 C 418.91 590.94, 419.65 594.15, 420.35 597.61 C 421.04 601.08, 421.87 604.65, 422.37 608.16 C 422.88 611.67, 423.24 615.15, 423.38 618.66 C 423.52 622.17, 423.38 625.82, 423.21 629.25 C 423.03 632.67, 422.50 636.47, 422.31 639.22 C 422.13 641.97, 422.79 643.19, 422.09 645.77 C 421.38 648.34, 419.61 651.93, 418.07 654.67 C 416.52 657.41, 415.36 660.80, 412.84 662.22 C 410.32 663.64, 406.10 664.36, 402.95 663.18 C 399.79 662.01, 395.73 657.99, 393.88 655.17 C 392.03 652.35, 391.09 648.65, 391.84 646.27 C 392.59 643.88, 396.50 643.08, 398.37 640.87 C 400.25 638.66, 401.94 635.71, 403.11 633.01 C 404.27 630.30, 404.51 627.56, 405.37 624.62 C 406.23 621.68, 407.91 618.95, 408.26 615.38 C 408.62 611.80, 407.97 607.59, 407.52 603.16 C 407.07 598.73, 406.31 593.15, 405.56 588.79 C 404.81 584.43, 403.93 580.70, 403.03 577.00 C 402.14 573.31, 401.13 569.49, 400.19 566.64 C 399.25 563.80, 398.21 562.90, 397.41 559.94 C 396.61 556.98, 396.06 552.36, 395.39 548.89 C 394.73 545.42, 394.27 542.21, 393.40 539.10 C 392.53 535.98, 390.88 533.32, 390.19 530.20 C 389.49 527.07, 389.60 523.67, 389.22 520.33 C 388.84 516.98, 388.00 513.62, 387.91 510.11 C 387.81 506.60, 388.69 502.39, 388.64 499.27 C 388.59 496.14, 387.42 494.23, 387.60 491.35 C 387.79 488.47, 388.73 484.62, 389.75 482.01 C 390.78 479.40, 392.89 477.72, 393.73 475.68 C 394.58 473.64, 394.45 471.81, 394.81 469.79 C 395.17 467.76, 395.76 465.63, 395.90 463.51 C 396.03 461.39, 396.00 459.31, 395.59 457.09 C 395.18 454.86, 393.78 452.77, 393.44 450.17 C 393.11 447.56, 393.78 444.76, 393.59 441.45 C 393.41 438.15, 393.06 433.40, 392.34 430.34 C 391.62 427.27, 390.65 423.71, 389.29 423.08 C 387.93 422.44, 385.86 424.88, 384.18 426.54 C 382.49 428.19, 380.66 430.92, 379.18 433.00 C 377.71 435.08, 375.75 436.96, 375.36 439.03 C 374.97 441.10, 376.68 443.01, 376.84 445.41 C 377.00 447.81, 376.23 450.92, 376.32 453.43 C 376.41 455.95, 377.66 458.07, 377.39 460.48 C 377.12 462.90, 375.53 465.54, 374.69 467.91 C 373.85 470.28, 372.91 472.58, 372.38 474.72 C 371.85 476.85, 371.49 478.73, 371.51 480.74 C 371.53 482.75, 372.06 483.99, 372.49 486.77 C 372.92 489.54, 373.50 493.97, 374.09 497.39 C 374.67 500.81, 375.74 503.63, 375.99 507.26 C 376.25 510.90, 375.51 515.21, 375.62 519.21 C 375.73 523.21, 376.38 527.43, 376.66 531.27 C 376.94 535.10, 377.14 539.38, 377.29 542.21 C 377.44 545.04, 377.22 546.04, 377.57 548.24 C 377.92 550.44, 378.49 553.18, 379.39 555.41 C 380.30 557.64, 381.60 558.53, 383.02 561.63 C 384.44 564.73, 386.39 570.09, 387.90 573.99 C 389.42 577.90, 391.27 581.50, 392.12 585.06 C 392.97 588.62, 393.08 592.32, 393.01 595.35 C 392.94 598.37, 392.09 600.38, 391.72 603.20 C 391.36 606.02, 391.93 609.04, 390.82 612.28 C 389.71 615.52, 386.64 619.66, 385.08 622.61 C 383.52 625.57, 382.58 629.98, 381.47 629.99 C 380.36 630.00, 379.70 625.47, 378.41 622.69 C 377.12 619.92, 374.59 616.26, 373.73 613.34 C 372.87 610.42, 373.40 607.71, 373.23 605.16 C 373.06 602.62, 372.24 600.24, 372.72 598.07 C 373.20 595.90, 375.49 594.44, 376.10 592.16 C 376.71 589.89, 376.87 586.87, 376.41 584.42 C 375.95 581.97, 374.29 579.83, 373.34 577.47 C 372.39 575.10, 372.25 571.95, 370.74 570.22 C 369.22 568.49, 366.11 566.30, 364.24 567.09 C 362.37 567.89, 360.69 571.92, 359.52 575.00 C 358.35 578.08, 357.92 582.41, 357.24 585.59 C 356.56 588.76, 355.77 591.14, 355.44 594.05 C 355.10 596.96, 355.22 600.01, 355.22 603.07 C 355.22 606.12, 355.26 609.31, 355.44 612.38 C 355.62 615.44, 355.67 618.34, 356.30 621.45 C 356.94 624.56, 358.36 628.07, 359.24 631.03 C 360.13 634.00, 360.42 636.69, 361.60 639.23 C 362.77 641.78, 364.92 643.89, 366.29 646.30 C 367.66 648.72, 369.62 650.61, 369.84 653.71 C 370.06 656.81, 366.62 662.07, 367.62 664.90 C 368.62 667.74, 373.10 668.96, 375.84 670.71 C 378.58 672.45, 381.66 673.31, 384.07 675.37 C 386.49 677.42, 389.96 679.69, 390.34 683.05 C 390.71 686.41, 388.69 692.31, 386.31 695.50 C 383.92 698.69, 379.33 702.44, 376.04 702.20 C 372.75 701.96, 369.42 697.20, 366.56 694.06 C 363.70 690.91, 361.82 684.22, 358.89 683.31 C 355.95 682.40, 351.59 686.30, 348.95 688.59 C 346.31 690.87, 345.89 694.37, 343.06 697.05 C 340.23 699.72, 335.38 704.26, 331.96 704.64 C 328.55 705.01, 324.53 702.22, 322.57 699.30 C 320.61 696.37, 320.09 690.72, 320.20 687.07 C 320.31 683.42, 321.33 679.70, 323.23 677.40 C 325.14 675.09, 328.79 674.80, 331.62 673.25 C 334.44 671.70, 337.57 670.22, 340.21 668.08 C 342.84 665.95, 347.11 662.93, 347.44 660.45 C 347.77 657.96, 343.51 655.73, 342.20 653.18 C 340.90 650.63, 340.12 647.99, 339.61 645.14 C 339.09 642.29, 339.36 639.11, 339.11 636.09 C 338.86 633.07, 337.99 629.77, 338.08 627.02 C 338.18 624.28, 339.51 622.53, 339.67 619.63 C 339.84 616.72, 338.98 613.24, 339.08 609.56 C 339.18 605.89, 339.47 601.57, 340.27 597.58 C 341.07 593.60, 343.03 589.36, 343.86 585.67 C 344.70 581.97, 344.17 578.97, 345.27 575.44 C 346.36 571.91, 348.71 567.86, 350.42 564.50 C 352.14 561.13, 354.02 557.67, 355.56 555.23 C 357.09 552.78, 358.79 551.77, 359.62 549.82 C 360.45 547.87, 360.18 546.02, 360.54 543.52 C 360.91 541.02, 361.50 537.41, 361.79 534.80 C 362.09 532.19, 362.16 530.45, 362.34 527.86 C 362.52 525.27, 362.97 522.07, 362.85 519.26 C 362.74 516.44, 361.92 513.63, 361.64 510.97 C 361.35 508.31, 361.39 505.92, 361.15 503.29 C 360.92 500.66, 361.08 497.57, 360.21 495.20 C 359.35 492.84, 357.84 490.45, 355.94 489.10 C 354.05 487.75, 351.18 487.01, 348.85 487.09 C 346.53 487.17, 343.54 488.54, 341.97 489.60 C 340.40 490.65, 339.62 491.72, 339.44 493.42 C 339.26 495.11, 339.96 497.21, 340.89 499.79 C 341.81 502.36, 343.87 505.96, 345.00 508.88 C 346.13 511.81, 347.28 514.16, 347.65 517.32 C 348.03 520.49, 347.76 524.16, 347.26 527.89 C 346.77 531.62, 345.85 536.36, 344.69 539.71 C 343.53 543.05, 341.48 545.33, 340.31 547.96 C 339.15 550.59, 338.55 552.97, 337.71 555.47 C 336.87 557.97, 336.30 559.69, 335.25 562.96 C 334.21 566.23, 332.52 571.23, 331.46 575.07 C 330.39 578.90, 329.84 582.51, 328.87 585.96 C 327.91 589.40, 326.71 592.66, 325.69 595.76 C 324.67 598.85, 323.69 601.52, 322.76 604.53 C 321.84 607.54, 320.87 611.01, 320.14 613.82 C 319.40 616.64, 318.98 618.94, 318.35 621.44 C 317.71 623.93, 316.76 626.14, 316.33 628.80 C 315.90 631.46, 315.66 634.57, 315.76 637.39 C 315.86 640.22, 316.84 643.05, 316.92 645.75 C 317.00 648.45, 317.55 651.25, 316.25 653.58 C 314.95 655.92, 311.76 658.72, 309.11 659.77 C 306.46 660.81, 303.26 660.88, 300.34 659.86 C 297.41 658.84, 293.28 655.96, 291.56 653.67 C 289.84 651.38, 289.79 648.74, 290.01 646.13 C 290.23 643.51, 292.09 640.64, 292.87 638.00 C 293.64 635.37, 294.40 632.87, 294.66 630.32 C 294.92 627.76, 293.90 624.88, 294.44 622.68 C 294.98 620.49, 297.02 619.36, 297.89 617.16 C 298.76 614.95, 298.66 611.86, 299.67 609.45 C 300.67 607.03, 302.70 605.10, 303.90 602.68 C 305.11 600.27, 305.94 597.47, 306.89 594.95 C 307.84 592.43, 308.69 589.85, 309.61 587.58 C 310.53 585.31, 311.45 583.66, 312.40 581.36 C 313.34 579.05, 314.18 576.08, 315.28 573.74 C 316.38 571.40, 318.19 569.63, 319.00 567.32 C 319.81 565.01, 320.59 562.05, 320.15 559.87 C 319.71 557.69, 319.28 553.65, 316.36 554.24 C 313.45 554.83, 306.07 560.15, 302.66 563.42 C 299.26 566.70, 297.76 570.89, 295.93 573.88 C 294.10 576.87, 293.00 578.85, 291.68 581.38 C 290.36 583.91, 289.37 586.41, 288.02 589.06 C 286.67 591.72, 285.07 594.79, 283.59 597.33 C 282.11 599.87, 280.60 601.91, 279.15 604.29 C 277.69 606.67, 276.15 609.16, 274.85 611.61 C 273.56 614.06, 272.24 616.38, 271.40 618.98 C 270.55 621.58, 270.35 624.47, 269.79 627.22 C 269.23 629.97, 268.57 632.59, 268.04 635.48 C 267.50 638.37, 266.77 641.24, 266.58 644.54 C 266.39 647.84, 267.02 651.67, 266.90 655.27 C 266.79 658.86, 264.26 663.36, 265.88 666.08 C 267.51 668.81, 273.43 669.64, 276.67 671.61 C 279.90 673.58, 282.02 676.22, 285.28 677.89 C 288.55 679.56, 294.09 679.16, 296.23 681.64 C 298.38 684.13, 297.73 689.01, 298.16 692.80 C 298.59 696.59, 299.51 700.17, 298.82 704.40 C 298.13 708.63, 296.63 716.40, 294.02 718.19 C 291.41 719.99, 286.71 715.78, 283.15 715.18 C 279.59 714.57, 274.93 716.77, 272.66 714.55 C 270.39 712.34, 271.25 705.42, 269.55 701.88 C 267.86 698.35, 264.83 695.86, 262.49 693.35 C 260.16 690.84, 258.30 686.83, 255.54 686.82 C 252.77 686.82, 249.65 692.17, 245.90 693.32 C 242.15 694.47, 234.90 695.47, 233.05 693.72 C 231.20 691.97, 234.41 686.33, 234.80 682.81 C 235.19 679.30, 234.62 676.08, 235.40 672.63 C 236.18 669.18, 238.61 665.54, 239.46 662.13 C 240.30 658.71, 239.96 655.47, 240.49 652.14 C 241.03 648.81, 242.05 645.51, 242.67 642.16 C 243.28 638.81, 243.57 635.21, 244.19 632.04 C 244.81 628.87, 245.79 626.44, 246.39 623.14 C 246.98 619.83, 246.82 614.89, 247.75 612.19 C 248.67 609.49, 250.63 609.16, 251.93 606.92 C 253.23 604.69, 253.79 601.47, 255.52 598.80 C 257.25 596.13, 260.29 593.29, 262.29 590.89 C 264.28 588.48, 265.78 586.69, 267.47 584.39 C 269.16 582.09, 270.43 579.67, 272.43 577.08 C 274.43 574.49, 277.13 571.79, 279.46 568.83 C 281.80 565.87, 284.15 562.15, 286.44 559.32 C 288.73 556.48, 290.60 553.38, 293.21 551.83 C 295.82 550.28, 296.97 551.39, 302.10 550.02 C 307.23 548.65, 319.46 545.59, 323.98 543.62 C 328.50 541.65, 327.80 539.93, 329.24 538.19 C 330.67 536.46, 331.69 535.63, 332.58 533.21 C 333.47 530.79, 334.46 526.81, 334.57 523.67 C 334.68 520.53, 334.28 516.78, 333.23 514.37 C 332.18 511.96, 330.21 509.65, 328.29 509.23 C 326.37 508.81, 323.01 510.42, 321.71 511.84 C 320.42 513.27, 321.27 515.27, 320.50 517.76 C 319.73 520.25, 318.49 524.41, 317.10 526.80 C 315.70 529.19, 313.83 530.51, 312.14 532.08 C 310.44 533.66, 308.49 536.52, 306.94 536.22 C 305.40 535.92, 304.48 530.90, 302.89 530.29 C 301.29 529.69, 297.36 534.30, 297.35 532.60 C 297.33 530.90, 301.18 523.69, 302.80 520.11 C 304.42 516.53, 305.58 514.49, 307.08 511.11 C 308.57 507.73, 313.27 501.28, 311.79 499.84 C 310.31 498.39, 301.41 500.55, 298.18 502.44 C 294.95 504.33, 294.37 508.31, 292.43 511.17 C 290.48 514.03, 288.11 516.78, 286.51 519.61 C 284.92 522.45, 283.65 525.54, 282.85 528.19 C 282.05 530.85, 282.49 533.20, 281.72 535.54 C 280.95 537.87, 279.61 540.22, 278.21 542.20 C 276.82 544.18, 274.81 545.41, 273.36 547.41 C 271.92 549.41, 271.04 552.07, 269.53 554.20 C 268.02 556.33, 266.33 558.24, 264.31 560.18 C 262.28 562.12, 259.39 563.95, 257.40 565.85 C 255.41 567.74, 254.20 569.56, 252.36 571.55 C 250.51 573.54, 248.26 575.70, 246.33 577.77 C 244.40 579.83, 242.69 582.05, 240.78 583.96 C 238.87 585.86, 237.11 587.58, 234.85 589.21 C 232.60 590.83, 229.12 591.96, 227.27 593.73 C 225.41 595.50, 224.07 597.40, 223.73 599.80 C 223.39 602.21, 225.09 605.24, 225.22 608.16 C 225.35 611.08, 224.87 614.31, 224.50 617.34 C 224.14 620.36, 223.61 623.38, 223.04 626.29 C 222.48 629.19, 222.13 631.64, 221.11 634.77 C 220.09 637.90, 218.19 641.97, 216.94 645.06 C 215.68 648.16, 213.95 650.27, 213.60 653.32 C 213.25 656.36, 214.97 659.26, 214.85 663.35 C 214.73 667.44, 215.22 675.44, 212.87 677.87 C 210.52 680.29, 204.49 678.96, 200.74 677.92 C 196.99 676.88, 193.44 672.59, 190.37 671.65 C 187.29 670.71, 185.21 672.37, 182.28 672.28 C 179.35 672.19, 174.98 673.34, 172.80 671.10 C 170.62 668.85, 168.61 662.19, 169.22 658.82 C 169.83 655.45, 174.32 653.19, 176.47 650.88 C 178.61 648.58, 179.61 646.39, 182.10 644.98 C 184.59 643.57, 189.26 644.69, 191.40 642.43 C 193.53 640.16, 193.74 634.56, 194.92 631.40 C 196.09 628.24, 197.36 626.52, 198.45 623.47 C 199.53 620.41, 200.89 616.61, 201.44 613.06 C 202.00 609.52, 203.00 604.74, 201.78 602.20 C 200.57 599.65, 196.98 598.48, 194.14 597.78 C 191.31 597.08, 187.20 596.14, 184.77 598.00 C 182.35 599.85, 180.98 605.35, 179.60 608.92 C 178.22 612.50, 178.09 616.30, 176.49 619.44 C 174.88 622.58, 172.59 625.19, 169.98 627.77 C 167.36 630.34, 164.01 631.94, 160.80 634.90 C 157.60 637.86, 154.55 644.32, 150.73 645.53 C 146.91 646.75, 140.70 644.90, 137.89 642.19 C 135.08 639.47, 133.36 632.70, 133.88 629.25 C 134.40 625.81, 138.91 623.72, 141.00 621.52 C 143.09 619.32, 144.11 617.92, 146.42 616.05 C 148.74 614.18, 152.51 612.69, 154.88 610.32 C 157.25 607.94, 158.82 605.09, 160.65 601.79 C 162.47 598.50, 165.84 593.37, 165.84 590.56 C 165.85 587.74, 163.02 586.57, 160.66 584.92 C 158.30 583.26, 154.70 579.85, 151.66 580.63 C 148.63 581.41, 145.36 587.17, 142.45 589.58 C 139.53 591.99, 136.40 593.04, 134.15 595.08 C 131.90 597.13, 131.01 599.22, 128.94 601.84 C 126.87 604.46, 124.59 607.69, 121.74 610.80 C 118.89 613.91, 114.65 620.52, 111.86 620.50 C 109.07 620.48, 106.83 614.30, 104.99 610.70 C 103.16 607.10, 101.76 602.86, 100.87 598.90 C 99.99 594.95, 98.76 590.64, 99.69 586.96 C 100.62 583.28, 103.19 578.50, 106.45 576.80 C 109.71 575.11, 115.30 577.62, 119.25 576.79 C 123.19 575.95, 127.06 573.92, 130.14 571.81 C 133.21 569.70, 137.69 566.75, 137.71 564.13 C 137.74 561.51, 133.58 557.74, 130.27 556.07 C 126.96 554.41, 122.36 554.21, 117.86 554.14 C 113.35 554.07, 105.95 557.66, 103.22 555.64 C 100.50 553.62, 100.63 546.23, 101.51 542.01 C 102.40 537.78, 105.35 532.36, 108.54 530.28 C 111.72 528.20, 116.38 529.24, 120.61 529.53 C 124.83 529.82, 130.27 531.10, 133.89 532.04 C 137.51 532.98, 139.47 533.39, 142.33 535.17 C 145.18 536.95, 148.92 539.92, 151.00 542.70 C 153.09 545.49, 152.93 548.96, 154.84 551.87 C 156.76 554.78, 159.78 557.90, 162.49 560.16 C 165.21 562.43, 168.14 563.48, 171.11 565.47 C 174.09 567.46, 177.54 570.75, 180.36 572.12 C 183.17 573.50, 185.16 573.16, 188.03 573.73 C 190.89 574.30, 194.48 574.65, 197.56 575.54 C 200.65 576.43, 204.03 579.41, 206.56 579.07 C 209.08 578.74, 210.47 574.95, 212.72 573.54 C 214.97 572.12, 217.73 571.94, 220.04 570.57 C 222.36 569.21, 224.49 567.01, 226.59 565.37 C 228.68 563.73, 230.44 562.42, 232.60 560.73 C 234.77 559.05, 237.52 557.31, 239.57 555.27 C 241.62 553.22, 243.12 550.32, 244.90 548.44 C 246.68 546.56, 248.51 545.57, 250.23 544.00 C 251.94 542.42, 253.74 540.82, 255.16 539.00 C 256.59 537.18, 257.47 535.11, 258.79 533.07 C 260.12 531.04, 261.61 528.93, 263.11 526.80 C 264.62 524.66, 266.04 522.80, 267.83 520.25 C 269.62 517.71, 271.88 514.17, 273.85 511.53 C 275.81 508.89, 277.51 506.92, 279.61 504.41 C 281.70 501.89, 283.89 498.81, 286.41 496.43 C 288.93 494.06, 290.04 490.76, 294.74 490.17 C 299.43 489.57, 309.68 492.62, 314.58 492.86 C 319.47 493.11, 323.36 492.47, 324.11 491.64 C 324.85 490.81, 322.25 489.33, 319.05 487.90 C 315.86 486.48, 305.51 485.14, 304.95 483.09 C 304.39 481.03, 313.04 477.74, 315.69 475.56 C 318.34 473.37, 319.16 470.59, 320.86 470.00 C 322.56 469.42, 324.25 472.15, 325.88 472.04 C 327.51 471.94, 328.72 469.80, 330.65 469.37 C 332.59 468.94, 335.42 469.33, 337.48 469.48 C 339.54 469.64, 340.98 470.28, 343.01 470.31 C 345.04 470.34, 347.54 469.86, 349.68 469.66 C 351.82 469.45, 354.50 470.14, 355.86 469.07 C 357.22 468.01, 357.08 465.27, 357.83 463.28 C 358.58 461.28, 359.96 459.47, 360.37 457.11 C 360.77 454.75, 360.60 451.53, 360.25 449.11 C 359.89 446.69, 359.62 443.59, 358.26 442.61 C 356.90 441.63, 354.23 442.88, 352.08 443.22 C 349.93 443.55, 347.44 443.78, 345.37 444.62 C 343.30 445.46, 341.34 447.73, 339.65 448.27 C 337.95 448.80, 336.76 447.48, 335.20 447.84 C 333.64 448.21, 332.18 450.32, 330.29 450.48 C 328.41 450.64, 326.15 449.05, 323.89 448.81 C 321.62 448.56, 318.94 448.89, 316.72 449.01 C 314.49 449.13, 312.40 449.08, 310.56 449.52 C 308.72 449.97, 306.73 450.22, 305.67 451.67 C 304.61 453.12, 304.87 456.13, 304.20 458.20 C 303.53 460.26, 302.95 462.37, 301.64 464.05 C 300.34 465.74, 298.18 466.91, 296.38 468.30 C 294.57 469.69, 292.59 471.18, 290.83 472.40 C 289.06 473.62, 287.20 474.18, 285.78 475.62 C 284.37 477.06, 283.85 478.99, 282.33 481.04 C 280.81 483.09, 278.97 485.15, 276.65 487.91 C 274.34 490.67, 271.14 494.29, 268.44 497.60 C 265.74 500.92, 263.21 504.79, 260.45 507.79 C 257.69 510.78, 254.38 513.41, 251.89 515.55 C 249.40 517.69, 247.45 518.87, 245.51 520.65 C 243.57 522.42, 242.17 524.44, 240.26 526.18 C 238.35 527.93, 235.97 529.51, 234.06 531.13 C 232.15 532.75, 230.52 534.20, 228.81 535.88 C 227.09 537.55, 225.82 539.65, 223.77 541.19 C 221.72 542.72, 218.65 543.80, 216.52 545.08 C 214.38 546.36, 213.03 547.65, 210.96 548.87 C 208.89 550.08, 206.45 551.66, 204.09 552.37 C 201.73 553.07, 199.24 553.62, 196.79 553.12 C 194.34 552.61, 192.06 550.23, 189.39 549.32 C 186.71 548.41, 183.27 548.71, 180.73 547.65 C 178.19 546.59, 176.08 545.43, 174.15 542.94 C 172.22 540.46, 171.05 535.95, 169.17 532.75 C 167.30 529.55, 163.15 526.08, 162.91 523.76 C 162.66 521.44, 165.23 519.33, 167.69 518.83 C 170.15 518.34, 174.58 519.65, 177.64 520.79 C 180.70 521.93, 183.51 524.48, 186.03 525.69 C 188.56 526.91, 190.44 527.40, 192.79 528.07 C 195.15 528.74, 197.93 529.79, 200.16 529.69 C 202.39 529.59, 204.01 528.49, 206.16 527.48 C 208.31 526.46, 211.10 525.08, 213.05 523.59 C 215.00 522.09, 216.20 519.95, 217.86 518.50 C 219.53 517.04, 221.28 516.46, 223.06 514.87 C 224.84 513.28, 226.86 510.47, 228.54 508.95 C 230.23 507.43, 231.21 506.96, 233.17 505.75 C 235.12 504.54, 238.10 502.72, 240.25 501.70 C 242.39 500.68, 244.31 500.62, 246.05 499.64 C 247.78 498.67, 248.86 497.26, 250.66 495.85 C 252.45 494.43, 254.98 493.01, 256.81 491.15 C 258.64 489.29, 260.07 486.89, 261.66 484.69 C 263.25 482.48, 265.67 479.97, 266.34 477.94 C 267.01 475.92, 267.29 473.56, 265.66 472.53 C 264.02 471.50, 259.28 471.46, 256.53 471.77 C 253.77 472.08, 251.55 473.51, 249.15 474.37 C 246.75 475.23, 244.12 475.88, 242.14 476.92 C 240.17 477.96, 239.13 479.63, 237.29 480.62 C 235.46 481.62, 233.01 481.84, 231.16 482.87 C 229.31 483.91, 228.04 485.68, 226.22 486.82 C 224.39 487.96, 222.15 488.64, 220.23 489.69 C 218.31 490.73, 216.49 491.79, 214.68 493.10 C 212.87 494.40, 210.99 495.91, 209.38 497.51 C 207.77 499.12, 206.81 501.35, 205.01 502.73 C 203.22 504.10, 200.84 505.08, 198.59 505.78 C 196.34 506.47, 194.22 507.30, 191.52 506.88 C 188.82 506.47, 184.84 504.65, 182.40 503.29 C 179.96 501.93, 176.94 500.50, 176.88 498.72 C 176.83 496.94, 180.32 494.69, 182.07 492.61 C 183.83 490.52, 185.55 488.00, 187.41 486.20 C 189.27 484.40, 191.26 482.79, 193.23 481.80 C 195.21 480.81, 197.25 481.47, 199.25 480.27 C 201.26 479.07, 203.13 475.98, 205.28 474.60 C 207.43 473.23, 210.16 473.10, 212.15 472.01 C 214.14 470.93, 215.24 469.19, 217.22 468.10 C 219.21 467.00, 221.79 466.46, 224.06 465.45 C 226.33 464.43, 228.45 463.01, 230.86 462.00 C 233.26 460.99, 235.84 460.18, 238.50 459.38 C 241.15 458.58, 244.11 457.72, 246.78 457.18 C 249.45 456.64, 251.83 456.13, 254.51 456.12 C 257.20 456.11, 260.17 456.86, 262.87 457.12 C 265.57 457.39, 268.37 457.30, 270.72 457.72 C 273.07 458.15, 274.96 460.23, 276.98 459.67 C 279.01 459.11, 281.09 455.94, 282.88 454.36 C 284.67 452.77, 286.80 451.94, 287.71 450.16 C 288.63 448.39, 289.53 445.28, 288.37 443.69 C 287.21 442.09, 283.72 441.39, 280.76 440.59 C 277.79 439.80, 273.50 438.96, 270.56 438.93 C 267.61 438.90, 265.75 440.00, 263.10 440.39 C 260.46 440.78, 257.90 440.84, 254.69 441.28 C 251.48 441.71, 247.60 442.39, 243.83 443.02 C 240.06 443.65, 236.16 443.98, 232.07 445.05 C 227.98 446.12, 223.05 448.17, 219.28 449.44 C 215.52 450.71, 212.59 451.50, 209.47 452.68 C 206.34 453.87, 203.54 455.13, 200.53 456.57 C 197.53 458.00, 194.19 459.76, 191.44 461.28 C 188.69 462.79, 186.57 464.16, 184.03 465.65 C 181.50 467.14, 178.92 468.38, 176.22 470.22 C 173.52 472.05, 170.05 474.54, 167.82 476.65 C 165.60 478.76, 164.40 480.40, 162.86 482.88 C 161.32 485.35, 159.74 488.69, 158.59 491.51 C 157.43 494.33, 157.16 497.19, 155.93 499.78 C 154.69 502.37, 153.25 505.10, 151.19 507.06 C 149.12 509.02, 146.36 510.87, 143.52 511.52 C 140.67 512.18, 136.45 512.38, 134.11 510.99 C 131.78 509.60, 129.76 506.36, 129.49 503.16 C 129.21 499.97, 131.26 494.74, 132.44 491.80 C 133.62 488.87, 134.74 487.78, 136.56 485.56 C 138.39 483.33, 141.49 481.08, 143.39 478.46 C 145.29 475.85, 146.34 472.59, 147.98 469.87 C 149.62 467.14, 151.31 464.09, 153.23 462.09 C 155.15 460.10, 157.18 459.34, 159.48 457.92 C 161.78 456.50, 164.63 455.02, 167.03 453.56 C 169.44 452.10, 171.53 450.31, 173.92 449.18 C 176.30 448.05, 178.64 447.61, 181.35 446.78 C 184.07 445.95, 186.89 445.01, 190.19 444.19 C 193.49 443.36, 197.71 442.75, 201.15 441.83 C 204.59 440.92, 207.25 439.69, 210.82 438.69 C 214.39 437.69, 218.95 436.73, 222.57 435.82 C 226.19 434.91, 229.13 434.09, 232.54 433.21 C 235.96 432.34, 239.21 431.32, 243.05 430.56 C 246.88 429.80, 251.17 429.20, 255.54 428.65 C 259.90 428.10, 265.04 427.72, 269.22 427.26 C 273.40 426.81, 277.18 425.94, 280.61 425.89 C 284.04 425.85, 287.29 426.34, 289.82 427.00 C 292.35 427.66, 293.72 429.20, 295.80 429.84 C 297.87 430.48, 300.14 430.54, 302.27 430.85 C 304.39 431.16, 306.36 431.83, 308.55 431.69 C 310.73 431.54, 313.04 430.23, 315.40 429.97 C 317.75 429.72, 320.48 430.36, 322.66 430.15 C 324.85 429.94, 326.42 429.07, 328.49 428.72 C 330.55 428.37, 332.74 428.32, 335.05 428.05 C 337.35 427.77, 339.96 427.70, 342.31 427.09 C 344.66 426.47, 346.86 424.81, 349.14 424.34 C 351.43 423.87, 353.83 424.00, 356.03 424.25 C 358.24 424.51, 360.60 426.45, 362.37 425.90 C 364.14 425.34, 365.09 422.52, 366.63 420.93 C 368.18 419.33, 369.93 418.08, 371.62 416.32 C 373.32 414.55, 376.57 412.50, 376.78 410.35 C 376.98 408.20, 374.22 405.53, 372.88 403.41 C 371.54 401.29, 370.58 398.58, 368.76 397.62 C 366.93 396.66, 363.97 396.91, 361.94 397.66 C 359.92 398.41, 358.51 401.04, 356.62 402.12 C 354.73 403.19, 352.60 403.23, 350.62 404.08 C 348.64 404.94, 346.90 406.29, 344.72 407.23 C 342.54 408.16, 339.95 409.19, 337.56 409.70 C 335.18 410.20, 332.84 410.19, 330.39 410.23 C 327.94 410.28, 325.25 409.84, 322.85 409.97 C 320.45 410.10, 318.11 411.04, 315.97 411.02 C 313.84 411.01, 312.08 410.21, 310.02 409.88 C 307.96 409.54, 305.72 409.20, 303.60 409.00 C 301.48 408.79, 299.39 408.69, 297.32 408.63 C 295.25 408.57, 293.12 408.31, 291.20 408.64 C 289.27 408.96, 288.25 409.90, 285.79 410.56 C 283.32 411.21, 279.93 411.73, 276.41 412.57 C 272.89 413.41, 268.30 414.95, 264.64 415.57 C 260.98 416.19, 258.00 416.36, 254.46 416.28 C 250.91 416.21, 246.44 415.14, 243.38 415.12 C 240.31 415.10, 238.46 415.81, 236.04 416.16 C 233.62 416.51, 231.41 416.76, 228.84 417.22 C 226.28 417.69, 223.35 418.41, 220.67 418.92 C 217.98 419.44, 215.22 419.52, 212.76 420.32 C 210.29 421.11, 208.35 422.91, 205.87 423.68 C 203.38 424.45, 200.24 424.52, 197.85 424.93 C 195.45 425.34, 193.87 425.53, 191.50 426.14 C 189.13 426.76, 187.76 427.98, 183.62 428.62 C 179.49 429.26, 170.71 428.85, 166.68 429.96 C 162.65 431.06, 162.05 433.74, 159.45 435.23 C 156.85 436.73, 153.88 438.22, 151.07 438.94 C 148.27 439.66, 144.70 438.11, 142.62 439.55 C 140.53 441.00, 140.04 444.80, 138.55 447.59 C 137.07 450.38, 135.65 453.39, 133.71 456.28 C 131.77 459.16, 129.35 462.08, 126.91 464.90 C 124.47 467.72, 121.61 470.51, 119.07 473.18 C 116.54 475.86, 113.31 477.47, 111.73 480.94 C 110.14 484.42, 110.26 489.79, 109.56 494.01 C 108.86 498.22, 109.70 502.78, 107.51 506.25 C 105.32 509.73, 100.45 513.68, 96.42 514.87 C 92.39 516.07, 86.49 515.65, 83.34 513.42 C 80.19 511.20, 77.27 505.36, 77.54 501.53 C 77.81 497.69, 82.81 494.27, 84.96 490.43 C 87.11 486.59, 91.22 481.11, 90.44 478.47 C 89.67 475.84, 83.61 475.15, 80.31 474.64 C 77.00 474.12, 73.68 474.72, 70.62 475.38 C 67.55 476.04, 65.21 478.73, 61.94 478.58 C 58.66 478.43, 54.35 476.79, 50.96 474.50 C 47.57 472.21, 43.92 468.64, 41.60 464.84 C 39.28 461.03, 38.02 456.21, 37.03 451.67 C 36.03 447.14, 33.53 439.08, 35.64 437.62 C 37.74 436.16, 45.38 441.18, 49.66 442.92 C 53.94 444.65, 57.74 446.78, 61.33 448.03 C 64.92 449.28, 68.08 449.80, 71.19 450.40 C 74.31 451.01, 77.02 451.51, 80.00 451.67 C 82.98 451.83, 85.87 450.81, 89.07 451.38 C 92.27 451.95, 96.36 454.45, 99.20 455.09 C 102.04 455.74, 103.58 456.46, 106.12 455.25 C 108.66 454.04, 111.92 450.87, 114.42 447.85 C 116.92 444.84, 120.83 439.90, 121.13 437.16 C 121.42 434.42, 118.58 432.89, 116.19 431.43 C 113.80 429.97, 109.89 428.93, 106.79 428.41 C 103.68 427.88, 100.38 428.25, 97.58 428.27 C 94.77 428.28, 92.64 428.40, 89.95 428.52 C 87.27 428.64, 84.72 428.99, 81.46 428.96 C 78.20 428.93, 73.61 428.77, 70.42 428.35 C 67.23 427.93, 65.49 427.44, 62.31 426.46 C 59.13 425.48, 54.19 424.04, 51.36 422.47 C 48.53 420.89, 47.37 418.91, 45.32 417.02 C 43.28 415.14, 38.24 412.80, 39.09 411.16 C 39.94 409.52, 46.15 408.12, 50.43 407.19 C 54.72 406.26, 60.81 405.87, 64.80 405.57 C 68.79 405.26, 71.34 405.44, 74.36 405.35 C 77.39 405.26, 80.08 405.38, 82.95 405.01 C 85.82 404.64, 88.89 403.79, 91.60 403.13 C 94.30 402.48, 96.42 401.04, 99.16 401.08 C 101.90 401.11, 105.30 402.15, 108.05 403.34 C 110.81 404.54, 112.83 407.22, 115.68 408.26 C 118.53 409.30, 122.26 408.70, 125.16 409.57 C 128.06 410.44, 130.71 412.28, 133.10 413.47 C 135.48 414.65, 137.21 416.17, 139.46 416.69 C 141.71 417.22, 143.78 416.42, 146.60 416.61 C 149.42 416.81, 152.11 417.36, 156.38 417.87 C 160.65 418.37, 169.23 420.35, 172.21 419.64 C 175.20 418.93, 172.85 415.00, 174.29 413.63 C 175.74 412.27, 179.75 412.98, 180.88 411.48 C 182.00 409.97, 183.80 406.45, 181.03 404.61 C 178.26 402.77, 168.80 401.51, 164.24 400.45 C 159.68 399.39, 156.01 399.52, 153.68 398.23 C 151.34 396.94, 149.71 394.37, 150.22 392.71 C 150.73 391.05, 153.64 389.11, 156.73 388.27 C 159.82 387.42, 164.99 387.14, 168.76 387.64 C 172.53 388.14, 175.36 389.13, 179.35 391.27 C 183.34 393.40, 189.63 398.24, 192.71 400.48 C 195.79 402.72, 196.20 404.58, 197.83 404.69 C 199.45 404.81, 200.59 401.43, 202.48 401.17 C 204.37 400.90, 206.98 402.99, 209.15 403.12 C 211.32 403.25, 213.37 402.64, 215.49 401.96 C 217.61 401.28, 219.73 399.78, 221.87 399.02 C 224.02 398.25, 226.21 397.70, 228.34 397.37 C 230.47 397.04, 232.54 397.34, 234.66 397.03 C 236.78 396.72, 239.10 395.39, 241.08 395.50 C 243.06 395.61, 244.54 396.88, 246.55 397.70 C 248.55 398.52, 251.02 399.88, 253.10 400.42 C 255.18 400.96, 256.73 400.94, 259.03 400.92 C 261.32 400.91, 264.40 400.73, 266.87 400.31 C 269.34 399.89, 271.70 399.29, 273.85 398.39 C 275.99 397.50, 279.73 396.70, 279.74 394.94 C 279.75 393.17, 276.15 389.64, 273.90 387.79 C 271.65 385.93, 268.67 385.05, 266.22 383.79 C 263.76 382.53, 261.30 381.07, 259.17 380.25 C 257.04 379.43, 255.55 379.51, 253.43 378.89 C 251.31 378.27, 248.58 376.97, 246.46 376.52 C 244.34 376.06, 244.02 375.62, 240.72 376.15 C 237.42 376.69, 230.77 378.50, 226.67 379.73 C 222.57 380.96, 219.40 383.08, 216.12 383.52 C 212.83 383.96, 209.87 382.60, 206.96 382.36 C 204.05 382.13, 201.23 382.56, 198.66 382.11 C 196.09 381.67, 194.23 380.66, 191.54 379.68 C 188.84 378.69, 185.60 377.45, 182.49 376.22 C 179.38 374.99, 176.17 373.19, 172.90 372.29 C 169.63 371.39, 165.88 371.28, 162.88 370.79 C 159.87 370.30, 157.20 370.11, 154.88 369.35 C 152.55 368.58, 151.74 367.46, 148.93 366.20 C 146.12 364.94, 141.83 362.78, 138.03 361.78 C 134.24 360.79, 127.60 359.46, 126.16 360.25 C 124.71 361.04, 128.02 363.29, 129.36 366.53 C 130.70 369.76, 133.56 375.95, 134.19 379.68 C 134.83 383.41, 134.74 387.36, 133.18 388.90 C 131.62 390.43, 128.04 389.59, 124.83 388.89 C 121.63 388.20, 116.70 386.97, 113.95 384.71 C 111.20 382.46, 110.41 376.76, 108.36 375.37 C 106.31 373.98, 104.58 376.04, 101.64 376.38 C 98.69 376.72, 93.94 377.07, 90.69 377.40 C 87.45 377.74, 84.69 377.41, 82.17 378.38 C 79.64 379.35, 78.62 381.93, 75.56 383.20 C 72.49 384.47, 67.29 385.31, 63.78 386.01 C 60.27 386.70, 57.81 387.26, 54.47 387.38 C 51.13 387.49, 45.39 389.03, 43.74 386.68 C 42.08 384.32, 42.89 376.87, 44.55 373.24 C 46.21 369.61, 51.46 367.84, 53.70 364.91 C 55.94 361.98, 55.18 357.54, 57.99 355.66 C 60.79 353.78, 66.55 354.64, 70.53 353.65 C 74.51 352.65, 78.00 349.99, 81.88 349.70 C 85.75 349.41, 90.13 352.15, 93.79 351.91 C 97.44 351.66, 101.26 350.51, 103.80 348.25 C 106.35 346.00, 106.39 340.16, 109.06 338.36 C 111.73 336.57, 116.30 337.89, 119.83 337.48 C 123.36 337.07, 126.87 336.18, 130.24 335.90 C 133.62 335.63, 137.30 334.71, 140.09 335.82 C 142.87 336.92, 144.23 340.82, 146.95 342.51 C 149.66 344.21, 153.38 344.88, 156.37 345.99 C 159.36 347.09, 162.13 347.96, 164.88 349.13 C 167.63 350.31, 170.13 352.11, 172.90 353.03 C 175.67 353.95, 178.73 353.66, 181.49 354.64 C 184.26 355.62, 186.82 357.61, 189.50 358.90 C 192.17 360.18, 194.86 361.26, 197.55 362.37 C 200.24 363.49, 202.28 364.21, 205.65 365.59 C 209.02 366.97, 213.64 370.43, 217.78 370.66 C 221.93 370.88, 229.47 368.85, 230.52 366.96 C 231.57 365.06, 226.35 361.22, 224.06 359.29 C 221.77 357.37, 219.43 356.97, 216.76 355.40 C 214.08 353.82, 211.12 351.67, 208.02 349.83 C 204.91 347.99, 201.49 346.02, 198.13 344.37 C 194.77 342.72, 190.99 341.66, 187.87 339.94 C 184.75 338.21, 182.28 335.41, 179.41 334.02 C 176.55 332.64, 173.44 332.86, 170.70 331.63 C 167.95 330.39, 165.60 328.40, 162.97 326.61 C 160.34 324.81, 157.22 322.73, 154.94 320.86 C 152.65 318.98, 151.08 317.78, 149.25 315.35 C 147.43 312.93, 146.27 308.65, 143.99 306.32 C 141.71 304.00, 138.42 300.71, 135.56 301.41 C 132.69 302.11, 129.66 308.22, 126.80 310.54 C 123.93 312.85, 122.18 314.45, 118.37 315.31 C 114.57 316.16, 106.54 317.84, 103.95 315.65 C 101.36 313.47, 101.68 306.33, 102.83 302.18 C 103.98 298.03, 107.76 293.83, 110.86 290.77 C 113.96 287.71, 118.04 286.45, 121.45 283.80 C 124.86 281.15, 127.95 275.75, 131.33 274.89 C 134.72 274.02, 138.37 277.75, 141.79 278.63 C 145.20 279.52, 148.80 279.41, 151.82 280.18 C 154.83 280.95, 157.98 281.26, 159.88 283.27 C 161.79 285.27, 162.20 289.43, 163.24 292.20 C 164.28 294.96, 164.87 297.36, 166.13 299.87 C 167.39 302.38, 168.82 304.95, 170.81 307.24 C 172.80 309.53, 175.78 311.62, 178.05 313.62 C 180.33 315.62, 181.67 317.13, 184.48 319.24 C 187.30 321.35, 191.83 323.99, 194.95 326.30 C 198.07 328.60, 200.22 331.11, 203.20 333.05 C 206.19 335.00, 209.48 336.35, 212.87 337.95 C 216.26 339.55, 219.89 340.48, 223.54 342.66 C 227.19 344.84, 231.57 348.77, 234.75 351.03 C 237.92 353.29, 240.35 354.91, 242.60 356.20 C 244.85 357.48, 246.04 357.75, 248.25 358.73 C 250.45 359.70, 253.11 360.94, 255.83 362.04 C 258.55 363.15, 261.79 363.97, 264.58 365.37 C 267.37 366.76, 269.74 368.82, 272.57 370.43 C 275.40 372.04, 278.91 373.08, 281.54 375.03 C 284.17 376.97, 286.25 380.33, 288.37 382.09 C 290.48 383.85, 292.64 384.42, 294.22 385.61 C 295.80 386.80, 296.20 388.71, 297.85 389.21 C 299.50 389.71, 302.07 388.58, 304.12 388.61 C 306.18 388.64, 308.23 389.15, 310.17 389.39 C 312.12 389.62, 313.92 389.75, 315.77 390.01 C 317.61 390.26, 319.28 390.54, 321.27 390.92 C 323.25 391.29, 325.70 392.17, 327.65 392.27 C 329.61 392.37, 330.87 391.85, 333.00 391.52 C 335.14 391.18, 338.24 390.90, 340.48 390.26 C 342.72 389.62, 345.32 389.13, 346.46 387.67 C 347.61 386.21, 347.64 383.56, 347.35 381.52 C 347.06 379.47, 345.89 377.47, 344.75 375.41 C 343.60 373.36, 342.28 370.25, 340.48 369.18 C 338.69 368.11, 336.09 368.72, 333.99 368.99 C 331.89 369.26, 330.04 370.44, 327.89 370.80 C 325.75 371.15, 323.12 371.57, 321.14 371.10 C 319.17 370.62, 317.83 368.58, 316.05 367.93 C 314.27 367.28, 312.25 367.76, 310.46 367.20 C 308.68 366.63, 307.16 364.68, 305.35 364.54 C 303.53 364.40, 301.69 366.30, 299.59 366.35 C 297.49 366.39, 295.44 365.58, 292.72 364.81 C 290.01 364.04, 286.59 363.22, 283.28 361.72 C 279.98 360.22, 276.63 357.87, 272.90 355.79 C 269.18 353.70, 264.81 351.45, 260.93 349.19 C 257.06 346.93, 252.98 344.04, 249.65 342.22 C 246.32 340.40, 243.90 339.71, 240.98 338.27 C 238.06 336.83, 234.67 335.40, 232.13 333.58 C 229.58 331.76, 228.32 329.11, 225.70 327.35 C 223.08 325.59, 219.31 324.69, 216.40 323.05 C 213.48 321.40, 210.75 319.29, 208.21 317.48 C 205.66 315.67, 203.51 314.30, 201.15 312.20 C 198.79 310.10, 196.13 307.75, 194.03 304.86 C 191.93 301.97, 190.35 298.12, 188.56 294.85 C 186.77 291.59, 183.37 286.56, 183.30 285.27 C 183.22 283.98, 185.37 286.13, 188.13 287.13 C 190.89 288.13, 196.14 289.45, 199.86 291.29 C 203.58 293.13, 207.68 296.09, 210.46 298.18 C 213.25 300.27, 214.40 302.02, 216.57 303.83 C 218.74 305.63, 220.97 307.34, 223.48 309.01 C 225.99 310.68, 229.04 312.14, 231.63 313.84 C 234.22 315.54, 236.55 317.29, 239.02 319.21 C 241.48 321.13, 243.92 324.01, 246.42 325.37 C 248.93 326.73, 251.67 326.28, 254.05 327.37 C 256.44 328.46, 258.58 330.68, 260.72 331.90 C 262.85 333.11, 265.02 333.62, 266.86 334.65 C 268.70 335.67, 270.10 336.73, 271.75 338.04 C 273.40 339.35, 274.91 341.26, 276.77 342.49 C 278.63 343.72, 280.47 344.30, 282.93 345.42 C 285.39 346.53, 288.88 348.65, 291.52 349.19 C 294.16 349.73, 297.73 349.88, 298.77 348.65 C 299.80 347.41, 298.00 344.08, 297.75 341.79 C 297.50 339.51, 298.09 337.04, 297.26 334.93 C 296.43 332.82, 294.16 330.94, 292.77 329.12 C 291.37 327.29, 290.59 325.26, 288.89 323.98 C 287.19 322.70, 284.59 322.54, 282.56 321.43 C 280.53 320.32, 278.59 318.71, 276.71 317.31 C 274.83 315.91, 273.21 313.94, 271.30 313.04 C 269.39 312.14, 267.14 312.49, 265.24 311.91 C 263.34 311.34, 262.28 310.12, 259.89 309.60 C 257.51 309.07, 253.99 309.85, 250.94 308.77 C 247.89 307.68, 244.67 305.09, 241.60 303.07 C 238.53 301.05, 235.50 298.97, 232.53 296.65 C 229.55 294.32, 226.56 291.48, 223.75 289.10 C 220.93 286.72, 218.13 284.48, 215.64 282.35 C 213.14 280.23, 211.02 278.34, 208.79 276.35 C 206.57 274.36, 204.30 272.54, 202.27 270.39 C 200.25 268.24, 198.55 265.48, 196.65 263.46 C 194.75 261.43, 193.35 258.61, 190.88 258.23 C 188.40 257.86, 184.75 260.14, 181.80 261.20 C 178.85 262.26, 175.59 265.22, 173.18 264.61 C 170.77 263.99, 169.99 259.10, 167.36 257.52 C 164.73 255.94, 160.88 255.97, 157.42 255.10 C 153.96 254.23, 148.56 254.56, 146.62 252.32 C 144.68 250.08, 144.57 245.06, 145.78 241.65 C 146.99 238.23, 151.04 234.50, 153.88 231.83 C 156.72 229.16, 159.74 225.67, 162.84 225.61 C 165.93 225.56, 169.41 229.56, 172.45 231.50 C 175.50 233.44, 178.10 236.37, 181.12 237.24 C 184.15 238.11, 187.69 237.27, 190.62 236.72 C 193.55 236.17, 195.39 235.18, 198.73 233.96 C 202.06 232.73, 207.76 229.46, 210.65 229.37 C 213.53 229.28, 215.67 230.71, 216.02 233.40 C 216.37 236.08, 213.11 242.10, 212.77 245.47 C 212.43 248.85, 212.89 251.18, 213.97 253.65 C 215.05 256.12, 217.40 258.06, 219.24 260.30 C 221.07 262.54, 223.13 264.71, 224.97 267.07 C 226.81 269.43, 228.43 272.00, 230.27 274.46 C 232.11 276.91, 233.92 279.56, 236.02 281.79 C 238.11 284.03, 240.22 286.28, 242.84 287.88 C 245.46 289.47, 249.00 290.29, 251.73 291.35 C 254.45 292.41, 257.00 294.31, 259.21 294.24 C 261.41 294.17, 264.40 292.79, 264.96 290.92 C 265.52 289.06, 263.69 285.68, 262.57 283.05 C 261.45 280.42, 259.87 277.41, 258.22 275.16 C 256.58 272.91, 254.65 270.88, 252.71 269.55 C 250.78 268.22, 248.61 268.63, 246.64 267.19 C 244.66 265.74, 242.71 263.82, 240.89 260.87 C 239.06 257.93, 236.69 252.76, 235.69 249.53 C 234.69 246.29, 234.10 242.31, 234.87 241.47 C 235.64 240.64, 237.69 243.41, 240.30 244.53 C 242.92 245.64, 247.43 246.59, 250.55 248.16 C 253.67 249.73, 256.47 251.76, 259.02 253.93 C 261.57 256.10, 263.58 258.54, 265.84 261.20 C 268.11 263.86, 270.75 266.84, 272.61 269.89 C 274.48 272.95, 275.92 276.47, 277.02 279.53 C 278.12 282.60, 278.33 285.51, 279.21 288.28 C 280.08 291.05, 281.33 293.92, 282.26 296.14 C 283.19 298.35, 283.53 299.92, 284.80 301.57 C 286.06 303.21, 287.53 303.90, 289.86 306.00 C 292.18 308.10, 295.83 311.38, 298.76 314.19 C 301.68 316.99, 305.04 320.10, 307.42 322.82 C 309.80 325.53, 311.53 328.20, 313.05 330.49 C 314.56 332.77, 315.94 334.42, 316.50 336.51 C 317.06 338.60, 316.11 341.00, 316.42 343.03 C 316.74 345.06, 317.14 347.39, 318.37 348.68 C 319.60 349.97, 321.69 350.30, 323.80 350.77 C 325.91 351.23, 328.63 351.22, 331.02 351.47 C 333.40 351.71, 336.46 353.00, 338.10 352.23 C 339.74 351.47, 340.55 348.84, 340.85 346.87 C 341.15 344.89, 339.96 342.69, 339.89 340.37 C 339.83 338.05, 341.08 334.94, 340.47 332.95 C 339.86 330.96, 337.10 330.11, 336.23 328.40 C 335.35 326.70, 336.49 323.72, 335.21 322.73 C 333.92 321.75, 330.45 323.27, 328.53 322.51 C 326.61 321.76, 325.66 319.96, 323.68 318.22 C 321.70 316.48, 319.12 314.07, 316.65 312.05 C 314.19 310.02, 311.17 308.24, 308.86 306.07 C 306.55 303.91, 304.59 301.64, 302.80 299.05 C 301.00 296.46, 299.67 293.61, 298.10 290.54 C 296.53 287.46, 295.00 284.01, 293.39 280.63 C 291.78 277.24, 290.20 273.59, 288.42 270.22 C 286.64 266.86, 284.52 263.33, 282.70 260.42 C 280.89 257.51, 279.64 255.56, 277.54 252.75 C 275.44 249.93, 272.50 246.29, 270.08 243.52 C 267.67 240.76, 265.39 238.23, 263.06 236.13 C 260.74 234.03, 258.50 232.95, 256.16 230.94 C 253.82 228.93, 251.53 225.71, 249.03 224.09 C 246.54 222.46, 243.75 222.18, 241.19 221.19 C 238.64 220.20, 235.74 219.52, 233.71 218.14 C 231.68 216.76, 229.05 215.48, 229.02 212.91 C 228.99 210.34, 232.92 206.37, 233.54 202.73 C 234.16 199.09, 234.55 193.52, 232.74 191.06 C 230.93 188.60, 226.00 187.31, 222.66 187.98 C 219.32 188.64, 215.25 192.33, 212.68 195.05 C 210.12 197.77, 209.38 201.77, 207.28 204.28 C 205.18 206.79, 203.07 209.08, 200.07 210.13 C 197.07 211.18, 192.73 211.52, 189.28 210.57 C 185.83 209.63, 180.75 207.63, 179.36 204.47 C 177.97 201.30, 178.82 195.06, 180.93 191.60 C 183.04 188.14, 188.71 186.57, 192.00 183.72 C 195.29 180.87, 197.48 177.26, 200.65 174.52 C 203.82 171.77, 207.13 168.39, 211.04 167.24 C 214.95 166.09, 220.92 169.12, 224.10 167.63 C 227.28 166.13, 228.43 161.81, 230.09 158.25 C 231.75 154.69, 231.58 149.28, 234.07 146.25 C 236.56 143.23, 241.60 142.30, 245.01 140.12 C 248.42 137.95, 251.37 135.77, 254.54 133.22 C 257.71 130.68, 260.79 127.44, 264.05 124.86 C 267.31 122.28, 270.19 119.16, 274.10 117.74 C 278.01 116.32, 282.88 115.94, 287.48 116.35 C 292.09 116.76, 299.81 117.96, 301.75 120.19 C 303.70 122.43, 300.89 126.67, 299.16 129.73 C 297.43 132.79, 293.92 136.20, 291.36 138.55 C 288.80 140.90, 286.79 142.42, 283.78 143.84 C 280.77 145.25, 276.28 145.13, 273.29 147.06 C 270.30 149.00, 268.41 153.20, 265.84 155.45 C 263.28 157.70, 260.62 158.40, 257.89 160.56 C 255.16 162.72, 251.07 165.38, 249.47 168.42 C 247.88 171.45, 247.50 175.78, 248.30 178.78 C 249.09 181.77, 253.38 183.59, 254.26 186.37 C 255.15 189.16, 253.13 192.67, 253.61 195.50 C 254.09 198.33, 255.82 201.11, 257.17 203.36 C 258.52 205.62, 259.85 206.97, 261.70 209.04 C 263.55 211.12, 266.27 213.57, 268.27 215.82 C 270.28 218.06, 272.01 220.19, 273.72 222.51 C 275.43 224.82, 276.67 227.22, 278.54 229.71 C 280.41 232.19, 282.93 235.01, 284.91 237.41 C 286.90 239.81, 288.69 241.89, 290.44 244.12 C 292.18 246.35, 293.96 248.50, 295.40 250.80 C 296.85 253.11, 297.85 255.63, 299.11 257.96 C 300.36 260.28, 301.90 262.30, 302.95 264.75 C 304.01 267.20, 304.42 270.32, 305.43 272.64 C 306.45 274.96, 307.71 276.73, 309.05 278.65 C 310.39 280.56, 312.59 282.07, 313.47 284.14 C 314.36 286.21, 313.19 289.12, 314.34 291.06 C 315.49 293.00, 318.42 294.14, 320.40 295.78 C 322.37 297.42, 324.09 299.56, 326.18 300.90 C 328.28 302.25, 330.86 303.43, 332.97 303.86 C 335.08 304.29, 337.72 304.89, 338.84 303.49 C 339.96 302.10, 340.00 298.08, 339.68 295.51 C 339.36 292.93, 337.75 290.35, 336.92 288.02 C 336.08 285.70, 335.81 283.56, 334.67 281.57 C 333.52 279.58, 331.52 278.02, 330.04 276.09 C 328.57 274.16, 327.06 272.10, 325.82 269.98 C 324.57 267.85, 323.40 265.44, 322.57 263.34 C 321.73 261.24, 321.70 259.43, 320.81 257.36 C 319.91 255.29, 318.23 253.14, 317.20 250.91 C 316.17 248.68, 315.48 246.12, 314.63 243.99 C 313.78 241.86, 313.19 239.96, 312.11 238.12 C 311.03 236.27, 310.01 234.66, 308.16 232.92 C 306.30 231.18, 303.17 229.49, 300.98 227.69 C 298.79 225.89, 296.72 224.24, 295.02 222.11 C 293.32 219.98, 292.35 217.63, 290.78 214.89 C 289.22 212.15, 287.16 208.40, 285.62 205.67 C 284.09 202.94, 282.61 200.86, 281.59 198.51 C 280.57 196.16, 280.33 194.02, 279.48 191.57 C 278.63 189.11, 276.71 186.41, 276.50 183.79 C 276.30 181.17, 276.56 178.08, 278.24 175.84 C 279.91 173.59, 283.95 172.16, 286.54 170.33 C 289.13 168.50, 291.56 165.12, 293.77 164.86 C 295.97 164.61, 297.46 167.13, 299.77 168.79 C 302.08 170.46, 305.22 172.51, 307.65 174.84 C 310.07 177.17, 314.42 180.95, 314.31 182.75 C 314.20 184.56, 308.88 184.16, 306.99 185.68 C 305.10 187.19, 303.70 189.65, 302.94 191.83 C 302.19 194.02, 301.95 196.33, 302.45 198.81 C 302.96 201.30, 304.20 204.20, 305.97 206.74 C 307.73 209.28, 310.82 212.34, 313.03 214.04 C 315.25 215.75, 317.72 217.61, 319.26 216.97 C 320.80 216.33, 320.97 212.99, 322.27 210.21 C 323.56 207.44, 325.73 202.53, 327.02 200.32 C 328.31 198.10, 327.95 196.48, 330.00 196.94 C 332.05 197.39, 336.62 200.71, 339.32 203.05 C 342.03 205.40, 345.56 209.04, 346.20 210.99 C 346.85 212.93, 343.94 213.04, 343.20 214.70 C 342.46 216.37, 343.02 219.02, 341.76 220.98 C 340.51 222.93, 337.42 224.51, 335.65 226.41 C 333.89 228.31, 331.80 230.28, 331.18 232.36 C 330.57 234.43, 331.23 236.51, 331.95 238.86 C 332.68 241.21, 334.40 243.75, 335.53 246.46 C 336.65 249.16, 337.70 252.45, 338.71 255.09 C 339.73 257.72, 340.38 259.81, 341.63 262.27 C 342.88 264.73, 344.93 267.26, 346.21 269.87 C 347.49 272.48, 348.19 274.81, 349.30 277.94 C 350.41 281.06, 352.00 285.05, 352.88 288.63 C 353.76 292.21, 354.37 296.13, 354.58 299.40 C 354.79 302.68, 354.56 305.86, 354.14 308.28 C 353.72 310.71, 352.03 311.96, 352.05 313.95 C 352.06 315.95, 353.62 317.94, 354.23 320.25 C 354.85 322.57, 355.15 325.11, 355.73 327.84 C 356.31 330.57, 357.46 333.72, 357.73 336.63 C 358.01 339.55, 357.52 342.59, 357.39 345.34 C 357.27 348.08, 357.32 350.87, 357.00 353.11 C 356.67 355.35, 355.44 356.83, 355.45 358.77 C 355.45 360.71, 355.96 362.24, 357.04 364.75 C 358.12 367.25, 360.70 371.26, 361.93 373.78 C 363.15 376.31, 362.94 378.48, 364.37 379.88 C 365.80 381.29, 368.87 382.97, 370.50 382.23 C 372.14 381.49, 373.58 378.05, 374.19 375.45 C 374.80 372.84, 374.13 369.47, 374.19 366.61 C 374.25 363.75, 374.71 360.89, 374.56 358.26 C 374.41 355.63, 373.64 353.63, 373.29 350.84 C 372.94 348.04, 372.70 344.49, 372.44 341.50 C 372.18 338.50, 371.97 335.83, 371.73 332.87 C 371.49 329.91, 371.15 326.82, 371.00 323.75 C 370.85 320.68, 371.07 317.67, 370.82 314.46 C 370.58 311.26, 369.94 307.74, 369.52 304.53 C 369.09 301.32, 368.68 298.15, 368.28 295.22 C 367.88 292.29, 367.43 289.56, 367.12 286.95 C 366.81 284.35, 366.87 282.27, 366.40 279.58 C 365.92 276.89, 364.57 273.51, 364.27 270.81 C 363.96 268.12, 365.27 265.33, 364.58 263.41 C 363.88 261.48, 361.67 261.20, 360.10 259.26 C 358.53 257.32, 356.48 254.69, 355.13 251.79 C 353.79 248.89, 352.61 244.54, 352.04 241.84 C 351.46 239.14, 350.48 236.02, 351.68 235.57 C 352.87 235.13, 356.76 237.85, 359.22 239.15 C 361.68 240.44, 364.24 243.04, 366.43 243.34 C 368.62 243.65, 371.05 242.70, 372.36 241.00 C 373.68 239.29, 374.21 235.71, 374.31 233.12 C 374.42 230.52, 374.03 227.63, 373.02 225.41 C 372.00 223.18, 369.63 221.38, 368.23 219.75 C 366.83 218.12, 365.11 217.27, 364.59 215.61 C 364.07 213.94, 364.89 212.15, 365.12 209.78 C 365.35 207.41, 365.98 203.89, 365.98 201.38 C 365.97 198.86, 365.73 196.93, 365.08 194.69 C 364.43 192.46, 363.93 189.08, 362.08 187.96 C 360.23 186.84, 356.53 188.49, 353.97 187.97 C 351.41 187.45, 348.82 186.07, 346.71 184.85 C 344.60 183.62, 343.24 181.99, 341.33 180.63 C 339.43 179.27, 336.70 178.44, 335.27 176.68 C 333.84 174.91, 334.16 171.91, 332.75 170.04 C 331.34 168.16, 328.75 167.35, 326.81 165.42 C 324.87 163.50, 323.90 160.94, 321.11 158.49 C 318.32 156.04, 311.23 153.06, 310.10 150.74 C 308.96 148.42, 311.43 145.29, 314.31 144.57 C 317.20 143.85, 324.84 148.20, 327.42 146.41 C 330.01 144.62, 329.63 137.39, 329.80 133.81 C 329.97 130.23, 328.74 128.13, 328.46 124.94 C 328.18 121.75, 326.91 117.81, 328.12 114.68 C 329.33 111.55, 332.83 108.98, 335.71 106.16 C 338.58 103.34, 341.93 97.94, 345.37 97.77 C 348.81 97.60, 353.59 102.10, 356.38 105.15 C 359.16 108.20, 361.94 112.92, 362.06 116.09 C 362.17 119.25, 358.67 121.53, 357.08 124.15 C 355.50 126.77, 353.98 129.06, 352.54 131.79 C 351.09 134.51, 349.13 137.47, 348.39 140.48 C 347.66 143.48, 347.96 147.07, 348.14 149.82 C 348.32 152.56, 348.39 154.47, 349.49 156.94 C 350.58 159.42, 352.54 162.73, 354.73 164.66 C 356.92 166.59, 360.02 167.73, 362.63 168.50 C 365.24 169.28, 368.48 170.74, 370.38 169.30 C 372.28 167.86, 373.38 163.01, 374.06 159.86 C 374.73 156.70, 374.38 153.27, 374.41 150.37 C 374.44 147.48, 373.08 144.70, 374.23 142.47 C 375.37 140.24, 378.27 137.12, 381.28 136.97 C 384.28 136.83, 389.27 139.80, 392.27 141.60 C 395.28 143.40, 398.49 145.47, 399.31 147.78 C 400.14 150.09, 398.00 152.92, 397.23 155.45 C 396.46 157.97, 395.58 160.36, 394.71 162.93 C 393.83 165.50, 393.20 168.40, 391.97 170.87 C 390.75 173.33, 388.61 175.58, 387.36 177.74 C 386.11 179.90, 385.04 181.59, 384.46 183.84 C 383.88 186.09, 383.70 188.88, 383.88 191.24 C 384.06 193.60, 384.94 195.54, 385.55 197.99 C 386.15 200.43, 387.16 203.36, 387.52 205.91 C 387.89 208.46, 387.43 210.53, 387.74 213.27 C 388.05 216.01, 389.26 218.99, 389.37 222.36 C 389.48 225.74, 389.02 229.50, 388.40 233.53 C 387.78 237.56, 386.49 243.10, 385.66 246.55 C 384.82 250.00, 384.12 251.80, 383.38 254.22 C 382.64 256.63, 381.75 258.69, 381.23 261.03 C 380.72 263.37, 380.10 265.78, 380.28 268.25 C 380.45 270.72, 382.07 272.99, 382.30 275.87 C 382.52 278.74, 381.63 282.04, 381.64 285.50 C 381.64 288.97, 382.10 293.20, 382.33 296.66 C 382.55 300.12, 382.87 302.89, 382.99 306.25 C 383.10 309.62, 382.69 313.42, 383.04 316.83 C 383.40 320.24, 384.67 323.30, 385.13 326.72 C 385.58 330.14, 385.39 333.78, 385.76 337.33 C 386.14 340.87, 386.96 344.71, 387.37 347.99 C 387.79 351.28, 387.88 354.02, 388.25 357.05 C 388.61 360.09, 389.10 363.39, 389.55 366.20 C 390.01 369.00, 390.71 371.61, 391.00 373.87 C 391.29 376.13, 391.81 377.86, 391.28 379.75 C 390.76 381.63, 388.49 383.16, 387.86 385.19 C 387.24 387.22, 387.40 389.61, 387.53 391.90 C 387.67 394.19, 387.83 396.56, 388.68 398.94 C 389.54 401.31, 390.88 404.86, 392.67 406.17 C 394.46 407.47, 397.34 406.81, 399.42 406.77 C 401.50 406.73, 403.90 407.50, 405.15 405.93 C 406.40 404.37, 406.22 399.81, 406.93 397.39 C 407.63 394.96, 408.91 393.64, 409.39 391.36 C 409.86 389.09, 409.19 385.89, 409.79 383.74 C 410.39 381.59, 412.46 380.36, 412.96 378.48 C 413.46 376.60, 413.54 374.37, 412.77 372.48 C 412.00 370.60, 409.90 369.27, 408.36 367.16 C 406.82 365.05, 404.65 362.47, 403.53 359.83 C 402.42 357.19, 402.49 354.57, 401.67 351.31 C 400.85 348.04, 399.30 343.84, 398.62 340.22 C 397.95 336.60, 397.86 333.36, 397.62 329.60 C 397.39 325.84, 397.30 321.07, 397.21 317.65 C 397.12 314.22, 397.25 311.95, 397.10 309.05 C 396.94 306.16, 396.54 303.42, 396.28 300.25 C 396.03 297.09, 395.51 293.32, 395.59 290.05 C 395.68 286.77, 396.58 283.57, 396.81 280.62 C 397.03 277.67, 396.65 275.52, 396.96 272.35 C 397.26 269.18, 398.29 265.08, 398.65 261.59 C 399.01 258.10, 398.89 254.94, 399.12 251.39 C 399.36 247.84, 399.60 243.96, 400.08 240.30 C 400.55 236.64, 401.06 233.07, 401.98 229.45 C 402.90 225.83, 404.93 221.91, 405.60 218.56 C 406.27 215.21, 405.85 212.40, 406.00 209.35 C 406.16 206.31, 406.26 203.21, 406.53 200.31 C 406.81 197.40, 407.22 194.45, 407.66 191.91 C 408.10 189.36, 408.43 187.34, 409.16 185.04 C 409.89 182.74, 410.92 180.64, 412.04 178.09 C 413.16 175.53, 414.85 172.38, 415.89 169.72 C 416.92 167.07, 417.11 164.90, 418.26 162.16 C 419.42 159.42, 422.24 156.31, 422.80 153.27 C 423.35 150.23, 422.71 147.16, 421.58 143.91 C 420.46 140.66, 417.69 136.66, 416.04 133.79 C 414.39 130.91, 414.07 129.05, 411.67 126.65 C 409.27 124.25, 405.03 121.10, 401.63 119.40 C 398.24 117.70, 394.01 117.91, 391.31 116.44 C 388.62 114.98, 387.26 113.81, 385.44 110.63 C 383.62 107.44, 379.42 100.92, 380.41 97.34 C 381.41 93.76, 387.63 90.46, 391.42 89.15 C 395.20 87.85, 399.92 87.83, 403.11 89.54 C 406.30 91.25, 407.79 96.70, 410.55 99.41 C 413.31 102.11, 416.46 105.40, 419.67 105.76 C 422.89 106.13, 426.29 103.07, 429.84 101.59 C 433.40 100.11, 437.57 98.45, 441.03 96.88 C 444.48 95.31, 446.68 92.86, 450.57 92.14 C 454.45 91.43, 460.13 91.40, 464.34 92.59 C 468.55 93.78, 474.78 96.69, 475.84 99.28 C 476.90 101.86, 472.62 104.94, 470.72 108.11 C 468.81 111.28, 465.90 115.62, 464.41 118.30 C 462.92 120.99, 464.15 124.17, 461.80 124.21 C 459.44 124.25, 454.03 119.08, 450.29 118.52 C 446.54 117.95, 441.75 119.18, 439.31 120.82 C 436.86 122.45, 435.72 125.52, 435.64 128.35 C 435.56 131.17, 436.34 135.17, 438.81 137.76 C 441.29 140.34, 447.38 142.56, 450.50 143.85 C 453.62 145.14, 457.82 143.61, 457.53 145.49 C 457.24 147.36, 451.23 152.49, 448.74 155.11 C 446.26 157.74, 444.30 159.10, 442.61 161.22 C 440.91 163.34, 439.62 165.49, 438.58 167.84 C 437.54 170.19, 437.37 172.85, 436.37 175.32 C 435.38 177.79, 433.83 180.26, 432.62 182.65 C 431.42 185.05, 430.19 187.12, 429.16 189.68 C 428.13 192.25, 427.40 195.27, 426.45 198.02 C 425.50 200.77, 424.31 203.52, 423.45 206.20 C 422.59 208.88, 422.11 210.99, 421.30 214.09 C 420.48 217.18, 419.43 221.46, 418.54 224.77 C 417.64 228.07, 416.81 230.91, 415.92 233.92 C 415.03 236.93, 413.80 239.67, 413.18 242.84 C 412.55 246.01, 412.59 249.50, 412.18 252.95 C 411.77 256.39, 410.96 260.25, 410.72 263.52 C 410.48 266.78, 410.85 269.22, 410.76 272.55 C 410.66 275.87, 410.31 280.10, 410.15 283.46 C 410.00 286.83, 409.80 289.94, 409.84 292.74 C 409.87 295.54, 410.01 297.79, 410.38 300.27 C 410.76 302.75, 411.65 305.10, 412.11 307.62 C 412.57 310.14, 413.12 312.84, 413.15 315.39 C 413.17 317.93, 412.45 320.57, 412.25 322.88 C 412.06 325.19, 411.86 327.00, 411.98 329.22 C 412.10 331.44, 412.74 333.86, 412.99 336.18 C 413.23 338.50, 412.72 340.81, 413.43 343.15 C 414.14 345.48, 416.08 347.74, 417.25 350.20 C 418.42 352.65, 419.03 355.90, 420.42 357.89 C 421.82 359.87, 424.01 362.47, 425.62 362.11 C 427.23 361.74, 428.79 358.13, 430.10 355.69 C 431.40 353.24, 432.77 349.91, 433.45 347.45 C 434.12 344.98, 434.10 342.93, 434.16 340.87 C 434.22 338.80, 434.30 336.83, 433.83 335.06 C 433.36 333.29, 432.05 332.26, 431.33 330.23 C 430.62 328.19, 429.69 325.44, 429.53 322.85 C 429.38 320.27, 430.38 317.27, 430.39 314.71 C 430.39 312.14, 429.32 309.65, 429.57 307.47 C 429.82 305.29, 432.09 303.64, 431.87 301.62 C 431.66 299.60, 429.37 297.59, 428.28 295.36 C 427.19 293.12, 426.10 291.07, 425.33 288.20 C 424.56 285.33, 423.76 281.40, 423.65 278.14 C 423.54 274.88, 424.31 271.95, 424.67 268.65 C 425.03 265.34, 425.51 261.59, 425.84 258.32 C 426.17 255.04, 426.05 252.42, 426.66 248.99 C 427.27 245.57, 428.43 241.65, 429.50 237.75 C 430.57 233.86, 431.75 229.28, 433.10 225.62 C 434.44 221.96, 435.88 219.34, 437.59 215.79 C 439.30 212.25, 441.54 207.88, 443.37 204.36 C 445.20 200.84, 447.04 197.46, 448.56 194.66 C 450.08 191.86, 451.10 189.71, 452.48 187.55 C 453.85 185.40, 455.09 183.98, 456.83 181.72 C 458.56 179.45, 460.95 176.28, 462.88 173.96 C 464.81 171.63, 466.47 169.65, 468.41 167.79 C 470.35 165.93, 472.74 164.92, 474.50 162.79 C 476.25 160.66, 477.90 157.91, 478.94 154.99 C 479.97 152.07, 480.05 148.03, 480.71 145.25 C 481.38 142.48, 482.08 141.10, 482.91 138.35 C 483.74 135.60, 484.07 132.01, 485.69 128.74 C 487.32 125.46, 490.19 121.28, 492.66 118.69 C 495.14 116.10, 498.25 111.86, 500.53 113.21 C 502.81 114.56, 505.17 122.88, 506.33 126.79 C 507.50 130.70, 507.62 133.52, 507.53 136.69 C 507.44 139.86, 506.35 142.95, 505.78 145.80 C 505.22 148.66, 505.07 151.34, 504.11 153.84 C 503.16 156.34, 501.39 158.40, 500.06 160.82 C 498.72 163.24, 497.14 165.74, 496.11 168.36 C 495.08 170.99, 495.14 174.46, 493.88 176.57 C 492.62 178.68, 490.48 179.38, 488.56 181.01 C 486.64 182.64, 484.44 184.59, 482.36 186.34 C 480.28 188.10, 477.99 189.75, 476.10 191.52 C 474.22 193.30, 472.85 195.30, 471.04 196.98 C 469.23 198.66, 467.72 199.57, 465.22 201.60 C 462.73 203.63, 458.90 206.20, 456.08 209.18 C 453.25 212.15, 450.35 215.68, 448.27 219.44 C 446.20 223.21, 444.67 228.01, 443.64 231.77 C 442.61 235.52, 442.29 238.99, 442.08 241.99 C 441.87 244.99, 442.41 247.29, 442.40 249.78 C 442.39 252.28, 442.34 254.82, 442.03 256.97 C 441.72 259.13, 440.89 260.47, 440.53 262.72 C 440.17 264.97, 440.05 267.77, 439.85 270.46 C 439.66 273.15, 439.18 276.14, 439.34 278.85 C 439.51 281.57, 439.58 285.47, 440.83 286.76 C 442.09 288.04, 444.98 287.19, 446.87 286.55 C 448.75 285.92, 450.46 284.62, 452.14 282.96 C 453.82 281.30, 455.63 278.74, 456.94 276.60 C 458.25 274.45, 459.40 272.21, 459.99 270.11 C 460.58 268.02, 459.70 265.78, 460.47 264.02 C 461.24 262.26, 464.22 261.27, 464.61 259.56 C 464.99 257.84, 463.22 255.76, 462.79 253.74 C 462.35 251.71, 462.70 249.54, 461.99 247.41 C 461.29 245.29, 459.13 243.21, 458.57 240.99 C 458.01 238.76, 458.09 236.47, 458.64 234.05 C 459.19 231.64, 460.09 228.98, 461.86 226.49 C 463.63 223.99, 467.19 220.51, 469.27 219.08 C 471.35 217.65, 473.27 216.89, 474.35 217.94 C 475.44 218.99, 475.46 222.68, 475.80 225.37 C 476.14 228.06, 476.06 231.33, 476.40 234.08 C 476.75 236.84, 476.91 240.13, 477.86 241.91 C 478.82 243.69, 480.18 245.11, 482.13 244.77 C 484.08 244.43, 487.33 241.63, 489.58 239.87 C 491.83 238.12, 494.16 236.32, 495.63 234.23 C 497.10 232.14, 498.23 229.57, 498.40 227.33 C 498.56 225.09, 497.68 223.28, 496.62 220.79 C 495.56 218.29, 492.91 214.93, 492.04 212.35 C 491.16 209.76, 490.42 206.85, 491.37 205.28 C 492.32 203.70, 495.75 203.80, 497.73 202.90 C 499.71 202.00, 501.00 198.52, 503.23 199.89 C 505.46 201.26, 508.80 211.47, 511.12 211.15 C 513.43 210.82, 516.36 201.81, 517.12 197.94 C 517.88 194.08, 515.58 190.83, 515.68 187.94 C 515.79 185.04, 516.93 183.08, 517.77 180.57 C 518.61 178.06, 519.29 175.03, 520.71 172.87 C 522.13 170.71, 524.39 169.69, 526.28 167.60 C 528.17 165.51, 531.73 162.85, 532.05 160.34 C 532.36 157.82, 528.37 155.28, 528.18 152.52 C 527.98 149.77, 530.00 147.09, 530.85 143.79 C 531.70 140.50, 533.45 135.75, 533.29 132.76 C 533.14 129.77, 531.13 128.68, 529.94 125.85 C 528.74 123.01, 527.45 119.60, 526.10 115.75 C 524.74 111.89, 520.27 105.15, 521.80 102.70 C 523.34 100.26, 530.91 101.48, 535.31 101.08 C 539.71 100.67, 544.23 99.70, 548.21 100.26 C 552.18 100.82, 556.40 102.32, 559.15 104.42 C 561.91 106.53, 564.64 109.34, 564.71 112.87 C 564.79 116.40, 560.91 121.76, 559.60 125.59 C 558.29 129.42, 557.21 132.57, 556.84 135.84 C 556.47 139.11, 557.25 142.06, 557.39 145.21 C 557.54 148.37, 558.09 151.57, 557.69 154.77 C 557.29 157.98, 555.16 161.10, 555.01 164.42 C 554.86 167.74, 557.75 172.05, 556.78 174.70 C 555.82 177.35, 551.46 178.52, 549.24 180.30 C 547.02 182.08, 544.96 183.23, 543.48 185.38 C 542.01 187.53, 541.46 190.48, 540.39 193.21 C 539.32 195.95, 538.27 199.04, 537.07 201.79 C 535.88 204.55, 535.05 207.83, 533.22 209.75 C 531.40 211.66, 528.86 210.78, 526.11 213.28 C 523.36 215.77, 518.11 221.58, 516.72 224.70 C 515.32 227.83, 518.38 230.05, 517.73 232.02 C 517.08 233.99, 514.84 234.43, 512.82 236.51 C 510.81 238.60, 508.30 241.73, 505.64 244.52 C 502.99 247.31, 499.57 251.00, 496.88 253.26 C 494.18 255.52, 491.72 256.57, 489.48 258.09 C 487.24 259.61, 485.07 260.63, 483.43 262.38 C 481.79 264.13, 480.71 266.57, 479.62 268.60 C 478.54 270.64, 478.04 272.34, 476.90 274.60 C 475.76 276.85, 474.27 279.69, 472.81 282.14 C 471.35 284.58, 469.56 287.03, 468.12 289.28 C 466.68 291.53, 465.76 293.78, 464.17 295.63 C 462.58 297.47, 460.23 298.87, 458.58 300.37 C 456.93 301.86, 456.05 303.64, 454.29 304.58 C 452.53 305.52, 449.12 304.76, 448.03 306.00 C 446.94 307.25, 447.67 309.91, 447.74 312.05 C 447.82 314.20, 448.43 316.66, 448.50 318.87 C 448.56 321.09, 447.74 323.26, 448.12 325.34 C 448.51 327.43, 449.62 329.89, 450.81 331.37 C 451.99 332.86, 453.22 334.50, 455.25 334.25 C 457.27 334.01, 460.97 331.43, 462.95 329.90 C 464.94 328.38, 465.63 326.39, 467.16 325.11 C 468.68 323.83, 471.05 323.56, 472.12 322.23 C 473.18 320.90, 473.12 318.88, 473.54 317.13 C 473.97 315.38, 474.20 313.73, 474.66 311.76 C 475.11 309.78, 475.06 307.45, 476.28 305.28 C 477.49 303.11, 480.46 301.10, 481.94 298.72 C 483.41 296.35, 483.78 293.09, 485.13 291.04 C 486.48 288.99, 488.44 288.27, 490.02 286.42 C 491.61 284.58, 492.92 281.92, 494.64 279.97 C 496.36 278.02, 499.03 276.41, 500.35 274.75 C 501.67 273.08, 501.16 271.34, 502.57 270.00 C 503.98 268.66, 507.12 268.61, 508.81 266.72 C 510.50 264.83, 510.85 260.94, 512.69 258.67 C 514.54 256.40, 518.08 253.51, 519.90 253.10 C 521.72 252.70, 522.00 256.12, 523.64 256.24 C 525.27 256.35, 527.62 256.50, 529.71 253.82 C 531.79 251.14, 534.86 243.77, 536.15 240.17 C 537.43 236.56, 536.29 234.50, 537.42 232.19 C 538.56 229.89, 540.85 228.38, 542.96 226.34 C 545.06 224.30, 547.97 222.23, 550.05 219.96 C 552.14 217.68, 553.91 215.15, 555.47 212.69 C 557.04 210.24, 558.06 207.45, 559.44 205.22 C 560.82 203.00, 561.64 200.79, 563.76 199.36 C 565.87 197.93, 568.91 197.42, 572.13 196.66 C 575.35 195.90, 580.93 196.12, 583.09 194.80 C 585.25 193.47, 585.86 191.25, 585.08 188.71 C 584.31 186.17, 579.63 182.66, 578.44 179.53 C 577.25 176.41, 577.54 172.92, 577.94 169.97 C 578.34 167.01, 579.78 164.88, 580.83 161.79 C 581.88 158.69, 583.88 154.52, 584.25 151.41 C 584.61 148.29, 583.47 146.08, 583.01 143.08 C 582.55 140.08, 581.45 136.82, 581.49 133.39 C 581.54 129.97, 582.05 126.32, 583.30 122.53 C 584.55 118.73, 586.92 111.85, 588.98 110.62 C 591.03 109.40, 593.44 113.73, 595.62 115.18 C 597.81 116.63, 599.51 117.05, 602.07 119.33 C 604.63 121.61, 607.36 127.04, 610.99 128.85 C 614.62 130.66, 620.69 127.74, 623.86 130.18 C 627.03 132.63, 630.55 139.50, 630.01 143.53 C 629.47 147.56, 624.15 152.01, 620.63 154.35 C 617.10 156.68, 611.63 155.38, 608.85 157.54 C 606.07 159.69, 604.56 164.01, 603.94 167.28 C 603.31 170.55, 603.20 174.72, 605.11 177.15 C 607.02 179.58, 611.65 181.16, 615.38 181.86 C 619.12 182.57, 624.30 182.71, 627.53 181.39 C 630.75 180.07, 632.24 176.79, 634.74 173.94 C 637.24 171.09, 639.02 165.73, 642.53 164.28 C 646.04 162.84, 652.67 163.12, 655.80 165.27 C 658.93 167.42, 658.94 173.86, 661.34 177.21 C 663.73 180.56, 667.81 181.97, 670.17 185.38 C 672.53 188.78, 674.51 193.10, 675.49 197.64 C 676.47 202.17, 678.16 210.43, 676.04 212.56 C 673.92 214.70, 666.82 211.50, 662.76 210.46 C 658.69 209.42, 654.84 207.81, 651.66 206.32 C 648.47 204.83, 646.55 201.71, 643.66 201.51 C 640.77 201.32, 637.49 204.11, 634.34 205.13 C 631.19 206.16, 627.74 207.73, 624.77 207.66 C 621.80 207.58, 619.30 205.43, 616.52 204.69 C 613.74 203.95, 609.97 202.20, 608.08 203.22 C 606.20 204.24, 607.23 208.71, 605.22 210.81 C 603.20 212.91, 599.01 214.89, 596.00 215.82 C 592.99 216.75, 589.69 215.67, 587.14 216.39 C 584.59 217.11, 582.78 218.68, 580.72 220.16 C 578.67 221.65, 576.82 223.47, 574.81 225.30 C 572.81 227.13, 570.67 229.32, 568.69 231.15 C 566.71 232.99, 564.79 234.50, 562.91 236.30 C 561.04 238.10, 559.49 239.83, 557.44 241.93 C 555.39 244.04, 553.02 246.74, 550.61 248.92 C 548.21 251.10, 546.64 251.49, 543.01 255.02 C 539.38 258.56, 532.00 266.65, 528.84 270.15 C 525.69 273.64, 525.54 274.20, 524.07 276.00 C 522.59 277.79, 521.70 279.15, 520.01 280.92 C 518.32 282.69, 515.53 284.85, 513.93 286.63 C 512.33 288.41, 511.85 290.14, 510.40 291.60 C 508.95 293.05, 507.16 293.91, 505.21 295.36 C 503.26 296.82, 500.36 298.45, 498.71 300.33 C 497.05 302.20, 496.46 304.37, 495.30 306.63 C 494.13 308.90, 491.92 311.72, 491.73 313.91 C 491.53 316.10, 492.41 318.87, 494.12 319.76 C 495.83 320.65, 499.49 319.95, 501.98 319.25 C 504.47 318.56, 506.77 317.20, 509.08 315.59 C 511.40 313.99, 513.78 311.41, 515.87 309.61 C 517.96 307.82, 519.84 306.58, 521.61 304.83 C 523.38 303.08, 524.54 301.31, 526.48 299.11 C 528.41 296.90, 530.96 294.49, 533.20 291.61 C 535.43 288.73, 538.17 284.46, 539.91 281.84 C 541.64 279.22, 541.97 277.93, 543.60 275.88 C 545.24 273.82, 547.37 271.76, 549.73 269.50 C 552.09 267.25, 554.63 264.49, 557.75 262.35 C 560.88 260.22, 565.31 258.59, 568.47 256.69 C 571.63 254.79, 574.13 252.67, 576.70 250.94 C 579.26 249.21, 581.44 247.70, 583.86 246.31 C 586.28 244.93, 588.97 243.90, 591.21 242.63 C 593.46 241.37, 595.00 239.71, 597.33 238.70 C 599.65 237.70, 602.49 237.58, 605.18 236.58 C 607.87 235.59, 610.63 233.75, 613.48 232.73 C 616.33 231.70, 619.06 230.92, 622.28 230.44 C 625.51 229.96, 629.55 230.11, 632.84 229.85 C 636.14 229.59, 639.06 229.02, 642.06 228.89 C 645.05 228.75, 647.55 228.62, 650.83 229.01 C 654.11 229.41, 658.45 229.94, 661.74 231.26 C 665.03 232.59, 670.28 234.14, 670.56 236.97 C 670.84 239.81, 665.96 245.02, 663.41 248.26 C 660.86 251.49, 658.08 255.68, 655.27 256.39 C 652.46 257.10, 649.42 253.48, 646.54 252.50 C 643.67 251.52, 641.24 250.82, 638.01 250.50 C 634.79 250.17, 630.35 250.04, 627.19 250.55 C 624.04 251.06, 621.68 252.32, 619.09 253.57 C 616.50 254.81, 614.13 256.53, 611.67 258.04 C 609.21 259.56, 606.81 261.83, 604.33 262.66 C 601.85 263.49, 599.38 262.72, 596.80 263.02 C 594.21 263.32, 591.78 263.59, 588.82 264.44 C 585.85 265.30, 582.08 266.84, 579.01 268.17 C 575.94 269.50, 573.30 270.65, 570.38 272.42 C 567.46 274.19, 564.39 276.26, 561.48 278.78 C 558.58 281.31, 555.40 284.63, 552.96 287.58 C 550.51 290.53, 548.65 293.75, 546.80 296.47 C 544.94 299.19, 543.78 301.76, 541.83 303.92 C 539.87 306.08, 537.64 306.99, 535.06 309.43 C 532.47 311.87, 529.21 316.07, 526.32 318.55 C 523.42 321.04, 521.06 322.21, 517.69 324.35 C 514.32 326.48, 510.35 329.83, 506.10 331.34 C 501.84 332.86, 495.57 332.87, 492.15 333.44 C 488.74 334.01, 487.60 333.94, 485.60 334.75 C 483.60 335.56, 482.23 336.98, 480.13 338.31 C 478.04 339.63, 475.53 341.28, 473.02 342.71 C 470.52 344.13, 467.61 345.65, 465.12 346.85 C 462.64 348.06, 460.29 349.30, 458.12 349.94 C 455.96 350.58, 453.87 349.93, 452.15 350.67 C 450.43 351.41, 449.25 352.33, 447.80 354.38 C 446.35 356.43, 444.78 360.60, 443.45 363.00 C 442.12 365.40, 439.34 367.28, 439.80 368.78 C 440.27 370.27, 444.04 371.30, 446.24 371.97 C 448.45 372.64, 450.87 372.64, 453.05 372.80 C 455.23 372.96, 457.21 373.09, 459.31 372.92 C 461.42 372.75, 464.13 372.89, 465.69 371.78 C 467.26 370.68, 467.38 368.15, 468.68 366.31 C 469.97 364.47, 471.68 362.43, 473.46 360.75 C 475.24 359.07, 477.08 357.81, 479.36 356.24 C 481.64 354.67, 483.71 353.26, 487.13 351.35 C 490.55 349.44, 496.13 346.34, 499.87 344.78 C 503.61 343.21, 506.39 343.08, 509.60 341.97 C 512.80 340.87, 516.02 339.62, 519.09 338.16 C 522.16 336.69, 525.02 334.86, 528.03 333.18 C 531.03 331.50, 534.31 329.57, 537.12 328.06 C 539.94 326.55, 542.70 325.38, 544.91 324.10 C 547.13 322.82, 548.80 321.88, 550.42 320.39 C 552.03 318.89, 553.26 317.43, 554.61 315.11 C 555.96 312.79, 556.95 309.31, 558.52 306.46 C 560.10 303.60, 562.17 300.48, 564.07 297.98 C 565.96 295.48, 567.73 293.39, 569.89 291.46 C 572.04 289.54, 573.99 287.81, 576.98 286.42 C 579.97 285.02, 584.49 283.83, 587.83 283.07 C 591.16 282.31, 595.60 280.87, 597.00 281.84 C 598.40 282.80, 596.73 286.48, 596.23 288.88 C 595.74 291.28, 595.34 294.15, 594.04 296.23 C 592.74 298.32, 590.47 299.99, 588.42 301.38 C 586.37 302.77, 583.84 303.29, 581.76 304.56 C 579.67 305.83, 577.62 307.09, 575.90 308.99 C 574.18 310.88, 571.84 313.91, 571.44 315.94 C 571.04 317.98, 571.91 319.78, 573.48 321.20 C 575.05 322.61, 578.05 324.33, 580.89 324.44 C 583.72 324.54, 587.79 322.71, 590.47 321.85 C 593.16 320.99, 594.81 320.57, 597.00 319.26 C 599.20 317.95, 601.49 315.51, 603.61 313.99 C 605.73 312.47, 607.69 311.67, 609.71 310.14 C 611.73 308.61, 614.48 306.65, 615.75 304.79 C 617.02 302.92, 617.07 301.28, 617.35 298.96 C 617.63 296.64, 617.70 293.65, 617.42 290.85 C 617.15 288.04, 615.17 284.52, 615.70 282.13 C 616.22 279.73, 618.14 277.85, 620.57 276.47 C 623.00 275.09, 627.48 274.51, 630.30 273.85 C 633.11 273.19, 636.25 271.02, 637.46 272.51 C 638.68 274.00, 637.64 279.04, 637.57 282.77 C 637.50 286.50, 636.38 292.00, 637.04 294.91 C 637.71 297.82, 639.86 300.24, 641.54 300.22 C 643.23 300.20, 644.72 297.16, 647.16 294.77 C 649.60 292.39, 654.00 288.95, 656.17 285.92 C 658.33 282.88, 658.64 277.23, 660.12 276.56 C 661.60 275.90, 664.51 278.31, 665.05 281.93 C 665.58 285.55, 663.98 293.93, 663.32 298.30 C 662.65 302.66, 661.74 305.31, 661.05 308.12 C 660.36 310.93, 659.61 312.54, 659.16 315.13 C 658.72 317.72, 659.02 320.83, 658.36 323.66 C 657.70 326.49, 656.81 330.25, 655.21 332.09 C 653.61 333.92, 650.84 334.71, 648.76 334.68 C 646.67 334.64, 644.64 334.11, 642.70 331.90 C 640.77 329.70, 638.73 324.36, 637.15 321.45 C 635.57 318.53, 634.83 314.39, 633.21 314.40 C 631.59 314.41, 629.49 319.35, 627.42 321.49 C 625.35 323.63, 622.78 325.62, 620.78 327.23 C 618.78 328.85, 617.53 330.33, 615.42 331.19 C 613.31 332.05, 610.99 331.51, 608.12 332.37 C 605.26 333.24, 601.69 335.49, 598.25 336.38 C 594.80 337.26, 590.89 337.43, 587.47 337.70 C 584.05 337.97, 581.05 338.05, 577.74 337.98 C 574.43 337.91, 570.59 337.54, 567.62 337.27 C 564.64 337.01, 562.33 336.33, 559.90 336.36 C 557.47 336.40, 555.44 336.75, 553.04 337.49 C 550.64 338.23, 548.10 339.76, 545.51 340.80 C 542.93 341.83, 540.20 342.49, 537.53 343.69 C 534.86 344.89, 532.14 346.58, 529.49 347.99 C 526.84 349.40, 524.07 350.73, 521.64 352.14 C 519.20 353.54, 517.22 355.42, 514.90 356.44 C 512.58 357.46, 509.91 357.88, 507.72 358.28 C 505.53 358.68, 503.72 358.22, 501.76 358.83 C 499.81 359.45, 497.76 360.60, 495.97 361.95 C 494.19 363.30, 493.07 365.09, 491.07 366.94 C 489.07 368.78, 485.64 370.99, 483.99 373.03 C 482.34 375.07, 480.53 377.64, 481.16 379.17 C 481.79 380.69, 485.62 381.37, 487.78 382.19 C 489.93 383.01, 491.82 384.02, 494.08 384.08 C 496.34 384.14, 499.05 383.08, 501.33 382.55 C 503.62 382.03, 505.80 381.52, 507.77 380.94 C 509.74 380.37, 511.59 380.02, 513.15 379.12 C 514.72 378.22, 515.57 376.89, 517.16 375.54 C 518.75 374.20, 520.46 373.00, 522.70 371.04 C 524.94 369.08, 527.83 365.97, 530.58 363.78 C 533.33 361.60, 536.29 359.20, 539.20 357.93 C 542.11 356.66, 544.63 356.92, 548.03 356.16 C 551.42 355.40, 556.06 354.02, 559.55 353.37 C 563.04 352.72, 565.51 352.53, 568.98 352.27 C 572.45 352.01, 576.41 351.98, 580.37 351.81 C 584.33 351.64, 589.07 351.32, 592.74 351.24 C 596.42 351.17, 599.39 351.17, 602.44 351.36 C 605.49 351.55, 608.38 352.47, 611.03 352.36 C 613.69 352.25, 615.99 351.32, 618.38 350.70 C 620.78 350.07, 623.14 348.89, 625.40 348.62 C 627.67 348.34, 630.43 347.81, 631.98 349.04 C 633.52 350.27, 631.85 354.65, 634.64 356.00 C 637.43 357.34, 644.80 357.48, 648.71 357.11 C 652.62 356.75, 655.17 354.29, 658.10 353.81 C 661.02 353.33, 663.70 354.56, 666.29 354.22 C 668.88 353.89, 671.79 354.01, 673.62 351.79 C 675.46 349.57, 676.28 344.06, 677.28 340.90 C 678.29 337.74, 679.18 335.85, 679.65 332.83 C 680.12 329.82, 679.89 326.24, 680.10 322.81 C 680.32 319.38, 680.38 315.99, 680.95 312.26 C 681.51 308.53, 682.52 304.04, 683.48 300.41 C 684.45 296.77, 686.09 293.92, 686.75 290.45 C 687.41 286.99, 688.40 283.44, 687.44 279.62 C 686.49 275.80, 681.62 271.25, 681.01 267.55 C 680.39 263.84, 681.40 260.33, 683.76 257.41 C 686.11 254.49, 692.12 250.59, 695.12 250.03 C 698.13 249.46, 699.54 252.68, 701.79 254.00 C 704.03 255.33, 706.30 255.19, 708.58 257.98 C 710.87 260.77, 713.31 266.75, 715.48 270.75 C 717.65 274.76, 720.51 278.08, 721.61 282.02 C 722.72 285.96, 724.10 291.28, 722.13 294.40 C 720.17 297.51, 712.90 297.97, 709.83 300.69 C 706.75 303.41, 705.22 306.85, 703.70 310.71 C 702.17 314.57, 700.03 321.21, 700.68 323.86 C 701.32 326.52, 704.50 326.36, 707.57 326.64 C 710.65 326.93, 715.81 326.93, 719.14 325.58 C 722.47 324.23, 724.56 320.73, 727.56 318.56 C 730.56 316.39, 734.09 311.70, 737.16 312.56 C 740.23 313.43, 744.31 320.54, 745.97 323.74 C 747.62 326.95, 746.62 329.09, 747.08 331.81 C 747.54 334.53, 750.09 337.06, 748.73 340.07 C 747.37 343.08, 743.00 348.50, 738.94 349.87 C 734.87 351.25, 728.65 348.47, 724.35 348.32 C 720.05 348.17, 716.85 349.13, 713.13 348.97 C 709.42 348.80, 704.86 346.46, 702.05 347.32 C 699.25 348.19, 697.79 351.39, 696.30 354.16 C 694.82 356.93, 692.55 360.92, 693.16 363.93 C 693.76 366.94, 697.11 370.33, 699.95 372.23 C 702.79 374.12, 706.63 375.70, 710.21 375.31 C 713.79 374.92, 718.31 370.66, 721.42 369.88 C 724.53 369.11, 726.40 370.39, 728.89 370.64 C 731.37 370.89, 733.89 369.17, 736.35 371.40 C 738.82 373.63, 744.39 380.76, 743.68 384.05 C 742.97 387.34, 735.59 388.80, 732.10 391.12 C 728.62 393.45, 723.12 395.13, 722.75 397.98 C 722.38 400.84, 726.68 405.30, 729.86 408.25 C 733.04 411.20, 740.58 412.54, 741.83 415.69 C 743.07 418.85, 738.92 423.16, 737.32 427.17 C 735.72 431.18, 734.29 435.61, 732.22 439.76 C 730.14 443.90, 728.24 450.14, 724.88 452.04 C 721.52 453.93, 715.68 452.82, 712.05 451.11 C 708.43 449.41, 704.26 445.53, 703.15 441.80 C 702.03 438.08, 705.09 432.67, 705.35 428.76 C 705.62 424.86, 705.39 422.05, 704.73 418.37 C 704.08 414.70, 702.76 410.38, 701.44 406.71 C 700.12 403.03, 699.10 398.83, 696.82 396.32 C 694.54 393.81, 690.64 393.70, 687.75 391.64 C 684.87 389.58, 681.95 386.18, 679.51 383.96 C 677.06 381.75, 675.74 379.25, 673.10 378.36 C 670.47 377.47, 666.87 378.71, 663.68 378.62 C 660.49 378.54, 656.86 378.68, 653.98 377.84 C 651.09 377.00, 650.05 374.57, 646.35 373.57 C 642.65 372.57, 635.17 371.38, 631.78 371.84 C 628.39 372.29, 627.84 375.79, 626.01 376.31 C 624.18 376.83, 622.71 375.74, 620.82 374.95 C 618.93 374.17, 616.99 372.61, 614.66 371.60 C 612.32 370.59, 609.48 369.44, 606.79 368.89 C 604.10 368.34, 601.16 368.87, 598.52 368.31 C 595.87 367.75, 593.42 365.66, 590.92 365.54 C 588.42 365.42, 585.82 367.04, 583.54 367.61 C 581.25 368.18, 579.46 369.01, 577.20 368.95 C 574.95 368.88, 572.26 367.37, 570.03 367.24 C 567.81 367.11, 566.07 367.84, 563.84 368.17 C 561.61 368.49, 558.92 368.89, 556.66 369.20 C 554.40 369.50, 552.61 369.23, 550.27 369.98 C 547.93 370.72, 544.96 372.41, 542.63 373.68 C 540.29 374.95, 538.15 375.89, 536.25 377.61 C 534.36 379.34, 531.18 382.25, 531.24 384.04 C 531.30 385.82, 534.54 387.24, 536.62 388.31 C 538.70 389.38, 541.35 389.98, 543.74 390.46 C 546.14 390.95, 548.87 391.49, 551.00 391.22 C 553.14 390.95, 554.79 388.87, 556.55 388.83 C 558.32 388.80, 559.64 391.09, 561.59 391.01 C 563.54 390.93, 566.23 388.56, 568.26 388.34 C 570.29 388.12, 571.84 389.37, 573.76 389.69 C 575.68 390.01, 577.75 390.35, 579.76 390.23 C 581.77 390.12, 583.89 389.71, 585.81 389.01 C 587.72 388.32, 589.45 385.87, 591.27 386.07 C 593.09 386.26, 594.64 389.70, 596.75 390.17 C 598.86 390.65, 602.16 388.37, 603.92 388.91 C 605.69 389.45, 606.72 391.62, 607.33 393.43 C 607.94 395.24, 606.61 398.27, 607.60 399.77 C 608.59 401.27, 611.11 401.49, 613.29 402.44 C 615.47 403.38, 618.48 405.90, 620.69 405.43 C 622.89 404.96, 624.84 401.42, 626.52 399.62 C 628.20 397.82, 628.90 394.77, 630.76 394.63 C 632.62 394.49, 635.49 398.54, 637.69 398.77 C 639.90 399.01, 641.72 396.11, 643.98 396.05 C 646.23 395.99, 649.09 397.54, 651.22 398.41 C 653.36 399.28, 654.52 400.53, 656.79 401.26 C 659.06 402.00, 662.48 401.93, 664.85 402.83 C 667.23 403.72, 668.98 405.00, 671.02 406.65 C 673.06 408.29, 675.16 410.55, 677.09 412.70 C 679.03 414.85, 681.60 416.80, 682.65 419.56 C 683.70 422.32, 683.68 425.64, 683.38 429.28 C 683.08 432.93, 682.72 439.43, 680.87 441.41 C 679.02 443.38, 675.06 442.38, 672.30 441.14 C 669.54 439.91, 666.49 436.49, 664.31 433.98 C 662.13 431.46, 661.09 427.98, 659.21 426.05 C 657.32 424.13, 655.45 423.32, 653.01 422.42 C 650.58 421.51, 647.31 420.85, 644.59 420.61 C 641.86 420.38, 639.18 420.87, 636.67 421.01 C 634.15 421.14, 632.25 421.18, 629.50 421.42 C 626.74 421.65, 623.09 422.61, 620.15 422.40 C 617.22 422.19, 614.89 420.93, 611.90 420.15 C 608.92 419.37, 605.00 418.85, 602.25 417.70 C 599.49 416.55, 597.83 414.46, 595.36 413.25 C 592.90 412.04, 589.70 411.08, 587.45 410.44 C 585.21 409.80, 584.25 409.78, 581.90 409.43 C 579.55 409.07, 576.25 408.51, 573.35 408.30 C 570.45 408.08, 567.50 408.29, 564.51 408.15 C 561.51 408.01, 558.66 407.81, 555.38 407.45 C 552.11 407.09, 548.23 406.52, 544.85 405.99 C 541.46 405.46, 538.07 404.92, 535.07 404.27 C 532.07 403.62, 529.09 403.03, 526.85 402.10 C 524.61 401.17, 523.47 399.50, 521.64 398.69 C 519.80 397.89, 517.83 397.20, 515.83 397.27 C 513.83 397.33, 511.73 398.43, 509.62 399.07 C 507.50 399.71, 505.35 400.80, 503.14 401.11 C 500.93 401.42, 498.62 401.03, 496.36 400.94 C 494.09 400.85, 491.79 400.85, 489.55 400.56" stroke="red" stroke-width="3" fill="black" /></svg>