<svg width="800" height="800" viewBox="35.31 -25.55 773.90 786.94" xmlns="http://www.w3.org/2000/svg"><path d="M 509.62 406.67 C 512.46 408.62, 516.96 408.08, 517.57 409.01 C 518.17 409.94, 515.08 411.38, 513.25 412.24 C 511.43 413.10, 509.48 414.77, 506.60 414.16 C 503.71 413.54, 498.96 409.64, 495.96 408.57 C 492.96 407.51, 490.63 408.11, 488.60 407.75 C 486.56 407.40, 485.64 406.93, 483.73 406.44 C 481.83 405.94, 479.32 405.19, 477.18 404.79 C 475.04 404.39, 473.02 404.42, 470.90 404.02 C 468.78 403.62, 466.41 402.55, 464.45 402.40 C 462.49 402.25, 461.00 403.01, 459.14 403.11 C 457.28 403.22, 455.61 403.11, 453.29 403.05 C 450.96 402.98, 447.80 402.53, 445.20 402.74 C 442.60 402.94, 440.25 403.72, 437.71 404.30 C 435.17 404.87, 430.62 404.87, 429.94 406.20 C 429.26 407.54, 432.43 410.19, 433.63 412.31 C 434.83 414.43, 435.73 417.15, 437.14 418.94 C 438.55 420.73, 440.15 422.57, 442.06 423.05 C 443.98 423.53, 446.25 422.22, 448.61 421.84 C 450.97 421.45, 453.86 420.80, 456.22 420.72 C 458.58 420.64, 460.48 421.24, 462.78 421.36 C 465.07 421.49, 467.47 421.34, 469.98 421.48 C 472.48 421.62, 475.05 421.91, 477.80 422.19 C 480.56 422.47, 483.87 422.53, 486.53 423.15 C 489.19 423.77, 491.15 425.04, 493.77 425.91 C 496.39 426.78, 499.05 427.96, 502.25 428.38 C 505.46 428.81, 509.67 428.60, 512.98 428.44 C 516.30 428.27, 519.54 427.80, 522.14 427.41 C 524.73 427.02, 526.47 426.10, 528.57 426.10 C 530.67 426.09, 532.56 427.05, 534.73 427.40 C 536.89 427.76, 539.15 427.69, 541.57 428.25 C 543.98 428.81, 546.60 430.03, 549.21 430.77 C 551.83 431.50, 554.85 431.95, 557.23 432.66 C 559.62 433.37, 561.44 434.53, 563.53 435.04 C 565.63 435.56, 567.65 436.07, 569.81 435.74 C 571.98 435.41, 573.92 433.83, 576.51 433.06 C 579.09 432.30, 582.06 431.64, 585.30 431.16 C 588.55 430.68, 592.70 430.48, 595.98 430.18 C 599.27 429.88, 602.00 429.67, 605.01 429.36 C 608.02 429.04, 611.39 428.75, 614.05 428.28 C 616.71 427.80, 617.28 429.25, 620.98 426.50 C 624.68 423.74, 632.11 415.43, 636.26 411.75 C 640.41 408.07, 643.38 406.54, 645.90 404.41 C 648.42 402.28, 650.18 401.33, 651.38 398.98 C 652.58 396.64, 653.09 393.33, 653.11 390.34 C 653.12 387.36, 650.60 383.45, 651.47 381.10 C 652.35 378.75, 655.56 377.40, 658.36 376.26 C 661.17 375.13, 665.14 374.52, 668.32 374.27 C 671.51 374.03, 674.02 374.98, 677.46 374.80 C 680.91 374.61, 685.28 373.70, 689.01 373.16 C 692.75 372.61, 696.35 372.05, 699.87 371.53 C 703.39 371.01, 706.80 371.37, 710.11 370.05 C 713.42 368.73, 716.21 364.70, 719.73 363.60 C 723.25 362.50, 728.53 361.87, 731.21 363.44 C 733.89 365.00, 733.83 370.25, 735.81 372.99 C 737.79 375.74, 740.87 377.22, 743.09 379.88 C 745.30 382.55, 746.82 385.37, 749.09 388.99 C 751.35 392.61, 756.13 397.77, 756.68 401.60 C 757.24 405.44, 755.11 410.85, 752.41 411.98 C 749.72 413.11, 744.16 409.58, 740.52 408.39 C 736.88 407.20, 733.61 405.72, 730.57 404.84 C 727.53 403.97, 724.78 404.24, 722.26 403.14 C 719.73 402.03, 717.77 399.49, 715.43 398.20 C 713.10 396.92, 710.96 395.96, 708.27 395.43 C 705.58 394.91, 702.53 395.07, 699.29 395.05 C 696.06 395.03, 692.43 395.14, 688.87 395.32 C 685.31 395.50, 680.66 395.00, 677.91 396.13 C 675.17 397.27, 672.42 399.60, 672.39 402.14 C 672.35 404.68, 675.70 408.70, 677.72 411.37 C 679.74 414.05, 681.94 417.08, 684.50 418.19 C 687.07 419.31, 690.22 417.41, 693.12 418.08 C 696.02 418.75, 699.45 421.08, 701.91 422.23 C 704.37 423.37, 705.50 424.63, 707.87 424.93 C 710.24 425.24, 712.73 424.18, 716.14 424.04 C 719.56 423.90, 724.15 423.50, 728.37 424.09 C 732.59 424.67, 737.39 425.97, 741.45 427.55 C 745.51 429.12, 753.24 432.01, 752.73 433.54 C 752.22 435.08, 742.83 435.56, 738.37 436.76 C 733.91 437.96, 729.46 439.06, 725.95 440.74 C 722.45 442.41, 718.91 444.85, 717.34 446.81 C 715.77 448.78, 715.28 450.60, 716.54 452.52 C 717.80 454.44, 721.58 457.74, 724.90 458.35 C 728.22 458.95, 732.42 456.88, 736.46 456.14 C 740.49 455.39, 745.30 453.34, 749.10 453.87 C 752.89 454.40, 758.48 456.65, 759.21 459.32 C 759.93 461.99, 756.04 466.78, 753.44 469.87 C 750.84 472.95, 747.67 476.66, 743.60 477.83 C 739.54 479.00, 730.68 475.72, 729.06 476.87 C 727.43 478.03, 734.32 481.72, 733.85 484.76 C 733.37 487.80, 729.04 491.93, 726.19 495.11 C 723.35 498.29, 719.11 503.40, 716.79 503.84 C 714.47 504.28, 713.77 499.78, 712.26 497.74 C 710.75 495.71, 708.90 494.67, 707.73 491.64 C 706.56 488.61, 706.12 483.12, 705.24 479.56 C 704.36 476.01, 703.89 473.17, 702.44 470.31 C 700.98 467.45, 697.89 465.21, 696.52 462.41 C 695.15 459.61, 694.76 456.61, 694.20 453.49 C 693.64 450.36, 694.86 445.34, 693.16 443.64 C 691.46 441.94, 687.21 443.56, 683.99 443.27 C 680.77 442.97, 676.58 442.42, 673.83 441.86 C 671.09 441.30, 669.02 441.71, 667.51 439.90 C 665.99 438.10, 665.83 433.88, 664.73 431.04 C 663.62 428.20, 662.75 424.33, 660.89 422.86 C 659.03 421.38, 656.50 422.13, 653.57 422.19 C 650.64 422.26, 646.88 421.75, 643.31 423.23 C 639.75 424.71, 632.75 428.71, 632.19 431.08 C 631.63 433.45, 637.23 434.93, 639.96 437.45 C 642.69 439.96, 647.41 443.76, 648.59 446.19 C 649.78 448.62, 648.41 450.65, 647.08 452.03 C 645.75 453.40, 643.25 454.41, 640.59 454.42 C 637.92 454.43, 633.91 452.97, 631.08 452.09 C 628.24 451.20, 625.78 449.49, 623.58 449.11 C 621.39 448.72, 619.89 450.29, 617.91 449.80 C 615.93 449.31, 613.95 446.66, 611.71 446.18 C 609.47 445.69, 607.02 446.96, 604.48 446.91 C 601.94 446.85, 599.24 445.93, 596.46 445.86 C 593.68 445.79, 590.37 445.89, 587.79 446.49 C 585.21 447.10, 581.84 447.79, 580.97 449.49 C 580.09 451.20, 581.39 454.52, 582.53 456.71 C 583.67 458.90, 585.52 460.99, 587.81 462.64 C 590.10 464.29, 593.80 465.70, 596.27 466.60 C 598.74 467.50, 600.54 467.69, 602.62 468.05 C 604.71 468.41, 606.58 468.36, 608.77 468.77 C 610.96 469.17, 613.36 469.83, 615.74 470.48 C 618.12 471.14, 620.51 472.04, 623.04 472.69 C 625.57 473.35, 628.55 473.86, 630.93 474.42 C 633.32 474.97, 634.89 475.77, 637.34 476.04 C 639.80 476.32, 642.99 475.73, 645.65 476.08 C 648.32 476.42, 651.18 478.54, 653.34 478.11 C 655.49 477.68, 656.82 475.81, 658.59 473.51 C 660.36 471.21, 661.74 465.85, 663.96 464.31 C 666.18 462.77, 669.55 463.37, 671.93 464.27 C 674.32 465.18, 677.04 467.33, 678.28 469.74 C 679.52 472.15, 678.41 476.12, 679.37 478.74 C 680.33 481.35, 682.43 482.46, 684.06 485.42 C 685.68 488.38, 687.58 492.64, 689.13 496.48 C 690.68 500.32, 694.19 507.07, 693.37 508.45 C 692.55 509.84, 687.44 505.59, 684.21 504.78 C 680.98 503.98, 677.06 504.94, 673.98 503.62 C 670.89 502.31, 668.55 497.75, 665.70 496.90 C 662.85 496.06, 659.74 498.23, 656.88 498.55 C 654.02 498.87, 651.38 498.72, 648.52 498.83 C 645.66 498.95, 642.57 499.83, 639.72 499.25 C 636.86 498.66, 634.16 496.29, 631.40 495.31 C 628.64 494.33, 626.09 494.24, 623.17 493.36 C 620.25 492.49, 617.11 490.94, 613.89 490.05 C 610.67 489.16, 606.97 488.90, 603.84 488.01 C 600.71 487.12, 597.81 486.05, 595.09 484.71 C 592.38 483.37, 590.38 481.82, 587.57 479.97 C 584.76 478.12, 581.19 476.18, 578.24 473.62 C 575.30 471.06, 572.17 467.23, 569.89 464.59 C 567.61 461.95, 566.13 459.71, 564.59 457.78 C 563.04 455.85, 562.53 454.19, 560.63 453.01 C 558.73 451.82, 555.47 451.74, 553.19 450.69 C 550.91 449.63, 549.40 447.68, 546.94 446.66 C 544.47 445.64, 541.38 445.33, 538.39 444.57 C 535.41 443.82, 532.45 442.71, 529.05 442.13 C 525.65 441.54, 521.52 441.37, 517.97 441.07 C 514.43 440.78, 511.42 440.63, 507.79 440.36 C 504.16 440.10, 499.60 439.81, 496.21 439.48 C 492.81 439.16, 490.13 438.89, 487.41 438.42 C 484.69 437.96, 482.35 437.00, 479.86 436.68 C 477.37 436.37, 475.05 436.73, 472.48 436.53 C 469.91 436.34, 467.28 435.56, 464.45 435.50 C 461.63 435.44, 458.23 435.74, 455.53 436.19 C 452.83 436.64, 449.95 437.08, 448.27 438.20 C 446.59 439.31, 445.41 441.30, 445.45 442.89 C 445.48 444.47, 446.73 446.52, 448.47 447.69 C 450.20 448.87, 453.11 449.36, 455.87 449.94 C 458.63 450.52, 462.29 450.74, 465.02 451.19 C 467.75 451.63, 469.86 452.17, 472.27 452.63 C 474.68 453.09, 477.11 453.50, 479.48 453.93 C 481.84 454.35, 484.30 454.73, 486.48 455.17 C 488.66 455.61, 490.59 456.45, 492.54 456.58 C 494.48 456.71, 495.87 456.41, 498.16 455.96 C 500.45 455.50, 502.82 454.44, 506.28 453.85 C 509.73 453.26, 514.45 452.11, 518.89 452.42 C 523.33 452.73, 528.79 454.11, 532.91 455.70 C 537.02 457.30, 540.11 459.60, 543.57 461.98 C 547.02 464.36, 550.85 467.40, 553.62 469.98 C 556.40 472.57, 558.01 475.25, 560.22 477.48 C 562.43 479.71, 564.73 481.39, 566.90 483.36 C 569.06 485.33, 570.83 487.28, 573.18 489.32 C 575.54 491.36, 578.46 493.74, 581.04 495.59 C 583.62 497.44, 585.75 498.96, 588.68 500.42 C 591.62 501.89, 595.63 503.24, 598.67 504.36 C 601.72 505.48, 603.96 506.06, 606.96 507.15 C 609.97 508.25, 613.74 509.52, 616.70 510.93 C 619.66 512.34, 622.03 514.17, 624.74 515.61 C 627.45 517.06, 630.46 517.80, 632.94 519.60 C 635.43 521.40, 637.09 525.73, 639.65 526.42 C 642.20 527.12, 645.35 524.53, 648.28 523.78 C 651.20 523.04, 654.12 522.11, 657.18 521.93 C 660.24 521.74, 663.00 522.21, 666.64 522.68 C 670.29 523.16, 676.01 523.07, 679.04 524.78 C 682.06 526.49, 684.39 530.29, 684.78 532.92 C 685.17 535.54, 682.52 538.00, 681.39 540.52 C 680.26 543.04, 680.30 546.99, 677.99 548.02 C 675.69 549.05, 671.25 547.43, 667.57 546.72 C 663.88 546.00, 658.99 543.14, 655.90 543.71 C 652.80 544.29, 649.59 546.99, 648.99 550.16 C 648.39 553.32, 650.32 559.15, 652.31 562.70 C 654.30 566.25, 660.55 568.48, 660.94 571.46 C 661.33 574.43, 656.28 577.11, 654.62 580.54 C 652.96 583.96, 653.31 588.62, 650.99 592.00 C 648.67 595.38, 644.02 600.76, 640.71 600.82 C 637.40 600.88, 633.02 595.73, 631.13 592.34 C 629.24 588.96, 629.47 584.04, 629.39 580.50 C 629.30 576.96, 630.51 574.13, 630.61 571.10 C 630.72 568.07, 630.12 565.63, 630.02 562.32 C 629.91 559.02, 630.32 554.63, 629.97 551.26 C 629.62 547.89, 629.63 544.44, 627.91 542.10 C 626.19 539.75, 622.38 539.22, 619.67 537.19 C 616.95 535.17, 614.20 531.97, 611.61 529.94 C 609.01 527.91, 606.69 526.34, 604.10 525.00 C 601.51 523.66, 599.00 522.91, 596.07 521.88 C 593.13 520.85, 589.60 520.13, 586.49 518.84 C 583.39 517.55, 579.82 515.40, 577.45 514.16 C 575.09 512.91, 574.19 512.73, 572.30 511.38 C 570.40 510.02, 568.15 507.93, 566.06 506.04 C 563.98 504.15, 561.76 501.65, 559.79 500.04 C 557.83 498.43, 555.90 497.85, 554.27 496.38 C 552.64 494.91, 551.44 493.45, 550.00 491.21 C 548.57 488.98, 547.11 485.63, 545.64 482.97 C 544.17 480.31, 543.28 477.40, 541.17 475.24 C 539.06 473.08, 535.54 471.63, 532.97 470.00 C 530.39 468.36, 528.40 466.20, 525.72 465.42 C 523.05 464.64, 519.73 465.08, 516.92 465.32 C 514.12 465.57, 510.35 465.64, 508.91 466.87 C 507.46 468.11, 507.72 470.93, 508.26 472.72 C 508.79 474.51, 510.09 476.12, 512.11 477.63 C 514.13 479.14, 517.76 480.46, 520.37 481.77 C 522.97 483.08, 525.85 484.06, 527.74 485.47 C 529.64 486.89, 531.46 488.48, 531.72 490.25 C 531.97 492.02, 530.95 495.10, 529.28 496.09 C 527.61 497.08, 524.58 496.25, 521.70 496.20 C 518.83 496.15, 514.61 496.23, 512.01 495.82 C 509.40 495.40, 507.88 494.59, 506.08 493.74 C 504.27 492.88, 502.73 492.03, 501.16 490.68 C 499.60 489.34, 498.01 487.64, 496.68 485.68 C 495.35 483.72, 494.32 480.78, 493.19 478.93 C 492.06 477.07, 491.55 475.29, 489.90 474.53 C 488.26 473.78, 485.33 474.79, 483.34 474.40 C 481.34 474.01, 479.87 472.51, 477.95 472.22 C 476.03 471.92, 473.59 473.07, 471.82 472.60 C 470.06 472.13, 469.02 470.32, 467.34 469.40 C 465.66 468.48, 463.68 467.83, 461.74 467.10 C 459.80 466.37, 457.87 465.31, 455.70 465.00 C 453.53 464.69, 450.72 464.95, 448.73 465.24 C 446.74 465.53, 444.63 465.31, 443.78 466.75 C 442.93 468.18, 443.11 471.39, 443.62 473.84 C 444.14 476.29, 445.63 479.16, 446.87 481.46 C 448.10 483.75, 449.61 486.09, 451.04 487.62 C 452.47 489.15, 453.73 490.32, 455.44 490.66 C 457.14 491.00, 459.44 489.57, 461.25 489.67 C 463.05 489.76, 464.23 490.67, 466.26 491.24 C 468.29 491.81, 471.29 492.50, 473.44 493.08 C 475.58 493.67, 477.45 493.75, 479.13 494.75 C 480.81 495.74, 481.92 498.22, 483.54 499.05 C 485.17 499.88, 483.44 498.13, 488.89 499.75 C 494.34 501.37, 509.51 506.84, 516.25 508.77 C 522.99 510.71, 525.82 510.90, 529.31 511.35 C 532.81 511.80, 534.94 511.36, 537.22 511.46 C 539.50 511.57, 541.06 511.20, 542.98 511.96 C 544.91 512.73, 546.93 514.50, 548.75 516.06 C 550.57 517.63, 552.28 519.40, 553.91 521.35 C 555.54 523.30, 557.26 525.56, 558.52 527.77 C 559.77 529.97, 559.94 533.49, 561.44 534.59 C 562.94 535.69, 565.15 534.27, 567.50 534.37 C 569.85 534.47, 572.88 534.82, 575.53 535.20 C 578.19 535.58, 580.85 535.98, 583.44 536.64 C 586.03 537.30, 588.42 537.75, 591.05 539.17 C 593.69 540.59, 596.37 542.79, 599.26 545.15 C 602.15 547.51, 606.86 550.41, 608.38 553.31 C 609.90 556.22, 610.12 561.43, 608.38 562.57 C 606.64 563.71, 601.88 560.62, 597.93 560.14 C 593.98 559.65, 588.27 560.02, 584.69 559.65 C 581.12 559.28, 578.98 558.46, 576.50 557.91 C 574.02 557.36, 572.18 556.44, 569.83 556.37 C 567.49 556.30, 564.83 556.33, 562.45 557.50 C 560.07 558.67, 557.96 562.69, 555.55 563.41 C 553.13 564.14, 550.22 562.94, 547.96 561.86 C 545.70 560.77, 542.80 559.14, 541.98 556.90 C 541.16 554.66, 542.91 550.97, 543.05 548.40 C 543.18 545.83, 543.51 543.63, 542.79 541.48 C 542.06 539.33, 540.22 537.35, 538.72 535.51 C 537.22 533.66, 535.82 531.92, 533.77 530.41 C 531.73 528.89, 529.34 528.32, 526.43 526.42 C 523.52 524.53, 520.68 521.49, 516.32 519.05 C 511.97 516.60, 504.12 512.53, 500.31 511.75 C 496.49 510.97, 493.66 513.24, 493.44 514.38 C 493.22 515.52, 497.39 516.85, 498.99 518.60 C 500.59 520.36, 501.57 522.81, 503.06 524.91 C 504.55 527.02, 506.07 529.50, 507.92 531.23 C 509.76 532.96, 512.21 533.48, 514.13 535.29 C 516.04 537.10, 518.42 539.94, 519.39 542.09 C 520.35 544.24, 519.32 546.45, 519.93 548.17 C 520.54 549.90, 524.76 552.05, 523.05 552.44 C 521.34 552.83, 513.34 551.56, 509.69 550.52 C 506.04 549.48, 503.50 547.58, 501.13 546.20 C 498.75 544.82, 497.34 543.84, 495.44 542.24 C 493.54 540.63, 491.27 538.58, 489.72 536.58 C 488.18 534.58, 487.64 532.25, 486.17 530.24 C 484.70 528.23, 482.14 526.55, 480.92 524.50 C 479.70 522.45, 480.14 519.81, 478.86 517.92 C 477.58 516.03, 475.40 514.47, 473.26 513.16 C 471.13 511.85, 468.13 510.77, 466.06 510.07 C 463.98 509.37, 461.76 507.93, 460.81 508.94 C 459.86 509.95, 459.94 513.16, 460.36 516.13 C 460.77 519.10, 461.98 523.56, 463.28 526.78 C 464.58 530.00, 466.67 533.10, 468.14 535.46 C 469.61 537.81, 470.30 538.88, 472.08 540.91 C 473.86 542.93, 476.16 545.22, 478.84 547.60 C 481.52 549.99, 485.41 552.89, 488.15 555.22 C 490.89 557.55, 492.74 559.89, 495.28 561.59 C 497.83 563.28, 500.94 564.22, 503.42 565.39 C 505.91 566.55, 507.52 567.76, 510.18 568.57 C 512.84 569.39, 516.88 569.94, 519.37 570.28 C 521.86 570.62, 523.28 569.90, 525.12 570.63 C 526.95 571.35, 528.73 573.25, 530.38 574.64 C 532.04 576.03, 533.51 577.21, 535.05 578.96 C 536.58 580.71, 537.75 583.30, 539.61 585.16 C 541.47 587.02, 543.98 589.78, 546.22 590.10 C 548.47 590.43, 550.84 588.08, 553.08 587.13 C 555.32 586.18, 557.56 585.39, 559.67 584.41 C 561.78 583.44, 563.51 581.80, 565.73 581.27 C 567.95 580.74, 570.55 581.71, 572.99 581.22 C 575.43 580.73, 577.86 579.01, 580.40 578.34 C 582.94 577.66, 585.36 576.91, 588.23 577.17 C 591.09 577.42, 594.33 578.63, 597.59 579.87 C 600.85 581.10, 606.07 582.53, 607.77 584.57 C 609.47 586.62, 608.96 591.22, 607.78 592.13 C 606.59 593.04, 603.09 589.46, 600.67 590.03 C 598.25 590.61, 595.65 593.61, 593.26 595.58 C 590.88 597.54, 588.93 600.59, 586.37 601.83 C 583.81 603.08, 580.80 602.47, 577.90 603.04 C 574.99 603.61, 571.92 604.55, 568.94 605.24 C 565.95 605.93, 561.85 605.38, 559.99 607.16 C 558.13 608.94, 557.75 612.69, 557.78 615.91 C 557.82 619.12, 558.26 624.16, 560.19 626.43 C 562.12 628.71, 565.80 629.41, 569.34 629.55 C 572.88 629.68, 577.53 628.26, 581.42 627.25 C 585.31 626.24, 589.08 624.80, 592.67 623.50 C 596.25 622.20, 599.58 621.20, 602.93 619.45 C 606.29 617.70, 609.39 613.63, 612.79 612.98 C 616.20 612.34, 620.39 613.35, 623.36 615.56 C 626.34 617.77, 630.85 622.87, 630.64 626.26 C 630.44 629.64, 624.67 633.21, 622.12 635.88 C 619.57 638.54, 618.55 640.62, 615.34 642.26 C 612.13 643.90, 606.65 644.52, 602.86 645.71 C 599.08 646.91, 596.10 648.42, 592.62 649.44 C 589.13 650.45, 585.69 651.89, 581.94 651.81 C 578.19 651.73, 573.29 648.57, 570.12 648.96 C 566.95 649.34, 564.31 651.41, 562.91 654.11 C 561.51 656.80, 562.66 661.58, 561.74 665.12 C 560.82 668.65, 560.30 673.58, 557.40 675.33 C 554.49 677.07, 547.54 677.41, 544.31 675.58 C 541.07 673.74, 538.70 667.87, 537.97 664.32 C 537.24 660.77, 539.18 657.38, 539.93 654.27 C 540.68 651.16, 541.85 648.38, 542.47 645.65 C 543.09 642.93, 544.88 640.50, 543.64 637.92 C 542.41 635.35, 537.29 632.25, 535.07 630.21 C 532.85 628.16, 530.26 627.53, 530.32 625.66 C 530.38 623.78, 533.78 621.62, 535.42 618.94 C 537.06 616.26, 540.60 612.00, 540.16 609.56 C 539.72 607.13, 535.45 605.11, 532.79 604.33 C 530.13 603.54, 526.43 605.73, 524.19 604.84 C 521.95 603.96, 520.67 600.93, 519.35 599.01 C 518.03 597.08, 517.63 595.00, 516.27 593.27 C 514.91 591.55, 513.06 589.79, 511.19 588.67 C 509.32 587.55, 507.27 587.81, 505.04 586.55 C 502.81 585.29, 500.17 582.65, 497.80 581.09 C 495.44 579.52, 493.34 579.26, 490.85 577.17 C 488.36 575.08, 485.34 571.09, 482.85 568.55 C 480.36 566.01, 478.32 564.34, 475.91 561.93 C 473.49 559.52, 471.22 557.27, 468.36 554.09 C 465.50 550.90, 461.41 546.43, 458.74 542.84 C 456.07 539.25, 454.03 535.74, 452.32 532.55 C 450.60 529.37, 449.64 527.29, 448.45 523.71 C 447.26 520.12, 445.97 514.04, 445.16 511.04 C 444.34 508.05, 444.38 507.46, 443.56 505.72 C 442.74 503.98, 441.46 502.73, 440.25 500.62 C 439.04 498.51, 437.70 495.74, 436.29 493.05 C 434.89 490.36, 433.07 487.20, 431.83 484.48 C 430.58 481.77, 429.36 479.81, 428.84 476.76 C 428.33 473.71, 428.52 469.32, 428.72 466.16 C 428.93 463.00, 429.69 460.19, 430.08 457.79 C 430.46 455.40, 431.11 453.95, 431.02 451.79 C 430.94 449.64, 430.12 447.12, 429.57 444.87 C 429.03 442.62, 428.35 440.45, 427.78 438.28 C 427.21 436.10, 427.10 433.67, 426.14 431.85 C 425.18 430.02, 423.18 429.61, 422.04 427.34 C 420.89 425.08, 420.31 420.74, 419.26 418.25 C 418.20 415.76, 417.11 414.03, 415.72 412.40 C 414.33 410.78, 412.89 408.59, 410.92 408.49 C 408.94 408.40, 405.76 410.51, 403.88 411.85 C 402.00 413.19, 400.20 414.61, 399.62 416.52 C 399.05 418.43, 399.88 421.16, 400.43 423.34 C 400.97 425.51, 402.03 427.31, 402.90 429.55 C 403.76 431.78, 404.49 434.67, 405.62 436.75 C 406.76 438.82, 408.82 440.04, 409.72 441.99 C 410.61 443.94, 410.52 446.18, 410.99 448.45 C 411.45 450.72, 412.15 453.14, 412.53 455.63 C 412.90 458.13, 412.79 460.65, 413.26 463.42 C 413.73 466.19, 414.98 469.36, 415.35 472.25 C 415.73 475.14, 415.27 478.02, 415.52 480.78 C 415.77 483.53, 416.28 486.10, 416.85 488.77 C 417.42 491.43, 418.22 494.51, 418.91 496.78 C 419.61 499.05, 419.83 500.51, 421.02 502.37 C 422.22 504.24, 424.08 505.46, 426.08 507.98 C 428.08 510.51, 431.30 514.32, 433.05 517.54 C 434.80 520.76, 435.04 523.52, 436.57 527.31 C 438.10 531.09, 440.83 536.71, 442.25 540.28 C 443.67 543.84, 444.02 546.13, 445.08 548.68 C 446.15 551.23, 447.43 553.45, 448.66 555.59 C 449.88 557.74, 450.79 560.06, 452.41 561.58 C 454.04 563.10, 455.71 562.89, 458.41 564.71 C 461.11 566.53, 465.53 569.69, 468.61 572.50 C 471.69 575.31, 474.15 578.29, 476.90 581.59 C 479.65 584.88, 482.79 589.29, 485.09 592.28 C 487.39 595.27, 489.04 597.33, 490.70 599.54 C 492.35 601.75, 493.71 603.55, 495.03 605.52 C 496.34 607.49, 496.94 609.50, 498.57 611.35 C 500.21 613.20, 503.07 614.71, 504.83 616.64 C 506.58 618.58, 508.62 620.47, 509.09 622.96 C 509.56 625.44, 507.66 628.64, 507.66 631.56 C 507.67 634.48, 508.04 637.89, 509.13 640.48 C 510.21 643.07, 512.50 645.05, 514.15 647.09 C 515.79 649.13, 518.15 649.44, 519.00 652.72 C 519.84 656.00, 519.11 662.02, 519.22 666.79 C 519.33 671.55, 521.37 680.09, 519.65 681.31 C 517.93 682.54, 512.08 676.77, 508.89 674.13 C 505.70 671.49, 503.04 667.78, 500.49 665.48 C 497.95 663.18, 496.03 661.69, 493.63 660.33 C 491.22 658.97, 488.52 658.89, 486.04 657.33 C 483.56 655.77, 479.36 653.22, 478.75 650.95 C 478.15 648.68, 480.81 645.94, 482.40 643.72 C 484.00 641.51, 487.88 639.92, 488.32 637.66 C 488.76 635.40, 486.47 632.48, 485.04 630.15 C 483.62 627.83, 481.13 625.71, 479.77 623.73 C 478.42 621.75, 478.10 620.12, 476.93 618.29 C 475.75 616.46, 473.56 614.82, 472.72 612.77 C 471.88 610.72, 472.44 608.40, 471.87 605.99 C 471.30 603.58, 470.27 600.46, 469.28 598.32 C 468.30 596.18, 467.26 595.04, 465.99 593.15 C 464.71 591.27, 463.35 589.13, 461.64 586.99 C 459.93 584.86, 457.84 581.82, 455.72 580.34 C 453.61 578.86, 450.51 576.97, 448.95 578.11 C 447.38 579.26, 446.85 584.15, 446.34 587.22 C 445.82 590.29, 445.63 593.73, 445.87 596.53 C 446.11 599.33, 446.84 601.73, 447.77 604.02 C 448.70 606.32, 450.61 608.17, 451.45 610.32 C 452.29 612.47, 452.66 614.54, 452.80 616.95 C 452.93 619.36, 451.62 622.64, 452.26 624.78 C 452.90 626.93, 455.52 627.69, 456.64 629.82 C 457.75 631.94, 458.93 635.17, 458.93 637.55 C 458.94 639.93, 457.30 641.79, 456.67 644.08 C 456.04 646.38, 455.28 648.65, 455.15 651.32 C 455.03 653.99, 456.06 657.29, 455.93 660.12 C 455.80 662.94, 453.01 666.46, 454.39 668.27 C 455.78 670.09, 461.04 669.58, 464.22 671.02 C 467.40 672.45, 471.09 675.11, 473.47 676.88 C 475.85 678.66, 475.91 680.04, 478.52 681.66 C 481.12 683.28, 485.86 684.05, 489.10 686.59 C 492.34 689.12, 498.52 693.77, 497.97 696.87 C 497.43 699.97, 489.94 703.44, 485.82 705.18 C 481.69 706.93, 477.10 707.11, 473.23 707.32 C 469.36 707.53, 465.05 708.71, 462.58 706.44 C 460.10 704.18, 460.69 696.70, 458.40 693.74 C 456.10 690.78, 451.49 688.12, 448.79 688.68 C 446.10 689.23, 444.42 693.59, 442.22 697.05 C 440.01 700.51, 438.49 707.34, 435.57 709.42 C 432.64 711.49, 428.06 709.99, 424.69 709.51 C 421.31 709.03, 416.21 709.07, 415.31 706.54 C 414.40 704.01, 417.83 697.93, 419.26 694.35 C 420.70 690.77, 422.34 688.02, 423.93 685.07 C 425.52 682.13, 427.24 679.28, 428.80 676.67 C 430.36 674.05, 432.66 672.15, 433.28 669.39 C 433.90 666.63, 432.54 663.10, 432.55 660.12 C 432.55 657.15, 433.58 654.29, 433.30 651.55 C 433.02 648.82, 430.91 646.07, 430.87 643.70 C 430.83 641.32, 432.94 639.64, 433.08 637.30 C 433.22 634.96, 431.86 632.19, 431.72 629.64 C 431.57 627.09, 432.28 624.57, 432.20 622.02 C 432.12 619.47, 431.54 616.92, 431.26 614.34 C 430.98 611.77, 430.56 609.85, 430.53 606.54 C 430.49 603.24, 430.78 598.23, 431.07 594.51 C 431.35 590.80, 431.87 587.52, 432.23 584.26 C 432.60 581.00, 433.21 577.51, 433.25 574.95 C 433.28 572.40, 432.69 570.96, 432.45 568.93 C 432.21 566.90, 432.22 564.90, 431.79 562.74 C 431.36 560.59, 430.48 558.18, 429.85 555.97 C 429.22 553.77, 428.45 551.83, 428.01 549.54 C 427.57 547.24, 427.60 544.48, 427.20 542.19 C 426.81 539.91, 426.39 538.17, 425.65 535.83 C 424.92 533.50, 423.89 530.82, 422.81 528.17 C 421.72 525.52, 420.76 521.66, 419.13 519.93 C 417.50 518.20, 414.79 517.26, 413.02 517.78 C 411.25 518.30, 409.61 521.00, 408.51 523.05 C 407.41 525.10, 406.56 527.64, 406.43 530.08 C 406.30 532.52, 407.58 535.09, 407.73 537.69 C 407.88 540.29, 407.22 543.31, 407.33 545.67 C 407.44 548.03, 407.73 549.87, 408.38 551.87 C 409.03 553.87, 410.89 555.39, 411.21 557.68 C 411.54 559.97, 410.11 563.39, 410.34 565.61 C 410.57 567.82, 412.16 568.80, 412.58 570.96 C 413.00 573.13, 412.63 576.17, 412.87 578.58 C 413.10 580.99, 413.76 583.06, 413.99 585.42 C 414.21 587.78, 414.08 590.34, 414.22 592.74 C 414.36 595.15, 414.94 597.31, 414.84 599.87 C 414.73 602.43, 414.12 604.65, 413.57 608.09 C 413.01 611.53, 412.01 617.12, 411.48 620.52 C 410.96 623.92, 411.46 628.20, 410.42 628.51 C 409.37 628.83, 407.04 625.09, 405.21 622.41 C 403.37 619.73, 400.70 615.73, 399.40 612.45 C 398.09 609.16, 397.85 605.73, 397.38 602.70 C 396.91 599.67, 397.00 597.02, 396.58 594.27 C 396.16 591.51, 395.25 589.00, 394.87 586.19 C 394.50 583.38, 394.67 580.05, 394.32 577.39 C 393.97 574.73, 393.02 572.64, 392.77 570.23 C 392.53 567.83, 392.96 565.72, 392.86 562.98 C 392.75 560.23, 392.21 557.01, 392.14 553.79 C 392.06 550.56, 392.15 547.02, 392.42 543.63 C 392.68 540.23, 393.51 537.07, 393.72 533.42 C 393.92 529.76, 392.99 525.23, 393.65 521.72 C 394.32 518.20, 396.47 515.05, 397.72 512.32 C 398.97 509.60, 400.49 507.56, 401.17 505.39 C 401.84 503.22, 401.63 501.47, 401.75 499.31 C 401.88 497.15, 402.25 495.02, 401.93 492.44 C 401.62 489.87, 400.46 486.41, 399.87 483.85 C 399.28 481.29, 398.66 479.39, 398.40 477.08 C 398.14 474.76, 398.66 472.18, 398.30 469.95 C 397.94 467.73, 396.72 465.84, 396.24 463.73 C 395.76 461.61, 395.79 459.35, 395.41 457.27 C 395.04 455.20, 394.54 453.40, 394.00 451.27 C 393.46 449.14, 393.15 446.99, 392.19 444.50 C 391.22 442.01, 389.36 438.85, 388.21 436.34 C 387.06 433.84, 386.99 430.63, 385.29 429.46 C 383.58 428.29, 379.73 428.57, 377.98 429.35 C 376.24 430.13, 375.71 432.25, 374.82 434.12 C 373.94 435.99, 372.80 438.34, 372.66 440.56 C 372.53 442.77, 373.42 445.09, 374.03 447.41 C 374.64 449.73, 375.85 452.10, 376.31 454.46 C 376.77 456.82, 376.61 459.21, 376.79 461.57 C 376.97 463.92, 377.13 466.54, 377.42 468.58 C 377.70 470.62, 377.93 471.78, 378.51 473.82 C 379.08 475.86, 380.09 478.48, 380.86 480.81 C 381.63 483.13, 382.38 485.59, 383.13 487.76 C 383.88 489.93, 385.09 491.16, 385.36 493.84 C 385.64 496.52, 385.12 500.23, 384.77 503.84 C 384.42 507.45, 383.78 511.09, 383.25 515.50 C 382.71 519.90, 382.14 526.16, 381.57 530.27 C 380.99 534.38, 380.44 536.70, 379.81 540.14 C 379.17 543.59, 378.18 547.64, 377.75 550.94 C 377.32 554.24, 377.70 556.89, 377.21 559.94 C 376.72 562.99, 375.30 566.26, 374.80 569.25 C 374.30 572.24, 373.83 575.51, 374.19 577.88 C 374.56 580.26, 376.14 581.18, 377.00 583.49 C 377.86 585.80, 378.41 588.39, 379.36 591.75 C 380.32 595.11, 381.89 599.73, 382.73 603.65 C 383.56 607.56, 383.88 612.02, 384.37 615.21 C 384.86 618.41, 385.73 620.15, 385.68 622.79 C 385.64 625.43, 384.18 628.33, 384.07 631.07 C 383.97 633.81, 383.76 637.28, 385.03 639.22 C 386.30 641.15, 389.09 641.54, 391.68 642.67 C 394.28 643.80, 397.94 645.10, 400.59 646.00 C 403.23 646.90, 405.91 646.57, 407.56 648.06 C 409.21 649.56, 410.26 652.42, 410.48 654.98 C 410.69 657.55, 409.64 660.96, 408.86 663.45 C 408.08 665.93, 407.07 666.58, 405.79 669.90 C 404.51 673.22, 402.68 679.26, 401.18 683.39 C 399.69 687.52, 398.38 694.81, 396.82 694.70 C 395.27 694.58, 393.59 686.41, 391.83 682.69 C 390.06 678.96, 387.35 675.57, 386.23 672.35 C 385.12 669.12, 386.77 665.50, 385.14 663.31 C 383.52 661.13, 378.67 660.84, 376.47 659.24 C 374.27 657.65, 374.13 653.78, 371.92 653.72 C 369.72 653.67, 366.63 657.90, 363.24 658.94 C 359.86 659.97, 354.33 660.60, 351.60 659.94 C 348.86 659.27, 347.02 657.45, 346.84 654.95 C 346.66 652.46, 348.85 647.60, 350.52 644.96 C 352.18 642.32, 354.70 640.68, 356.84 639.10 C 358.99 637.52, 362.25 637.28, 363.38 635.46 C 364.51 633.64, 363.53 630.58, 363.63 628.18 C 363.72 625.78, 363.47 623.47, 363.98 621.08 C 364.48 618.68, 366.00 616.30, 366.68 613.81 C 367.36 611.32, 368.20 608.72, 368.05 606.14 C 367.90 603.56, 367.03 600.61, 365.80 598.34 C 364.58 596.06, 362.70 592.64, 360.68 592.51 C 358.67 592.37, 355.88 595.56, 353.74 597.52 C 351.60 599.49, 349.34 602.06, 347.83 604.28 C 346.32 606.50, 345.46 608.76, 344.68 610.84 C 343.90 612.92, 343.99 614.86, 343.16 616.77 C 342.33 618.69, 340.91 620.37, 339.71 622.34 C 338.51 624.32, 337.33 626.61, 335.96 628.60 C 334.59 630.59, 332.92 632.21, 331.49 634.28 C 330.06 636.34, 328.70 638.86, 327.36 641.01 C 326.01 643.16, 324.42 644.97, 323.42 647.16 C 322.42 649.36, 321.82 651.49, 321.37 654.19 C 320.91 656.88, 320.12 660.32, 320.69 663.32 C 321.27 666.33, 323.00 669.97, 324.83 672.22 C 326.66 674.47, 328.91 675.48, 331.68 676.83 C 334.46 678.17, 338.07 679.45, 341.47 680.29 C 344.87 681.13, 349.08 681.64, 352.10 681.85 C 355.12 682.07, 356.92 681.03, 359.59 681.58 C 362.26 682.13, 365.97 683.17, 368.11 685.16 C 370.26 687.15, 371.05 690.49, 372.45 693.51 C 373.85 696.53, 377.06 700.28, 376.50 703.26 C 375.95 706.23, 371.84 710.23, 369.10 711.39 C 366.35 712.54, 362.87 710.59, 360.03 710.16 C 357.18 709.74, 354.71 709.91, 352.01 708.83 C 349.30 707.76, 347.13 704.87, 343.80 703.73 C 340.46 702.58, 336.17 703.13, 332.00 701.94 C 327.82 700.76, 322.78 698.35, 318.74 696.63 C 314.70 694.91, 310.75 693.88, 307.75 691.61 C 304.76 689.33, 301.94 686.22, 300.77 682.99 C 299.61 679.76, 300.85 675.76, 300.75 672.21 C 300.65 668.66, 300.62 665.00, 300.17 661.67 C 299.72 658.34, 298.44 655.17, 298.06 652.21 C 297.68 649.26, 297.48 646.61, 297.87 643.92 C 298.27 641.23, 299.02 638.18, 300.43 636.09 C 301.85 634.00, 304.45 632.99, 306.37 631.40 C 308.29 629.82, 310.62 628.76, 311.96 626.59 C 313.30 624.42, 313.69 620.75, 314.42 618.39 C 315.15 616.02, 315.04 614.12, 316.36 612.39 C 317.67 610.66, 320.53 609.37, 322.30 608.02 C 324.06 606.68, 324.81 606.22, 326.93 604.32 C 329.05 602.41, 332.40 599.42, 335.01 596.59 C 337.62 593.76, 340.09 589.93, 342.59 587.33 C 345.09 584.72, 347.77 582.81, 350.03 580.93 C 352.28 579.06, 354.41 578.17, 356.13 576.09 C 357.86 574.01, 359.03 571.79, 360.37 568.43 C 361.70 565.07, 363.06 559.91, 364.15 555.93 C 365.24 551.94, 366.24 548.24, 366.89 544.52 C 367.53 540.81, 367.65 536.85, 368.02 533.64 C 368.39 530.44, 368.94 528.03, 369.10 525.29 C 369.26 522.56, 369.04 519.47, 368.98 517.22 C 368.93 514.98, 368.74 513.83, 368.78 511.81 C 368.83 509.79, 369.34 507.37, 369.25 505.10 C 369.16 502.84, 368.61 500.38, 368.24 498.21 C 367.88 496.04, 367.68 494.21, 367.08 492.10 C 366.48 490.00, 366.21 486.66, 364.65 485.58 C 363.08 484.51, 359.79 485.23, 357.68 485.66 C 355.58 486.10, 353.84 487.16, 352.02 488.20 C 350.19 489.24, 348.13 490.36, 346.75 491.89 C 345.37 493.43, 343.81 495.42, 343.74 497.40 C 343.66 499.38, 345.56 501.88, 346.31 503.77 C 347.07 505.66, 347.63 506.89, 348.28 508.76 C 348.93 510.64, 349.57 512.75, 350.23 515.00 C 350.88 517.26, 352.15 520.05, 352.22 522.30 C 352.30 524.55, 350.82 526.33, 350.67 528.50 C 350.52 530.68, 351.01 533.06, 351.31 535.35 C 351.61 537.64, 352.40 539.64, 352.48 542.25 C 352.56 544.86, 352.23 547.92, 351.78 551.02 C 351.32 554.12, 351.38 557.78, 349.75 560.84 C 348.13 563.90, 345.47 566.00, 342.04 569.38 C 338.61 572.76, 332.46 578.16, 329.15 581.11 C 325.85 584.06, 324.73 585.59, 322.22 587.06 C 319.71 588.53, 314.93 590.93, 314.08 589.92 C 313.24 588.91, 315.58 584.43, 317.15 580.98 C 318.72 577.53, 323.21 572.15, 323.50 569.22 C 323.79 566.30, 318.47 564.42, 318.89 563.44 C 319.31 562.45, 323.39 564.06, 326.00 563.33 C 328.62 562.60, 332.75 560.83, 334.60 559.03 C 336.46 557.24, 336.82 554.77, 337.14 552.57 C 337.47 550.38, 337.38 547.57, 336.55 545.87 C 335.72 544.17, 334.48 542.21, 332.16 542.38 C 329.85 542.55, 327.15 543.12, 322.66 546.87 C 318.17 550.63, 308.89 559.83, 305.21 564.90 C 301.52 569.97, 301.72 573.78, 300.54 577.29 C 299.37 580.81, 298.81 583.07, 298.15 585.99 C 297.50 588.90, 296.67 592.07, 296.59 594.76 C 296.52 597.45, 298.23 599.91, 297.69 602.11 C 297.15 604.31, 294.79 605.95, 293.38 607.96 C 291.96 609.97, 290.60 612.03, 289.19 614.17 C 287.78 616.31, 286.60 618.87, 284.91 620.81 C 283.23 622.76, 281.19 623.93, 279.08 625.85 C 276.97 627.76, 273.41 629.73, 272.25 632.31 C 271.10 634.88, 271.56 638.38, 272.17 641.31 C 272.78 644.24, 275.21 646.81, 275.91 649.90 C 276.62 653.00, 275.92 656.44, 276.41 659.87 C 276.90 663.29, 278.47 666.60, 278.85 670.47 C 279.22 674.34, 280.25 679.91, 278.65 683.09 C 277.04 686.27, 273.19 688.00, 269.23 689.55 C 265.27 691.10, 257.41 693.25, 254.86 692.40 C 252.31 691.55, 254.17 687.08, 253.92 684.47 C 253.67 681.86, 253.34 680.15, 253.34 676.74 C 253.34 673.33, 254.27 668.31, 253.92 664.03 C 253.57 659.75, 252.01 655.29, 251.25 651.08 C 250.48 646.86, 251.18 640.81, 249.35 638.71 C 247.51 636.62, 243.46 637.53, 240.21 638.50 C 236.96 639.46, 232.24 642.08, 229.83 644.53 C 227.41 646.97, 225.49 650.07, 225.72 653.18 C 225.96 656.28, 230.25 659.87, 231.25 663.18 C 232.24 666.49, 231.63 669.85, 231.70 673.04 C 231.77 676.23, 231.74 678.96, 231.67 682.32 C 231.59 685.69, 232.64 691.88, 231.25 693.24 C 229.86 694.60, 226.01 691.35, 223.33 690.48 C 220.65 689.61, 218.08 689.63, 215.15 688.02 C 212.22 686.40, 208.56 683.62, 205.75 680.78 C 202.94 677.94, 198.96 674.79, 198.31 670.97 C 197.65 667.15, 202.78 661.25, 201.83 657.86 C 200.88 654.47, 195.71 651.90, 192.62 650.63 C 189.52 649.36, 187.02 649.19, 183.25 650.23 C 179.47 651.27, 172.87 657.75, 169.99 656.87 C 167.11 655.99, 168.56 647.75, 165.96 644.95 C 163.36 642.15, 157.45 642.20, 154.41 640.10 C 151.38 638.00, 149.68 635.51, 147.75 632.35 C 145.81 629.18, 141.81 624.02, 142.81 621.10 C 143.80 618.19, 149.58 615.48, 153.70 614.86 C 157.82 614.25, 163.40 616.36, 167.53 617.39 C 171.67 618.42, 175.21 620.05, 178.52 621.05 C 181.82 622.06, 184.39 623.03, 187.36 623.42 C 190.33 623.81, 193.32 622.84, 196.36 623.39 C 199.40 623.95, 203.08 625.32, 205.62 626.77 C 208.16 628.23, 209.21 632.63, 211.60 632.12 C 213.99 631.61, 217.80 626.60, 219.98 623.71 C 222.16 620.82, 222.48 616.51, 224.69 614.76 C 226.89 613.01, 230.10 612.97, 233.23 613.21 C 236.36 613.45, 240.29 615.67, 243.46 616.22 C 246.63 616.77, 249.47 617.26, 252.25 616.50 C 255.02 615.74, 257.72 613.56, 260.10 611.65 C 262.48 609.74, 264.68 607.56, 266.52 605.04 C 268.36 602.52, 269.88 599.19, 271.15 596.55 C 272.42 593.91, 273.02 591.57, 274.12 589.21 C 275.22 586.85, 276.33 585.06, 277.75 582.41 C 279.17 579.76, 281.23 576.02, 282.65 573.30 C 284.07 570.58, 284.16 568.42, 286.28 566.11 C 288.39 563.80, 291.01 562.77, 295.31 559.43 C 299.62 556.09, 307.94 549.84, 312.08 546.07 C 316.22 542.29, 317.30 539.53, 320.17 536.78 C 323.04 534.03, 327.08 531.50, 329.31 529.55 C 331.54 527.59, 332.81 526.73, 333.57 525.04 C 334.34 523.35, 334.30 521.19, 333.91 519.40 C 333.51 517.61, 332.87 515.06, 331.21 514.33 C 329.56 513.59, 326.41 514.16, 323.97 515.00 C 321.54 515.85, 318.73 517.75, 316.61 519.40 C 314.49 521.05, 312.82 523.15, 311.25 524.89 C 309.68 526.64, 308.90 527.76, 307.19 529.88 C 305.49 532.00, 303.01 535.33, 301.04 537.63 C 299.08 539.93, 297.02 542.25, 295.41 543.67 C 293.79 545.08, 292.39 546.84, 291.36 546.12 C 290.32 545.41, 289.26 542.30, 289.18 539.38 C 289.10 536.45, 289.80 531.57, 290.87 528.58 C 291.94 525.59, 293.51 524.09, 295.60 521.46 C 297.70 518.83, 301.09 515.35, 303.44 512.80 C 305.79 510.26, 307.67 507.91, 309.69 506.19 C 311.72 504.46, 313.54 503.59, 315.58 502.47 C 317.63 501.36, 320.02 500.55, 321.97 499.50 C 323.92 498.46, 325.88 497.83, 327.28 496.20 C 328.68 494.58, 330.92 491.26, 330.38 489.73 C 329.85 488.19, 326.74 487.66, 324.07 487.01 C 321.40 486.36, 318.40 483.92, 314.38 485.82 C 310.36 487.73, 303.55 495.02, 299.94 498.42 C 296.33 501.82, 294.99 503.84, 292.70 506.24 C 290.41 508.65, 288.70 510.31, 286.21 512.83 C 283.72 515.36, 279.80 518.74, 277.75 521.40 C 275.69 524.07, 274.80 526.44, 273.87 528.82 C 272.94 531.20, 272.54 533.26, 272.16 535.70 C 271.78 538.15, 271.75 541.01, 271.60 543.48 C 271.45 545.95, 271.55 548.37, 271.25 550.51 C 270.95 552.65, 270.59 554.30, 269.81 556.31 C 269.03 558.32, 268.02 560.62, 266.56 562.56 C 265.11 564.50, 262.89 566.09, 261.08 567.93 C 259.27 569.78, 256.79 571.55, 255.70 573.62 C 254.61 575.70, 255.23 578.00, 254.52 580.39 C 253.82 582.78, 253.07 585.87, 251.47 587.96 C 249.88 590.06, 247.37 592.11, 244.97 592.97 C 242.56 593.83, 239.55 593.93, 237.04 593.12 C 234.53 592.32, 231.68 590.87, 229.91 588.13 C 228.14 585.40, 226.72 579.72, 226.41 576.69 C 226.09 573.65, 226.69 571.83, 228.03 569.95 C 229.36 568.07, 232.60 567.21, 234.43 565.42 C 236.26 563.62, 237.41 561.23, 239.02 559.20 C 240.63 557.17, 242.73 555.36, 244.11 553.24 C 245.49 551.13, 246.21 548.65, 247.30 546.52 C 248.39 544.39, 249.69 542.69, 250.63 540.48 C 251.56 538.26, 251.75 535.88, 252.93 533.23 C 254.11 530.57, 255.88 527.30, 257.69 524.53 C 259.50 521.76, 261.54 519.51, 263.81 516.61 C 266.09 513.72, 268.88 509.75, 271.36 507.15 C 273.85 504.55, 276.30 503.30, 278.74 501.01 C 281.18 498.73, 283.21 495.73, 286.01 493.44 C 288.81 491.14, 292.71 488.82, 295.56 487.24 C 298.40 485.66, 299.35 486.07, 303.07 483.97 C 306.80 481.86, 314.28 476.71, 317.91 474.62 C 321.54 472.53, 322.70 472.07, 324.85 471.42 C 326.99 470.78, 328.73 470.59, 330.76 470.74 C 332.79 470.89, 335.21 472.00, 337.00 472.34 C 338.80 472.68, 339.72 472.95, 341.54 472.77 C 343.37 472.58, 345.98 471.84, 347.95 471.24 C 349.92 470.64, 351.27 469.64, 353.38 469.18 C 355.48 468.73, 359.34 469.86, 360.58 468.50 C 361.83 467.13, 361.10 463.30, 360.85 460.98 C 360.59 458.66, 359.80 456.66, 359.05 454.56 C 358.30 452.46, 357.73 449.50, 356.34 448.38 C 354.95 447.26, 352.73 447.71, 350.70 447.84 C 348.67 447.98, 346.07 448.72, 344.15 449.17 C 342.22 449.63, 340.96 450.30, 339.17 450.58 C 337.37 450.86, 335.30 450.73, 333.37 450.86 C 331.43 450.99, 329.56 451.32, 327.57 451.38 C 325.57 451.44, 323.54 451.00, 321.41 451.22 C 319.27 451.43, 316.70 451.98, 314.77 452.66 C 312.85 453.33, 311.04 453.89, 309.86 455.27 C 308.68 456.65, 308.66 458.98, 307.70 460.93 C 306.74 462.88, 305.71 465.53, 304.11 466.98 C 302.52 468.43, 300.28 468.43, 298.15 469.62 C 296.02 470.81, 294.00 472.25, 291.33 474.10 C 288.67 475.96, 285.12 478.45, 282.15 480.74 C 279.18 483.04, 276.30 485.48, 273.51 487.86 C 270.71 490.24, 267.78 492.50, 265.37 495.03 C 262.96 497.55, 261.52 500.43, 259.04 503.01 C 256.56 505.60, 253.19 508.20, 250.48 510.54 C 247.78 512.87, 244.98 515.08, 242.81 517.02 C 240.63 518.97, 239.11 520.19, 237.41 522.22 C 235.71 524.24, 234.15 527.12, 232.60 529.17 C 231.05 531.22, 229.52 532.78, 228.12 534.54 C 226.72 536.29, 225.50 537.77, 224.18 539.70 C 222.87 541.64, 221.72 544.27, 220.24 546.15 C 218.75 548.02, 217.11 549.41, 215.27 550.96 C 213.42 552.52, 211.33 553.76, 209.20 555.48 C 207.06 557.20, 203.79 559.00, 202.44 561.29 C 201.09 563.58, 200.86 566.79, 201.10 569.22 C 201.34 571.65, 202.73 573.62, 203.87 575.88 C 205.01 578.14, 206.53 579.62, 207.95 582.77 C 209.38 585.92, 212.32 591.75, 212.44 594.79 C 212.56 597.82, 210.78 600.12, 208.68 601.00 C 206.58 601.88, 202.69 600.71, 199.86 600.07 C 197.03 599.42, 194.21 597.57, 191.68 597.15 C 189.15 596.73, 187.49 597.17, 184.66 597.55 C 181.83 597.93, 177.70 599.49, 174.71 599.43 C 171.73 599.36, 169.39 597.96, 166.76 597.16 C 164.13 596.35, 162.00 595.37, 158.94 594.61 C 155.87 593.84, 148.24 593.87, 148.36 592.57 C 148.48 591.26, 156.31 588.34, 159.66 586.77 C 163.01 585.20, 165.71 584.18, 168.46 583.17 C 171.21 582.15, 173.80 582.11, 176.18 580.70 C 178.56 579.29, 181.73 576.97, 182.74 574.69 C 183.76 572.41, 184.20 568.80, 182.26 567.01 C 180.32 565.23, 174.90 564.34, 171.12 563.98 C 167.35 563.62, 163.10 564.51, 159.61 564.85 C 156.12 565.20, 153.34 565.98, 150.21 566.05 C 147.07 566.12, 143.66 567.05, 140.79 565.29 C 137.92 563.52, 134.96 559.06, 133.00 555.44 C 131.03 551.83, 127.84 546.91, 128.98 543.57 C 130.13 540.24, 136.47 537.09, 139.89 535.44 C 143.32 533.79, 147.08 532.72, 149.52 533.67 C 151.97 534.62, 152.40 539.08, 154.56 541.17 C 156.72 543.26, 159.39 545.42, 162.47 546.22 C 165.54 547.01, 169.68 545.86, 173.03 545.93 C 176.38 546.01, 179.56 546.91, 182.54 546.66 C 185.52 546.40, 188.74 545.91, 190.92 544.40 C 193.10 542.88, 193.84 539.57, 195.64 537.55 C 197.43 535.53, 199.86 534.20, 201.69 532.25 C 203.51 530.31, 204.78 527.86, 206.57 525.89 C 208.36 523.92, 210.65 522.15, 212.42 520.42 C 214.19 518.69, 215.52 517.30, 217.18 515.52 C 218.85 513.73, 220.24 511.29, 222.40 509.71 C 224.55 508.13, 227.58 507.50, 230.13 506.02 C 232.67 504.54, 235.36 502.51, 237.66 500.83 C 239.97 499.16, 241.70 497.65, 243.95 495.97 C 246.20 494.28, 248.74 492.82, 251.16 490.72 C 253.57 488.61, 255.96 485.60, 258.44 483.34 C 260.93 481.08, 263.65 479.10, 266.05 477.17 C 268.45 475.24, 270.69 473.45, 272.84 471.76 C 275.00 470.08, 276.94 468.94, 278.97 467.04 C 280.99 465.15, 282.74 462.55, 284.99 460.38 C 287.25 458.20, 291.17 456.00, 292.49 454.00 C 293.82 452.00, 293.96 449.62, 292.94 448.37 C 291.91 447.11, 288.65 446.75, 286.33 446.47 C 284.01 446.18, 281.12 445.98, 279.01 446.68 C 276.91 447.38, 275.90 448.66, 273.69 450.65 C 271.49 452.63, 268.40 456.13, 265.78 458.58 C 263.16 461.03, 260.35 463.50, 257.96 465.36 C 255.57 467.23, 253.61 468.10, 251.45 469.79 C 249.30 471.47, 247.32 473.49, 245.03 475.46 C 242.73 477.44, 240.24 480.20, 237.67 481.64 C 235.11 483.09, 232.12 483.02, 229.62 484.13 C 227.11 485.24, 225.00 487.31, 222.64 488.31 C 220.28 489.32, 217.68 489.27, 215.46 490.17 C 213.24 491.07, 211.54 492.50, 209.33 493.71 C 207.11 494.91, 204.33 495.84, 202.17 497.41 C 200.00 498.97, 198.01 501.40, 196.34 503.09 C 194.68 504.78, 193.49 505.80, 192.17 507.54 C 190.85 509.27, 189.87 511.36, 188.40 513.48 C 186.93 515.61, 185.78 518.18, 183.36 520.27 C 180.93 522.36, 176.45 525.85, 173.85 526.02 C 171.25 526.19, 168.67 523.59, 167.77 521.30 C 166.87 519.01, 168.78 515.33, 168.46 512.28 C 168.13 509.23, 165.85 505.73, 165.80 503.02 C 165.75 500.31, 167.11 498.07, 168.14 496.00 C 169.18 493.92, 169.98 491.71, 172.00 490.60 C 174.02 489.49, 178.12 490.51, 180.26 489.32 C 182.40 488.14, 183.16 485.19, 184.84 483.47 C 186.51 481.75, 188.36 480.02, 190.31 478.99 C 192.26 477.96, 194.60 478.30, 196.54 477.29 C 198.47 476.29, 200.10 474.04, 201.92 472.96 C 203.74 471.89, 205.70 471.91, 207.48 470.84 C 209.25 469.76, 210.71 466.95, 212.58 466.51 C 214.45 466.06, 216.66 468.41, 218.71 468.19 C 220.76 467.97, 222.75 465.48, 224.89 465.18 C 227.02 464.88, 230.14 467.49, 231.50 466.39 C 232.87 465.30, 231.55 460.09, 233.08 458.61 C 234.60 457.13, 239.24 458.74, 240.65 457.53 C 242.07 456.33, 240.02 452.38, 241.57 451.37 C 243.12 450.37, 247.28 451.93, 249.93 451.50 C 252.59 451.07, 255.74 450.30, 257.50 448.79 C 259.27 447.27, 259.70 444.29, 260.50 442.38 C 261.30 440.48, 263.48 438.63, 262.29 437.37 C 261.10 436.11, 256.49 435.20, 253.34 434.83 C 250.20 434.47, 246.83 434.73, 243.42 435.17 C 240.01 435.61, 236.01 436.76, 232.91 437.49 C 229.81 438.21, 227.24 438.44, 224.81 439.52 C 222.39 440.60, 220.45 442.83, 218.36 443.98 C 216.27 445.12, 214.45 445.81, 212.27 446.38 C 210.09 446.96, 207.69 446.94, 205.27 447.44 C 202.85 447.94, 200.01 448.46, 197.75 449.40 C 195.50 450.33, 193.88 451.91, 191.74 453.04 C 189.59 454.16, 187.04 455.04, 184.89 456.13 C 182.73 457.22, 180.94 458.10, 178.81 459.56 C 176.67 461.02, 174.36 463.17, 172.07 464.87 C 169.79 466.57, 167.50 468.18, 165.07 469.74 C 162.65 471.30, 160.28 472.85, 157.52 474.22 C 154.77 475.59, 150.89 476.61, 148.54 477.94 C 146.19 479.27, 143.99 479.41, 143.41 482.20 C 142.84 484.98, 144.73 490.70, 145.07 494.65 C 145.40 498.61, 146.37 503.04, 145.45 505.95 C 144.54 508.86, 142.67 510.44, 139.57 512.10 C 136.47 513.75, 130.88 514.92, 126.85 515.88 C 122.83 516.84, 118.03 519.39, 115.41 517.85 C 112.79 516.32, 110.51 510.04, 111.13 506.67 C 111.75 503.30, 116.70 500.66, 119.13 497.65 C 121.56 494.64, 125.70 490.84, 125.71 488.62 C 125.71 486.41, 120.99 486.54, 119.16 484.34 C 117.34 482.13, 117.14 477.88, 114.75 475.38 C 112.37 472.89, 104.41 471.33, 104.85 469.38 C 105.30 467.43, 113.62 465.60, 117.40 463.70 C 121.19 461.79, 124.55 458.69, 127.56 457.98 C 130.58 457.26, 132.87 459.61, 135.51 459.40 C 138.14 459.19, 140.70 457.71, 143.36 456.70 C 146.02 455.69, 148.85 454.78, 151.45 453.32 C 154.05 451.87, 156.40 449.74, 158.98 447.99 C 161.56 446.24, 164.40 444.66, 166.94 442.83 C 169.48 441.00, 172.18 438.70, 174.21 437.00 C 176.25 435.30, 177.08 433.47, 179.16 432.63 C 181.23 431.79, 184.02 432.43, 186.67 431.97 C 189.32 431.50, 192.45 430.47, 195.07 429.87 C 197.69 429.26, 199.89 428.50, 202.39 428.32 C 204.89 428.15, 206.95 429.22, 210.06 428.81 C 213.18 428.39, 217.14 426.63, 221.06 425.83 C 224.99 425.02, 229.92 424.45, 233.62 423.98 C 237.31 423.52, 239.38 423.27, 243.23 423.05 C 247.08 422.82, 252.79 422.39, 256.74 422.64 C 260.69 422.88, 264.17 423.94, 266.96 424.50 C 269.74 425.05, 271.30 425.39, 273.46 425.96 C 275.63 426.53, 278.02 427.50, 279.95 427.91 C 281.88 428.32, 283.19 428.35, 285.05 428.39 C 286.92 428.44, 289.18 427.72, 291.13 428.16 C 293.08 428.60, 294.78 430.25, 296.74 431.05 C 298.70 431.85, 300.88 432.30, 302.88 432.96 C 304.89 433.63, 306.96 434.94, 308.77 435.05 C 310.57 435.15, 311.94 433.83, 313.70 433.59 C 315.46 433.35, 317.29 433.82, 319.31 433.63 C 321.33 433.44, 323.72 433.05, 325.82 432.47 C 327.92 431.88, 329.98 430.33, 331.94 430.12 C 333.89 429.91, 335.44 431.00, 337.55 431.19 C 339.66 431.38, 342.30 431.37, 344.58 431.25 C 346.86 431.14, 348.89 430.64, 351.21 430.48 C 353.52 430.33, 356.78 431.26, 358.47 430.32 C 360.17 429.38, 361.46 426.67, 361.37 424.85 C 361.27 423.03, 359.86 421.16, 357.90 419.39 C 355.95 417.62, 352.29 415.45, 349.63 414.22 C 346.97 412.98, 344.07 412.57, 341.94 411.98 C 339.80 411.40, 338.83 410.68, 336.82 410.73 C 334.81 410.77, 332.01 412.04, 329.86 412.26 C 327.72 412.48, 326.08 411.84, 323.97 412.03 C 321.86 412.21, 319.26 413.35, 317.20 413.37 C 315.14 413.39, 313.52 412.20, 311.61 412.15 C 309.69 412.10, 307.61 413.33, 305.70 413.05 C 303.79 412.78, 302.16 411.20, 300.13 410.51 C 298.11 409.82, 295.51 409.61, 293.55 408.90 C 291.59 408.20, 290.42 406.74, 288.38 406.28 C 286.33 405.82, 283.24 406.31, 281.27 406.14 C 279.30 405.96, 278.52 405.00, 276.56 405.23 C 274.60 405.45, 271.88 406.88, 269.49 407.49 C 267.10 408.10, 264.91 408.48, 262.21 408.89 C 259.51 409.30, 256.62 409.69, 253.31 409.98 C 250.00 410.26, 246.60 410.37, 242.37 410.60 C 238.14 410.84, 231.89 411.12, 227.92 411.38 C 223.95 411.65, 221.63 412.11, 218.55 412.20 C 215.47 412.29, 212.46 412.09, 209.44 411.93 C 206.42 411.78, 203.19 411.69, 200.42 411.29 C 197.66 410.89, 195.30 409.79, 192.85 409.55 C 190.39 409.31, 188.09 410.12, 185.69 409.85 C 183.30 409.59, 180.93 408.42, 178.48 407.97 C 176.03 407.52, 173.19 406.58, 170.99 407.16 C 168.79 407.74, 166.85 409.64, 165.27 411.45 C 163.70 413.25, 162.87 415.66, 161.55 417.98 C 160.23 420.31, 159.78 423.34, 157.36 425.39 C 154.94 427.44, 150.32 428.76, 147.02 430.31 C 143.71 431.85, 139.33 435.41, 137.54 434.67 C 135.74 433.92, 136.55 429.04, 136.27 425.83 C 135.99 422.62, 134.87 418.37, 135.87 415.39 C 136.87 412.41, 140.04 410.40, 142.26 407.93 C 144.48 405.47, 148.59 403.02, 149.16 400.60 C 149.74 398.17, 147.73 395.20, 145.71 393.38 C 143.68 391.56, 140.46 390.08, 137.01 389.67 C 133.57 389.27, 128.35 389.75, 125.04 390.97 C 121.74 392.19, 119.09 394.49, 117.17 397.00 C 115.25 399.52, 114.29 402.64, 113.53 406.05 C 112.77 409.47, 112.46 413.74, 112.62 417.51 C 112.79 421.27, 114.18 425.35, 114.52 428.63 C 114.87 431.91, 116.12 434.72, 114.69 437.19 C 113.27 439.67, 109.38 441.72, 105.96 443.48 C 102.54 445.25, 97.64 448.59, 94.20 447.77 C 90.76 446.95, 86.59 442.10, 85.31 438.57 C 84.03 435.04, 85.59 430.20, 86.53 426.59 C 87.46 422.99, 90.24 420.64, 90.90 416.94 C 91.56 413.23, 90.29 408.46, 90.50 404.37 C 90.72 400.28, 91.35 396.26, 92.19 392.41 C 93.04 388.55, 93.89 384.12, 95.57 381.21 C 97.26 378.31, 99.38 376.38, 102.30 374.97 C 105.22 373.56, 109.72 373.46, 113.09 372.73 C 116.45 372.00, 119.33 371.13, 122.47 370.60 C 125.62 370.06, 129.07 370.39, 131.95 369.51 C 134.83 368.63, 137.09 365.38, 139.74 365.29 C 142.40 365.21, 145.18 367.99, 147.88 369.02 C 150.58 370.06, 153.86 369.88, 155.96 371.49 C 158.05 373.10, 158.93 376.32, 160.45 378.70 C 161.97 381.08, 162.97 384.45, 165.06 385.76 C 167.16 387.07, 170.59 386.65, 173.01 386.54 C 175.44 386.42, 177.15 385.08, 179.63 385.05 C 182.10 385.03, 185.50 385.64, 187.88 386.40 C 190.26 387.15, 191.73 388.99, 193.89 389.59 C 196.06 390.19, 198.81 389.27, 200.87 389.98 C 202.93 390.70, 204.03 392.61, 206.25 393.87 C 208.46 395.12, 210.90 396.77, 214.15 397.51 C 217.41 398.26, 222.15 398.36, 225.76 398.35 C 229.37 398.33, 233.26 397.94, 235.79 397.41 C 238.31 396.87, 238.98 395.33, 240.91 395.12 C 242.83 394.91, 244.75 396.13, 247.35 396.15 C 249.96 396.17, 253.60 395.88, 256.53 395.23 C 259.45 394.57, 263.20 393.58, 264.91 392.22 C 266.63 390.85, 267.41 388.67, 266.82 387.05 C 266.22 385.43, 263.45 383.86, 261.33 382.49 C 259.22 381.12, 256.32 379.97, 254.14 378.81 C 251.95 377.66, 250.05 376.26, 248.21 375.56 C 246.37 374.87, 245.27 375.20, 243.08 374.64 C 240.90 374.09, 239.38 372.27, 235.10 372.23 C 230.81 372.20, 218.78 373.84, 217.37 374.43 C 215.96 375.02, 225.03 374.24, 226.62 375.77 C 228.21 377.29, 227.99 382.70, 226.91 383.59 C 225.84 384.48, 222.98 383.34, 220.17 381.13 C 217.36 378.92, 213.36 372.42, 210.05 370.32 C 206.73 368.21, 202.87 369.16, 200.30 368.53 C 197.73 367.89, 196.77 367.01, 194.60 366.51 C 192.44 366.02, 189.56 366.46, 187.30 365.57 C 185.05 364.67, 183.21 362.24, 181.06 361.14 C 178.91 360.05, 176.30 360.14, 174.39 358.98 C 172.49 357.82, 171.46 355.78, 169.63 354.17 C 167.80 352.56, 165.64 350.81, 163.41 349.34 C 161.19 347.86, 158.67 346.51, 156.29 345.32 C 153.91 344.13, 151.48 343.96, 149.14 342.20 C 146.80 340.44, 144.51 334.74, 142.27 334.76 C 140.02 334.78, 138.30 340.58, 135.66 342.33 C 133.03 344.09, 129.35 344.47, 126.46 345.31 C 123.56 346.16, 121.21 346.86, 118.29 347.40 C 115.36 347.94, 112.20 347.79, 108.89 348.54 C 105.59 349.29, 101.91 352.38, 98.46 351.91 C 95.00 351.43, 90.12 348.52, 88.15 345.71 C 86.17 342.90, 86.91 338.91, 86.61 335.05 C 86.31 331.20, 85.68 326.49, 86.32 322.56 C 86.96 318.62, 88.64 312.61, 90.46 311.44 C 92.28 310.27, 94.80 314.16, 97.24 315.54 C 99.68 316.92, 102.60 318.09, 105.10 319.73 C 107.61 321.36, 109.19 324.84, 112.26 325.38 C 115.33 325.91, 120.05 324.45, 123.51 322.93 C 126.98 321.41, 132.36 318.84, 133.04 316.26 C 133.73 313.69, 130.54 310.09, 127.63 307.47 C 124.71 304.84, 119.39 303.30, 115.56 300.52 C 111.73 297.75, 105.18 293.33, 104.66 290.83 C 104.14 288.32, 109.60 286.40, 112.43 285.50 C 115.26 284.60, 118.79 285.49, 121.64 285.41 C 124.49 285.34, 126.55 284.48, 129.52 285.04 C 132.49 285.60, 136.46 287.60, 139.45 288.78 C 142.44 289.95, 145.80 290.15, 147.44 292.08 C 149.09 294.01, 148.52 297.34, 149.32 300.35 C 150.12 303.36, 151.37 307.19, 152.23 310.15 C 153.09 313.12, 153.02 315.94, 154.49 318.13 C 155.97 320.32, 158.57 321.85, 161.10 323.30 C 163.62 324.75, 167.26 325.58, 169.64 326.83 C 172.02 328.08, 173.09 329.89, 175.36 330.80 C 177.63 331.72, 181.44 331.22, 183.26 332.33 C 185.08 333.44, 184.74 335.87, 186.26 337.47 C 187.79 339.06, 190.55 340.42, 192.40 341.90 C 194.25 343.38, 195.26 345.18, 197.35 346.36 C 199.44 347.53, 202.39 347.96, 204.94 348.95 C 207.50 349.93, 210.41 351.54, 212.66 352.25 C 214.92 352.97, 216.47 352.63, 218.47 353.25 C 220.48 353.87, 222.28 355.37, 224.68 355.99 C 227.08 356.60, 229.92 356.58, 232.88 356.94 C 235.84 357.30, 239.14 357.36, 242.42 358.17 C 245.70 358.97, 249.32 360.47, 252.54 361.78 C 255.75 363.09, 258.65 364.50, 261.69 366.02 C 264.72 367.55, 268.02 368.87, 270.74 370.94 C 273.47 373.00, 276.02 376.02, 278.04 378.41 C 280.06 380.80, 281.23 383.59, 282.87 385.26 C 284.51 386.93, 286.06 387.60, 287.86 388.42 C 289.66 389.25, 291.16 389.39, 293.67 390.21 C 296.18 391.02, 300.05 392.58, 302.93 393.31 C 305.81 394.04, 308.40 394.13, 310.96 394.59 C 313.51 395.04, 315.56 395.70, 318.27 396.03 C 320.97 396.36, 323.65 396.33, 327.18 396.57 C 330.70 396.81, 335.68 397.03, 339.43 397.45 C 343.17 397.88, 346.69 398.25, 349.64 399.09 C 352.58 399.93, 354.83 401.33, 357.08 402.47 C 359.32 403.61, 360.88 404.62, 363.11 405.93 C 365.34 407.25, 368.29 409.27, 370.47 410.35 C 372.65 411.44, 374.16 412.26, 376.19 412.45 C 378.21 412.63, 380.78 412.51, 382.61 411.45 C 384.44 410.38, 386.92 407.92, 387.14 406.07 C 387.36 404.23, 385.38 402.42, 383.92 400.37 C 382.47 398.31, 380.10 395.87, 378.43 393.73 C 376.76 391.60, 375.55 388.62, 373.90 387.58 C 372.25 386.53, 370.59 387.57, 368.51 387.44 C 366.44 387.32, 363.93 387.21, 361.46 386.83 C 359.00 386.44, 356.43 385.63, 353.73 385.13 C 351.02 384.64, 347.70 384.36, 345.23 383.85 C 342.76 383.33, 341.10 382.33, 338.91 382.05 C 336.73 381.78, 334.35 382.27, 332.12 382.18 C 329.89 382.09, 328.23 381.68, 325.53 381.54 C 322.84 381.40, 319.39 381.60, 315.94 381.33 C 312.50 381.07, 308.14 381.10, 304.84 379.96 C 301.55 378.81, 299.36 376.44, 296.17 374.47 C 292.99 372.50, 288.99 370.55, 285.74 368.14 C 282.49 365.72, 279.63 362.37, 276.67 360.00 C 273.72 357.62, 270.78 355.41, 268.03 353.89 C 265.27 352.37, 262.96 351.97, 260.14 350.89 C 257.32 349.81, 254.22 348.71, 251.10 347.43 C 247.97 346.15, 244.70 344.37, 241.39 343.20 C 238.09 342.03, 234.39 341.48, 231.27 340.42 C 228.15 339.37, 225.90 338.32, 222.67 336.88 C 219.44 335.43, 214.71 333.64, 211.90 331.73 C 209.09 329.81, 206.01 326.88, 205.82 325.40 C 205.62 323.91, 208.64 323.99, 210.72 322.83 C 212.81 321.67, 215.96 318.96, 218.33 318.43 C 220.69 317.89, 222.53 318.57, 224.90 319.60 C 227.26 320.63, 229.95 323.18, 232.52 324.60 C 235.10 326.02, 237.62 326.92, 240.35 328.12 C 243.08 329.32, 245.99 330.41, 248.90 331.80 C 251.81 333.18, 254.34 334.69, 257.81 336.45 C 261.27 338.20, 265.89 340.42, 269.70 342.32 C 273.51 344.22, 277.72 346.36, 280.69 347.84 C 283.65 349.32, 285.52 350.01, 287.49 351.19 C 289.46 352.37, 290.80 353.71, 292.51 354.91 C 294.22 356.10, 296.03 357.17, 297.73 358.39 C 299.42 359.61, 300.96 361.10, 302.68 362.24 C 304.40 363.38, 305.80 364.25, 308.04 365.22 C 310.27 366.20, 313.48 367.70, 316.10 368.08 C 318.73 368.47, 322.33 368.73, 323.80 367.53 C 325.26 366.32, 325.43 362.98, 324.89 360.86 C 324.36 358.73, 322.01 356.81, 320.60 354.78 C 319.19 352.74, 318.03 350.51, 316.44 348.66 C 314.85 346.81, 312.77 345.13, 311.08 343.69 C 309.39 342.25, 308.12 341.08, 306.30 340.02 C 304.48 338.96, 302.10 338.29, 300.16 337.33 C 298.21 336.38, 296.67 335.02, 294.61 334.27 C 292.54 333.52, 290.13 333.39, 287.76 332.83 C 285.39 332.28, 282.85 331.52, 280.40 330.93 C 277.95 330.34, 275.61 330.13, 273.04 329.30 C 270.46 328.46, 268.00 327.50, 264.94 325.92 C 261.87 324.34, 257.65 321.85, 254.64 319.83 C 251.63 317.81, 249.34 315.70, 246.87 313.81 C 244.41 311.91, 241.91 310.27, 239.85 308.45 C 237.79 306.64, 236.59 304.21, 234.51 302.90 C 232.44 301.58, 229.53 301.60, 227.40 300.55 C 225.28 299.49, 223.93 297.14, 221.77 296.55 C 219.62 295.97, 216.90 296.68, 214.46 297.04 C 212.02 297.40, 209.41 297.64, 207.11 298.69 C 204.82 299.74, 202.79 301.63, 200.70 303.32 C 198.61 305.02, 196.66 307.75, 194.59 308.86 C 192.52 309.97, 190.53 309.90, 188.30 309.99 C 186.07 310.09, 183.62 310.47, 181.19 309.42 C 178.77 308.36, 175.62 306.04, 173.77 303.66 C 171.92 301.29, 170.36 297.88, 170.09 295.15 C 169.82 292.41, 170.30 288.86, 172.13 287.24 C 173.96 285.61, 178.37 286.22, 181.06 285.40 C 183.74 284.57, 186.04 282.63, 188.24 282.29 C 190.45 281.95, 192.03 283.79, 194.30 283.33 C 196.58 282.87, 199.49 280.67, 201.90 279.51 C 204.30 278.36, 206.59 277.27, 208.73 276.43 C 210.87 275.58, 212.54 274.98, 214.74 274.44 C 216.94 273.89, 219.50 272.96, 221.93 273.16 C 224.36 273.36, 226.95 275.39, 229.32 275.64 C 231.69 275.88, 234.76 273.56, 236.15 274.65 C 237.53 275.75, 236.40 280.23, 237.64 282.22 C 238.87 284.20, 241.68 285.27, 243.58 286.58 C 245.48 287.90, 247.29 288.75, 249.02 290.10 C 250.74 291.45, 252.45 293.29, 253.93 294.68 C 255.41 296.07, 256.69 296.49, 257.90 298.44 C 259.11 300.38, 259.83 304.17, 261.18 306.34 C 262.53 308.51, 263.75 309.67, 266.00 311.45 C 268.26 313.23, 271.54 315.81, 274.71 317.01 C 277.87 318.21, 284.00 320.76, 285.00 318.66 C 286.00 316.57, 282.27 307.88, 280.68 304.42 C 279.10 300.97, 275.23 298.90, 275.50 297.94 C 275.77 296.97, 279.61 297.88, 282.31 298.62 C 285.01 299.36, 289.34 300.78, 291.68 302.37 C 294.02 303.95, 295.36 306.26, 296.32 308.14 C 297.28 310.01, 296.10 311.12, 297.44 313.62 C 298.77 316.12, 301.89 320.86, 304.34 323.13 C 306.78 325.39, 309.46 325.48, 312.10 327.20 C 314.74 328.91, 317.49 331.19, 320.19 333.41 C 322.89 335.63, 325.99 337.77, 328.31 340.52 C 330.63 343.28, 332.37 347.13, 334.12 349.93 C 335.88 352.73, 337.67 355.06, 338.85 357.31 C 340.03 359.55, 340.06 361.75, 341.20 363.38 C 342.34 365.02, 343.77 366.05, 345.70 367.12 C 347.62 368.19, 349.97 368.98, 352.76 369.80 C 355.55 370.63, 359.51 372.01, 362.44 372.09 C 365.36 372.17, 368.51 371.39, 370.32 370.27 C 372.12 369.15, 373.51 366.97, 373.28 365.38 C 373.05 363.80, 370.71 362.33, 368.95 360.74 C 367.20 359.14, 364.99 357.46, 362.75 355.82 C 360.51 354.19, 357.32 352.43, 355.51 350.94 C 353.70 349.44, 353.36 348.43, 351.88 346.84 C 350.41 345.25, 348.31 343.21, 346.67 341.41 C 345.04 339.62, 343.67 337.96, 342.07 336.08 C 340.47 334.20, 338.47 332.00, 337.05 330.13 C 335.63 328.26, 334.68 326.74, 333.56 324.87 C 332.44 323.00, 331.86 320.22, 330.32 318.91 C 328.77 317.61, 326.02 318.03, 324.30 317.02 C 322.59 316.01, 321.51 314.07, 320.01 312.85 C 318.51 311.62, 317.13 311.28, 315.30 309.69 C 313.46 308.11, 310.98 305.80, 308.99 303.35 C 307.00 300.91, 305.72 297.45, 303.36 295.03 C 301.01 292.61, 297.83 290.66, 294.86 288.83 C 291.89 286.99, 288.45 285.07, 285.54 284.03 C 282.62 282.98, 279.86 283.24, 277.37 282.53 C 274.88 281.82, 272.68 280.48, 270.62 279.78 C 268.56 279.08, 266.70 279.46, 265.01 278.33 C 263.33 277.21, 261.89 275.00, 260.50 273.02 C 259.10 271.03, 257.94 268.18, 256.64 266.43 C 255.35 264.67, 254.17 263.72, 252.73 262.50 C 251.29 261.27, 248.97 261.00, 247.99 259.08 C 247.00 257.15, 247.78 253.33, 246.83 250.96 C 245.89 248.60, 244.34 245.65, 242.33 244.90 C 240.32 244.16, 236.91 245.22, 234.77 246.48 C 232.63 247.75, 231.81 250.84, 229.50 252.48 C 227.20 254.13, 226.08 255.05, 220.93 256.35 C 215.79 257.65, 204.18 259.69, 198.61 260.28 C 193.05 260.87, 190.81 259.76, 187.56 259.89 C 184.31 260.03, 181.88 260.07, 179.11 261.10 C 176.34 262.12, 174.02 264.52, 170.95 266.06 C 167.89 267.61, 164.02 269.80, 160.72 270.37 C 157.42 270.94, 154.46 270.28, 151.18 269.47 C 147.91 268.66, 144.69 266.74, 141.08 265.50 C 137.47 264.25, 132.79 262.47, 129.52 262.00 C 126.25 261.53, 124.55 262.46, 121.45 262.66 C 118.34 262.87, 113.33 265.24, 110.90 263.23 C 108.47 261.22, 106.79 253.81, 106.85 250.58 C 106.90 247.34, 109.80 246.07, 111.25 243.82 C 112.70 241.58, 115.44 239.80, 115.54 237.11 C 115.64 234.42, 114.82 229.95, 111.83 227.68 C 108.85 225.42, 100.40 226.39, 97.64 223.53 C 94.87 220.68, 95.20 213.97, 95.25 210.55 C 95.29 207.12, 97.11 205.51, 97.90 202.99 C 98.68 200.47, 97.98 197.67, 99.97 195.43 C 101.96 193.19, 106.84 188.83, 109.81 189.56 C 112.79 190.29, 115.12 197.24, 117.83 199.83 C 120.54 202.43, 123.57 203.27, 126.08 205.12 C 128.58 206.96, 130.88 208.74, 132.86 210.89 C 134.85 213.04, 135.84 216.10, 137.99 218.01 C 140.14 219.92, 144.55 219.82, 145.77 222.35 C 146.98 224.88, 146.00 229.86, 145.27 233.20 C 144.53 236.55, 139.86 240.36, 141.34 242.40 C 142.81 244.45, 150.14 245.31, 154.13 245.50 C 158.12 245.68, 162.21 244.60, 165.29 243.51 C 168.36 242.42, 171.44 241.42, 172.59 238.96 C 173.74 236.50, 172.34 231.96, 172.19 228.76 C 172.04 225.55, 172.73 222.21, 171.68 219.73 C 170.63 217.24, 167.87 216.35, 165.91 213.84 C 163.96 211.34, 161.61 207.81, 159.95 204.70 C 158.30 201.59, 157.92 197.56, 155.98 195.18 C 154.03 192.79, 150.69 191.77, 148.28 190.38 C 145.87 188.99, 144.16 188.18, 141.51 186.81 C 138.86 185.45, 135.55 184.71, 132.39 182.20 C 129.24 179.69, 123.09 175.15, 122.57 171.74 C 122.06 168.34, 125.94 164.14, 129.30 161.76 C 132.66 159.37, 138.60 156.74, 142.75 157.44 C 146.91 158.15, 152.29 165.94, 154.23 165.97 C 156.17 166.00, 154.10 160.84, 154.38 157.62 C 154.66 154.40, 153.85 149.02, 155.93 146.65 C 158.00 144.28, 163.24 144.58, 166.82 143.41 C 170.40 142.23, 175.49 138.63, 177.40 139.59 C 179.31 140.56, 178.02 145.96, 178.30 149.18 C 178.59 152.40, 179.04 155.56, 179.11 158.90 C 179.19 162.24, 179.50 166.17, 178.76 169.20 C 178.03 172.23, 174.82 174.16, 174.70 177.09 C 174.58 180.02, 176.36 184.29, 178.03 186.78 C 179.70 189.28, 183.14 189.69, 184.71 192.05 C 186.28 194.41, 185.99 198.40, 187.46 200.93 C 188.92 203.46, 191.39 205.06, 193.51 207.25 C 195.64 209.45, 199.46 211.55, 200.21 214.10 C 200.97 216.65, 198.84 219.63, 198.05 222.57 C 197.25 225.50, 195.75 228.89, 195.46 231.71 C 195.18 234.53, 194.87 237.00, 196.33 239.49 C 197.78 241.98, 200.77 246.10, 204.20 246.66 C 207.62 247.22, 214.18 245.13, 216.89 242.86 C 219.59 240.58, 220.02 236.17, 220.42 233.02 C 220.82 229.88, 218.51 226.15, 219.27 224.01 C 220.03 221.87, 222.54 220.19, 225.00 220.17 C 227.45 220.14, 231.06 222.83, 234.01 223.86 C 236.95 224.89, 241.06 227.39, 242.66 226.36 C 244.27 225.32, 243.14 220.48, 243.64 217.64 C 244.15 214.81, 244.77 211.95, 245.68 209.34 C 246.60 206.73, 249.32 204.59, 249.13 201.99 C 248.95 199.40, 246.44 196.14, 244.55 193.77 C 242.66 191.41, 240.16 187.89, 237.81 187.80 C 235.47 187.71, 233.01 191.42, 230.48 193.23 C 227.94 195.03, 224.99 197.83, 222.61 198.63 C 220.22 199.43, 217.98 199.28, 216.15 198.01 C 214.33 196.74, 213.25 193.45, 211.68 191.02 C 210.10 188.58, 208.24 185.86, 206.72 183.40 C 205.21 180.94, 203.81 178.77, 202.59 176.27 C 201.38 173.78, 200.16 171.65, 199.43 168.45 C 198.71 165.24, 198.26 161.21, 198.24 157.02 C 198.23 152.83, 197.76 147.10, 199.32 143.31 C 200.88 139.52, 204.94 133.85, 207.59 134.29 C 210.24 134.74, 213.38 142.08, 215.22 145.98 C 217.06 149.88, 217.27 153.93, 218.61 157.70 C 219.94 161.47, 220.92 166.47, 223.24 168.62 C 225.56 170.77, 229.70 171.60, 232.55 170.58 C 235.40 169.56, 238.75 165.53, 240.33 162.48 C 241.91 159.44, 242.41 155.80, 242.04 152.33 C 241.68 148.85, 239.65 145.22, 238.15 141.63 C 236.64 138.05, 232.83 133.97, 233.01 130.81 C 233.19 127.65, 236.23 124.57, 239.23 122.67 C 242.23 120.77, 247.49 118.46, 251.00 119.41 C 254.51 120.36, 258.40 125.48, 260.29 128.37 C 262.19 131.25, 262.15 133.75, 262.37 136.72 C 262.58 139.69, 261.10 143.04, 261.57 146.21 C 262.05 149.38, 264.23 152.85, 265.22 155.74 C 266.21 158.62, 268.38 161.25, 267.48 163.50 C 266.58 165.75, 261.72 166.92, 259.81 169.22 C 257.91 171.51, 256.10 174.65, 256.05 177.26 C 255.99 179.88, 256.89 182.79, 259.49 184.91 C 262.08 187.03, 268.27 190.80, 271.63 190.00 C 274.99 189.21, 278.16 180.64, 279.65 180.15 C 281.14 179.66, 282.10 183.43, 280.58 187.06 C 279.05 190.69, 272.89 198.29, 270.51 201.94 C 268.12 205.59, 267.26 206.59, 266.25 208.95 C 265.24 211.32, 265.09 213.57, 264.42 216.13 C 263.76 218.70, 263.13 221.78, 262.27 224.34 C 261.41 226.90, 259.12 229.13, 259.25 231.49 C 259.38 233.85, 261.80 236.39, 263.07 238.52 C 264.34 240.65, 265.72 242.44, 266.89 244.28 C 268.05 246.11, 269.05 247.70, 270.06 249.54 C 271.07 251.38, 271.81 253.35, 272.95 255.30 C 274.09 257.25, 275.20 259.06, 276.88 261.24 C 278.55 263.41, 280.44 266.39, 283.00 268.36 C 285.56 270.32, 289.31 271.88, 292.22 273.02 C 295.13 274.16, 298.18 274.44, 300.47 275.19 C 302.75 275.94, 304.47 276.51, 305.94 277.51 C 307.41 278.52, 307.77 279.42, 309.27 281.21 C 310.76 283.00, 313.04 285.93, 314.91 288.26 C 316.79 290.59, 318.37 293.63, 320.54 295.20 C 322.70 296.77, 326.39 298.15, 327.90 297.67 C 329.41 297.20, 329.33 294.65, 329.58 292.34 C 329.82 290.03, 329.87 286.50, 329.36 283.84 C 328.85 281.18, 327.45 278.46, 326.51 276.38 C 325.58 274.29, 324.44 273.17, 323.76 271.32 C 323.08 269.47, 322.88 267.32, 322.43 265.28 C 321.99 263.23, 321.63 261.30, 321.10 259.07 C 320.58 256.85, 320.72 252.78, 319.29 251.92 C 317.85 251.07, 315.14 253.35, 312.51 253.97 C 309.87 254.58, 306.03 256.43, 303.45 255.62 C 300.87 254.80, 298.03 248.59, 297.04 249.07 C 296.05 249.56, 298.47 257.70, 297.50 258.54 C 296.53 259.37, 291.93 257.03, 291.23 254.08 C 290.52 251.13, 294.13 244.06, 293.28 240.85 C 292.44 237.64, 287.65 236.62, 286.13 234.81 C 284.62 232.99, 284.79 231.80, 284.19 229.97 C 283.60 228.14, 282.56 226.23, 282.56 223.83 C 282.56 221.42, 283.19 218.45, 284.19 215.53 C 285.19 212.60, 287.08 208.86, 288.58 206.29 C 290.07 203.72, 291.80 200.10, 293.15 200.08 C 294.50 200.07, 295.07 203.98, 296.68 206.21 C 298.28 208.44, 301.47 211.10, 302.78 213.46 C 304.08 215.83, 304.08 218.30, 304.51 220.42 C 304.94 222.54, 304.63 224.13, 305.36 226.16 C 306.09 228.19, 307.21 230.93, 308.90 232.61 C 310.59 234.29, 313.28 235.96, 315.49 236.25 C 317.69 236.53, 320.43 235.70, 322.14 234.32 C 323.85 232.93, 325.04 230.29, 325.72 227.94 C 326.41 225.58, 326.42 222.81, 326.24 220.20 C 326.06 217.58, 325.35 214.63, 324.62 212.25 C 323.89 209.87, 323.06 207.90, 321.86 205.92 C 320.67 203.93, 318.67 202.44, 317.43 200.34 C 316.19 198.25, 315.76 195.42, 314.45 193.33 C 313.14 191.23, 310.94 189.67, 309.58 187.79 C 308.22 185.90, 307.88 183.69, 306.28 182.03 C 304.68 180.37, 300.99 180.01, 299.99 177.84 C 298.99 175.67, 301.05 171.19, 300.29 169.01 C 299.53 166.83, 296.58 166.76, 295.42 164.77 C 294.25 162.79, 294.68 159.14, 293.30 157.09 C 291.92 155.04, 288.35 154.77, 287.11 152.46 C 285.87 150.16, 286.41 146.38, 285.85 143.23 C 285.28 140.08, 282.74 135.85, 283.73 133.58 C 284.72 131.31, 288.59 129.52, 291.79 129.60 C 294.98 129.68, 299.95 132.42, 302.92 134.05 C 305.90 135.69, 307.78 137.26, 309.63 139.42 C 311.48 141.59, 312.16 144.72, 314.02 147.04 C 315.89 149.37, 319.87 151.03, 320.84 153.36 C 321.82 155.68, 319.40 158.79, 319.86 160.99 C 320.33 163.18, 322.61 164.24, 323.63 166.51 C 324.64 168.79, 324.94 172.07, 325.97 174.63 C 326.99 177.19, 328.45 179.31, 329.76 181.87 C 331.07 184.43, 332.60 186.78, 333.84 190.02 C 335.09 193.26, 335.94 197.77, 337.23 201.30 C 338.52 204.83, 340.73 207.61, 341.59 211.22 C 342.45 214.83, 342.40 219.40, 342.41 222.97 C 342.41 226.54, 341.91 229.97, 341.64 232.62 C 341.38 235.27, 341.29 236.82, 340.81 238.85 C 340.33 240.88, 339.35 242.76, 338.77 244.82 C 338.20 246.89, 337.48 249.06, 337.36 251.26 C 337.23 253.46, 337.74 255.40, 338.02 258.01 C 338.29 260.62, 338.33 263.56, 339.02 266.90 C 339.71 270.25, 341.31 274.36, 342.14 278.11 C 342.97 281.86, 343.83 285.86, 344.03 289.40 C 344.22 292.93, 343.33 296.71, 343.33 299.33 C 343.33 301.94, 343.83 303.21, 344.03 305.09 C 344.23 306.96, 343.68 308.79, 344.53 310.57 C 345.37 312.36, 347.84 313.79, 349.09 315.82 C 350.34 317.85, 350.66 320.88, 352.01 322.74 C 353.37 324.60, 355.75 325.56, 357.23 326.98 C 358.70 328.41, 359.64 329.74, 360.85 331.28 C 362.07 332.82, 363.05 334.41, 364.50 336.21 C 365.96 338.01, 367.63 340.25, 369.57 342.07 C 371.52 343.90, 374.26 346.57, 376.18 347.18 C 378.09 347.79, 380.05 347.07, 381.05 345.74 C 382.05 344.41, 381.82 341.50, 382.16 339.20 C 382.50 336.90, 383.07 334.26, 383.08 331.93 C 383.09 329.60, 382.86 327.17, 382.21 325.23 C 381.57 323.29, 380.47 321.53, 379.19 320.30 C 377.92 319.08, 376.22 318.89, 374.56 317.87 C 372.90 316.84, 371.06 315.82, 369.23 314.16 C 367.39 312.50, 365.08 309.86, 363.56 307.90 C 362.04 305.94, 361.23 305.15, 360.11 302.39 C 358.99 299.63, 357.74 294.95, 356.83 291.32 C 355.93 287.68, 355.19 283.74, 354.70 280.58 C 354.20 277.42, 354.12 275.15, 353.87 272.35 C 353.61 269.56, 353.00 266.65, 353.19 263.80 C 353.38 260.95, 354.00 257.38, 355.00 255.25 C 356.01 253.13, 357.58 251.18, 359.21 251.04 C 360.85 250.90, 362.97 253.25, 364.80 254.43 C 366.62 255.62, 369.29 256.12, 370.16 258.13 C 371.02 260.15, 369.64 263.95, 369.98 266.52 C 370.31 269.09, 372.12 271.50, 372.17 273.55 C 372.22 275.61, 370.70 276.88, 370.27 278.85 C 369.83 280.81, 369.41 283.33, 369.54 285.34 C 369.67 287.35, 370.39 288.87, 371.05 290.90 C 371.70 292.93, 372.01 295.88, 373.49 297.51 C 374.97 299.14, 377.81 299.69, 379.91 300.69 C 382.00 301.69, 384.42 304.20, 386.03 303.49 C 387.65 302.78, 388.96 298.91, 389.61 296.41 C 390.25 293.91, 389.92 290.98, 389.89 288.51 C 389.87 286.04, 389.69 283.83, 389.46 281.58 C 389.22 279.34, 388.70 277.33, 388.47 275.06 C 388.23 272.80, 388.32 270.47, 388.06 267.99 C 387.79 265.51, 387.60 262.59, 386.88 260.18 C 386.16 257.77, 386.85 257.04, 383.73 253.55 C 380.61 250.06, 372.04 242.54, 368.16 239.22 C 364.28 235.91, 362.21 235.83, 360.44 233.67 C 358.66 231.52, 358.48 229.41, 357.49 226.30 C 356.49 223.19, 355.49 219.32, 354.45 215.02 C 353.42 210.73, 351.95 204.67, 351.27 200.51 C 350.58 196.34, 350.65 193.34, 350.35 190.05 C 350.05 186.76, 350.05 183.81, 349.48 180.76 C 348.91 177.71, 347.62 174.55, 346.93 171.76 C 346.24 168.98, 345.69 166.53, 345.32 164.04 C 344.96 161.55, 344.09 159.28, 344.74 156.79 C 345.38 154.31, 347.42 151.90, 349.17 149.14 C 350.92 146.37, 355.25 142.51, 355.24 140.20 C 355.24 137.90, 352.24 135.84, 349.14 135.31 C 346.04 134.77, 339.64 137.69, 336.66 136.99 C 333.67 136.28, 332.82 133.54, 331.23 131.09 C 329.65 128.64, 329.14 124.44, 327.13 122.27 C 325.11 120.10, 321.76 119.75, 319.15 118.10 C 316.53 116.45, 314.57 113.88, 311.44 112.37 C 308.31 110.87, 304.02 109.97, 300.37 109.09 C 296.72 108.21, 293.39 106.68, 289.55 107.10 C 285.71 107.53, 281.25 111.63, 277.35 111.61 C 273.44 111.59, 267.95 109.70, 266.11 106.98 C 264.27 104.25, 266.11 99.25, 266.31 95.27 C 266.50 91.29, 265.14 85.79, 267.29 83.09 C 269.44 80.38, 275.56 80.78, 279.21 79.05 C 282.87 77.32, 285.78 74.18, 289.20 72.70 C 292.62 71.23, 296.68 68.62, 299.74 70.20 C 302.80 71.78, 304.89 79.01, 307.55 82.17 C 310.22 85.33, 312.40 87.00, 315.73 89.15 C 319.06 91.31, 323.85 93.28, 327.52 95.12 C 331.18 96.95, 334.72 98.31, 337.72 100.18 C 340.72 102.05, 343.19 104.32, 345.53 106.34 C 347.88 108.36, 349.42 110.41, 351.77 112.30 C 354.12 114.18, 356.45 117.59, 359.64 117.63 C 362.83 117.67, 367.76 114.68, 370.93 112.52 C 374.10 110.35, 378.61 107.15, 378.67 104.62 C 378.73 102.10, 373.80 99.87, 371.29 97.38 C 368.78 94.88, 366.00 91.90, 363.61 89.66 C 361.23 87.42, 359.12 86.16, 356.99 83.93 C 354.85 81.70, 353.41 77.55, 350.81 76.30 C 348.20 75.04, 344.27 77.05, 341.33 76.39 C 338.39 75.74, 335.64 73.94, 333.15 72.35 C 330.66 70.75, 328.98 68.99, 326.39 66.84 C 323.80 64.69, 319.91 61.96, 317.60 59.46 C 315.29 56.96, 314.10 54.37, 312.55 51.84 C 311.00 49.32, 307.75 46.18, 308.31 44.33 C 308.87 42.49, 313.49 41.90, 315.91 40.78 C 318.32 39.65, 319.92 38.31, 322.80 37.58 C 325.68 36.85, 330.31 34.50, 333.19 36.39 C 336.08 38.27, 338.25 47.96, 340.10 48.89 C 341.95 49.81, 342.67 44.68, 344.29 41.97 C 345.92 39.25, 347.33 35.04, 349.84 32.58 C 352.36 30.12, 357.55 26.29, 359.37 27.19 C 361.18 28.09, 360.46 34.63, 360.73 37.98 C 360.99 41.32, 360.65 43.86, 360.95 47.25 C 361.25 50.65, 361.16 55.82, 362.53 58.33 C 363.90 60.84, 366.92 62.80, 369.17 62.31 C 371.42 61.82, 373.92 58.17, 376.02 55.41 C 378.12 52.65, 380.85 49.55, 381.77 45.75 C 382.70 41.96, 380.53 36.20, 381.57 32.64 C 382.62 29.09, 384.68 25.38, 388.04 24.45 C 391.40 23.51, 397.77 24.93, 401.73 27.04 C 405.69 29.16, 411.14 33.69, 411.79 37.11 C 412.44 40.52, 407.72 44.11, 405.65 47.53 C 403.58 50.94, 401.66 54.35, 399.39 57.58 C 397.11 60.81, 394.66 63.63, 392.00 66.91 C 389.33 70.19, 383.60 74.37, 383.41 77.28 C 383.22 80.20, 388.46 82.73, 390.88 84.41 C 393.30 86.09, 395.04 88.11, 397.93 87.36 C 400.82 86.62, 405.16 82.65, 408.23 79.95 C 411.29 77.26, 413.91 74.11, 416.33 71.19 C 418.76 68.27, 421.03 65.44, 422.78 62.45 C 424.52 59.46, 425.17 56.44, 426.81 53.26 C 428.46 50.07, 429.48 44.76, 432.64 43.33 C 435.79 41.89, 441.90 42.98, 445.75 44.65 C 449.60 46.32, 452.45 50.05, 455.73 53.34 C 459.01 56.63, 465.70 61.54, 465.42 64.37 C 465.14 67.20, 457.49 68.61, 454.05 70.33 C 450.61 72.04, 447.50 73.14, 444.79 74.66 C 442.07 76.19, 440.11 77.24, 437.78 79.47 C 435.46 81.71, 432.69 85.29, 430.81 88.08 C 428.93 90.88, 428.55 94.03, 426.52 96.25 C 424.48 98.47, 421.06 99.70, 418.62 101.42 C 416.17 103.15, 414.46 105.29, 411.84 106.59 C 409.23 107.90, 405.19 107.66, 402.93 109.26 C 400.67 110.86, 399.44 113.51, 398.30 116.19 C 397.17 118.88, 397.81 123.14, 396.10 125.39 C 394.39 127.63, 391.04 128.52, 388.05 129.66 C 385.05 130.79, 379.00 130.37, 378.11 132.19 C 377.23 134.02, 382.43 137.92, 382.73 140.62 C 383.04 143.33, 381.74 146.37, 379.96 148.44 C 378.18 150.50, 373.78 150.94, 372.05 153.02 C 370.32 155.10, 370.19 158.48, 369.58 160.91 C 368.97 163.34, 368.82 165.27, 368.42 167.59 C 368.01 169.91, 367.28 171.97, 367.14 174.82 C 367.01 177.67, 367.42 181.61, 367.61 184.70 C 367.80 187.80, 368.23 190.62, 368.28 193.39 C 368.33 196.17, 367.62 198.74, 367.92 201.35 C 368.21 203.95, 369.64 206.61, 370.06 209.02 C 370.49 211.44, 369.81 212.74, 370.45 215.84 C 371.09 218.94, 371.90 223.52, 373.88 227.63 C 375.87 231.73, 380.34 239.63, 382.38 240.49 C 384.43 241.35, 385.23 235.39, 386.16 232.78 C 387.08 230.17, 387.63 227.66, 387.95 224.84 C 388.27 222.03, 387.89 218.55, 388.07 215.89 C 388.24 213.22, 389.00 211.28, 389.02 208.85 C 389.05 206.41, 388.32 203.57, 388.21 201.28 C 388.09 198.99, 388.47 197.34, 388.34 195.08 C 388.21 192.83, 387.56 190.18, 387.42 187.73 C 387.27 185.28, 387.45 182.68, 387.49 180.38 C 387.54 178.08, 387.00 176.35, 387.68 173.93 C 388.35 171.51, 389.95 168.65, 391.52 165.86 C 393.10 163.08, 395.43 158.02, 397.14 157.23 C 398.85 156.43, 400.16 159.31, 401.78 161.09 C 403.40 162.87, 405.92 165.07, 406.83 167.93 C 407.75 170.79, 407.33 175.13, 407.27 178.27 C 407.21 181.40, 406.69 184.08, 406.48 186.75 C 406.28 189.43, 406.21 191.44, 406.03 194.30 C 405.86 197.17, 405.73 200.56, 405.43 203.94 C 405.13 207.33, 404.73 211.29, 404.24 214.60 C 403.74 217.90, 403.06 220.32, 402.46 223.77 C 401.86 227.22, 401.27 231.99, 400.62 235.31 C 399.97 238.63, 398.81 241.01, 398.56 243.70 C 398.32 246.39, 398.76 248.61, 399.14 251.47 C 399.51 254.32, 400.34 257.55, 400.81 260.84 C 401.29 264.13, 401.54 267.61, 401.99 271.23 C 402.44 274.85, 403.44 278.78, 403.51 282.55 C 403.58 286.32, 402.91 289.93, 402.39 293.85 C 401.87 297.77, 401.27 302.67, 400.41 306.07 C 399.54 309.46, 397.44 311.83, 397.21 314.23 C 396.98 316.63, 398.83 318.12, 399.03 320.45 C 399.22 322.78, 398.25 325.68, 398.37 328.20 C 398.50 330.72, 399.57 333.12, 399.77 335.59 C 399.97 338.05, 399.80 340.79, 399.57 343.01 C 399.34 345.22, 398.91 347.05, 398.40 348.88 C 397.90 350.71, 397.33 352.23, 396.55 353.98 C 395.76 355.73, 394.47 357.44, 393.71 359.37 C 392.95 361.31, 392.74 363.78, 391.97 365.60 C 391.20 367.42, 389.59 368.51, 389.10 370.29 C 388.60 372.07, 388.87 374.37, 389.00 376.28 C 389.13 378.20, 388.97 379.87, 389.89 381.77 C 390.80 383.67, 392.87 385.91, 394.50 387.68 C 396.14 389.45, 397.81 391.30, 399.69 392.40 C 401.56 393.49, 403.84 394.33, 405.75 394.26 C 407.66 394.19, 410.16 393.53, 411.13 391.96 C 412.09 390.38, 411.51 387.48, 411.54 384.81 C 411.56 382.14, 411.28 378.33, 411.28 375.95 C 411.29 373.56, 410.90 371.97, 411.57 370.48 C 412.24 368.98, 414.36 368.55, 415.30 366.98 C 416.23 365.40, 416.80 362.73, 417.18 361.02 C 417.56 359.31, 417.44 358.65, 417.58 356.72 C 417.71 354.79, 417.89 351.87, 417.98 349.44 C 418.06 347.01, 418.06 344.35, 418.08 342.13 C 418.10 339.92, 418.28 338.11, 418.09 336.16 C 417.90 334.21, 417.34 332.45, 416.95 330.43 C 416.57 328.40, 416.39 326.53, 415.79 323.99 C 415.20 321.45, 413.89 318.15, 413.40 315.20 C 412.90 312.25, 412.82 309.57, 412.84 306.28 C 412.85 302.99, 413.14 299.49, 413.49 295.45 C 413.84 291.42, 414.77 286.20, 414.92 282.05 C 415.07 277.90, 414.61 274.57, 414.37 270.54 C 414.14 266.52, 413.75 261.94, 413.51 257.89 C 413.27 253.84, 412.75 250.07, 412.94 246.27 C 413.14 242.46, 414.12 238.29, 414.67 235.06 C 415.22 231.83, 415.73 229.70, 416.23 226.87 C 416.74 224.04, 417.05 221.18, 417.72 218.09 C 418.38 215.00, 419.32 211.39, 420.20 208.32 C 421.09 205.25, 422.44 202.55, 423.02 199.68 C 423.60 196.81, 423.42 194.15, 423.71 191.08 C 424.00 188.00, 424.45 184.12, 424.76 181.22 C 425.07 178.32, 425.42 176.42, 425.58 173.68 C 425.75 170.94, 425.67 167.47, 425.76 164.77 C 425.85 162.07, 426.08 159.80, 426.11 157.47 C 426.13 155.14, 427.03 152.89, 425.90 150.79 C 424.77 148.70, 422.33 146.37, 419.32 144.89 C 416.32 143.41, 409.03 143.09, 407.87 141.90 C 406.71 140.71, 410.21 139.93, 412.34 137.75 C 414.47 135.58, 418.34 131.24, 420.66 128.86 C 422.99 126.47, 424.17 124.97, 426.27 123.46 C 428.38 121.96, 431.00 121.85, 433.28 119.83 C 435.56 117.80, 437.62 113.82, 439.93 111.30 C 442.24 108.78, 444.87 107.40, 447.16 104.72 C 449.46 102.04, 450.93 97.59, 453.71 95.22 C 456.49 92.84, 460.55 91.98, 463.86 90.47 C 467.16 88.95, 471.57 85.02, 473.53 86.12 C 475.48 87.23, 475.99 93.79, 475.60 97.10 C 475.22 100.41, 472.74 103.13, 471.19 105.96 C 469.64 108.80, 468.15 111.75, 466.33 114.12 C 464.51 116.50, 462.43 117.99, 460.26 120.21 C 458.08 122.43, 455.40 124.95, 453.29 127.44 C 451.18 129.93, 449.25 132.85, 447.59 135.15 C 445.93 137.45, 443.28 139.29, 443.33 141.22 C 443.39 143.15, 447.12 144.41, 447.91 146.71 C 448.70 149.01, 448.21 152.26, 448.08 155.01 C 447.96 157.77, 447.60 160.71, 447.16 163.24 C 446.73 165.77, 445.89 167.69, 445.45 170.20 C 445.01 172.72, 445.01 175.58, 444.53 178.34 C 444.05 181.09, 443.26 184.06, 442.58 186.74 C 441.90 189.42, 441.53 191.65, 440.43 194.44 C 439.33 197.22, 437.40 200.14, 435.99 203.47 C 434.58 206.80, 433.10 210.80, 431.99 214.39 C 430.88 217.99, 430.02 221.40, 429.34 225.06 C 428.66 228.71, 428.48 232.86, 427.91 236.31 C 427.34 239.76, 426.27 242.91, 425.91 245.77 C 425.55 248.63, 425.87 250.69, 425.76 253.46 C 425.65 256.23, 425.13 259.25, 425.25 262.38 C 425.36 265.52, 426.14 269.11, 426.47 272.28 C 426.79 275.45, 426.99 278.52, 427.20 281.41 C 427.41 284.30, 427.59 287.15, 427.73 289.64 C 427.87 292.12, 428.20 294.13, 428.04 296.31 C 427.87 298.50, 426.92 300.54, 426.71 302.76 C 426.51 304.98, 426.47 307.18, 426.81 309.64 C 427.15 312.09, 427.91 315.00, 428.74 317.50 C 429.57 320.00, 430.32 324.30, 431.80 324.65 C 433.28 325.00, 435.94 321.59, 437.64 319.61 C 439.34 317.62, 440.74 314.70, 441.99 312.76 C 443.23 310.82, 444.16 309.76, 445.10 307.97 C 446.03 306.18, 446.99 304.02, 447.57 302.04 C 448.15 300.06, 448.60 298.10, 448.58 296.10 C 448.56 294.10, 447.97 291.94, 447.46 290.04 C 446.95 288.15, 446.49 286.64, 445.53 284.73 C 444.57 282.82, 442.45 280.97, 441.69 278.60 C 440.94 276.23, 441.40 273.17, 441.01 270.49 C 440.62 267.81, 439.65 265.19, 439.36 262.54 C 439.07 259.88, 439.22 257.17, 439.25 254.58 C 439.27 252.00, 439.14 250.14, 439.53 247.01 C 439.92 243.89, 440.79 239.38, 441.57 235.83 C 442.34 232.27, 443.44 228.49, 444.19 225.69 C 444.94 222.89, 445.24 221.77, 446.06 219.00 C 446.89 216.24, 447.59 212.69, 449.15 209.08 C 450.70 205.47, 453.38 200.85, 455.37 197.34 C 457.35 193.82, 459.61 190.75, 461.06 187.97 C 462.50 185.20, 462.81 183.04, 464.03 180.70 C 465.26 178.37, 467.69 176.17, 468.42 173.99 C 469.14 171.81, 467.88 170.06, 468.39 167.64 C 468.89 165.21, 471.11 162.11, 471.46 159.45 C 471.81 156.80, 470.47 154.11, 470.49 151.71 C 470.52 149.31, 471.11 147.37, 471.64 145.07 C 472.17 142.76, 472.37 140.09, 473.66 137.86 C 474.96 135.62, 477.64 133.88, 479.43 131.66 C 481.22 129.43, 482.26 126.25, 484.42 124.50 C 486.58 122.75, 490.55 122.91, 492.39 121.14 C 494.22 119.38, 494.91 116.67, 495.42 113.92 C 495.93 111.18, 495.19 107.89, 495.44 104.69 C 495.70 101.50, 495.37 96.59, 496.95 94.76 C 498.54 92.93, 502.31 91.77, 504.94 93.71 C 507.57 95.65, 510.79 102.65, 512.72 106.40 C 514.65 110.15, 515.46 113.19, 516.52 116.22 C 517.59 119.24, 519.07 121.85, 519.12 124.55 C 519.17 127.25, 518.71 130.43, 516.81 132.43 C 514.91 134.44, 510.52 135.34, 507.72 136.57 C 504.92 137.81, 501.95 138.01, 500.00 139.84 C 498.05 141.67, 497.05 145.09, 496.03 147.54 C 495.00 149.98, 494.51 152.24, 493.86 154.52 C 493.21 156.80, 492.70 158.66, 492.13 161.21 C 491.57 163.76, 490.91 167.18, 490.44 169.81 C 489.98 172.44, 489.89 174.52, 489.33 176.98 C 488.76 179.44, 487.74 182.48, 487.05 184.59 C 486.37 186.70, 486.75 188.08, 485.22 189.62 C 483.69 191.16, 480.45 191.95, 477.86 193.82 C 475.27 195.68, 471.96 198.36, 469.69 200.81 C 467.42 203.26, 465.78 206.02, 464.24 208.52 C 462.71 211.03, 461.57 212.69, 460.49 215.83 C 459.42 218.97, 458.79 223.84, 457.79 227.36 C 456.78 230.89, 455.20 233.96, 454.48 236.96 C 453.75 239.96, 453.82 242.82, 453.42 245.36 C 453.01 247.90, 452.22 249.78, 452.03 252.21 C 451.84 254.65, 451.90 257.29, 452.30 259.96 C 452.69 262.63, 453.58 265.54, 454.41 268.22 C 455.24 270.91, 455.60 274.53, 457.28 276.09 C 458.96 277.65, 462.82 278.33, 464.49 277.59 C 466.17 276.84, 466.61 273.85, 467.34 271.62 C 468.08 269.39, 468.78 266.72, 468.89 264.21 C 469.01 261.70, 468.13 259.16, 468.06 256.57 C 467.98 253.98, 468.21 251.36, 468.45 248.68 C 468.69 246.00, 468.98 242.95, 469.50 240.50 C 470.01 238.05, 470.98 236.11, 471.53 233.99 C 472.08 231.88, 472.05 230.02, 472.81 227.79 C 473.57 225.56, 474.64 223.11, 476.08 220.62 C 477.52 218.13, 479.48 214.93, 481.46 212.83 C 483.44 210.74, 486.38 208.31, 487.97 208.06 C 489.56 207.81, 490.15 209.55, 491.01 211.34 C 491.88 213.13, 492.80 216.23, 493.18 218.79 C 493.55 221.36, 493.76 224.26, 493.26 226.72 C 492.75 229.18, 490.99 231.48, 490.15 233.55 C 489.30 235.63, 489.17 237.29, 488.19 239.15 C 487.22 241.01, 485.21 242.54, 484.28 244.70 C 483.36 246.85, 482.91 249.20, 482.64 252.07 C 482.37 254.94, 481.02 260.76, 482.68 261.92 C 484.34 263.08, 489.70 261.16, 492.60 259.03 C 495.51 256.90, 498.09 252.47, 500.10 249.15 C 502.11 245.82, 503.32 242.38, 504.66 239.10 C 506.00 235.83, 506.98 232.23, 508.14 229.48 C 509.29 226.73, 511.05 224.96, 511.58 222.60 C 512.11 220.24, 511.24 218.04, 511.31 215.34 C 511.38 212.63, 512.66 208.72, 511.98 206.37 C 511.30 204.02, 508.05 203.29, 507.23 201.25 C 506.41 199.21, 506.92 196.39, 507.08 194.12 C 507.24 191.84, 507.26 189.84, 508.18 187.61 C 509.10 185.38, 512.12 183.08, 512.60 180.75 C 513.08 178.42, 510.45 175.87, 511.06 173.62 C 511.67 171.37, 515.24 169.82, 516.24 167.25 C 517.24 164.68, 515.88 160.68, 517.07 158.19 C 518.27 155.70, 520.92 153.09, 523.44 152.31 C 525.95 151.53, 529.24 153.54, 532.17 153.52 C 535.10 153.50, 538.30 153.15, 541.02 152.19 C 543.74 151.23, 547.93 150.04, 548.47 147.78 C 549.01 145.51, 545.62 141.70, 544.26 138.61 C 542.90 135.53, 540.25 132.52, 540.31 129.28 C 540.38 126.04, 544.47 122.05, 544.67 119.17 C 544.86 116.30, 542.87 114.62, 541.48 112.04 C 540.09 109.46, 538.36 106.25, 536.31 103.67 C 534.27 101.09, 530.86 99.34, 529.21 96.55 C 527.57 93.75, 526.92 89.99, 526.46 86.90 C 525.99 83.81, 525.19 79.61, 526.43 77.99 C 527.67 76.38, 531.42 77.48, 533.91 77.22 C 536.41 76.97, 538.17 76.30, 541.40 76.45 C 544.62 76.61, 550.00 75.87, 553.27 78.13 C 556.54 80.39, 559.18 86.68, 560.99 90.01 C 562.81 93.33, 561.64 98.18, 564.16 98.09 C 566.69 98.00, 572.04 91.22, 576.15 89.46 C 580.25 87.70, 584.97 86.49, 588.78 87.52 C 592.58 88.56, 595.97 92.60, 598.99 95.65 C 602.01 98.70, 607.35 102.70, 606.90 105.81 C 606.45 108.92, 599.82 112.21, 596.29 114.32 C 592.77 116.42, 589.16 117.73, 585.76 118.45 C 582.36 119.16, 579.05 117.57, 575.90 118.62 C 572.76 119.66, 568.20 121.49, 566.89 124.71 C 565.58 127.93, 566.53 135.01, 568.04 137.93 C 569.56 140.85, 572.45 141.73, 575.96 142.22 C 579.46 142.71, 585.01 141.69, 589.08 140.84 C 593.15 139.99, 596.40 138.92, 600.36 137.10 C 604.32 135.28, 608.81 132.58, 612.83 129.92 C 616.86 127.26, 621.38 120.41, 624.49 121.13 C 627.60 121.84, 628.42 131.56, 631.48 134.22 C 634.54 136.87, 639.99 135.09, 642.85 137.08 C 645.72 139.07, 646.29 143.14, 648.67 146.17 C 651.05 149.19, 655.77 151.50, 657.11 155.22 C 658.45 158.94, 657.09 164.32, 656.70 168.49 C 656.32 172.65, 657.43 178.84, 654.80 180.21 C 652.18 181.58, 645.09 178.68, 640.96 176.71 C 636.84 174.75, 633.11 171.14, 630.04 168.45 C 626.97 165.76, 625.34 162.75, 622.54 160.60 C 619.74 158.46, 616.45 155.30, 613.24 155.57 C 610.03 155.85, 606.56 161.02, 603.26 162.24 C 599.96 163.46, 596.65 162.42, 593.44 162.88 C 590.23 163.33, 587.00 164.65, 583.98 164.99 C 580.96 165.33, 578.44 164.98, 575.31 164.93 C 572.17 164.87, 567.90 163.72, 565.17 164.68 C 562.44 165.65, 561.31 169.00, 558.92 170.72 C 556.53 172.44, 553.78 174.18, 550.84 174.98 C 547.89 175.79, 543.90 174.73, 541.25 175.55 C 538.60 176.37, 536.34 177.84, 534.95 179.92 C 533.56 182.00, 533.15 185.22, 532.92 188.03 C 532.68 190.85, 533.77 194.27, 533.53 196.82 C 533.30 199.37, 531.93 200.75, 531.50 203.33 C 531.06 205.91, 531.15 209.20, 530.93 212.28 C 530.71 215.37, 530.86 218.91, 530.19 221.84 C 529.51 224.77, 528.39 226.98, 526.87 229.86 C 525.36 232.75, 522.91 236.29, 521.11 239.16 C 519.31 242.03, 517.72 244.45, 516.08 247.08 C 514.45 249.71, 513.08 252.38, 511.30 254.94 C 509.51 257.51, 508.13 260.04, 505.38 262.48 C 502.64 264.92, 498.55 267.61, 494.80 269.57 C 491.06 271.52, 485.88 272.07, 482.90 274.20 C 479.91 276.33, 479.03 279.70, 476.90 282.34 C 474.76 284.99, 471.92 287.73, 470.07 290.07 C 468.22 292.41, 466.77 294.39, 465.81 296.38 C 464.85 298.37, 465.02 299.66, 464.33 301.99 C 463.63 304.32, 462.62 307.61, 461.65 310.35 C 460.68 313.09, 459.65 316.05, 458.52 318.43 C 457.39 320.80, 456.08 322.78, 454.86 324.59 C 453.65 326.41, 452.59 327.79, 451.24 329.29 C 449.88 330.79, 448.32 332.39, 446.75 333.59 C 445.18 334.80, 443.53 335.42, 441.81 336.53 C 440.10 337.64, 437.71 338.49, 436.47 340.24 C 435.22 341.99, 434.69 344.75, 434.36 347.01 C 434.04 349.26, 433.81 351.94, 434.53 353.77 C 435.25 355.59, 436.63 357.79, 438.69 357.96 C 440.74 358.13, 444.39 355.73, 446.87 354.79 C 449.35 353.85, 451.49 352.91, 453.56 352.33 C 455.62 351.75, 457.57 352.18, 459.27 351.31 C 460.97 350.45, 462.23 348.39, 463.77 347.14 C 465.31 345.90, 467.62 345.40, 468.49 343.86 C 469.36 342.32, 468.50 340.15, 468.97 337.92 C 469.45 335.68, 470.52 332.70, 471.32 330.44 C 472.13 328.17, 472.74 326.33, 473.83 324.32 C 474.92 322.32, 476.87 320.24, 477.84 318.41 C 478.81 316.58, 479.19 315.46, 479.67 313.35 C 480.14 311.24, 480.03 308.23, 480.70 305.74 C 481.38 303.26, 482.65 300.64, 483.73 298.44 C 484.81 296.24, 485.79 294.46, 487.19 292.56 C 488.59 290.66, 490.09 288.71, 492.12 287.06 C 494.15 285.41, 497.06 284.42, 499.36 282.68 C 501.65 280.94, 503.02 279.00, 505.88 276.63 C 508.75 274.26, 513.67 271.13, 516.54 268.44 C 519.41 265.76, 520.85 263.09, 523.11 260.51 C 525.36 257.94, 528.09 255.44, 530.07 252.98 C 532.06 250.51, 533.17 247.63, 535.01 245.72 C 536.86 243.82, 539.53 243.53, 541.13 241.55 C 542.73 239.58, 543.61 236.49, 544.61 233.87 C 545.62 231.24, 546.40 228.75, 547.18 225.81 C 547.95 222.87, 548.45 219.52, 549.24 216.23 C 550.04 212.93, 551.08 209.06, 551.94 206.02 C 552.79 202.98, 552.92 200.02, 554.36 197.99 C 555.79 195.95, 558.20 195.20, 560.56 193.80 C 562.92 192.40, 565.87 190.71, 568.51 189.58 C 571.16 188.45, 573.40 187.59, 576.42 187.01 C 579.44 186.43, 583.37 186.36, 586.63 186.10 C 589.88 185.84, 593.07 185.92, 595.96 185.45 C 598.85 184.97, 601.26 183.68, 603.95 183.26 C 606.64 182.83, 609.55 182.21, 612.13 182.88 C 614.70 183.55, 616.99 185.94, 619.38 187.27 C 621.76 188.61, 625.84 189.15, 626.43 190.88 C 627.01 192.62, 624.68 195.29, 622.90 197.71 C 621.12 200.12, 618.01 203.83, 615.75 205.36 C 613.49 206.88, 612.14 206.93, 609.33 206.85 C 606.52 206.76, 602.34 205.00, 598.88 204.83 C 595.41 204.66, 591.62 205.45, 588.53 205.82 C 585.44 206.19, 582.93 206.09, 580.32 207.04 C 577.71 207.99, 574.90 209.97, 572.87 211.53 C 570.84 213.09, 569.76 214.24, 568.16 216.42 C 566.55 218.60, 564.60 221.40, 563.22 224.61 C 561.84 227.82, 558.06 234.07, 559.88 235.69 C 561.69 237.30, 570.10 235.60, 574.13 234.30 C 578.16 232.99, 580.89 229.31, 584.04 227.85 C 587.20 226.39, 589.58 226.06, 593.06 225.53 C 596.54 225.01, 601.78 224.34, 604.92 224.68 C 608.06 225.02, 611.97 225.47, 611.90 227.57 C 611.84 229.68, 607.60 234.65, 604.54 237.32 C 601.49 239.98, 596.82 241.93, 593.59 243.57 C 590.37 245.20, 588.02 245.95, 585.19 247.11 C 582.35 248.28, 579.42 250.01, 576.60 250.56 C 573.78 251.10, 571.71 250.32, 568.28 250.38 C 564.84 250.44, 558.79 249.97, 555.99 250.90 C 553.20 251.84, 553.00 254.27, 551.52 256.00 C 550.04 257.73, 548.94 259.73, 547.10 261.29 C 545.26 262.85, 542.29 263.77, 540.46 265.35 C 538.63 266.92, 538.01 269.07, 536.13 270.75 C 534.25 272.42, 531.26 273.74, 529.19 275.38 C 527.11 277.02, 525.54 278.90, 523.69 280.59 C 521.84 282.28, 519.85 283.98, 518.09 285.52 C 516.34 287.06, 514.86 288.31, 513.14 289.80 C 511.43 291.30, 509.91 292.78, 507.82 294.50 C 505.73 296.21, 502.46 297.95, 500.60 300.10 C 498.75 302.25, 497.22 305.36, 496.70 307.40 C 496.17 309.44, 496.22 311.29, 497.43 312.35 C 498.64 313.41, 501.39 314.23, 503.96 313.76 C 506.53 313.29, 510.15 310.69, 512.86 309.55 C 515.58 308.41, 518.19 308.12, 520.25 306.93 C 522.31 305.73, 523.56 304.13, 525.24 302.39 C 526.92 300.64, 528.39 298.48, 530.33 296.44 C 532.28 294.39, 534.80 291.78, 536.93 290.12 C 539.06 288.45, 540.58 288.31, 543.12 286.46 C 545.67 284.61, 549.49 281.10, 552.20 279.01 C 554.91 276.92, 557.16 275.37, 559.37 273.91 C 561.57 272.45, 563.18 271.38, 565.42 270.26 C 567.67 269.14, 569.78 268.15, 572.83 267.20 C 575.89 266.26, 580.77 265.60, 583.77 264.60 C 586.77 263.60, 588.49 262.33, 590.83 261.20 C 593.16 260.07, 595.13 259.09, 597.78 257.81 C 600.43 256.52, 603.61 254.87, 606.73 253.48 C 609.85 252.08, 613.62 251.10, 616.48 249.43 C 619.34 247.76, 620.95 244.78, 623.90 243.46 C 626.85 242.13, 631.84 243.14, 634.17 241.48 C 636.49 239.83, 638.37 236.40, 637.86 233.54 C 637.35 230.67, 631.29 227.01, 631.11 224.29 C 630.92 221.58, 634.99 219.83, 636.77 217.26 C 638.55 214.68, 639.54 211.36, 641.76 208.83 C 643.99 206.30, 646.57 202.90, 650.11 202.05 C 653.65 201.20, 660.27 201.32, 663.00 203.71 C 665.73 206.11, 667.12 212.56, 666.48 216.40 C 665.85 220.24, 660.60 223.21, 659.17 226.77 C 657.75 230.32, 656.46 235.00, 657.94 237.73 C 659.43 240.46, 665.25 241.19, 668.09 243.15 C 670.92 245.12, 675.03 246.49, 674.94 249.52 C 674.85 252.56, 669.95 257.96, 667.57 261.36 C 665.20 264.75, 662.93 269.19, 660.70 269.89 C 658.46 270.60, 656.28 267.59, 654.16 265.57 C 652.04 263.55, 650.37 258.67, 647.98 257.77 C 645.58 256.87, 642.61 259.44, 639.80 260.15 C 636.99 260.86, 633.86 261.25, 631.12 262.05 C 628.38 262.85, 626.43 264.02, 623.35 264.96 C 620.26 265.90, 616.05 266.65, 612.62 267.67 C 609.19 268.69, 606.03 269.79, 602.79 271.08 C 599.55 272.36, 596.30 274.19, 593.17 275.37 C 590.05 276.54, 587.11 276.83, 584.05 278.11 C 581.00 279.40, 577.92 281.40, 574.84 283.06 C 571.76 284.73, 568.64 286.42, 565.55 288.12 C 562.47 289.81, 558.72 291.40, 556.34 293.22 C 553.95 295.05, 553.30 297.33, 551.23 299.05 C 549.17 300.77, 546.04 301.82, 543.95 303.54 C 541.86 305.27, 540.97 307.46, 538.68 309.41 C 536.39 311.35, 533.34 313.33, 530.21 315.21 C 527.08 317.08, 523.75 318.85, 519.90 320.63 C 516.05 322.42, 510.65 324.72, 507.09 325.90 C 503.53 327.08, 500.99 327.09, 498.56 327.71 C 496.13 328.33, 494.23 328.51, 492.49 329.61 C 490.75 330.71, 489.41 332.35, 488.12 334.31 C 486.82 336.27, 485.03 338.97, 484.71 341.37 C 484.38 343.77, 484.96 347.18, 486.16 348.72 C 487.35 350.25, 490.02 350.72, 491.89 350.59 C 493.76 350.46, 495.30 349.30, 497.39 347.96 C 499.48 346.61, 501.85 344.12, 504.43 342.54 C 507.00 340.97, 510.24 339.86, 512.81 338.51 C 515.39 337.16, 517.45 335.67, 519.88 334.44 C 522.30 333.20, 524.76 332.06, 527.37 331.09 C 529.97 330.13, 532.67 329.79, 535.51 328.65 C 538.35 327.52, 541.79 325.56, 544.39 324.29 C 546.98 323.02, 548.97 321.93, 551.09 321.01 C 553.20 320.10, 555.25 319.89, 557.08 318.80 C 558.92 317.71, 560.44 316.26, 562.09 314.47 C 563.73 312.69, 565.40 310.18, 566.97 308.08 C 568.54 305.99, 569.35 303.79, 571.51 301.90 C 573.67 300.01, 576.83 298.49, 579.94 296.74 C 583.04 294.99, 586.12 293.16, 590.13 291.41 C 594.14 289.65, 600.23 287.24, 604.00 286.20 C 607.77 285.16, 610.07 285.59, 612.75 285.15 C 615.44 284.71, 617.06 283.91, 620.11 283.56 C 623.17 283.21, 627.52 282.27, 631.06 283.05 C 634.59 283.83, 639.37 288.10, 641.32 288.24 C 643.28 288.37, 643.26 282.42, 642.79 283.84 C 642.33 285.27, 639.80 293.33, 638.54 296.81 C 637.28 300.29, 636.94 303.11, 635.25 304.73 C 633.55 306.35, 630.74 306.63, 628.37 306.53 C 626.00 306.42, 623.35 304.61, 621.02 304.08 C 618.69 303.56, 616.79 303.51, 614.38 303.39 C 611.97 303.27, 608.98 303.22, 606.59 303.36 C 604.20 303.51, 602.17 303.87, 600.06 304.26 C 597.94 304.64, 595.90 304.79, 593.90 305.69 C 591.90 306.60, 590.07 308.08, 588.08 309.66 C 586.09 311.24, 583.68 313.06, 581.95 315.18 C 580.22 317.30, 577.63 320.46, 577.70 322.38 C 577.77 324.29, 580.48 325.54, 582.35 326.66 C 584.23 327.79, 586.44 328.99, 588.97 329.11 C 591.51 329.23, 595.00 327.86, 597.57 327.38 C 600.15 326.91, 602.56 326.60, 604.41 326.25 C 606.26 325.91, 606.77 325.35, 608.66 325.33 C 610.55 325.30, 613.26 326.18, 615.76 326.11 C 618.25 326.04, 620.91 325.30, 623.63 324.90 C 626.35 324.50, 630.42 322.84, 632.09 323.70 C 633.75 324.57, 630.92 328.98, 633.61 330.08 C 636.29 331.19, 644.98 331.66, 648.22 330.32 C 651.46 328.98, 651.93 324.95, 653.05 322.05 C 654.17 319.14, 654.01 315.83, 654.94 312.87 C 655.87 309.92, 657.31 307.35, 658.64 304.30 C 659.97 301.26, 661.22 297.36, 662.94 294.62 C 664.67 291.88, 666.23 289.80, 668.98 287.86 C 671.72 285.91, 676.69 284.94, 679.42 282.94 C 682.16 280.94, 683.66 278.87, 685.39 275.86 C 687.12 272.84, 687.22 268.24, 689.80 264.85 C 692.38 261.46, 698.10 256.04, 700.88 255.52 C 703.66 255.00, 704.56 259.79, 706.48 261.74 C 708.40 263.69, 711.70 264.07, 712.42 267.23 C 713.14 270.39, 709.56 277.58, 710.81 280.69 C 712.06 283.81, 716.94 283.71, 719.90 285.91 C 722.86 288.11, 726.35 290.71, 728.57 293.90 C 730.80 297.09, 730.80 302.04, 733.26 305.06 C 735.71 308.08, 740.94 308.79, 743.31 312.02 C 745.69 315.26, 747.55 320.34, 747.48 324.49 C 747.41 328.63, 744.80 333.50, 742.91 336.87 C 741.02 340.25, 738.40 344.20, 736.13 344.75 C 733.85 345.29, 731.55 341.71, 729.28 340.16 C 727.00 338.61, 724.52 338.16, 722.48 335.42 C 720.44 332.68, 719.13 327.18, 717.03 323.71 C 714.94 320.24, 712.48 317.39, 709.92 314.60 C 707.36 311.81, 704.32 309.07, 701.67 306.98 C 699.02 304.89, 696.88 302.13, 694.03 302.06 C 691.18 301.98, 687.44 304.41, 684.55 306.52 C 681.67 308.64, 678.22 311.93, 676.75 314.75 C 675.27 317.57, 674.74 321.32, 675.69 323.43 C 676.64 325.55, 679.66 326.40, 682.44 327.44 C 685.22 328.48, 689.38 328.03, 692.35 329.69 C 695.31 331.34, 697.79 334.55, 700.24 337.38 C 702.68 340.20, 707.70 344.39, 707.03 346.65 C 706.36 348.90, 699.78 349.69, 696.21 350.92 C 692.64 352.16, 688.98 353.55, 685.63 354.04 C 682.27 354.52, 678.79 355.00, 676.07 353.86 C 673.36 352.72, 671.66 348.79, 669.33 347.20 C 667.00 345.60, 664.33 343.07, 662.10 344.28 C 659.87 345.49, 658.41 351.51, 655.95 354.47 C 653.48 357.44, 649.10 362.41, 647.31 362.06 C 645.51 361.71, 647.53 355.30, 645.18 352.35 C 642.83 349.40, 635.76 344.75, 633.18 344.36 C 630.60 343.96, 631.38 349.66, 629.70 349.99 C 628.03 350.31, 625.47 347.04, 623.14 346.31 C 620.80 345.57, 617.93 345.61, 615.70 345.58 C 613.46 345.54, 611.93 346.24, 609.71 346.09 C 607.49 345.94, 605.03 344.95, 602.37 344.70 C 599.71 344.45, 596.90 344.94, 593.75 344.59 C 590.61 344.24, 587.18 343.58, 583.50 342.61 C 579.82 341.63, 574.66 339.94, 571.66 338.74 C 568.66 337.54, 567.67 335.67, 565.50 335.40 C 563.33 335.13, 561.07 336.51, 558.62 337.12 C 556.16 337.73, 553.39 338.35, 550.79 339.03 C 548.20 339.72, 545.44 340.35, 543.06 341.25 C 540.68 342.16, 538.77 343.54, 536.51 344.46 C 534.26 345.37, 532.01 345.86, 529.53 346.77 C 527.05 347.68, 524.43 348.76, 521.65 349.93 C 518.88 351.10, 515.19 352.24, 512.89 353.80 C 510.60 355.36, 508.25 357.33, 507.89 359.30 C 507.52 361.27, 509.29 363.95, 510.71 365.60 C 512.14 367.24, 514.60 368.87, 516.45 369.18 C 518.30 369.50, 519.65 368.34, 521.82 367.49 C 523.98 366.64, 526.82 365.44, 529.43 364.10 C 532.04 362.76, 534.37 360.58, 537.46 359.44 C 540.56 358.31, 545.22 358.06, 548.00 357.27 C 550.79 356.47, 551.81 355.06, 554.19 354.65 C 556.56 354.24, 559.65 354.58, 562.24 354.81 C 564.83 355.03, 567.35 355.72, 569.74 355.99 C 572.12 356.26, 574.17 356.14, 576.54 356.43 C 578.91 356.72, 581.24 357.22, 583.96 357.73 C 586.68 358.24, 589.79 358.94, 592.84 359.50 C 595.88 360.05, 598.49 360.26, 602.24 361.06 C 605.99 361.87, 610.75 362.87, 615.32 364.32 C 619.90 365.78, 628.20 369.05, 629.71 369.79 C 631.22 370.52, 627.15 368.33, 624.38 368.73 C 621.60 369.14, 616.64 371.34, 613.07 372.21 C 609.50 373.09, 606.39 373.69, 602.94 373.99 C 599.49 374.28, 595.26 373.79, 592.36 373.99 C 589.46 374.18, 587.98 375.05, 585.56 375.14 C 583.15 375.24, 580.17 374.49, 577.86 374.54 C 575.55 374.58, 573.78 375.36, 571.70 375.44 C 569.62 375.51, 567.35 375.22, 565.38 374.98 C 563.41 374.74, 561.73 374.42, 559.89 374.00 C 558.05 373.58, 556.43 372.55, 554.33 372.47 C 552.23 372.38, 549.63 373.28, 547.29 373.51 C 544.95 373.74, 542.62 373.10, 540.29 373.86 C 537.97 374.63, 534.74 376.35, 533.32 378.09 C 531.90 379.84, 531.12 382.45, 531.79 384.32 C 532.45 386.20, 535.32 387.94, 537.30 389.35 C 539.27 390.77, 541.44 391.76, 543.65 392.82 C 545.86 393.88, 548.49 395.55, 550.53 395.72 C 552.57 395.89, 554.04 393.96, 555.87 393.85 C 557.71 393.73, 559.52 394.75, 561.55 395.02 C 563.59 395.29, 565.95 395.31, 568.08 395.46 C 570.21 395.61, 572.36 396.03, 574.34 395.94 C 576.31 395.84, 577.80 395.11, 579.91 394.89 C 582.03 394.68, 584.81 394.81, 587.04 394.63 C 589.28 394.45, 591.04 394.48, 593.33 393.80 C 595.61 393.13, 598.49 391.10, 600.77 390.56 C 603.05 390.02, 604.94 390.75, 607.00 390.56 C 609.06 390.38, 610.14 389.70, 613.13 389.44 C 616.13 389.19, 621.68 389.41, 624.96 389.03 C 628.24 388.66, 632.05 386.32, 632.82 387.20 C 633.59 388.08, 631.17 391.42, 629.57 394.32 C 627.98 397.22, 625.34 402.05, 623.24 404.57 C 621.14 407.10, 619.05 408.45, 616.96 409.46 C 614.87 410.46, 613.08 410.48, 610.71 410.62 C 608.34 410.76, 605.39 410.01, 602.76 410.29 C 600.13 410.58, 597.38 411.86, 594.94 412.34 C 592.51 412.82, 590.45 412.73, 588.15 413.18 C 585.85 413.62, 583.56 414.81, 581.16 415.01 C 578.76 415.21, 576.13 414.41, 573.76 414.36 C 571.38 414.32, 569.25 414.75, 566.92 414.75 C 564.59 414.75, 562.04 414.56, 559.78 414.36 C 557.52 414.17, 555.65 413.97, 553.35 413.56 C 551.05 413.16, 548.52 412.74, 545.99 411.93 C 543.47 411.12, 540.41 409.52, 538.20 408.70 C 535.98 407.88, 534.73 408.74, 532.70 407.01 C 530.67 405.29, 528.33 401.12, 526.02 398.35 C 523.71 395.58, 520.83 392.46, 518.84 390.42 C 516.84 388.37, 515.69 387.12, 514.04 386.08 C 512.40 385.03, 510.89 385.52, 508.97 384.14 C 507.06 382.75, 504.90 379.49, 502.57 377.74 C 500.23 375.98, 496.91 375.18, 494.96 373.60 C 493.00 372.02, 492.51 369.58, 490.85 368.26 C 489.20 366.94, 486.98 366.35, 485.04 365.66 C 483.09 364.96, 481.19 364.42, 479.18 364.08 C 477.16 363.74, 475.15 363.24, 472.97 363.62 C 470.78 364.00, 468.12 365.55, 466.05 366.35 C 463.98 367.15, 462.82 367.81, 460.56 368.43 C 458.30 369.05, 455.28 369.63, 452.49 370.07 C 449.70 370.51, 446.49 370.62, 443.85 371.05 C 441.20 371.48, 438.82 371.86, 436.60 372.67 C 434.38 373.47, 432.06 374.13, 430.54 375.89 C 429.02 377.65, 428.00 380.73, 427.47 383.21 C 426.94 385.69, 426.48 389.67, 427.35 390.76 C 428.23 391.84, 430.24 390.24, 432.73 389.71 C 435.22 389.18, 439.37 388.02, 442.30 387.60 C 445.22 387.18, 447.84 387.47, 450.27 387.18 C 452.70 386.89, 454.58 386.21, 456.88 385.87 C 459.19 385.54, 461.82 385.37, 464.12 385.16 C 466.42 384.95, 468.62 384.73, 470.70 384.63 C 472.78 384.53, 474.78 384.16, 476.61 384.57 C 478.44 384.97, 479.62 386.31, 481.68 387.06 C 483.74 387.81, 486.81 388.30, 488.99 389.05 C 491.17 389.79, 492.83 390.17, 494.76 391.55 C 496.68 392.93, 498.05 394.79, 500.53 397.31 C 503.00 399.84, 506.78 404.72, 509.62 406.67" stroke="red" stroke-width="3" fill="black" /></svg>