<svg width="800" height="800" viewBox="46.84 336.59 745.21 362.96" xmlns="http://www.w3.org/2000/svg"><path d="M 102.23 524.39 C 101.75 527.96, 101.17 531.66, 100.80 535.11 C 100.43 538.57, 100.68 541.50, 100.02 545.11 C 99.36 548.72, 97.31 552.82, 96.84 556.77 C 96.37 560.72, 97.01 564.60, 97.17 568.81 C 97.34 573.02, 96.96 577.90, 97.81 582.01 C 98.65 586.12, 100.52 589.61, 102.25 593.48 C 103.97 597.34, 106.43 601.55, 108.15 605.22 C 109.88 608.88, 111.67 612.05, 112.58 615.46 C 113.49 618.88, 111.32 623.70, 113.62 625.72 C 115.91 627.75, 122.27 626.68, 126.33 627.61 C 130.39 628.53, 134.21 631.14, 137.98 631.25 C 141.76 631.37, 147.39 630.56, 148.98 628.29 C 150.56 626.01, 147.95 621.38, 147.48 617.59 C 147.01 613.79, 147.28 608.65, 146.17 605.51 C 145.06 602.38, 143.24 600.81, 140.82 598.79 C 138.41 596.77, 134.13 595.95, 131.70 593.41 C 129.28 590.86, 127.40 587.00, 126.29 583.53 C 125.17 580.05, 125.73 576.33, 125.03 572.58 C 124.32 568.84, 121.91 565.05, 122.07 561.06 C 122.23 557.07, 125.06 552.89, 125.99 548.65 C 126.91 544.40, 127.15 539.83, 127.65 535.59 C 128.15 531.34, 128.15 527.29, 128.99 523.18 C 129.83 519.07, 130.35 514.53, 132.70 510.91 C 135.05 507.28, 139.89 504.06, 143.11 501.43 C 146.32 498.81, 148.48 497.23, 151.99 495.17 C 155.49 493.11, 162.42 491.79, 164.15 489.07 C 165.89 486.34, 163.38 482.60, 162.41 478.82 C 161.44 475.05, 158.21 469.74, 158.33 466.42 C 158.46 463.10, 161.03 461.83, 163.15 458.90 C 165.27 455.97, 167.73 450.59, 171.04 448.83 C 174.35 447.08, 180.16 446.31, 183.01 448.38 C 185.85 450.44, 187.15 457.31, 188.10 461.25 C 189.06 465.18, 188.69 468.82, 188.75 472.00 C 188.81 475.18, 188.39 477.36, 188.46 480.31 C 188.53 483.27, 188.64 486.38, 189.17 489.73 C 189.71 493.08, 191.56 497.28, 191.68 500.43 C 191.81 503.57, 192.02 507.32, 189.94 508.61 C 187.86 509.91, 182.45 507.45, 179.20 508.20 C 175.94 508.95, 173.30 511.14, 170.41 513.10 C 167.52 515.07, 164.28 517.66, 161.86 519.99 C 159.44 522.32, 157.41 523.97, 155.91 527.07 C 154.41 530.17, 153.76 534.95, 152.86 538.60 C 151.96 542.25, 151.42 545.45, 150.52 548.99 C 149.63 552.54, 147.79 555.89, 147.48 559.88 C 147.18 563.86, 147.39 569.73, 148.71 572.91 C 150.03 576.09, 152.73 579.65, 155.39 578.95 C 158.05 578.24, 161.91 571.87, 164.65 568.66 C 167.40 565.45, 169.81 562.84, 171.87 559.70 C 173.92 556.55, 175.68 552.85, 177.00 549.79 C 178.32 546.73, 178.35 544.10, 179.80 541.35 C 181.25 538.59, 182.92 535.25, 185.72 533.27 C 188.52 531.28, 193.69 528.35, 196.60 529.42 C 199.51 530.48, 201.70 536.37, 203.18 539.66 C 204.66 542.95, 204.95 545.91, 205.47 549.16 C 205.99 552.40, 207.31 556.70, 206.29 559.14 C 205.27 561.58, 201.99 562.08, 199.32 563.82 C 196.66 565.56, 192.97 567.47, 190.31 569.58 C 187.66 571.70, 186.06 573.66, 183.39 576.50 C 180.72 579.33, 176.91 583.34, 174.27 586.59 C 171.64 589.84, 168.67 592.79, 167.58 596.00 C 166.49 599.22, 167.85 602.24, 167.74 605.89 C 167.63 609.54, 166.26 613.88, 166.93 617.90 C 167.60 621.92, 169.26 626.86, 171.75 630.00 C 174.25 633.14, 179.55 637.37, 181.89 636.75 C 184.23 636.13, 184.77 629.74, 185.78 626.27 C 186.78 622.81, 187.40 619.17, 187.94 615.94 C 188.47 612.71, 188.40 609.74, 188.99 606.89 C 189.57 604.04, 189.57 601.58, 191.46 598.83 C 193.35 596.08, 197.48 592.95, 200.31 590.40 C 203.14 587.84, 206.64 583.14, 208.45 583.50 C 210.27 583.85, 210.79 589.07, 211.20 592.55 C 211.61 596.03, 211.19 601.13, 210.94 604.36 C 210.68 607.58, 210.29 608.96, 209.68 611.89 C 209.08 614.82, 208.01 618.72, 207.29 621.94 C 206.57 625.16, 204.94 628.49, 205.38 631.22 C 205.81 633.96, 207.00 637.02, 209.92 638.36 C 212.85 639.70, 220.12 640.61, 222.93 639.27 C 225.75 637.94, 225.85 633.14, 226.81 630.36 C 227.77 627.58, 228.15 625.56, 228.68 622.60 C 229.20 619.64, 229.75 615.95, 229.95 612.61 C 230.15 609.28, 229.73 605.85, 229.89 602.59 C 230.05 599.33, 230.75 596.42, 230.90 593.05 C 231.04 589.67, 231.24 585.66, 230.75 582.34 C 230.27 579.02, 228.44 576.01, 227.98 573.12 C 227.52 570.24, 227.65 567.79, 227.99 565.03 C 228.32 562.27, 229.69 559.49, 230.01 556.58 C 230.32 553.67, 230.45 550.52, 229.88 547.59 C 229.32 544.66, 227.73 541.95, 226.61 539.00 C 225.49 536.05, 224.67 532.94, 223.18 529.89 C 221.68 526.84, 219.07 523.57, 217.65 520.71 C 216.24 517.85, 215.30 515.77, 214.68 512.74 C 214.06 509.71, 213.97 505.89, 213.93 502.55 C 213.90 499.21, 214.53 496.16, 214.47 492.70 C 214.41 489.24, 213.81 485.48, 213.58 481.79 C 213.35 478.10, 213.56 474.55, 213.10 470.55 C 212.64 466.55, 212.13 461.95, 210.82 457.79 C 209.50 453.64, 205.83 449.67, 205.23 445.63 C 204.63 441.58, 204.84 436.02, 207.21 433.54 C 209.57 431.05, 215.56 431.08, 219.43 430.74 C 223.31 430.39, 228.44 429.98, 230.45 431.47 C 232.47 432.96, 231.14 437.00, 231.50 439.68 C 231.87 442.37, 232.03 444.57, 232.64 447.59 C 233.25 450.61, 234.77 454.09, 235.16 457.79 C 235.55 461.49, 234.74 466.10, 235.00 469.77 C 235.26 473.45, 236.42 476.17, 236.73 479.83 C 237.04 483.50, 236.81 487.99, 236.87 491.79 C 236.94 495.58, 236.84 499.41, 237.12 502.61 C 237.40 505.81, 237.60 507.95, 238.55 511.00 C 239.50 514.05, 241.35 517.78, 242.79 520.90 C 244.24 524.02, 245.91 526.89, 247.20 529.74 C 248.49 532.58, 249.39 535.30, 250.52 537.98 C 251.66 540.66, 253.36 543.21, 254.01 545.81 C 254.67 548.41, 254.64 550.98, 254.46 553.59 C 254.28 556.19, 253.51 558.72, 252.96 561.45 C 252.40 564.18, 251.29 567.09, 251.13 569.95 C 250.98 572.82, 252.16 575.81, 252.03 578.62 C 251.90 581.43, 250.63 583.93, 250.35 586.82 C 250.07 589.71, 250.71 592.86, 250.36 595.95 C 250.00 599.03, 248.40 602.25, 248.22 605.32 C 248.05 608.40, 249.42 611.36, 249.32 614.39 C 249.21 617.43, 248.11 620.54, 247.61 623.54 C 247.11 626.54, 246.37 629.28, 246.32 632.40 C 246.26 635.52, 244.96 640.56, 247.28 642.25 C 249.60 643.95, 256.77 643.15, 260.22 642.56 C 263.67 641.98, 266.84 641.02, 267.98 638.75 C 269.12 636.48, 266.97 631.77, 267.05 628.94 C 267.14 626.12, 268.09 624.48, 268.49 621.80 C 268.88 619.11, 269.23 615.53, 269.44 612.83 C 269.65 610.12, 269.73 608.07, 269.74 605.58 C 269.75 603.08, 269.15 600.50, 269.49 597.84 C 269.84 595.19, 271.33 592.19, 271.79 589.65 C 272.26 587.11, 271.88 584.89, 272.27 582.60 C 272.66 580.31, 273.39 578.16, 274.13 575.92 C 274.86 573.69, 276.24 571.47, 276.68 569.20 C 277.11 566.93, 276.53 564.64, 276.73 562.29 C 276.93 559.94, 277.70 557.55, 277.90 555.09 C 278.10 552.62, 277.58 550.09, 277.96 547.51 C 278.33 544.94, 280.42 542.00, 280.15 539.64 C 279.88 537.27, 278.09 535.40, 276.34 533.32 C 274.59 531.25, 271.53 529.53, 269.63 527.17 C 267.73 524.80, 266.17 521.88, 264.93 519.14 C 263.69 516.40, 263.20 513.69, 262.19 510.74 C 261.19 507.79, 259.59 504.60, 258.90 501.45 C 258.21 498.30, 258.10 495.27, 258.03 491.83 C 257.96 488.39, 258.56 484.34, 258.48 480.80 C 258.40 477.26, 257.82 474.11, 257.56 470.59 C 257.31 467.07, 257.11 463.40, 256.95 459.67 C 256.79 455.95, 257.30 452.03, 256.63 448.26 C 255.95 444.49, 253.69 441.22, 252.89 437.04 C 252.09 432.87, 250.69 425.91, 251.81 423.19 C 252.93 420.47, 257.01 421.52, 259.61 420.74 C 262.20 419.96, 264.74 417.24, 267.37 418.49 C 269.99 419.74, 273.54 424.48, 275.36 428.24 C 277.19 432.01, 277.68 437.23, 278.32 441.07 C 278.96 444.92, 278.94 447.92, 279.19 451.32 C 279.45 454.71, 279.51 458.19, 279.84 461.44 C 280.17 464.68, 281.03 467.68, 281.17 470.78 C 281.31 473.88, 280.96 476.92, 280.70 480.02 C 280.44 483.13, 279.74 486.33, 279.60 489.42 C 279.46 492.50, 279.38 495.36, 279.86 498.53 C 280.34 501.70, 281.26 505.37, 282.46 508.44 C 283.65 511.52, 285.07 515.76, 287.01 516.96 C 288.95 518.17, 291.81 517.40, 294.10 515.67 C 296.39 513.94, 299.46 509.62, 300.76 506.57 C 302.06 503.52, 301.79 500.31, 301.90 497.39 C 302.01 494.47, 301.35 492.01, 301.42 489.05 C 301.50 486.09, 301.87 482.69, 302.35 479.66 C 302.82 476.62, 304.34 473.87, 304.28 470.86 C 304.22 467.84, 302.18 464.71, 301.97 461.59 C 301.76 458.47, 303.09 455.32, 303.01 452.14 C 302.93 448.97, 301.69 445.72, 301.47 442.53 C 301.25 439.35, 302.00 436.42, 301.70 433.02 C 301.40 429.63, 301.37 425.78, 299.67 422.17 C 297.97 418.57, 291.19 414.37, 291.48 411.39 C 291.78 408.41, 298.55 406.06, 301.42 404.28 C 304.28 402.51, 306.29 402.10, 308.67 400.71 C 311.05 399.33, 312.77 395.52, 315.71 395.97 C 318.64 396.43, 324.89 399.82, 326.30 403.46 C 327.72 407.10, 324.68 413.60, 324.18 417.81 C 323.68 422.02, 323.26 425.13, 323.33 428.71 C 323.39 432.29, 324.24 435.85, 324.58 439.29 C 324.93 442.73, 325.34 445.91, 325.40 449.36 C 325.46 452.81, 324.98 456.69, 324.94 459.98 C 324.90 463.26, 325.24 465.93, 325.18 469.09 C 325.12 472.25, 324.84 475.79, 324.58 478.94 C 324.32 482.09, 323.99 485.12, 323.63 487.98 C 323.26 490.85, 322.95 493.17, 322.40 496.14 C 321.84 499.10, 321.27 502.58, 320.28 505.76 C 319.30 508.93, 318.19 512.12, 316.49 515.19 C 314.80 518.25, 312.12 521.41, 310.12 524.15 C 308.12 526.89, 306.20 529.33, 304.50 531.63 C 302.79 533.92, 300.74 535.50, 299.89 537.94 C 299.05 540.37, 299.13 543.57, 299.43 546.22 C 299.73 548.88, 301.51 551.40, 301.70 553.87 C 301.89 556.33, 300.32 558.68, 300.55 561.04 C 300.79 563.40, 303.18 565.69, 303.08 568.02 C 302.98 570.35, 300.94 572.71, 299.95 575.04 C 298.96 577.36, 298.35 579.91, 297.14 581.97 C 295.93 584.02, 293.72 585.02, 292.69 587.37 C 291.66 589.71, 291.44 593.39, 290.96 596.04 C 290.48 598.69, 290.17 600.51, 289.81 603.27 C 289.44 606.03, 289.03 609.83, 288.78 612.61 C 288.53 615.38, 288.29 617.59, 288.31 619.91 C 288.33 622.23, 288.99 624.10, 288.90 626.51 C 288.81 628.92, 288.05 631.33, 287.76 634.38 C 287.47 637.43, 285.49 643.00, 287.16 644.79 C 288.82 646.58, 294.14 644.98, 297.75 645.11 C 301.36 645.25, 306.88 646.87, 308.82 645.59 C 310.76 644.30, 309.31 640.06, 309.39 637.41 C 309.46 634.76, 309.06 632.14, 309.29 629.71 C 309.52 627.28, 310.88 624.93, 310.76 622.85 C 310.65 620.76, 309.00 619.50, 308.58 617.18 C 308.15 614.86, 307.87 611.57, 308.23 608.93 C 308.60 606.30, 309.82 603.82, 310.77 601.37 C 311.73 598.91, 312.94 596.29, 313.95 594.23 C 314.96 592.16, 315.25 588.59, 316.85 588.97 C 318.44 589.36, 321.59 593.54, 323.53 596.55 C 325.47 599.55, 327.64 603.85, 328.49 607.00 C 329.34 610.14, 328.29 612.94, 328.64 615.40 C 329.00 617.87, 330.73 619.48, 330.63 621.77 C 330.53 624.07, 328.27 626.57, 328.04 629.18 C 327.81 631.78, 328.90 634.55, 329.26 637.39 C 329.62 640.23, 327.93 644.62, 330.21 646.23 C 332.49 647.84, 339.80 647.73, 342.96 647.05 C 346.12 646.38, 348.18 644.47, 349.18 642.18 C 350.17 639.88, 349.21 636.32, 348.93 633.27 C 348.66 630.22, 348.10 627.10, 347.52 623.88 C 346.93 620.66, 346.16 617.84, 345.43 613.95 C 344.70 610.07, 344.16 604.28, 343.16 600.57 C 342.16 596.86, 340.97 594.56, 339.42 591.67 C 337.86 588.78, 335.65 586.09, 333.82 583.21 C 331.99 580.33, 330.08 576.61, 328.44 574.38 C 326.79 572.15, 324.84 571.81, 323.96 569.84 C 323.09 567.86, 323.41 565.24, 323.19 562.53 C 322.98 559.82, 322.81 556.48, 322.66 553.58 C 322.50 550.68, 321.89 547.79, 322.24 545.13 C 322.60 542.46, 323.55 540.60, 324.79 537.59 C 326.03 534.58, 327.93 530.75, 329.69 527.06 C 331.46 523.36, 333.77 519.36, 335.36 515.43 C 336.95 511.50, 337.87 506.92, 339.24 503.48 C 340.62 500.05, 342.62 497.79, 343.63 494.82 C 344.63 491.84, 344.90 488.56, 345.28 485.63 C 345.65 482.71, 345.71 480.45, 345.85 477.27 C 345.99 474.10, 345.88 470.00, 346.11 466.59 C 346.35 463.19, 347.16 460.21, 347.26 456.83 C 347.35 453.45, 346.77 449.70, 346.69 446.33 C 346.61 442.96, 346.97 439.85, 346.78 436.60 C 346.59 433.36, 345.49 430.30, 345.54 426.86 C 345.60 423.41, 346.81 419.04, 347.14 415.94 C 347.46 412.84, 347.36 410.88, 347.52 408.26 C 347.68 405.65, 345.89 402.62, 348.09 400.23 C 350.28 397.84, 357.57 393.02, 360.68 393.94 C 363.79 394.86, 365.54 401.64, 366.73 405.75 C 367.93 409.85, 367.70 414.54, 367.85 418.54 C 368.00 422.54, 367.37 426.26, 367.62 429.75 C 367.87 433.24, 369.14 436.20, 369.33 439.47 C 369.52 442.75, 369.12 446.14, 368.77 449.41 C 368.42 452.69, 367.37 455.63, 367.24 459.13 C 367.10 462.62, 367.89 467.07, 367.96 470.41 C 368.02 473.75, 367.60 476.28, 367.63 479.17 C 367.67 482.06, 368.49 484.98, 368.15 487.72 C 367.80 490.46, 366.63 493.01, 365.56 495.61 C 364.49 498.21, 363.50 500.96, 361.75 503.31 C 360.00 505.65, 357.11 506.87, 355.06 509.68 C 353.02 512.48, 351.19 516.64, 349.48 520.14 C 347.76 523.64, 345.85 527.04, 344.78 530.69 C 343.70 534.34, 343.46 538.76, 343.03 542.04 C 342.60 545.31, 342.14 547.75, 342.18 550.34 C 342.21 552.93, 342.61 555.21, 343.24 557.57 C 343.86 559.93, 345.09 562.03, 345.91 564.49 C 346.72 566.95, 347.39 569.46, 348.12 572.35 C 348.85 575.23, 349.14 578.26, 350.30 581.83 C 351.45 585.39, 353.95 589.81, 355.07 593.76 C 356.20 597.71, 356.32 601.88, 357.05 605.54 C 357.79 609.20, 358.59 612.20, 359.46 615.73 C 360.34 619.26, 360.98 623.06, 362.28 626.73 C 363.59 630.39, 365.60 634.29, 367.29 637.72 C 368.98 641.16, 371.12 647.33, 372.44 647.35 C 373.76 647.37, 374.58 641.58, 375.22 637.85 C 375.86 634.12, 376.36 628.80, 376.27 624.96 C 376.17 621.11, 375.28 618.02, 374.65 614.77 C 374.03 611.51, 373.29 608.62, 372.51 605.44 C 371.73 602.26, 370.62 598.65, 369.96 595.68 C 369.30 592.70, 368.97 590.44, 368.56 587.57 C 368.14 584.70, 367.89 581.25, 367.47 578.46 C 367.06 575.68, 366.41 573.46, 366.07 570.86 C 365.73 568.27, 365.86 565.66, 365.43 562.90 C 365.00 560.14, 364.05 557.06, 363.48 554.32 C 362.91 551.58, 362.38 549.02, 362.02 546.48 C 361.65 543.93, 361.19 541.69, 361.32 539.04 C 361.44 536.38, 361.42 533.36, 362.74 530.56 C 364.07 527.75, 367.31 524.44, 369.28 522.20 C 371.26 519.95, 373.15 516.59, 374.61 517.10 C 376.07 517.61, 377.28 522.14, 378.05 525.25 C 378.81 528.36, 378.73 532.40, 379.22 535.74 C 379.71 539.09, 380.60 542.23, 380.96 545.32 C 381.33 548.42, 380.94 551.22, 381.43 554.33 C 381.91 557.44, 383.42 560.74, 383.89 563.99 C 384.36 567.23, 383.92 570.96, 384.27 573.81 C 384.62 576.66, 385.46 578.39, 385.99 581.08 C 386.51 583.77, 387.10 587.17, 387.44 589.94 C 387.78 592.71, 387.79 595.22, 388.02 597.72 C 388.26 600.22, 388.64 601.96, 388.84 604.92 C 389.03 607.89, 389.03 612.09, 389.21 615.51 C 389.38 618.93, 389.35 621.74, 389.89 625.46 C 390.43 629.19, 391.17 634.30, 392.44 637.87 C 393.71 641.44, 396.18 646.68, 397.53 646.88 C 398.88 647.08, 399.52 642.22, 400.52 639.08 C 401.53 635.94, 402.86 631.46, 403.56 628.03 C 404.26 624.60, 404.48 621.57, 404.71 618.50 C 404.95 615.44, 404.81 612.50, 404.98 609.66 C 405.16 606.82, 405.49 604.26, 405.78 601.47 C 406.07 598.69, 406.48 595.57, 406.74 592.96 C 407.01 590.35, 407.52 588.13, 407.35 585.80 C 407.17 583.47, 406.39 581.23, 405.71 578.98 C 405.04 576.74, 404.41 574.71, 403.30 572.34 C 402.19 569.97, 400.03 567.76, 399.08 564.75 C 398.12 561.73, 398.06 557.77, 397.58 554.25 C 397.10 550.73, 396.44 547.06, 396.21 543.61 C 395.98 540.16, 396.37 536.95, 396.21 533.53 C 396.04 530.11, 395.62 526.33, 395.23 523.08 C 394.83 519.83, 394.61 516.92, 393.84 514.02 C 393.07 511.12, 391.71 508.16, 390.60 505.69 C 389.49 503.22, 387.56 501.56, 387.18 499.21 C 386.80 496.86, 387.92 494.39, 388.31 491.59 C 388.69 488.78, 389.43 485.37, 389.49 482.39 C 389.55 479.40, 388.85 476.69, 388.64 473.68 C 388.43 470.66, 388.09 467.24, 388.23 464.31 C 388.37 461.37, 389.23 459.02, 389.51 456.06 C 389.78 453.10, 389.65 449.94, 389.88 446.55 C 390.11 443.16, 390.87 439.12, 390.89 435.74 C 390.91 432.36, 390.41 429.37, 390.00 426.29 C 389.59 423.20, 388.61 420.61, 388.44 417.21 C 388.26 413.81, 389.07 409.84, 388.94 405.90 C 388.81 401.95, 385.71 395.60, 387.68 393.53 C 389.65 391.46, 396.79 392.83, 400.76 393.49 C 404.73 394.14, 409.66 394.69, 411.52 397.43 C 413.38 400.18, 411.97 406.00, 411.91 409.94 C 411.86 413.87, 411.30 417.17, 411.21 421.04 C 411.13 424.91, 411.37 429.37, 411.41 433.18 C 411.45 436.99, 411.53 440.33, 411.45 443.89 C 411.37 447.45, 411.09 451.18, 410.91 454.55 C 410.74 457.93, 410.51 461.05, 410.42 464.16 C 410.33 467.26, 410.48 470.02, 410.38 473.20 C 410.27 476.37, 409.79 480.26, 409.78 483.23 C 409.77 486.19, 410.19 488.29, 410.29 490.98 C 410.40 493.68, 410.18 496.48, 410.40 499.39 C 410.62 502.30, 411.10 505.38, 411.60 508.45 C 412.09 511.52, 413.01 514.94, 413.38 517.79 C 413.75 520.65, 413.79 522.85, 413.83 525.59 C 413.86 528.33, 413.60 531.55, 413.60 534.25 C 413.60 536.95, 413.86 539.37, 413.83 541.76 C 413.81 544.15, 413.24 546.08, 413.45 548.59 C 413.66 551.10, 414.14 554.13, 415.08 556.81 C 416.03 559.49, 417.75 562.70, 419.13 564.68 C 420.52 566.66, 421.71 568.99, 423.38 568.71 C 425.05 568.44, 427.62 565.46, 429.16 563.03 C 430.69 560.59, 431.71 556.84, 432.61 554.08 C 433.51 551.33, 434.38 548.98, 434.54 546.51 C 434.71 544.03, 434.02 541.76, 433.62 539.22 C 433.23 536.69, 432.43 534.10, 432.18 531.30 C 431.93 528.50, 432.12 525.32, 432.13 522.42 C 432.15 519.52, 432.38 516.43, 432.25 513.89 C 432.13 511.35, 431.54 509.97, 431.39 507.19 C 431.25 504.41, 431.50 500.28, 431.41 497.22 C 431.32 494.16, 430.85 491.69, 430.87 488.83 C 430.89 485.97, 431.35 483.22, 431.55 480.06 C 431.75 476.90, 432.21 472.99, 432.08 469.85 C 431.95 466.71, 430.81 464.38, 430.76 461.23 C 430.72 458.08, 431.70 454.20, 431.84 450.96 C 431.97 447.73, 431.58 445.09, 431.57 441.80 C 431.56 438.51, 431.41 434.54, 431.76 431.21 C 432.11 427.88, 433.27 425.12, 433.67 421.82 C 434.06 418.51, 434.20 415.21, 434.11 411.38 C 434.03 407.54, 432.46 402.72, 433.14 398.83 C 433.82 394.95, 435.62 390.11, 438.19 388.07 C 440.76 386.02, 444.72 386.27, 448.56 386.59 C 452.39 386.91, 458.55 387.91, 461.19 389.98 C 463.83 392.04, 465.13 395.55, 464.40 398.97 C 463.68 402.40, 458.57 406.67, 456.83 410.54 C 455.09 414.41, 454.71 418.31, 453.97 422.21 C 453.23 426.11, 452.90 430.01, 452.39 433.93 C 451.89 437.86, 450.92 442.18, 450.94 445.77 C 450.95 449.35, 452.39 452.10, 452.49 455.43 C 452.58 458.77, 451.68 462.42, 451.50 465.76 C 451.31 469.11, 451.50 472.35, 451.39 475.52 C 451.29 478.68, 450.95 481.44, 450.86 484.76 C 450.78 488.08, 450.83 492.21, 450.89 495.43 C 450.95 498.65, 451.19 501.00, 451.22 504.08 C 451.24 507.15, 450.82 510.73, 451.04 513.86 C 451.26 517.00, 452.44 519.82, 452.54 522.90 C 452.65 525.98, 451.58 529.21, 451.66 532.34 C 451.73 535.47, 453.17 538.39, 452.99 541.66 C 452.81 544.94, 451.04 548.72, 450.59 551.99 C 450.14 555.25, 450.65 558.38, 450.31 561.25 C 449.97 564.12, 449.82 567.03, 448.54 569.22 C 447.25 571.42, 445.12 572.44, 442.61 574.42 C 440.09 576.41, 436.10 579.13, 433.45 581.15 C 430.81 583.16, 428.12 584.47, 426.75 586.52 C 425.38 588.57, 425.81 591.01, 425.23 593.46 C 424.66 595.91, 423.70 598.45, 423.32 601.22 C 422.94 604.00, 423.32 607.29, 422.96 610.12 C 422.60 612.95, 421.48 615.69, 421.17 618.19 C 420.86 620.69, 421.15 622.82, 421.09 625.14 C 421.03 627.45, 421.05 629.67, 420.80 632.07 C 420.55 634.48, 419.48 637.15, 419.58 639.59 C 419.68 642.04, 419.33 645.08, 421.41 646.74 C 423.49 648.40, 428.46 649.34, 432.06 649.55 C 435.66 649.75, 441.09 649.68, 443.02 647.99 C 444.94 646.30, 443.62 642.07, 443.60 639.40 C 443.59 636.73, 443.43 634.10, 442.90 631.97 C 442.38 629.84, 440.94 628.59, 440.45 626.64 C 439.95 624.69, 439.92 622.58, 439.92 620.27 C 439.93 617.95, 440.26 615.01, 440.48 612.74 C 440.70 610.47, 440.75 609.05, 441.25 606.65 C 441.75 604.25, 442.44 600.83, 443.49 598.32 C 444.54 595.80, 445.94 593.33, 447.53 591.54 C 449.12 589.75, 451.21 587.35, 453.03 587.57 C 454.85 587.78, 457.26 590.42, 458.43 592.81 C 459.61 595.19, 459.56 599.08, 460.08 601.90 C 460.60 604.71, 461.61 607.10, 461.54 609.70 C 461.48 612.29, 460.07 615.08, 459.69 617.45 C 459.31 619.82, 458.99 621.48, 459.28 623.92 C 459.56 626.35, 460.63 629.26, 461.41 632.06 C 462.18 634.85, 462.73 638.11, 463.93 640.70 C 465.12 643.29, 467.03 648.05, 468.58 647.60 C 470.12 647.14, 472.05 641.74, 473.20 637.95 C 474.35 634.16, 474.87 628.96, 475.47 624.88 C 476.06 620.79, 476.75 617.37, 476.78 613.45 C 476.80 609.53, 476.15 605.33, 475.62 601.37 C 475.09 597.41, 474.63 593.40, 473.61 589.68 C 472.59 585.97, 470.53 582.06, 469.51 579.08 C 468.49 576.10, 467.82 574.39, 467.51 571.81 C 467.19 569.22, 467.44 566.50, 467.63 563.55 C 467.81 560.61, 468.18 557.24, 468.61 554.16 C 469.05 551.07, 470.15 548.24, 470.25 545.06 C 470.35 541.88, 469.25 538.41, 469.23 535.09 C 469.22 531.77, 469.91 528.32, 470.15 525.14 C 470.39 521.96, 470.58 519.17, 470.67 516.01 C 470.76 512.84, 470.56 509.36, 470.70 506.17 C 470.85 502.98, 471.54 500.01, 471.54 496.87 C 471.55 493.73, 470.87 490.67, 470.72 487.35 C 470.58 484.02, 470.59 480.46, 470.68 476.92 C 470.76 473.38, 471.08 469.68, 471.25 466.12 C 471.42 462.57, 471.45 459.23, 471.67 455.57 C 471.90 451.92, 472.53 447.76, 472.61 444.21 C 472.68 440.65, 471.64 437.79, 472.12 434.27 C 472.61 430.75, 474.43 426.61, 475.51 423.09 C 476.59 419.57, 476.93 416.91, 478.62 413.15 C 480.31 409.39, 482.71 403.39, 485.63 400.51 C 488.55 397.62, 492.50 395.15, 496.13 395.82 C 499.77 396.49, 506.46 401.61, 507.42 404.50 C 508.39 407.40, 503.43 410.13, 501.93 413.17 C 500.44 416.21, 499.63 419.64, 498.47 422.75 C 497.32 425.86, 495.98 428.85, 495.01 431.84 C 494.04 434.83, 493.03 437.52, 492.66 440.67 C 492.28 443.83, 492.93 447.35, 492.75 450.78 C 492.58 454.21, 491.95 457.67, 491.62 461.25 C 491.29 464.83, 490.95 468.63, 490.78 472.25 C 490.61 475.87, 490.64 479.47, 490.58 482.96 C 490.53 486.45, 490.54 489.74, 490.45 493.19 C 490.35 496.64, 490.23 500.30, 490.02 503.68 C 489.81 507.05, 489.28 510.36, 489.17 513.45 C 489.06 516.54, 489.50 519.16, 489.36 522.23 C 489.22 525.29, 488.77 528.72, 488.35 531.81 C 487.92 534.91, 487.19 537.35, 486.81 540.80 C 486.44 544.26, 486.25 548.91, 486.08 552.55 C 485.91 556.19, 485.82 559.32, 485.82 562.63 C 485.83 565.93, 485.84 569.03, 486.10 572.39 C 486.36 575.75, 487.16 579.42, 487.41 582.79 C 487.65 586.17, 487.39 588.83, 487.57 592.65 C 487.75 596.46, 488.15 601.35, 488.47 605.68 C 488.80 610.00, 489.52 614.88, 489.54 618.60 C 489.56 622.32, 488.39 624.86, 488.59 628.00 C 488.79 631.14, 489.82 634.29, 490.73 637.42 C 491.63 640.56, 491.96 645.47, 494.02 646.81 C 496.09 648.15, 501.25 647.39, 503.12 645.46 C 504.99 643.54, 504.76 638.35, 505.26 635.26 C 505.77 632.16, 506.27 629.79, 506.17 626.88 C 506.07 623.97, 505.17 621.00, 504.66 617.78 C 504.16 614.56, 503.51 610.72, 503.13 607.56 C 502.75 604.39, 502.38 601.84, 502.37 598.80 C 502.37 595.75, 503.14 592.41, 503.11 589.28 C 503.07 586.14, 502.20 583.03, 502.18 579.97 C 502.16 576.91, 502.87 574.09, 503.00 570.92 C 503.14 567.75, 502.92 564.11, 503.00 560.97 C 503.08 557.83, 503.26 555.09, 503.47 552.10 C 503.68 549.12, 503.62 545.83, 504.25 543.05 C 504.88 540.27, 506.47 537.96, 507.24 535.44 C 508.02 532.91, 508.31 530.37, 508.88 527.91 C 509.44 525.45, 510.30 523.27, 510.63 520.69 C 510.96 518.10, 510.85 515.17, 510.84 512.41 C 510.82 509.64, 510.59 506.85, 510.52 504.09 C 510.46 501.33, 510.30 498.66, 510.42 495.83 C 510.55 493.00, 511.11 490.02, 511.29 487.12 C 511.47 484.22, 511.63 481.39, 511.48 478.44 C 511.32 475.49, 510.08 472.51, 510.36 469.41 C 510.64 466.32, 512.64 462.91, 513.16 459.89 C 513.67 456.87, 513.09 453.96, 513.45 451.28 C 513.82 448.60, 514.77 446.45, 515.34 443.81 C 515.90 441.16, 516.22 438.37, 516.85 435.42 C 517.49 432.47, 518.01 429.18, 519.16 426.11 C 520.30 423.03, 522.14 419.66, 523.71 416.96 C 525.29 414.26, 526.88 412.14, 528.60 409.91 C 530.31 407.67, 532.51 402.93, 533.99 403.52 C 535.46 404.11, 536.32 410.11, 537.45 413.45 C 538.57 416.79, 540.49 419.99, 540.74 423.55 C 540.98 427.11, 539.46 431.29, 538.90 434.81 C 538.35 438.33, 537.87 441.44, 537.42 444.68 C 536.97 447.93, 536.74 451.22, 536.22 454.28 C 535.71 457.34, 534.74 460.07, 534.31 463.06 C 533.89 466.05, 533.87 469.15, 533.67 472.24 C 533.46 475.33, 533.35 478.64, 533.07 481.61 C 532.79 484.58, 532.12 487.15, 531.99 490.07 C 531.87 492.99, 532.38 496.13, 532.32 499.14 C 532.25 502.16, 531.56 505.34, 531.58 508.15 C 531.60 510.97, 532.16 513.33, 532.43 516.05 C 532.71 518.76, 533.26 521.86, 533.24 524.42 C 533.22 526.99, 533.05 529.14, 532.32 531.44 C 531.58 533.75, 530.19 535.91, 528.80 538.26 C 527.42 540.61, 525.32 542.88, 524.02 545.54 C 522.73 548.19, 521.87 551.16, 521.05 554.18 C 520.23 557.20, 519.56 560.22, 519.10 563.67 C 518.63 567.11, 518.45 571.07, 518.28 574.85 C 518.12 578.64, 518.07 582.65, 518.09 586.39 C 518.10 590.13, 518.03 593.76, 518.38 597.29 C 518.72 600.82, 519.93 604.61, 520.16 607.56 C 520.39 610.51, 519.57 612.23, 519.74 614.98 C 519.92 617.74, 520.79 620.47, 521.21 624.11 C 521.62 627.75, 521.49 633.25, 522.23 636.83 C 522.97 640.40, 523.77 644.91, 525.63 645.56 C 527.48 646.20, 531.55 643.04, 533.36 640.69 C 535.17 638.35, 535.75 634.56, 536.47 631.50 C 537.20 628.44, 537.56 625.10, 537.70 622.34 C 537.83 619.57, 537.52 617.67, 537.28 614.92 C 537.05 612.17, 536.46 608.79, 536.26 605.82 C 536.06 602.86, 536.31 599.76, 536.09 597.13 C 535.87 594.49, 535.22 592.69, 534.94 590.02 C 534.67 587.35, 534.58 584.03, 534.44 581.13 C 534.30 578.23, 533.90 575.50, 534.11 572.62 C 534.31 569.75, 534.55 566.83, 535.67 563.88 C 536.79 560.93, 539.21 557.34, 540.84 554.93 C 542.46 552.51, 544.01 548.75, 545.45 549.38 C 546.89 550.02, 548.38 555.17, 549.45 558.74 C 550.52 562.31, 551.25 567.41, 551.89 570.81 C 552.53 574.21, 553.09 576.41, 553.30 579.15 C 553.51 581.89, 553.00 584.37, 553.16 587.25 C 553.32 590.14, 554.04 593.36, 554.25 596.45 C 554.45 599.55, 554.11 602.71, 554.41 605.84 C 554.70 608.96, 555.84 612.46, 556.01 615.22 C 556.17 617.98, 555.73 619.62, 555.38 622.40 C 555.02 625.18, 554.07 628.81, 553.85 631.91 C 553.62 635.01, 552.67 639.03, 554.02 640.99 C 555.37 642.95, 558.46 643.46, 561.95 643.66 C 565.43 643.87, 572.41 643.75, 574.91 642.21 C 577.42 640.67, 576.80 637.17, 576.97 634.44 C 577.14 631.71, 576.58 628.48, 575.94 625.82 C 575.29 623.16, 573.56 621.54, 573.10 618.47 C 572.63 615.41, 573.42 610.77, 573.15 607.43 C 572.88 604.09, 571.73 601.42, 571.50 598.44 C 571.27 595.46, 571.66 592.68, 571.78 589.57 C 571.89 586.46, 572.51 583.05, 572.19 579.78 C 571.88 576.50, 570.65 573.31, 569.88 569.90 C 569.11 566.49, 568.41 562.64, 567.56 559.33 C 566.71 556.02, 565.92 553.18, 564.79 550.05 C 563.67 546.92, 562.05 543.35, 560.79 540.56 C 559.54 537.76, 558.26 535.78, 557.27 533.28 C 556.28 530.77, 555.12 528.26, 554.86 525.52 C 554.60 522.78, 555.81 519.91, 555.70 516.86 C 555.59 513.81, 554.60 510.44, 554.19 507.22 C 553.78 504.00, 553.40 500.81, 553.26 497.56 C 553.13 494.32, 553.28 491.46, 553.40 487.75 C 553.52 484.03, 553.68 479.40, 553.98 475.27 C 554.29 471.14, 554.61 466.79, 555.20 462.95 C 555.80 459.11, 557.06 456.02, 557.54 452.25 C 558.01 448.47, 557.72 444.19, 558.06 440.30 C 558.39 436.42, 559.03 433.08, 559.55 428.94 C 560.07 424.80, 559.20 417.72, 561.17 415.46 C 563.14 413.20, 567.75 414.84, 571.36 415.39 C 574.96 415.93, 580.86 415.91, 582.79 418.72 C 584.73 421.53, 583.81 427.99, 582.96 432.25 C 582.11 436.50, 578.95 440.07, 577.69 444.27 C 576.44 448.47, 576.01 453.03, 575.44 457.44 C 574.88 461.84, 574.71 466.39, 574.30 470.72 C 573.90 475.05, 572.93 479.60, 573.02 483.42 C 573.10 487.25, 574.42 490.07, 574.81 493.68 C 575.20 497.28, 574.91 501.69, 575.35 505.06 C 575.78 508.42, 576.87 510.98, 577.42 513.87 C 577.98 516.76, 578.29 519.32, 578.67 522.40 C 579.06 525.47, 579.05 529.35, 579.73 532.33 C 580.42 535.31, 582.02 537.27, 582.78 540.28 C 583.53 543.30, 583.79 546.98, 584.25 550.44 C 584.71 553.90, 585.01 557.10, 585.53 561.05 C 586.05 565.00, 586.92 569.86, 587.38 574.15 C 587.84 578.45, 587.82 582.97, 588.29 586.84 C 588.77 590.71, 589.91 594.09, 590.23 597.37 C 590.55 600.65, 590.22 603.40, 590.22 606.49 C 590.23 609.58, 589.51 612.19, 590.26 615.92 C 591.01 619.65, 593.16 624.60, 594.73 628.86 C 596.30 633.12, 598.12 640.71, 599.68 641.48 C 601.24 642.25, 602.99 637.03, 604.09 633.51 C 605.19 629.98, 605.74 624.45, 606.26 620.31 C 606.77 616.16, 607.22 612.55, 607.20 608.62 C 607.18 604.69, 606.60 601.01, 606.12 596.73 C 605.64 592.45, 604.83 586.90, 604.32 582.94 C 603.80 578.99, 603.37 576.44, 603.03 573.01 C 602.69 569.57, 602.00 565.76, 602.27 562.32 C 602.54 558.89, 604.33 555.53, 604.67 552.41 C 605.01 549.29, 604.13 546.30, 604.30 543.58 C 604.48 540.86, 606.13 538.82, 605.73 536.08 C 605.33 533.34, 602.89 530.11, 601.90 527.14 C 600.91 524.17, 600.17 521.23, 599.77 518.26 C 599.37 515.29, 599.65 512.15, 599.52 509.31 C 599.38 506.48, 599.30 504.16, 598.93 501.23 C 598.57 498.30, 598.04 494.53, 597.32 491.74 C 596.61 488.94, 595.18 487.17, 594.63 484.46 C 594.08 481.75, 594.23 478.78, 594.04 475.50 C 593.84 472.21, 592.98 468.49, 593.45 464.76 C 593.93 461.03, 595.39 456.81, 596.89 453.14 C 598.40 449.47, 600.49 442.62, 602.48 442.75 C 604.48 442.87, 606.76 450.31, 608.84 453.89 C 610.91 457.46, 613.32 460.98, 614.95 464.20 C 616.57 467.41, 617.61 470.38, 618.58 473.18 C 619.56 475.98, 620.28 478.23, 620.79 481.00 C 621.29 483.76, 621.32 486.80, 621.63 489.75 C 621.94 492.70, 622.36 495.62, 622.65 498.70 C 622.94 501.78, 623.32 505.22, 623.37 508.24 C 623.42 511.26, 622.54 514.05, 622.94 516.82 C 623.34 519.60, 624.69 522.07, 625.76 524.91 C 626.83 527.75, 628.74 530.88, 629.34 533.86 C 629.94 536.85, 629.70 539.79, 629.37 542.81 C 629.04 545.84, 628.39 549.18, 627.38 552.00 C 626.36 554.82, 624.00 556.84, 623.29 559.72 C 622.57 562.60, 623.47 566.08, 623.09 569.29 C 622.72 572.50, 621.31 575.62, 621.05 579.00 C 620.80 582.38, 621.21 585.72, 621.56 589.57 C 621.92 593.42, 622.93 598.05, 623.18 602.09 C 623.42 606.13, 623.09 610.20, 623.01 613.83 C 622.94 617.45, 622.51 620.42, 622.71 623.83 C 622.91 627.24, 622.37 631.85, 624.20 634.28 C 626.03 636.71, 631.13 639.09, 633.70 638.40 C 636.28 637.70, 638.29 633.33, 639.65 630.11 C 641.01 626.90, 641.56 622.81, 641.87 619.09 C 642.19 615.38, 641.61 611.66, 641.53 607.83 C 641.44 604.00, 641.33 599.59, 641.36 596.12 C 641.39 592.65, 641.55 589.97, 641.72 587.02 C 641.89 584.06, 641.94 581.64, 642.36 578.41 C 642.77 575.17, 643.23 571.25, 644.18 567.61 C 645.14 563.97, 645.88 558.00, 648.08 556.58 C 650.28 555.15, 654.59 557.21, 657.40 559.07 C 660.20 560.93, 663.67 564.40, 664.91 567.75 C 666.16 571.09, 665.06 575.47, 664.87 579.13 C 664.67 582.78, 664.26 586.34, 663.74 589.68 C 663.22 593.01, 662.39 595.98, 661.75 599.15 C 661.12 602.32, 660.20 604.97, 659.94 608.70 C 659.67 612.44, 659.98 617.34, 660.16 621.57 C 660.33 625.79, 659.21 632.44, 661.00 634.07 C 662.80 635.71, 668.25 633.69, 670.92 631.38 C 673.58 629.07, 675.35 624.10, 677.01 620.21 C 678.68 616.32, 679.76 612.05, 680.93 608.05 C 682.09 604.06, 683.06 599.82, 684.00 596.23 C 684.95 592.63, 685.80 590.09, 686.60 586.48 C 687.41 582.87, 688.84 578.59, 688.83 574.55 C 688.81 570.51, 687.35 566.23, 686.52 562.26 C 685.69 558.30, 685.73 554.04, 683.87 550.77 C 682.01 547.49, 678.35 545.15, 675.37 542.60 C 672.38 540.05, 669.32 536.91, 665.97 535.46 C 662.61 534.02, 657.87 535.62, 655.24 533.93 C 652.60 532.24, 651.27 528.43, 650.18 525.33 C 649.09 522.23, 649.37 518.32, 648.72 515.33 C 648.06 512.34, 646.54 510.54, 646.25 507.39 C 645.96 504.25, 646.64 499.82, 647.00 496.45 C 647.37 493.09, 648.40 490.38, 648.44 487.21 C 648.48 484.03, 648.02 480.65, 647.25 477.41 C 646.48 474.17, 644.98 471.17, 643.81 467.76 C 642.63 464.35, 642.09 459.79, 640.21 456.95 C 638.32 454.12, 634.84 453.49, 632.50 450.75 C 630.15 448.01, 627.81 443.32, 626.16 440.51 C 624.50 437.70, 623.76 436.10, 622.56 433.90 C 621.36 431.69, 617.65 429.40, 618.97 427.28 C 620.28 425.16, 626.33 421.33, 630.45 421.16 C 634.57 420.98, 639.68 424.48, 643.70 426.23 C 647.73 427.98, 651.73 428.73, 654.58 431.66 C 657.43 434.58, 658.86 439.95, 660.82 443.79 C 662.77 447.62, 664.71 450.81, 666.31 454.68 C 667.90 458.55, 669.06 463.17, 670.38 467.00 C 671.69 470.83, 673.29 473.94, 674.19 477.66 C 675.10 481.39, 676.19 485.67, 675.81 489.36 C 675.44 493.04, 672.50 495.95, 671.94 499.77 C 671.39 503.60, 670.63 509.31, 672.49 512.33 C 674.35 515.35, 679.41 516.23, 683.09 517.92 C 686.76 519.60, 691.29 519.96, 694.54 522.44 C 697.79 524.93, 700.11 529.16, 702.58 532.83 C 705.04 536.50, 708.09 540.42, 709.31 544.48 C 710.54 548.54, 708.96 553.07, 709.94 557.18 C 710.91 561.30, 714.91 565.06, 715.14 569.17 C 715.37 573.29, 712.11 577.97, 711.30 581.86 C 710.50 585.75, 710.62 588.97, 710.32 592.53 C 710.02 596.09, 710.78 600.13, 709.51 603.21 C 708.25 606.29, 704.66 608.10, 702.72 611.01 C 700.77 613.92, 699.60 617.00, 697.84 620.67 C 696.09 624.33, 691.16 630.69, 692.21 633.02 C 693.27 635.35, 700.07 634.97, 704.15 634.63 C 708.23 634.30, 713.16 632.54, 716.68 631.01 C 720.19 629.49, 721.88 626.91, 725.26 625.48 C 728.65 624.06, 735.32 625.05, 736.99 622.48 C 738.65 619.90, 735.77 614.12, 735.27 610.05 C 734.77 605.97, 733.80 602.13, 733.99 598.01 C 734.18 593.89, 735.05 589.67, 736.40 585.35 C 737.74 581.03, 740.17 576.50, 742.05 572.07" stroke="red" stroke-width="3" fill="none" /></svg>