<svg width="800" height="800" viewBox="-42.34 214.95 890.95 485.05" xmlns="http://www.w3.org/2000/svg"><path d="M 55.60 469.91 C 55.83 473.98, 56.18 478.38, 56.28 482.12 C 56.39 485.85, 54.35 489.12, 56.23 492.32 C 58.11 495.52, 65.17 497.48, 67.56 501.34 C 69.95 505.19, 71.02 513.33, 70.57 515.45 C 70.11 517.58, 67.99 514.24, 64.85 514.07 C 61.72 513.91, 55.73 514.59, 51.74 514.46 C 47.76 514.33, 42.08 511.44, 40.93 513.32 C 39.78 515.21, 42.90 522.20, 44.83 525.77 C 46.75 529.34, 49.86 532.56, 52.47 534.75 C 55.08 536.94, 58.27 537.27, 60.46 538.91 C 62.65 540.55, 64.27 542.08, 65.63 544.60 C 66.99 547.13, 68.12 550.96, 68.62 554.07 C 69.12 557.17, 68.00 560.21, 68.64 563.24 C 69.28 566.27, 71.94 569.03, 72.45 572.24 C 72.96 575.45, 71.57 579.05, 71.72 582.51 C 71.87 585.98, 72.89 589.50, 73.34 593.03 C 73.78 596.57, 75.69 601.28, 74.37 603.72 C 73.05 606.16, 68.90 606.61, 65.43 607.67 C 61.96 608.74, 57.16 610.55, 53.57 610.11 C 49.97 609.67, 45.32 607.81, 43.85 605.02 C 42.37 602.23, 43.80 597.05, 44.70 593.38 C 45.59 589.71, 49.09 586.26, 49.22 583.02 C 49.36 579.78, 46.48 577.11, 45.52 573.92 C 44.56 570.72, 44.48 567.00, 43.46 563.86 C 42.44 560.72, 41.00 557.88, 39.39 555.10 C 37.78 552.31, 35.87 550.67, 33.80 547.16 C 31.72 543.64, 30.17 535.23, 26.95 534.00 C 23.74 532.77, 17.72 536.95, 14.50 539.78 C 11.29 542.61, 8.15 546.99, 7.66 550.98 C 7.17 554.97, 10.15 559.72, 11.56 563.71 C 12.96 567.71, 14.49 571.26, 16.11 574.95 C 17.73 578.64, 21.01 582.22, 21.26 585.84 C 21.51 589.45, 19.34 592.92, 17.58 596.64 C 15.83 600.36, 10.71 604.76, 10.74 608.17 C 10.77 611.58, 15.73 614.36, 17.77 617.11 C 19.80 619.86, 19.98 622.92, 22.97 624.68 C 25.96 626.43, 32.47 625.45, 35.72 627.65 C 38.96 629.84, 39.24 636.05, 42.44 637.84 C 45.64 639.63, 51.37 639.38, 54.93 638.37 C 58.48 637.35, 60.25 633.76, 63.76 631.76 C 67.27 629.75, 73.20 625.94, 75.98 626.33 C 78.75 626.73, 79.68 630.65, 80.42 634.14 C 81.16 637.62, 78.06 644.73, 80.42 647.26 C 82.79 649.78, 90.58 648.82, 94.64 649.27 C 98.71 649.73, 103.21 652.08, 104.81 650.00 C 106.42 647.92, 104.75 640.71, 104.26 636.79 C 103.77 632.86, 103.10 629.63, 101.89 626.43 C 100.68 623.23, 98.09 620.64, 97.00 617.57 C 95.91 614.50, 95.60 611.43, 95.35 608.02 C 95.10 604.61, 95.39 600.94, 95.50 597.10 C 95.61 593.26, 96.03 588.85, 95.99 585.00 C 95.95 581.14, 95.59 577.69, 95.27 573.98 C 94.94 570.27, 94.64 566.44, 94.06 562.75 C 93.48 559.05, 92.52 555.53, 91.79 551.81 C 91.05 548.08, 90.53 543.83, 89.63 540.40 C 88.74 536.97, 86.05 534.68, 86.42 531.22 C 86.80 527.76, 90.91 523.36, 91.90 519.65 C 92.88 515.94, 92.74 512.68, 92.33 508.96 C 91.93 505.24, 91.02 501.35, 89.49 497.34 C 87.97 493.34, 83.20 488.39, 83.18 484.91 C 83.17 481.42, 87.66 479.44, 89.38 476.43 C 91.11 473.41, 93.14 470.31, 93.55 466.79 C 93.95 463.27, 93.91 457.81, 91.82 455.32 C 89.73 452.83, 84.98 452.98, 81.03 451.87 C 77.08 450.76, 69.70 451.42, 68.12 448.66 C 66.55 445.90, 69.14 438.53, 71.57 435.31 C 74.01 432.10, 80.53 432.04, 82.74 429.36 C 84.95 426.68, 84.79 422.73, 84.81 419.23 C 84.83 415.73, 83.81 412.18, 82.86 408.38 C 81.91 404.57, 79.01 400.28, 79.13 396.39 C 79.25 392.51, 83.12 389.15, 83.58 385.06 C 84.04 380.97, 81.86 376.43, 81.89 371.83 C 81.92 367.24, 82.82 361.90, 83.77 357.50 C 84.72 353.10, 85.04 348.87, 87.58 345.42 C 90.12 341.98, 95.25 339.22, 99.01 336.85 C 102.77 334.48, 107.92 330.48, 110.14 331.22 C 112.36 331.96, 111.90 337.94, 112.33 341.27 C 112.76 344.60, 113.29 347.83, 112.72 351.22 C 112.15 354.60, 109.62 358.30, 108.91 361.57 C 108.20 364.85, 108.35 367.77, 108.47 370.85 C 108.59 373.93, 109.30 376.84, 109.62 380.05 C 109.95 383.27, 110.45 386.91, 110.40 390.12 C 110.36 393.33, 109.41 396.22, 109.38 399.33 C 109.35 402.44, 109.56 405.54, 110.22 408.78 C 110.88 412.02, 113.54 415.66, 113.36 418.78 C 113.17 421.91, 110.23 424.26, 109.13 427.51 C 108.02 430.76, 106.03 435.01, 106.73 438.30 C 107.44 441.59, 111.38 444.35, 113.35 447.26 C 115.33 450.17, 117.58 452.90, 118.60 455.75 C 119.62 458.60, 119.71 461.31, 119.48 464.37 C 119.25 467.44, 118.47 470.88, 117.20 474.14 C 115.93 477.41, 112.55 480.69, 111.87 483.94 C 111.20 487.19, 112.54 490.60, 113.15 493.65 C 113.76 496.71, 114.86 499.16, 115.54 502.26 C 116.22 505.37, 117.61 509.04, 117.22 512.26 C 116.83 515.48, 113.83 518.35, 113.18 521.56 C 112.53 524.78, 113.20 528.49, 113.31 531.55 C 113.42 534.62, 113.45 537.05, 113.82 539.95 C 114.20 542.85, 115.19 545.86, 115.57 548.93 C 115.95 552.01, 115.83 555.29, 116.12 558.41 C 116.40 561.52, 116.99 564.48, 117.27 567.64 C 117.55 570.79, 117.77 573.95, 117.81 577.35 C 117.85 580.75, 117.53 584.66, 117.52 588.04 C 117.50 591.41, 117.50 594.50, 117.71 597.61 C 117.92 600.72, 118.24 603.64, 118.78 606.67 C 119.32 609.71, 120.29 612.58, 120.94 615.82 C 121.60 619.06, 121.91 622.81, 122.69 626.12 C 123.46 629.42, 125.13 631.66, 125.61 635.64 C 126.09 639.62, 124.17 648.00, 125.58 649.99 C 126.99 651.99, 130.47 647.60, 134.08 647.60 C 137.68 647.60, 143.65 649.60, 147.22 650.00 C 150.79 650.40, 154.98 652.10, 155.48 650.00 C 155.99 647.90, 151.77 641.21, 150.25 637.38 C 148.72 633.56, 147.58 629.84, 146.33 627.04 C 145.08 624.25, 143.37 623.31, 142.74 620.63 C 142.11 617.95, 142.78 614.10, 142.57 610.96 C 142.36 607.81, 142.04 604.65, 141.47 601.76 C 140.90 598.87, 139.63 596.60, 139.15 593.63 C 138.68 590.66, 138.52 587.20, 138.61 583.93 C 138.71 580.66, 139.72 577.23, 139.74 574.01 C 139.75 570.79, 138.84 567.58, 138.70 564.60 C 138.57 561.63, 139.00 559.00, 138.91 556.16 C 138.82 553.31, 138.22 550.48, 138.15 547.53 C 138.07 544.59, 138.71 541.49, 138.47 538.48 C 138.22 535.48, 136.82 532.44, 136.69 529.49 C 136.57 526.55, 137.03 523.68, 137.70 520.81 C 138.37 517.95, 140.13 515.09, 140.71 512.29 C 141.28 509.49, 141.34 506.87, 141.16 504.03 C 140.99 501.19, 140.12 498.21, 139.66 495.26 C 139.21 492.30, 137.98 488.96, 138.44 486.31 C 138.89 483.67, 141.60 482.01, 142.36 479.38 C 143.13 476.75, 142.46 473.33, 143.04 470.55 C 143.61 467.77, 145.66 465.50, 145.83 462.70 C 145.99 459.89, 144.26 456.63, 144.04 453.71 C 143.83 450.79, 145.88 447.42, 144.54 445.18 C 143.20 442.95, 137.54 442.65, 136.03 440.31 C 134.52 437.96, 134.91 433.92, 135.49 431.10 C 136.07 428.29, 139.02 426.29, 139.53 423.43 C 140.04 420.57, 139.24 416.90, 138.55 413.94 C 137.87 410.99, 135.77 408.49, 135.43 405.69 C 135.09 402.89, 136.38 400.15, 136.51 397.13 C 136.64 394.11, 136.37 390.59, 136.19 387.59 C 136.01 384.58, 135.79 382.17, 135.44 379.09 C 135.08 376.01, 134.61 372.19, 134.05 369.12 C 133.49 366.05, 132.42 364.35, 132.06 360.67 C 131.71 356.99, 131.79 351.31, 131.93 347.03 C 132.06 342.75, 132.31 338.59, 132.85 334.99 C 133.40 331.39, 133.10 325.22, 135.19 325.44 C 137.29 325.66, 142.88 332.81, 145.44 336.31 C 147.99 339.81, 149.15 343.16, 150.51 346.44 C 151.87 349.72, 152.68 352.94, 153.59 356.01 C 154.50 359.07, 155.03 361.88, 155.98 364.85 C 156.92 367.82, 158.55 370.77, 159.26 373.82 C 159.97 376.87, 159.89 380.28, 160.22 383.16 C 160.55 386.04, 161.07 388.17, 161.26 391.11 C 161.46 394.04, 161.05 397.78, 161.39 400.78 C 161.73 403.78, 163.18 406.15, 163.31 409.10 C 163.45 412.04, 162.24 415.47, 162.20 418.44 C 162.15 421.42, 162.62 424.08, 163.04 426.92 C 163.47 429.75, 163.91 432.58, 164.76 435.46 C 165.62 438.35, 167.53 441.47, 168.18 444.22 C 168.84 446.96, 168.75 449.20, 168.67 451.95 C 168.59 454.69, 167.62 457.82, 167.71 460.68 C 167.79 463.53, 169.33 466.34, 169.21 469.09 C 169.09 471.83, 167.51 474.29, 167.00 477.13 C 166.48 479.97, 166.51 483.30, 166.11 486.11 C 165.71 488.91, 164.82 491.14, 164.59 493.94 C 164.36 496.73, 164.80 500.12, 164.74 502.87 C 164.68 505.62, 164.64 507.56, 164.22 510.43 C 163.81 513.29, 162.84 517.20, 162.23 520.06 C 161.62 522.93, 160.76 524.98, 160.55 527.64 C 160.34 530.30, 160.78 533.22, 160.97 536.03 C 161.15 538.85, 161.63 541.87, 161.67 544.52 C 161.72 547.17, 161.25 549.24, 161.25 551.93 C 161.26 554.62, 161.59 557.66, 161.71 560.65 C 161.83 563.64, 162.08 567.04, 161.99 569.86 C 161.89 572.68, 161.41 574.90, 161.15 577.57 C 160.88 580.23, 160.24 583.01, 160.39 585.84 C 160.54 588.66, 161.76 591.71, 162.03 594.52 C 162.29 597.32, 161.71 599.79, 161.97 602.66 C 162.23 605.54, 163.06 608.83, 163.60 611.79 C 164.13 614.74, 164.60 617.52, 165.20 620.40 C 165.79 623.27, 166.00 625.66, 167.15 629.03 C 168.31 632.41, 170.30 637.16, 172.11 640.66 C 173.91 644.15, 175.97 649.06, 178.00 650.00 C 180.03 650.94, 183.08 649.07, 184.30 646.31 C 185.51 643.55, 185.27 637.49, 185.29 633.44 C 185.31 629.39, 184.65 625.66, 184.42 622.02 C 184.20 618.37, 184.04 614.80, 183.94 611.56 C 183.84 608.32, 184.12 605.36, 183.82 602.59 C 183.52 599.81, 182.32 597.63, 182.15 594.91 C 181.97 592.18, 182.66 589.18, 182.79 586.25 C 182.91 583.32, 182.80 580.17, 182.92 577.32 C 183.04 574.46, 183.37 571.98, 183.50 569.13 C 183.63 566.28, 183.53 563.15, 183.69 560.21 C 183.85 557.27, 184.43 554.54, 184.44 551.50 C 184.46 548.46, 183.88 544.91, 183.79 541.97 C 183.70 539.02, 183.64 536.65, 183.90 533.84 C 184.16 531.02, 185.05 528.05, 185.35 525.06 C 185.65 522.08, 185.29 518.85, 185.72 515.91 C 186.15 512.97, 187.45 510.29, 187.93 507.42 C 188.41 504.55, 188.38 501.69, 188.60 498.69 C 188.82 495.69, 188.98 492.22, 189.27 489.43 C 189.57 486.64, 189.98 484.76, 190.35 481.93 C 190.73 479.10, 191.34 475.67, 191.55 472.46 C 191.75 469.25, 191.69 465.95, 191.59 462.66 C 191.49 459.38, 190.94 455.88, 190.96 452.75 C 190.98 449.61, 191.86 447.04, 191.70 443.84 C 191.55 440.64, 190.68 436.84, 190.03 433.54 C 189.38 430.24, 188.32 427.42, 187.79 424.04 C 187.27 420.66, 187.06 416.59, 186.86 413.27 C 186.65 409.95, 186.88 407.34, 186.56 404.13 C 186.25 400.93, 185.49 397.42, 184.98 394.03 C 184.47 390.65, 184.00 387.40, 183.50 383.81 C 183.00 380.23, 182.91 376.22, 181.99 372.51 C 181.08 368.80, 179.27 365.20, 178.03 361.55 C 176.79 357.91, 175.68 354.04, 174.56 350.62 C 173.44 347.20, 172.52 343.96, 171.31 341.04 C 170.10 338.13, 168.82 335.72, 167.28 333.11 C 165.74 330.50, 161.60 327.82, 162.06 325.41 C 162.51 323.00, 166.63 320.51, 170.02 318.67 C 173.41 316.83, 179.80 313.97, 182.40 314.38 C 185.01 314.80, 184.57 318.90, 185.65 321.15 C 186.73 323.41, 187.72 324.89, 188.89 327.93 C 190.06 330.96, 191.53 335.78, 192.68 339.34 C 193.83 342.90, 194.68 345.77, 195.79 349.29 C 196.90 352.81, 198.06 356.91, 199.32 360.47 C 200.58 364.03, 202.42 366.89, 203.36 370.65 C 204.30 374.41, 204.43 379.40, 204.94 383.03 C 205.46 386.65, 205.86 388.83, 206.45 392.38 C 207.03 395.93, 207.88 400.78, 208.46 404.34 C 209.05 407.90, 209.54 410.51, 209.97 413.74 C 210.41 416.97, 210.64 420.26, 211.05 423.71 C 211.46 427.16, 212.04 431.12, 212.44 434.43 C 212.85 437.75, 213.36 440.55, 213.47 443.60 C 213.59 446.65, 212.98 449.72, 213.13 452.75 C 213.28 455.78, 214.32 458.57, 214.37 461.77 C 214.42 464.97, 213.75 468.71, 213.41 471.95 C 213.07 475.18, 212.55 478.12, 212.34 481.19 C 212.13 484.25, 212.37 487.39, 212.15 490.33 C 211.93 493.27, 211.48 495.96, 211.05 498.85 C 210.62 501.75, 209.96 504.83, 209.58 507.70 C 209.20 510.56, 209.08 513.20, 208.75 516.05 C 208.42 518.90, 207.89 522.09, 207.59 524.80 C 207.30 527.51, 207.26 529.65, 206.98 532.32 C 206.69 534.98, 206.16 537.97, 205.88 540.79 C 205.60 543.60, 205.31 546.56, 205.32 549.21 C 205.32 551.87, 205.96 553.88, 205.89 556.71 C 205.83 559.55, 205.26 563.28, 204.94 566.20 C 204.61 569.13, 204.19 571.47, 203.96 574.25 C 203.73 577.04, 203.54 580.18, 203.57 582.93 C 203.60 585.69, 204.29 588.18, 204.15 590.77 C 204.01 593.37, 202.98 595.63, 202.72 598.48 C 202.46 601.33, 202.73 604.87, 202.60 607.88 C 202.48 610.88, 202.28 613.33, 201.95 616.51 C 201.62 619.68, 200.56 622.95, 200.64 626.93 C 200.71 630.90, 201.78 636.59, 202.42 640.35 C 203.06 644.10, 203.16 648.80, 204.48 649.45 C 205.80 650.10, 208.37 647.23, 210.32 644.25 C 212.28 641.27, 214.79 635.20, 216.21 631.56 C 217.63 627.92, 218.10 625.46, 218.84 622.40 C 219.57 619.35, 220.05 616.14, 220.61 613.24 C 221.17 610.34, 222.01 608.01, 222.19 604.98 C 222.37 601.95, 221.47 598.27, 221.70 595.06 C 221.92 591.85, 223.22 588.66, 223.54 585.72 C 223.85 582.79, 223.34 580.33, 223.58 577.47 C 223.81 574.61, 224.57 571.43, 224.94 568.57 C 225.30 565.70, 225.55 563.02, 225.78 560.27 C 226.01 557.52, 225.99 554.94, 226.33 552.07 C 226.67 549.20, 227.58 545.93, 227.84 543.04 C 228.10 540.14, 227.52 537.47, 227.90 534.69 C 228.28 531.92, 229.61 529.17, 230.11 526.40 C 230.60 523.64, 230.53 520.89, 230.88 518.10 C 231.24 515.32, 231.78 512.45, 232.23 509.67 C 232.68 506.90, 233.27 504.16, 233.58 501.45 C 233.88 498.74, 233.86 496.07, 234.04 493.43 C 234.22 490.79, 234.71 488.50, 234.65 485.62 C 234.59 482.73, 233.53 479.24, 233.70 476.11 C 233.87 472.99, 235.26 469.94, 235.65 466.86 C 236.05 463.78, 236.04 460.61, 236.07 457.62 C 236.10 454.62, 236.00 452.16, 235.83 448.88 C 235.65 445.60, 235.45 441.18, 235.04 437.93 C 234.63 434.68, 233.88 432.52, 233.37 429.38 C 232.85 426.23, 232.07 422.33, 231.94 419.06 C 231.81 415.79, 233.03 413.06, 232.59 409.76 C 232.15 406.45, 230.14 402.82, 229.30 399.22 C 228.46 395.63, 228.10 392.07, 227.53 388.18 C 226.97 384.29, 226.72 379.70, 225.91 375.89 C 225.10 372.09, 223.79 368.89, 222.70 365.35 C 221.60 361.81, 220.47 358.40, 219.35 354.65 C 218.22 350.90, 217.05 346.64, 215.94 342.85 C 214.83 339.06, 213.84 335.42, 212.67 331.90 C 211.51 328.38, 210.19 325.64, 208.92 321.73 C 207.65 317.81, 203.79 311.30, 205.08 308.40 C 206.36 305.50, 212.79 305.29, 216.64 304.31 C 220.48 303.33, 225.72 300.59, 228.16 302.54 C 230.60 304.50, 230.39 311.53, 231.25 316.04 C 232.12 320.55, 232.43 325.61, 233.37 329.59 C 234.31 333.58, 235.79 336.76, 236.92 339.97 C 238.05 343.18, 239.10 345.75, 240.14 348.87 C 241.18 351.99, 242.33 355.17, 243.16 358.67 C 243.98 362.16, 244.49 366.16, 245.11 369.87 C 245.72 373.58, 246.11 377.44, 246.84 380.94 C 247.56 384.43, 248.74 387.29, 249.46 390.84 C 250.19 394.39, 250.62 398.46, 251.18 402.21 C 251.74 405.97, 252.44 409.54, 252.83 413.37 C 253.21 417.20, 253.06 421.27, 253.49 425.20 C 253.91 429.13, 254.86 433.11, 255.37 436.94 C 255.88 440.76, 256.27 444.63, 256.54 448.12 C 256.81 451.62, 256.95 454.55, 256.97 457.90 C 257.00 461.24, 256.88 464.90, 256.70 468.19 C 256.52 471.49, 255.95 474.58, 255.89 477.64 C 255.82 480.69, 256.30 483.46, 256.32 486.53 C 256.33 489.60, 256.14 493.04, 255.99 496.06 C 255.83 499.09, 255.70 501.88, 255.38 504.67 C 255.07 507.47, 254.56 510.07, 254.09 512.84 C 253.62 515.61, 253.13 518.31, 252.56 521.28 C 251.99 524.25, 251.19 527.69, 250.65 530.64 C 250.11 533.60, 249.78 536.26, 249.30 539.02 C 248.82 541.78, 248.44 544.42, 247.75 547.22 C 247.07 550.01, 245.60 552.74, 245.19 555.80 C 244.78 558.87, 245.49 562.59, 245.28 565.63 C 245.06 568.67, 244.47 571.08, 243.91 574.05 C 243.34 577.01, 242.37 580.18, 241.89 583.42 C 241.42 586.65, 241.45 590.24, 241.05 593.46 C 240.65 596.68, 240.08 599.51, 239.50 602.76 C 238.92 606.00, 238.08 609.52, 237.56 612.94 C 237.04 616.36, 236.82 620.39, 236.40 623.28 C 235.97 626.17, 235.98 627.62, 235.00 630.28 C 234.03 632.95, 231.79 636.00, 230.53 639.29 C 229.28 642.57, 226.92 648.21, 227.49 650.00 C 228.06 651.79, 231.51 650.00, 233.95 650.00 C 236.39 650.00, 239.18 650.00, 242.10 650.00 C 245.02 650.00, 248.86 650.00, 251.48 650.00 C 254.11 650.00, 255.91 650.00, 257.83 650.00 C 259.75 650.00, 263.22 652.21, 263.00 650.00 C 262.77 647.79, 258.03 640.18, 256.49 636.75 C 254.96 633.31, 254.42 631.70, 253.79 629.40 C 253.16 627.10, 252.87 625.88, 252.73 622.94 C 252.59 619.99, 252.65 615.64, 252.93 611.73 C 253.21 607.82, 253.74 603.37, 254.41 599.48 C 255.07 595.59, 256.03 592.19, 256.93 588.40 C 257.83 584.61, 258.66 580.26, 259.79 576.74 C 260.91 573.22, 262.59 570.32, 263.67 567.28 C 264.75 564.24, 265.59 560.99, 266.27 558.50 C 266.95 556.01, 267.02 554.77, 267.74 552.33 C 268.46 549.88, 270.15 546.48, 270.58 543.84 C 271.02 541.20, 270.00 538.93, 270.36 536.49 C 270.72 534.05, 272.02 531.94, 272.76 529.19 C 273.51 526.44, 274.49 523.03, 274.82 519.99 C 275.16 516.95, 274.59 514.02, 274.79 510.93 C 274.99 507.84, 275.62 504.30, 276.02 501.43 C 276.42 498.57, 276.92 496.50, 277.19 493.74 C 277.46 490.98, 277.62 487.89, 277.63 484.88 C 277.63 481.88, 277.24 478.84, 277.20 475.69 C 277.16 472.55, 277.54 469.39, 277.39 466.01 C 277.23 462.63, 276.40 458.76, 276.29 455.41 C 276.17 452.07, 276.76 449.30, 276.70 445.93 C 276.65 442.55, 276.16 438.62, 275.94 435.16 C 275.72 431.70, 275.88 428.37, 275.37 425.18 C 274.86 421.98, 273.48 419.35, 272.88 416.01 C 272.28 412.67, 272.09 408.73, 271.76 405.12 C 271.43 401.51, 271.17 397.83, 270.89 394.36 C 270.61 390.89, 270.55 387.46, 270.07 384.31 C 269.58 381.16, 268.57 378.63, 267.98 375.46 C 267.40 372.30, 267.10 368.72, 266.55 365.35 C 265.99 361.97, 265.16 358.44, 264.64 355.19 C 264.13 351.94, 264.24 349.14, 263.48 345.86 C 262.71 342.58, 261.59 338.69, 260.06 335.51 C 258.54 332.34, 255.85 330.19, 254.32 326.82 C 252.79 323.46, 251.56 319.42, 250.88 315.31 C 250.19 311.20, 249.78 306.44, 250.21 302.16 C 250.63 297.88, 251.30 290.39, 253.44 289.64 C 255.58 288.90, 259.85 294.47, 263.07 297.70 C 266.28 300.93, 270.57 305.60, 272.71 309.02 C 274.85 312.44, 274.49 315.14, 275.88 318.22 C 277.26 321.30, 279.61 324.27, 281.03 327.49 C 282.45 330.70, 283.67 334.04, 284.39 337.50 C 285.11 340.97, 284.89 344.64, 285.38 348.26 C 285.86 351.88, 286.49 355.73, 287.30 359.22 C 288.11 362.71, 289.53 365.69, 290.21 369.21 C 290.89 372.73, 291.01 376.72, 291.41 380.36 C 291.80 383.99, 292.34 387.50, 292.60 391.03 C 292.87 394.56, 292.89 398.10, 292.98 401.53 C 293.07 404.96, 292.72 408.26, 293.16 411.59 C 293.59 414.92, 295.03 417.89, 295.59 421.49 C 296.14 425.09, 296.31 429.99, 296.50 433.18 C 296.70 436.36, 296.48 437.62, 296.74 440.60 C 297.00 443.58, 297.98 447.82, 298.05 451.08 C 298.12 454.33, 297.04 457.14, 297.14 460.12 C 297.25 463.10, 298.44 465.95, 298.68 468.94 C 298.93 471.93, 298.66 475.16, 298.63 478.06 C 298.61 480.96, 298.80 483.41, 298.52 486.37 C 298.24 489.32, 297.16 492.78, 296.96 495.78 C 296.76 498.79, 297.59 501.52, 297.31 504.39 C 297.02 507.26, 295.50 510.26, 295.25 513.02 C 295.00 515.78, 296.10 518.20, 295.80 520.94 C 295.50 523.68, 293.97 526.72, 293.47 529.44 C 292.97 532.16, 293.30 534.78, 292.80 537.28 C 292.29 539.79, 290.70 541.92, 290.43 544.48 C 290.16 547.05, 291.12 550.23, 291.18 552.69 C 291.23 555.15, 291.41 557.19, 290.75 559.25 C 290.08 561.32, 288.64 563.25, 287.20 565.08 C 285.77 566.91, 283.96 567.96, 282.14 570.25 C 280.31 572.53, 277.56 576.27, 276.23 578.78 C 274.89 581.29, 275.07 582.70, 274.12 585.31 C 273.17 587.92, 271.50 591.39, 270.53 594.43 C 269.56 597.47, 268.50 600.43, 268.31 603.54 C 268.12 606.65, 269.18 610.05, 269.39 613.10 C 269.59 616.15, 269.17 618.89, 269.55 621.85 C 269.93 624.80, 270.52 627.95, 271.68 630.82 C 272.83 633.68, 275.03 636.00, 276.48 639.05 C 277.92 642.11, 279.21 648.45, 280.34 649.13 C 281.48 649.81, 282.40 646.41, 283.29 643.14 C 284.18 639.86, 285.22 633.41, 285.67 629.49 C 286.13 625.58, 285.77 622.58, 286.01 619.66 C 286.25 616.74, 287.00 614.32, 287.10 611.97 C 287.19 609.62, 286.40 607.80, 286.59 605.57 C 286.77 603.34, 287.47 600.89, 288.21 598.60 C 288.95 596.30, 289.77 594.18, 291.03 591.81 C 292.28 589.45, 294.31 586.23, 295.71 584.40 C 297.12 582.58, 298.02 580.11, 299.46 580.85 C 300.90 581.60, 303.08 585.61, 304.35 588.89 C 305.62 592.16, 306.76 597.33, 307.05 600.50 C 307.35 603.67, 306.63 605.32, 306.14 607.89 C 305.65 610.47, 304.96 613.26, 304.14 615.97 C 303.32 618.68, 301.74 621.36, 301.22 624.16 C 300.70 626.96, 301.28 629.62, 301.02 632.77 C 300.77 635.92, 299.70 640.26, 299.67 643.06 C 299.64 645.85, 299.66 649.00, 300.85 649.54 C 302.04 650.09, 304.61 648.97, 306.79 646.34 C 308.97 643.70, 312.13 637.37, 313.91 633.72 C 315.68 630.06, 316.40 628.04, 317.44 624.43 C 318.48 620.81, 319.61 616.25, 320.13 612.04 C 320.66 607.83, 320.34 602.97, 320.58 599.16 C 320.82 595.34, 321.82 592.04, 321.55 589.17 C 321.29 586.30, 319.74 584.38, 318.99 581.94 C 318.24 579.50, 317.96 576.89, 317.05 574.53 C 316.15 572.17, 314.47 570.01, 313.58 567.78 C 312.69 565.55, 311.77 563.33, 311.71 561.16 C 311.65 559.00, 313.12 557.16, 313.23 554.77 C 313.34 552.38, 312.48 549.38, 312.34 546.82 C 312.20 544.27, 312.16 542.01, 312.39 539.44 C 312.61 536.88, 313.12 534.01, 313.69 531.43 C 314.25 528.85, 315.38 526.55, 315.79 523.98 C 316.21 521.41, 315.91 518.61, 316.17 516.01 C 316.43 513.41, 317.17 510.99, 317.37 508.38 C 317.58 505.76, 317.33 503.12, 317.37 500.33 C 317.42 497.54, 317.29 494.44, 317.63 491.65 C 317.96 488.86, 319.13 486.54, 319.38 483.59 C 319.63 480.63, 319.26 477.03, 319.11 473.90 C 318.95 470.76, 318.74 467.94, 318.45 464.75 C 318.16 461.57, 317.45 457.74, 317.39 454.79 C 317.34 451.83, 318.20 450.01, 318.13 447.00 C 318.05 443.98, 317.34 440.04, 316.93 436.70 C 316.52 433.36, 316.00 430.22, 315.67 426.97 C 315.34 423.71, 315.09 420.45, 314.97 417.18 C 314.86 413.91, 315.02 410.52, 315.00 407.36 C 314.97 404.19, 315.05 401.36, 314.82 398.18 C 314.58 395.00, 313.93 391.52, 313.60 388.27 C 313.28 385.03, 313.37 382.12, 312.87 378.71 C 312.37 375.30, 311.18 371.17, 310.60 367.82 C 310.03 364.48, 309.64 362.07, 309.42 358.63 C 309.21 355.20, 309.58 350.59, 309.30 347.22 C 309.02 343.85, 308.33 341.46, 307.76 338.41 C 307.19 335.37, 306.45 332.30, 305.87 328.96 C 305.28 325.63, 304.93 321.60, 304.25 318.41 C 303.58 315.23, 303.26 312.52, 301.83 309.83 C 300.41 307.14, 297.92 304.93, 295.70 302.29 C 293.48 299.65, 290.67 296.23, 288.51 293.97 C 286.34 291.71, 284.60 290.57, 282.72 288.72 C 280.84 286.87, 276.54 284.91, 277.25 282.86 C 277.95 280.82, 283.30 278.25, 286.95 276.45 C 290.60 274.66, 295.04 272.16, 299.15 272.09 C 303.25 272.01, 308.89 273.40, 311.57 275.99 C 314.24 278.57, 313.03 284.93, 315.18 287.61 C 317.34 290.29, 322.85 289.58, 324.48 292.07 C 326.10 294.55, 324.38 299.13, 324.92 302.49 C 325.46 305.86, 327.02 309.05, 327.71 312.28 C 328.40 315.50, 328.66 318.38, 329.07 321.83 C 329.48 325.28, 329.98 329.33, 330.16 332.98 C 330.34 336.62, 329.99 340.23, 330.16 343.70 C 330.33 347.17, 330.66 350.34, 331.16 353.78 C 331.66 357.22, 332.79 361.04, 333.17 364.32 C 333.56 367.59, 333.30 370.07, 333.48 373.44 C 333.67 376.82, 334.07 381.00, 334.30 384.57 C 334.52 388.14, 334.56 391.33, 334.82 394.86 C 335.07 398.38, 335.54 402.21, 335.83 405.72 C 336.12 409.24, 336.60 412.64, 336.57 415.94 C 336.53 419.25, 335.51 422.33, 335.60 425.54 C 335.70 428.75, 336.61 431.67, 337.15 435.18 C 337.68 438.68, 338.66 443.08, 338.80 446.57 C 338.93 450.05, 338.14 452.81, 337.96 456.09 C 337.78 459.36, 337.55 462.94, 337.72 466.19 C 337.90 469.45, 338.74 472.48, 338.99 475.59 C 339.24 478.70, 339.47 481.89, 339.23 484.86 C 338.98 487.84, 337.80 490.29, 337.51 493.43 C 337.22 496.57, 337.61 500.52, 337.49 503.67 C 337.36 506.83, 337.05 509.44, 336.76 512.36 C 336.47 515.29, 336.04 518.20, 335.75 521.23 C 335.45 524.27, 335.31 527.71, 335.00 530.58 C 334.70 533.46, 334.31 535.98, 333.94 538.48 C 333.56 540.98, 332.78 543.13, 332.74 545.59 C 332.70 548.05, 333.37 550.84, 333.71 553.25 C 334.05 555.66, 334.39 557.72, 334.80 560.05 C 335.20 562.37, 335.64 564.68, 336.13 567.22 C 336.62 569.77, 337.54 572.49, 337.71 575.33 C 337.87 578.17, 337.17 581.19, 337.12 584.26 C 337.07 587.34, 337.60 590.80, 337.40 593.76 C 337.20 596.72, 336.28 599.44, 335.91 602.00 C 335.53 604.57, 335.38 606.58, 335.15 609.16 C 334.91 611.74, 334.81 614.82, 334.47 617.50 C 334.13 620.18, 333.54 623.02, 333.11 625.22 C 332.68 627.43, 332.78 628.59, 331.89 630.73 C 330.99 632.86, 329.43 634.82, 327.72 638.03 C 326.02 641.24, 321.79 648.01, 321.67 650.00 C 321.54 651.99, 325.08 650.00, 326.97 650.00 C 328.87 650.00, 330.85 650.12, 333.05 650.00 C 335.24 649.88, 337.77 649.28, 340.16 649.28 C 342.54 649.28, 345.15 649.88, 347.33 650.00 C 349.52 650.12, 351.55 650.00, 353.26 650.00 C 354.97 650.00, 357.49 652.22, 357.59 650.00 C 357.69 647.78, 354.66 640.15, 353.84 636.67 C 353.03 633.20, 353.20 631.23, 352.69 629.16 C 352.17 627.08, 350.73 626.58, 350.76 624.22 C 350.80 621.86, 352.50 617.90, 352.88 615.01 C 353.25 612.12, 352.94 609.58, 353.00 606.86 C 353.07 604.14, 353.14 601.86, 353.26 598.70 C 353.38 595.55, 353.71 591.08, 353.73 587.91 C 353.74 584.75, 353.17 582.73, 353.36 579.71 C 353.55 576.69, 354.93 573.03, 354.89 569.81 C 354.84 566.59, 353.39 563.55, 353.09 560.42 C 352.78 557.28, 352.98 554.09, 353.06 551.00 C 353.13 547.91, 353.39 544.82, 353.53 541.88 C 353.66 538.93, 353.85 536.54, 353.86 533.33 C 353.86 530.12, 353.41 526.08, 353.56 522.61 C 353.71 519.15, 354.55 516.12, 354.75 512.52 C 354.95 508.93, 354.37 504.84, 354.73 501.05 C 355.10 497.27, 356.53 493.66, 356.95 489.81 C 357.37 485.96, 357.22 481.75, 357.24 477.97 C 357.25 474.18, 357.21 470.56, 357.04 467.10 C 356.88 463.63, 356.29 460.53, 356.23 457.16 C 356.17 453.80, 356.61 450.68, 356.66 446.90 C 356.71 443.12, 356.61 438.23, 356.54 434.48 C 356.47 430.72, 356.39 427.86, 356.24 424.39 C 356.09 420.92, 355.72 417.12, 355.63 413.64 C 355.53 410.17, 355.75 407.10, 355.68 403.54 C 355.62 399.98, 355.23 395.90, 355.23 392.27 C 355.22 388.64, 355.86 385.46, 355.65 381.76 C 355.45 378.07, 354.32 373.76, 354.01 370.10 C 353.69 366.44, 353.87 363.31, 353.75 359.79 C 353.62 356.26, 353.43 352.48, 353.25 348.94 C 353.07 345.41, 352.78 342.08, 352.67 338.57 C 352.57 335.05, 352.81 331.41, 352.65 327.84 C 352.48 324.27, 351.97 320.53, 351.66 317.16 C 351.36 313.78, 351.13 310.77, 350.82 307.57 C 350.50 304.38, 350.09 300.97, 349.78 297.98 C 349.47 294.99, 350.21 292.61, 348.96 289.64 C 347.72 286.67, 344.34 283.72, 342.29 280.14 C 340.24 276.56, 335.78 270.45, 336.67 268.16 C 337.55 265.86, 344.03 266.89, 347.60 266.35 C 351.17 265.82, 354.41 264.59, 358.09 264.95 C 361.78 265.32, 366.38 266.81, 369.71 268.53 C 373.04 270.26, 377.42 272.11, 378.07 275.30 C 378.72 278.49, 374.21 283.67, 373.61 287.66 C 373.01 291.65, 374.40 295.28, 374.48 299.23 C 374.56 303.18, 374.13 307.50, 374.12 311.37 C 374.11 315.24, 374.39 318.87, 374.43 322.45 C 374.48 326.04, 374.34 329.32, 374.37 332.89 C 374.40 336.47, 374.63 340.10, 374.60 343.89 C 374.57 347.69, 374.27 351.62, 374.19 355.65 C 374.11 359.69, 374.01 364.41, 374.12 368.12 C 374.24 371.84, 374.66 374.16, 374.90 377.94 C 375.13 381.72, 375.51 386.85, 375.51 390.80 C 375.51 394.75, 374.97 397.83, 374.89 401.66 C 374.80 405.50, 374.99 409.84, 374.98 413.79 C 374.97 417.74, 374.86 421.57, 374.81 425.36 C 374.76 429.15, 374.66 433.01, 374.68 436.53 C 374.70 440.05, 374.95 442.87, 374.94 446.48 C 374.92 450.09, 374.53 454.60, 374.59 458.19 C 374.65 461.77, 375.31 464.43, 375.32 468.00 C 375.33 471.57, 375.04 475.94, 374.66 479.60 C 374.28 483.25, 373.44 486.64, 373.03 489.93 C 372.62 493.22, 372.42 496.25, 372.20 499.33 C 371.97 502.42, 371.84 505.10, 371.69 508.44 C 371.55 511.78, 371.44 515.95, 371.33 519.35 C 371.23 522.75, 371.02 525.70, 371.06 528.83 C 371.11 531.97, 371.59 535.00, 371.60 538.17 C 371.61 541.35, 371.29 544.81, 371.14 547.88 C 370.99 550.96, 370.84 553.70, 370.70 556.61 C 370.56 559.52, 370.38 562.18, 370.29 565.34 C 370.20 568.49, 370.26 572.24, 370.18 575.54 C 370.10 578.83, 369.88 582.16, 369.80 585.13 C 369.72 588.10, 369.71 590.58, 369.68 593.36 C 369.65 596.14, 369.60 598.88, 369.60 601.82 C 369.61 604.76, 369.64 608.06, 369.70 611.01 C 369.76 613.96, 369.95 616.79, 369.95 619.50 C 369.95 622.22, 369.53 624.60, 369.71 627.31 C 369.89 630.03, 370.75 632.02, 371.01 635.80 C 371.26 639.59, 370.32 647.77, 371.22 650.00 C 372.12 652.23, 374.52 649.24, 376.41 649.17 C 378.29 649.11, 380.33 649.50, 382.53 649.61 C 384.73 649.73, 388.57 651.22, 389.61 649.85 C 390.64 648.48, 389.13 644.49, 388.73 641.40 C 388.33 638.30, 387.58 634.06, 387.20 631.27 C 386.82 628.48, 386.47 626.96, 386.44 624.64 C 386.41 622.31, 386.85 619.97, 386.99 617.34 C 387.13 614.70, 387.07 611.37, 387.29 608.84 C 387.50 606.31, 388.25 604.44, 388.26 602.17 C 388.28 599.90, 387.39 597.77, 387.38 595.20 C 387.37 592.64, 388.15 589.61, 388.19 586.77 C 388.23 583.92, 387.65 580.78, 387.62 578.15 C 387.59 575.52, 387.83 573.48, 388.00 570.97 C 388.18 568.46, 388.46 565.81, 388.68 563.10 C 388.90 560.38, 389.32 557.42, 389.32 554.68 C 389.32 551.95, 388.76 549.37, 388.71 546.67 C 388.66 543.97, 388.92 541.54, 389.02 538.47 C 389.11 535.41, 389.14 531.43, 389.29 528.30 C 389.44 525.18, 389.85 522.56, 389.90 519.73 C 389.95 516.89, 389.41 514.21, 389.57 511.29 C 389.73 508.37, 390.64 505.41, 390.85 502.20 C 391.06 498.99, 390.63 495.25, 390.83 492.01 C 391.04 488.77, 391.66 485.95, 392.07 482.77 C 392.48 479.59, 392.97 476.26, 393.31 472.92 C 393.65 469.58, 393.94 465.85, 394.12 462.73 C 394.29 459.62, 394.39 457.22, 394.33 454.23 C 394.28 451.24, 393.75 448.00, 393.78 444.80 C 393.82 441.61, 394.44 438.20, 394.54 435.06 C 394.64 431.92, 394.39 429.27, 394.36 425.96 C 394.34 422.66, 394.35 418.50, 394.40 415.24 C 394.45 411.97, 394.46 409.53, 394.65 406.37 C 394.85 403.22, 395.37 399.56, 395.56 396.33 C 395.76 393.09, 395.89 390.31, 395.84 386.97 C 395.79 383.64, 395.40 380.00, 395.26 376.32 C 395.12 372.65, 394.99 368.41, 395.01 364.91 C 395.04 361.41, 395.40 358.84, 395.41 355.32 C 395.43 351.80, 394.90 347.38, 395.11 343.81 C 395.32 340.23, 396.37 337.15, 396.68 333.85 C 396.99 330.54, 397.05 327.75, 396.98 323.98 C 396.91 320.20, 396.06 315.19, 396.27 311.21 C 396.49 307.23, 397.75 304.14, 398.27 300.12 C 398.79 296.10, 398.60 291.35, 399.41 287.10 C 400.22 282.84, 400.60 276.47, 403.16 274.59 C 405.71 272.71, 410.90 274.97, 414.74 275.83 C 418.58 276.69, 424.64 276.99, 426.18 279.75 C 427.73 282.51, 424.88 288.39, 424.00 292.40 C 423.11 296.41, 421.75 300.06, 420.86 303.79 C 419.97 307.51, 419.12 311.25, 418.64 314.74 C 418.16 318.22, 418.33 321.20, 417.97 324.68 C 417.62 328.17, 416.84 331.91, 416.52 335.65 C 416.19 339.38, 416.05 343.40, 416.03 347.10 C 416.01 350.80, 416.49 354.26, 416.40 357.86 C 416.32 361.47, 415.57 364.92, 415.50 368.75 C 415.43 372.57, 415.89 376.92, 415.98 380.82 C 416.06 384.72, 415.97 388.51, 416.01 392.14 C 416.06 395.78, 416.52 398.82, 416.23 402.63 C 415.94 406.45, 414.67 411.33, 414.29 415.02 C 413.91 418.70, 413.84 421.49, 413.96 424.73 C 414.08 427.98, 414.98 431.12, 414.99 434.48 C 415.00 437.83, 414.05 441.57, 414.03 444.87 C 414.00 448.16, 415.05 451.01, 414.86 454.25 C 414.67 457.49, 413.39 461.02, 412.91 464.29 C 412.42 467.55, 412.20 470.70, 411.96 473.84 C 411.71 476.99, 411.66 480.08, 411.43 483.16 C 411.20 486.25, 410.71 489.31, 410.59 492.35 C 410.46 495.40, 410.90 498.46, 410.66 501.41 C 410.42 504.37, 409.37 507.28, 409.14 510.09 C 408.91 512.89, 409.25 515.58, 409.28 518.23 C 409.30 520.88, 409.51 523.31, 409.29 525.98 C 409.07 528.64, 408.18 531.39, 407.94 534.24 C 407.70 537.09, 407.79 540.36, 407.86 543.09 C 407.93 545.82, 408.39 548.08, 408.37 550.63 C 408.36 553.18, 407.86 555.92, 407.78 558.39 C 407.71 560.85, 408.03 562.95, 407.94 565.39 C 407.85 567.84, 407.36 570.57, 407.26 573.08 C 407.16 575.59, 407.45 578.11, 407.35 580.45 C 407.24 582.79, 406.77 584.63, 406.64 587.11 C 406.52 589.59, 406.68 592.91, 406.58 595.34 C 406.49 597.78, 405.92 599.24, 406.08 601.73 C 406.24 604.23, 407.46 607.79, 407.53 610.30 C 407.60 612.80, 406.81 614.64, 406.50 616.77 C 406.20 618.90, 406.01 620.94, 405.68 623.07 C 405.36 625.20, 404.74 627.11, 404.54 629.55 C 404.34 631.99, 404.47 634.55, 404.47 637.71 C 404.48 640.87, 403.63 646.46, 404.58 648.51 C 405.53 650.55, 408.22 650.21, 410.17 650.00 C 412.11 649.79, 414.32 647.26, 416.26 647.26 C 418.20 647.26, 420.60 651.57, 421.82 650.00 C 423.03 648.43, 423.07 641.22, 423.54 637.82 C 424.01 634.43, 424.26 631.89, 424.62 629.62 C 424.99 627.35, 425.61 626.36, 425.74 624.19 C 425.87 622.02, 425.13 618.96, 425.39 616.60 C 425.64 614.23, 427.13 612.32, 427.26 610.02 C 427.40 607.72, 426.33 605.17, 426.19 602.80 C 426.05 600.43, 426.63 598.24, 426.45 595.79 C 426.26 593.34, 425.04 590.62, 425.08 588.09 C 425.12 585.56, 426.23 583.04, 426.67 580.61 C 427.11 578.18, 427.50 575.88, 427.70 573.50 C 427.90 571.11, 427.97 568.86, 427.87 566.28 C 427.76 563.71, 427.16 560.91, 427.05 558.06 C 426.93 555.20, 427.19 552.04, 427.18 549.17 C 427.16 546.29, 426.81 543.46, 426.96 540.80 C 427.11 538.13, 427.92 535.97, 428.07 533.18 C 428.22 530.40, 427.68 527.13, 427.86 524.08 C 428.04 521.02, 428.87 517.96, 429.13 514.87 C 429.40 511.79, 429.47 508.61, 429.45 505.54 C 429.44 502.47, 428.99 499.53, 429.03 496.45 C 429.08 493.38, 429.49 490.32, 429.71 487.09 C 429.93 483.85, 430.16 480.48, 430.36 477.03 C 430.56 473.58, 430.53 470.08, 430.90 466.37 C 431.27 462.66, 432.24 458.54, 432.60 454.76 C 432.96 450.98, 432.95 447.65, 433.06 443.71 C 433.18 439.78, 433.32 435.07, 433.28 431.15 C 433.24 427.23, 432.68 423.98, 432.84 420.20 C 433.00 416.41, 433.95 412.33, 434.24 408.46 C 434.53 404.60, 434.38 401.16, 434.58 397.01 C 434.77 392.85, 435.21 387.66, 435.43 383.52 C 435.64 379.39, 435.66 375.87, 435.85 372.17 C 436.04 368.48, 436.33 365.11, 436.57 361.37 C 436.80 357.63, 437.03 353.68, 437.25 349.72 C 437.48 345.77, 437.39 341.62, 437.93 337.64 C 438.47 333.67, 439.91 329.84, 440.49 325.87 C 441.06 321.90, 440.81 317.87, 441.40 313.84 C 441.99 309.81, 443.05 305.86, 444.03 301.69 C 445.00 297.52, 446.50 293.02, 447.27 288.80 C 448.05 284.57, 446.70 279.32, 448.65 276.35 C 450.60 273.37, 454.84 272.46, 458.96 270.95 C 463.08 269.43, 470.33 265.86, 473.38 267.26 C 476.43 268.66, 477.53 275.31, 477.25 279.34 C 476.97 283.37, 473.46 288.03, 471.69 291.44 C 469.93 294.85, 467.71 296.80, 466.66 299.81 C 465.61 302.82, 466.16 306.27, 465.40 309.49 C 464.64 312.70, 462.73 315.75, 462.10 319.10 C 461.47 322.44, 461.77 326.26, 461.62 329.53 C 461.46 332.80, 461.59 335.44, 461.17 338.72 C 460.75 342.00, 459.89 345.88, 459.09 349.20 C 458.29 352.52, 456.82 355.26, 456.38 358.66 C 455.94 362.05, 456.74 366.09, 456.45 369.59 C 456.16 373.10, 454.78 376.11, 454.63 379.69 C 454.49 383.27, 455.67 387.49, 455.57 391.06 C 455.47 394.64, 454.45 397.63, 454.03 401.14 C 453.61 404.65, 453.36 408.56, 453.06 412.11 C 452.75 415.66, 452.63 419.07, 452.20 422.46 C 451.76 425.85, 450.72 428.91, 450.47 432.45 C 450.22 435.99, 450.70 439.90, 450.68 443.69 C 450.67 447.47, 450.33 451.60, 450.39 455.16 C 450.44 458.73, 451.02 461.93, 451.01 465.08 C 451.01 468.23, 450.71 471.03, 450.35 474.05 C 449.98 477.07, 448.91 480.16, 448.84 483.19 C 448.77 486.22, 449.91 489.30, 449.90 492.24 C 449.90 495.19, 449.05 498.13, 448.79 500.87 C 448.52 503.61, 448.51 505.83, 448.30 508.69 C 448.09 511.55, 447.81 515.12, 447.54 518.01 C 447.28 520.90, 446.62 523.31, 446.71 526.03 C 446.80 528.75, 447.95 531.70, 448.08 534.33 C 448.21 536.96, 447.70 539.42, 447.47 541.81 C 447.25 544.20, 446.77 546.15, 446.72 548.64 C 446.67 551.13, 447.11 554.26, 447.17 556.72 C 447.23 559.19, 447.19 560.95, 447.07 563.42 C 446.95 565.90, 446.53 569.01, 446.46 571.57 C 446.38 574.13, 446.65 576.51, 446.60 578.81 C 446.55 581.11, 446.33 583.04, 446.18 585.36 C 446.03 587.68, 445.72 590.41, 445.70 592.75 C 445.68 595.09, 445.94 597.05, 446.05 599.41 C 446.17 601.77, 446.29 604.57, 446.39 606.91 C 446.49 609.25, 446.54 611.18, 446.64 613.47 C 446.74 615.75, 446.60 618.23, 447.00 620.62 C 447.39 623.01, 449.44 626.21, 449.04 627.82 C 448.63 629.44, 445.78 628.77, 444.56 630.29 C 443.34 631.81, 443.12 633.65, 441.72 636.94 C 440.32 640.22, 436.36 647.93, 436.17 650.00 C 435.99 652.07, 438.77 649.56, 440.63 649.34 C 442.48 649.11, 445.06 648.55, 447.29 648.66 C 449.51 648.77, 451.88 649.78, 453.97 650.00 C 456.07 650.22, 458.02 649.95, 459.88 649.95 C 461.73 649.95, 463.36 650.03, 465.11 650.00 C 466.85 649.97, 468.11 649.79, 470.33 649.79 C 472.54 649.79, 476.01 650.05, 478.39 650.00 C 480.78 649.95, 482.75 649.46, 484.66 649.46 C 486.57 649.46, 489.55 651.64, 489.86 650.00 C 490.17 648.36, 488.04 642.66, 486.53 639.61 C 485.02 636.56, 483.05 633.27, 480.79 631.69 C 478.54 630.12, 474.90 631.03, 473.01 630.15 C 471.12 629.28, 470.58 627.71, 469.44 626.42 C 468.29 625.14, 466.36 624.36, 466.14 622.43 C 465.91 620.50, 467.85 617.22, 468.08 614.82 C 468.30 612.42, 467.73 610.32, 467.47 608.03 C 467.20 605.75, 466.79 603.37, 466.49 601.10 C 466.20 598.83, 465.62 596.69, 465.69 594.41 C 465.77 592.14, 466.91 589.92, 466.95 587.43 C 466.99 584.94, 465.98 581.90, 465.93 579.49 C 465.88 577.08, 466.62 575.37, 466.65 572.96 C 466.68 570.55, 466.00 567.53, 466.11 565.03 C 466.23 562.53, 467.05 560.46, 467.35 557.96 C 467.64 555.45, 467.75 552.48, 467.87 549.99 C 467.98 547.49, 467.94 545.36, 468.01 542.96 C 468.09 540.57, 468.35 538.14, 468.34 535.62 C 468.32 533.11, 468.03 530.32, 467.92 527.88 C 467.82 525.45, 467.55 523.47, 467.69 521.01 C 467.84 518.54, 468.67 515.71, 468.78 513.07 C 468.88 510.44, 468.39 507.97, 468.31 505.19 C 468.23 502.40, 468.14 499.23, 468.30 496.37 C 468.46 493.52, 469.10 490.80, 469.26 488.05 C 469.42 485.29, 469.22 482.69, 469.24 479.86 C 469.27 477.03, 469.26 474.14, 469.42 471.05 C 469.58 467.97, 470.15 464.51, 470.21 461.32 C 470.27 458.14, 469.86 454.91, 469.79 451.92 C 469.72 448.94, 469.66 446.35, 469.79 443.40 C 469.92 440.46, 470.22 437.67, 470.58 434.27 C 470.95 430.87, 471.61 426.50, 472.00 423.02 C 472.39 419.54, 472.59 416.73, 472.90 413.38 C 473.22 410.03, 473.53 406.68, 473.88 402.91 C 474.23 399.15, 474.65 394.54, 475.01 390.78 C 475.36 387.02, 475.75 383.87, 476.03 380.37 C 476.31 376.86, 476.45 373.47, 476.66 369.74 C 476.87 366.00, 476.72 361.49, 477.29 357.97 C 477.86 354.45, 479.11 352.08, 480.06 348.61 C 481.01 345.13, 482.44 340.72, 482.97 337.12 C 483.51 333.53, 482.74 330.34, 483.25 327.05 C 483.77 323.76, 485.08 320.50, 486.08 317.40 C 487.09 314.29, 488.23 311.37, 489.28 308.41 C 490.33 305.44, 491.41 302.72, 492.39 299.58 C 493.38 296.44, 494.00 293.15, 495.19 289.58 C 496.38 286.01, 496.64 280.15, 499.55 278.15 C 502.45 276.16, 508.66 277.20, 512.61 277.59 C 516.55 277.99, 522.06 278.77, 523.23 280.53 C 524.41 282.28, 520.68 285.50, 519.65 288.14 C 518.63 290.78, 518.63 293.15, 517.09 296.36 C 515.55 299.58, 512.06 303.57, 510.41 307.44 C 508.75 311.31, 508.12 315.79, 507.16 319.59 C 506.20 323.38, 505.55 326.67, 504.64 330.21 C 503.74 333.76, 502.49 337.38, 501.72 340.87 C 500.95 344.35, 500.55 347.58, 500.02 351.12 C 499.49 354.66, 499.19 358.47, 498.54 362.11 C 497.89 365.75, 496.54 369.37, 496.12 372.94 C 495.70 376.51, 496.27 379.91, 496.01 383.55 C 495.75 387.20, 495.07 391.25, 494.57 394.81 C 494.06 398.37, 493.28 401.54, 492.98 404.90 C 492.67 408.26, 492.93 411.44, 492.75 414.99 C 492.57 418.55, 492.24 422.78, 491.88 426.23 C 491.52 429.68, 490.81 432.49, 490.60 435.68 C 490.40 438.87, 490.73 442.03, 490.64 445.36 C 490.56 448.69, 490.15 452.36, 490.10 455.65 C 490.04 458.94, 490.53 462.02, 490.31 465.11 C 490.09 468.20, 488.96 471.18, 488.77 474.18 C 488.58 477.18, 489.04 479.97, 489.16 483.10 C 489.29 486.23, 489.60 489.75, 489.50 492.93 C 489.41 496.11, 488.68 499.25, 488.58 502.20 C 488.47 505.15, 488.72 507.75, 488.86 510.62 C 489.00 513.50, 489.36 516.63, 489.41 519.46 C 489.46 522.30, 489.18 524.93, 489.17 527.65 C 489.16 530.36, 489.50 533.08, 489.35 535.76 C 489.20 538.44, 488.43 541.02, 488.26 543.72 C 488.10 546.41, 488.76 549.13, 488.37 551.94 C 487.98 554.74, 486.36 557.59, 485.92 560.57 C 485.49 563.55, 485.80 566.92, 485.77 569.82 C 485.74 572.71, 485.72 575.31, 485.76 577.91 C 485.80 580.51, 485.99 582.77, 486.02 585.40 C 486.06 588.03, 485.94 590.98, 485.96 593.69 C 485.99 596.40, 485.86 599.23, 486.17 601.66 C 486.48 604.08, 487.20 606.03, 487.84 608.24 C 488.49 610.45, 488.98 612.94, 490.04 614.93 C 491.10 616.93, 492.97 618.24, 494.21 620.21 C 495.45 622.17, 496.39 624.49, 497.46 626.71 C 498.53 628.93, 499.26 630.93, 500.64 633.52 C 502.01 636.10, 504.35 639.47, 505.69 642.22 C 507.03 644.96, 507.28 648.70, 508.66 650.00 C 510.03 651.30, 512.88 652.29, 513.95 650.00 C 515.01 647.71, 515.01 640.37, 515.05 636.27 C 515.09 632.17, 514.74 628.78, 514.20 625.41 C 513.66 622.03, 512.87 619.07, 511.82 616.04 C 510.77 613.00, 508.96 610.11, 507.90 607.21 C 506.83 604.30, 506.08 601.54, 505.43 598.59 C 504.78 595.64, 504.32 592.45, 504.00 589.53 C 503.69 586.60, 503.54 583.95, 503.52 581.05 C 503.50 578.15, 503.80 575.16, 503.88 572.11 C 503.96 569.07, 503.40 565.44, 504.01 562.79 C 504.63 560.14, 506.83 558.85, 507.57 556.21 C 508.32 553.58, 508.11 549.58, 508.48 546.97 C 508.84 544.36, 509.58 543.12, 509.76 540.58 C 509.94 538.03, 509.58 534.66, 509.57 531.72 C 509.56 528.78, 509.75 525.86, 509.68 522.93 C 509.61 519.99, 509.18 517.18, 509.12 514.13 C 509.07 511.08, 509.34 507.69, 509.35 504.63 C 509.36 501.58, 509.27 498.79, 509.16 495.80 C 509.06 492.80, 508.72 489.77, 508.71 486.66 C 508.70 483.56, 509.02 480.42, 509.11 477.20 C 509.21 473.97, 509.11 470.80, 509.28 467.30 C 509.46 463.80, 509.92 459.79, 510.16 456.19 C 510.41 452.58, 510.68 449.29, 510.76 445.66 C 510.84 442.04, 510.39 438.17, 510.63 434.44 C 510.87 430.72, 511.81 427.19, 512.18 423.30 C 512.55 419.41, 512.56 414.95, 512.86 411.09 C 513.16 407.22, 513.66 403.93, 513.97 400.10 C 514.29 396.27, 514.34 392.00, 514.76 388.11 C 515.18 384.21, 516.03 380.61, 516.47 376.73 C 516.90 372.84, 516.93 368.64, 517.36 364.80 C 517.79 360.96, 518.39 357.67, 519.07 353.68 C 519.75 349.70, 520.69 344.95, 521.44 340.89 C 522.18 336.84, 522.63 332.88, 523.52 329.35 C 524.40 325.81, 525.61 322.72, 526.74 319.67 C 527.87 316.61, 529.10 314.00, 530.29 311.02 C 531.49 308.04, 532.35 305.18, 533.92 301.80 C 535.49 298.41, 537.30 293.68, 539.73 290.72 C 542.15 287.75, 546.54 283.36, 548.47 284.02 C 550.40 284.67, 551.05 290.83, 551.31 294.65 C 551.57 298.46, 550.69 302.88, 550.02 306.90 C 549.35 310.93, 548.40 315.24, 547.29 318.78 C 546.17 322.31, 544.62 324.77, 543.35 328.10 C 542.07 331.43, 540.64 335.03, 539.66 338.76 C 538.68 342.50, 537.96 346.70, 537.47 350.51 C 536.97 354.32, 537.01 357.72, 536.69 361.64 C 536.37 365.56, 535.75 370.11, 535.55 374.04 C 535.36 377.97, 535.64 381.70, 535.52 385.24 C 535.40 388.77, 535.10 391.74, 534.84 395.25 C 534.58 398.77, 534.36 402.80, 533.95 406.33 C 533.53 409.87, 532.85 413.05, 532.33 416.47 C 531.81 419.88, 531.16 423.29, 530.81 426.82 C 530.45 430.35, 530.48 434.18, 530.19 437.65 C 529.90 441.12, 529.07 444.28, 529.07 447.63 C 529.06 450.99, 530.16 454.62, 530.18 457.80 C 530.20 460.97, 529.37 463.60, 529.17 466.68 C 528.98 469.76, 528.96 473.08, 529.03 476.27 C 529.10 479.47, 529.47 483.04, 529.57 485.86 C 529.68 488.69, 529.70 490.65, 529.67 493.22 C 529.65 495.79, 529.44 498.36, 529.43 501.28 C 529.43 504.21, 529.78 507.79, 529.63 510.78 C 529.48 513.76, 528.34 516.52, 528.53 519.21 C 528.71 521.90, 530.42 524.25, 530.72 526.93 C 531.01 529.61, 530.28 532.70, 530.28 535.30 C 530.29 537.89, 530.32 539.98, 530.76 542.49 C 531.20 545.00, 533.30 548.29, 532.93 550.37 C 532.56 552.45, 529.93 552.90, 528.54 554.96 C 527.14 557.01, 525.71 560.10, 524.57 562.72 C 523.43 565.33, 522.17 568.02, 521.70 570.66 C 521.23 573.30, 521.87 575.91, 521.75 578.56 C 521.62 581.21, 521.15 583.53, 520.95 586.55 C 520.76 589.57, 520.20 592.95, 520.58 596.70 C 520.95 600.44, 522.31 604.74, 523.21 609.02 C 524.12 613.30, 524.97 617.79, 526.01 622.37 C 527.06 626.94, 528.54 631.88, 529.48 636.48 C 530.43 641.09, 530.47 647.75, 531.68 650.00 C 532.88 652.25, 535.28 650.75, 536.71 650.00 C 538.14 649.25, 539.57 648.70, 540.28 645.51 C 540.99 642.32, 541.07 634.80, 540.96 630.86 C 540.86 626.92, 540.01 624.96, 539.67 621.88 C 539.32 618.79, 539.21 615.40, 538.89 612.34 C 538.58 609.28, 538.18 606.34, 537.78 603.54 C 537.37 600.74, 536.48 598.29, 536.47 595.54 C 536.46 592.80, 537.13 590.38, 537.72 587.07 C 538.31 583.76, 539.04 578.93, 540.02 575.68 C 541.00 572.44, 542.28 567.93, 543.59 567.62 C 544.90 567.30, 546.34 571.13, 547.87 573.77 C 549.39 576.42, 551.51 580.47, 552.74 583.50 C 553.98 586.54, 554.69 589.10, 555.29 591.97 C 555.88 594.85, 556.17 598.01, 556.30 600.76 C 556.42 603.51, 555.94 605.66, 556.01 608.46 C 556.09 611.25, 556.86 614.45, 556.75 617.54 C 556.63 620.63, 555.43 623.62, 555.35 627.00 C 555.26 630.38, 555.82 634.01, 556.23 637.84 C 556.63 641.68, 556.35 647.97, 557.76 650.00 C 559.18 652.03, 562.75 650.77, 564.71 650.00 C 566.67 649.23, 568.38 648.30, 569.53 645.37 C 570.69 642.44, 571.06 636.19, 571.65 632.41 C 572.24 628.64, 572.95 626.10, 573.07 622.73 C 573.20 619.37, 572.29 615.60, 572.42 612.21 C 572.55 608.81, 573.98 605.90, 573.87 602.37 C 573.76 598.84, 572.53 594.86, 571.75 591.04 C 570.97 587.23, 569.87 582.95, 569.20 579.48 C 568.54 576.01, 568.71 573.20, 567.77 570.21 C 566.83 567.21, 565.34 564.10, 563.58 561.51 C 561.82 558.92, 558.63 556.96, 557.19 554.69 C 555.76 552.41, 555.76 550.14, 554.96 547.86 C 554.17 545.58, 552.69 543.42, 552.41 540.99 C 552.13 538.55, 553.45 535.90, 553.27 533.23 C 553.08 530.57, 551.68 527.71, 551.32 524.98 C 550.95 522.26, 551.26 519.69, 551.07 516.89 C 550.89 514.09, 550.07 510.98, 550.19 508.19 C 550.30 505.40, 551.53 502.71, 551.75 500.14 C 551.97 497.57, 551.64 495.62, 551.53 492.77 C 551.41 489.92, 551.33 486.04, 551.08 483.06 C 550.82 480.08, 550.28 477.69, 550.01 474.91 C 549.74 472.13, 549.27 469.33, 549.45 466.40 C 549.62 463.47, 550.83 460.42, 551.05 457.32 C 551.27 454.23, 550.64 450.81, 550.78 447.82 C 550.93 444.82, 551.84 442.38, 551.92 439.35 C 552.00 436.33, 551.05 432.80, 551.26 429.66 C 551.46 426.52, 552.69 423.35, 553.13 420.52 C 553.58 417.69, 553.67 415.38, 553.93 412.68 C 554.19 409.99, 554.40 407.50, 554.69 404.33 C 554.98 401.17, 555.08 396.77, 555.67 393.71 C 556.26 390.65, 557.88 388.64, 558.22 385.98 C 558.57 383.32, 558.07 380.57, 557.74 377.73 C 557.42 374.89, 556.34 371.85, 556.26 368.93 C 556.18 366.00, 557.11 363.10, 557.27 360.20 C 557.44 357.30, 556.95 354.49, 557.25 351.52 C 557.54 348.56, 558.30 345.13, 559.04 342.40 C 559.78 339.66, 560.97 337.92, 561.68 335.11 C 562.38 332.29, 562.78 328.91, 563.26 325.49 C 563.74 322.08, 563.72 318.60, 564.57 314.61 C 565.42 310.62, 567.03 305.78, 568.36 301.55 C 569.68 297.33, 571.06 289.56, 572.51 289.24 C 573.95 288.93, 575.97 295.81, 577.05 299.68 C 578.13 303.54, 578.49 308.12, 578.98 312.43 C 579.47 316.75, 579.76 321.61, 579.96 325.58 C 580.17 329.55, 580.19 332.97, 580.22 336.27 C 580.25 339.57, 580.22 342.45, 580.14 345.40 C 580.05 348.34, 579.85 351.21, 579.71 353.93 C 579.57 356.66, 579.34 359.08, 579.30 361.73 C 579.26 364.38, 579.28 367.14, 579.48 369.83 C 579.67 372.52, 580.06 375.28, 580.47 377.87 C 580.87 380.46, 582.03 382.76, 581.89 385.40 C 581.74 388.03, 580.32 390.91, 579.58 393.70 C 578.83 396.48, 577.74 399.37, 577.41 402.09 C 577.07 404.82, 577.69 407.25, 577.55 410.03 C 577.41 412.80, 576.97 415.87, 576.58 418.75 C 576.18 421.63, 575.53 424.49, 575.17 427.31 C 574.82 430.13, 574.74 433.11, 574.46 435.67 C 574.17 438.23, 573.70 440.10, 573.46 442.67 C 573.21 445.24, 572.88 448.30, 572.98 451.10 C 573.08 453.91, 574.43 456.80, 574.08 459.48 C 573.72 462.16, 571.06 464.61, 570.84 467.19 C 570.63 469.77, 572.50 472.45, 572.78 474.97 C 573.06 477.48, 572.35 479.61, 572.52 482.28 C 572.70 484.94, 573.41 488.18, 573.82 490.96 C 574.23 493.74, 575.15 496.29, 574.97 498.97 C 574.79 501.66, 573.28 504.46, 572.74 507.09 C 572.21 509.73, 571.59 512.04, 571.77 514.76 C 571.95 517.49, 573.45 520.82, 573.81 523.44 C 574.17 526.06, 573.66 528.04, 573.93 530.49 C 574.20 532.95, 574.62 535.64, 575.43 538.16 C 576.24 540.68, 577.97 543.16, 578.81 545.61 C 579.65 548.06, 579.52 550.31, 580.45 552.85 C 581.38 555.40, 583.34 558.02, 584.38 560.87 C 585.41 563.71, 586.08 566.96, 586.66 569.93 C 587.24 572.91, 587.58 575.65, 587.84 578.71 C 588.10 581.76, 588.05 585.10, 588.21 588.25 C 588.38 591.39, 588.65 594.02, 588.83 597.56 C 589.00 601.10, 589.23 605.68, 589.25 609.49 C 589.28 613.31, 589.09 617.12, 588.98 620.46 C 588.87 623.79, 588.92 626.06, 588.58 629.51 C 588.24 632.95, 587.16 637.69, 586.92 641.10 C 586.68 644.52, 585.51 648.62, 587.15 650.00 C 588.79 651.38, 593.77 649.36, 596.76 649.36 C 599.75 649.36, 603.72 652.15, 605.10 650.00 C 606.48 647.85, 605.18 640.85, 605.05 636.45 C 604.92 632.05, 604.29 628.03, 604.32 623.59 C 604.36 619.14, 605.05 614.00, 605.27 609.77 C 605.50 605.55, 605.31 601.68, 605.67 598.24 C 606.04 594.81, 607.24 592.20, 607.48 589.17 C 607.72 586.13, 607.15 583.13, 607.11 580.06 C 607.06 576.98, 607.49 573.79, 607.19 570.73 C 606.88 567.66, 605.69 564.52, 605.27 561.65 C 604.85 558.78, 605.18 556.31, 604.67 553.51 C 604.17 550.71, 603.14 547.45, 602.24 544.85 C 601.35 542.25, 599.94 540.41, 599.32 537.92 C 598.70 535.42, 599.15 532.44, 598.53 529.86 C 597.92 527.28, 596.11 525.03, 595.64 522.41 C 595.17 519.79, 595.70 516.86, 595.73 514.13 C 595.75 511.41, 595.74 508.85, 595.79 506.05 C 595.85 503.25, 595.89 500.10, 596.06 497.32 C 596.22 494.53, 596.93 492.18, 596.79 489.33 C 596.65 486.48, 595.45 483.16, 595.24 480.20 C 595.02 477.24, 595.56 474.22, 595.51 471.56 C 595.45 468.90, 594.83 466.91, 594.89 464.25 C 594.95 461.60, 595.60 458.54, 595.86 455.63 C 596.11 452.72, 596.11 449.70, 596.42 446.79 C 596.73 443.89, 597.53 440.98, 597.72 438.19 C 597.92 435.41, 597.31 432.92, 597.56 430.08 C 597.81 427.25, 598.81 424.15, 599.24 421.19 C 599.67 418.22, 599.75 415.11, 600.14 412.27 C 600.53 409.44, 601.03 406.92, 601.57 404.20 C 602.10 401.47, 602.76 398.71, 603.34 395.93 C 603.92 393.16, 604.66 390.42, 605.06 387.54 C 605.46 384.67, 605.97 381.34, 605.72 378.69 C 605.48 376.03, 603.67 374.23, 603.61 371.62 C 603.54 369.00, 605.64 365.47, 605.35 363.00 C 605.06 360.52, 602.47 359.39, 601.89 356.76 C 601.30 354.13, 602.20 350.21, 601.82 347.21 C 601.45 344.20, 600.30 341.63, 599.63 338.73 C 598.97 335.82, 598.51 332.89, 597.84 329.77 C 597.17 326.65, 596.08 323.15, 595.62 320.02 C 595.15 316.89, 595.04 314.49, 595.05 310.99 C 595.05 307.50, 595.36 303.05, 595.66 299.06 C 595.96 295.06, 595.42 287.42, 596.84 287.02 C 598.26 286.62, 602.06 293.47, 604.19 296.63 C 606.32 299.80, 608.13 303.03, 609.62 306.00 C 611.12 308.97, 611.99 311.57, 613.14 314.44 C 614.29 317.31, 615.53 320.24, 616.53 323.22 C 617.53 326.21, 618.07 329.66, 619.13 332.36 C 620.19 335.06, 621.72 336.76, 622.86 339.41 C 624.01 342.05, 625.07 345.31, 626.00 348.23 C 626.94 351.14, 627.90 353.99, 628.47 356.91 C 629.04 359.82, 629.04 362.68, 629.43 365.72 C 629.81 368.76, 630.76 372.07, 630.78 375.17 C 630.81 378.26, 630.06 381.22, 629.56 384.30 C 629.05 387.38, 628.45 390.58, 627.76 393.64 C 627.06 396.71, 625.90 399.73, 625.39 402.70 C 624.87 405.67, 625.04 408.57, 624.65 411.46 C 624.27 414.34, 623.62 417.06, 623.08 420.02 C 622.53 422.99, 621.85 426.20, 621.38 429.23 C 620.91 432.27, 620.51 435.24, 620.27 438.24 C 620.02 441.24, 620.13 444.29, 619.92 447.22 C 619.71 450.16, 619.39 452.79, 619.01 455.85 C 618.62 458.90, 617.57 462.71, 617.60 465.54 C 617.62 468.37, 619.09 470.22, 619.16 472.84 C 619.23 475.47, 618.06 478.48, 618.01 481.28 C 617.97 484.09, 618.78 486.69, 618.88 489.66 C 618.98 492.63, 618.79 496.14, 618.61 499.09 C 618.43 502.04, 617.66 504.60, 617.81 507.36 C 617.95 510.12, 618.96 512.87, 619.48 515.66 C 620.01 518.46, 620.47 521.25, 620.97 524.12 C 621.47 527.00, 622.11 530.08, 622.46 532.92 C 622.81 535.76, 622.73 538.40, 623.08 541.16 C 623.42 543.93, 623.93 546.79, 624.55 549.53 C 625.18 552.28, 626.35 554.78, 626.82 557.63 C 627.29 560.49, 627.30 563.65, 627.35 566.66 C 627.41 569.67, 627.28 572.78, 627.13 575.68 C 626.99 578.58, 626.70 581.09, 626.48 584.05 C 626.27 587.01, 626.25 590.27, 625.85 593.44 C 625.45 596.60, 624.76 600.07, 624.09 603.04 C 623.43 606.00, 622.23 608.19, 621.87 611.22 C 621.51 614.26, 622.26 618.22, 621.92 621.27 C 621.58 624.32, 619.70 626.34, 619.82 629.52 C 619.94 632.70, 621.82 636.92, 622.64 640.33 C 623.47 643.75, 623.09 648.39, 624.77 650.00 C 626.45 651.61, 630.44 651.52, 632.71 650.00 C 634.98 648.48, 637.16 644.21, 638.41 640.87 C 639.67 637.52, 639.83 633.11, 640.26 629.92 C 640.69 626.72, 640.57 624.55, 640.98 621.70 C 641.40 618.85, 642.04 615.80, 642.74 612.81 C 643.43 609.83, 644.53 606.76, 645.15 603.80 C 645.78 600.84, 645.99 598.01, 646.49 595.05 C 647.00 592.10, 647.69 588.99, 648.16 586.08 C 648.64 583.16, 649.06 580.34, 649.33 577.57 C 649.61 574.79, 650.01 572.15, 649.82 569.43 C 649.63 566.71, 648.78 564.12, 648.21 561.25 C 647.65 558.38, 646.60 555.22, 646.44 552.21 C 646.27 549.20, 647.42 545.89, 647.21 543.18 C 647.00 540.47, 645.65 538.78, 645.18 535.96 C 644.71 533.14, 644.89 529.29, 644.40 526.25 C 643.91 523.20, 642.87 520.61, 642.26 517.70 C 641.65 514.79, 641.00 511.92, 640.75 508.79 C 640.49 505.66, 640.64 501.93, 640.71 498.91 C 640.78 495.89, 640.95 493.71, 641.17 490.66 C 641.39 487.61, 642.03 483.87, 642.02 480.62 C 642.01 477.37, 641.22 474.32, 641.13 471.16 C 641.04 468.00, 641.30 464.66, 641.46 461.67 C 641.62 458.68, 641.84 456.40, 642.10 453.22 C 642.35 450.05, 642.63 445.85, 642.97 442.62 C 643.31 439.39, 643.74 436.86, 644.14 433.83 C 644.53 430.80, 644.80 427.60, 645.36 424.43 C 645.91 421.26, 646.98 417.99, 647.46 414.81 C 647.94 411.64, 647.68 408.82, 648.26 405.38 C 648.84 401.95, 650.05 397.88, 650.94 394.20 C 651.83 390.52, 652.94 386.73, 653.60 383.32 C 654.27 379.92, 654.65 377.15, 654.92 373.76 C 655.20 370.37, 655.49 366.29, 655.25 363.00 C 655.01 359.72, 654.38 356.99, 653.50 354.03 C 652.62 351.08, 651.03 348.27, 649.95 345.26 C 648.86 342.25, 648.18 339.08, 646.99 335.99 C 645.81 332.91, 644.30 329.73, 642.85 326.74 C 641.40 323.76, 639.85 320.93, 638.31 318.06 C 636.76 315.19, 635.57 312.39, 633.58 309.54 C 631.59 306.70, 628.11 304.05, 626.38 300.97 C 624.66 297.89, 623.86 294.20, 623.22 291.06 C 622.58 287.92, 620.64 283.09, 622.57 282.14 C 624.49 281.19, 630.69 283.69, 634.76 285.36 C 638.84 287.04, 643.14 290.22, 647.03 292.19 C 650.93 294.16, 655.86 294.46, 658.14 297.19 C 660.42 299.91, 659.33 304.79, 660.72 308.55 C 662.10 312.31, 664.50 316.06, 666.45 319.76 C 668.41 323.46, 670.90 327.08, 672.46 330.72 C 674.03 334.37, 674.44 337.76, 675.84 341.63 C 677.24 345.50, 679.96 349.79, 680.87 353.94 C 681.78 358.10, 681.38 362.64, 681.29 366.57 C 681.21 370.49, 681.22 373.62, 680.35 377.49 C 679.49 381.35, 677.61 385.91, 676.09 389.78 C 674.57 393.64, 672.43 396.54, 671.21 400.67 C 669.99 404.81, 669.32 410.18, 668.77 414.59 C 668.21 418.99, 668.22 423.31, 667.88 427.10 C 667.54 430.90, 667.22 434.03, 666.72 437.37 C 666.23 440.70, 665.47 443.33, 664.92 447.12 C 664.36 450.90, 663.64 456.20, 663.41 460.06 C 663.18 463.92, 663.41 466.49, 663.54 470.26 C 663.66 474.02, 664.23 478.86, 664.13 482.63 C 664.03 486.40, 663.17 489.17, 662.94 492.87 C 662.71 496.57, 662.65 501.29, 662.72 504.84 C 662.79 508.40, 662.67 510.91, 663.36 514.21 C 664.05 517.52, 665.90 521.26, 666.84 524.68 C 667.78 528.09, 668.63 531.40, 669.01 534.71 C 669.39 538.02, 669.12 541.11, 669.10 544.53 C 669.08 547.95, 668.65 551.94, 668.90 555.25 C 669.15 558.56, 670.04 561.39, 670.58 564.38 C 671.12 567.38, 671.98 569.96, 672.15 573.22 C 672.32 576.48, 672.08 580.69, 671.62 583.95 C 671.15 587.21, 670.07 589.98, 669.35 592.78 C 668.63 595.58, 667.92 597.84, 667.31 600.74 C 666.69 603.63, 666.21 607.11, 665.65 610.15 C 665.09 613.19, 664.61 616.20, 663.94 618.97 C 663.27 621.73, 662.57 623.90, 661.65 626.74 C 660.73 629.57, 659.60 632.10, 658.39 635.97 C 657.19 639.85, 653.74 648.14, 654.43 650.00 C 655.13 651.86, 659.25 647.16, 662.58 647.16 C 665.91 647.16, 671.21 650.03, 674.40 650.00 C 677.60 649.97, 680.51 649.54, 681.75 646.97 C 683.00 644.40, 681.55 638.14, 681.87 634.56 C 682.19 630.99, 682.90 628.64, 683.68 625.52 C 684.46 622.39, 685.55 619.01, 686.55 615.80 C 687.56 612.59, 688.61 609.10, 689.71 606.25 C 690.81 603.40, 692.74 601.62, 693.16 598.69 C 693.58 595.76, 692.16 591.99, 692.22 588.66 C 692.27 585.34, 693.00 581.96, 693.48 578.76 C 693.96 575.56, 695.12 572.52, 695.10 569.45 C 695.07 566.39, 694.21 563.58, 693.34 560.38 C 692.47 557.19, 690.44 553.62, 689.89 550.27 C 689.34 546.91, 689.86 543.62, 690.01 540.25 C 690.16 536.87, 691.09 533.35, 690.79 530.01 C 690.49 526.67, 689.06 523.42, 688.21 520.22 C 687.35 517.02, 686.25 513.99, 685.67 510.83 C 685.08 507.66, 684.97 504.61, 684.71 501.23 C 684.45 497.84, 683.91 494.01, 684.10 490.53 C 684.28 487.05, 685.55 483.52, 685.84 480.34 C 686.12 477.17, 686.01 474.81, 685.80 471.48 C 685.59 468.15, 684.16 463.81, 684.57 460.38 C 684.98 456.95, 687.30 454.45, 688.28 450.92 C 689.26 447.40, 690.13 442.83, 690.46 439.23 C 690.79 435.63, 690.48 432.97, 690.28 429.32 C 690.08 425.67, 688.66 421.30, 689.25 417.32 C 689.85 413.34, 692.31 409.30, 693.86 405.43 C 695.40 401.56, 696.76 398.17, 698.52 394.12 C 700.27 390.06, 701.35 383.63, 704.36 381.09 C 707.37 378.55, 712.85 378.28, 716.57 378.87 C 720.29 379.45, 723.78 382.54, 726.69 384.59 C 729.59 386.64, 734.33 388.39, 734.00 391.18 C 733.66 393.98, 727.73 398.32, 724.66 401.36 C 721.59 404.39, 717.90 406.38, 715.59 409.41 C 713.27 412.44, 710.86 416.49, 710.75 419.55 C 710.64 422.61, 711.94 426.79, 714.92 427.75 C 717.91 428.71, 724.73 426.54, 728.67 425.30 C 732.61 424.07, 735.30 422.47, 738.55 420.34 C 741.79 418.22, 745.00 413.31, 748.17 412.56 C 751.34 411.81, 754.17 414.30, 757.57 415.85 C 760.96 417.39, 765.43 418.86, 768.54 421.83 C 771.65 424.80, 775.22 429.98, 776.23 433.67 C 777.25 437.36, 777.20 442.53, 774.64 443.96 C 772.07 445.38, 764.92 442.36, 760.85 442.22 C 756.78 442.07, 753.61 442.86, 750.23 443.08 C 746.84 443.31, 743.92 443.09, 740.54 443.56 C 737.16 444.04, 733.45 445.30, 729.93 445.94 C 726.41 446.57, 722.92 446.71, 719.41 447.35 C 715.90 447.98, 710.86 447.38, 708.85 449.74 C 706.83 452.10, 707.31 458.15, 707.30 461.50 C 707.30 464.84, 706.77 468.39, 708.83 469.81 C 710.90 471.22, 715.90 470.12, 719.70 469.99 C 723.50 469.85, 728.24 469.48, 731.62 468.98 C 735.00 468.48, 736.90 467.55, 739.97 466.99 C 743.05 466.44, 746.68 466.08, 750.05 465.65 C 753.42 465.22, 756.19 464.54, 760.21 464.42 C 764.23 464.29, 769.65 463.62, 774.17 464.88 C 778.70 466.15, 786.47 469.92, 787.37 472.01 C 788.28 474.09, 782.45 475.42, 779.61 477.39 C 776.77 479.36, 773.81 482.14, 770.33 483.84 C 766.84 485.53, 762.11 486.76, 758.71 487.56 C 755.31 488.36, 752.88 487.95, 749.93 488.65 C 746.98 489.35, 744.07 491.26, 741.02 491.75 C 737.97 492.24, 734.81 491.76, 731.63 491.61 C 728.45 491.46, 725.54 491.35, 721.94 490.86 C 718.34 490.36, 712.91 487.66, 710.02 488.62 C 707.14 489.59, 705.13 493.46, 704.61 496.64 C 704.10 499.83, 705.95 504.76, 706.93 507.73 C 707.90 510.70, 707.66 513.58, 710.46 514.45 C 713.27 515.33, 719.69 513.13, 723.75 512.99 C 727.82 512.85, 731.33 513.38, 734.86 513.63 C 738.39 513.87, 741.61 514.19, 744.92 514.46 C 748.23 514.74, 751.73 515.99, 754.72 515.28 C 757.70 514.56, 759.99 511.89, 762.84 510.20 C 765.69 508.51, 768.26 506.92, 771.81 505.14 C 775.37 503.36, 781.06 498.91, 784.16 499.52 C 787.26 500.13, 789.77 505.40, 790.40 508.80 C 791.03 512.21, 789.11 516.29, 787.94 519.97 C 786.77 523.65, 785.70 528.19, 783.37 530.86 C 781.05 533.54, 777.59 534.98, 773.98 536.01 C 770.38 537.03, 765.56 536.45, 761.75 537.01 C 757.93 537.57, 754.60 539.27, 751.07 539.34 C 747.55 539.40, 743.93 538.32, 740.60 537.40 C 737.27 536.49, 734.58 534.57, 731.09 533.88 C 727.60 533.19, 723.04 532.79, 719.66 533.26 C 716.27 533.73, 711.91 534.33, 710.78 536.68 C 709.66 539.03, 712.08 544.20, 712.90 547.35 C 713.73 550.50, 712.99 553.90, 715.75 555.59 C 718.50 557.28, 725.25 556.80, 729.43 557.51 C 733.60 558.21, 740.73 557.83, 740.78 559.80 C 740.82 561.77, 733.43 566.87, 729.69 569.32 C 725.95 571.78, 720.61 572.30, 718.34 574.53 C 716.06 576.76, 716.58 579.72, 716.04 582.72 C 715.50 585.71, 715.11 589.32, 715.10 592.51 C 715.09 595.69, 716.02 598.58, 715.98 601.84 C 715.94 605.11, 715.62 609.03, 714.86 612.09 C 714.11 615.16, 712.84 617.94, 711.44 620.23 C 710.04 622.53, 707.86 623.36, 706.46 625.85 C 705.06 628.33, 703.85 631.23, 703.06 635.13 C 702.27 639.03, 700.40 646.98, 701.71 649.25 C 703.03 651.53, 707.38 649.17, 710.95 648.78 C 714.52 648.39, 719.90 648.19, 723.14 646.92 C 726.38 645.66, 729.04 644.00, 730.40 641.22 C 731.76 638.43, 729.10 631.36, 731.30 630.22 C 733.50 629.07, 739.58 633.04, 743.59 634.35 C 747.60 635.66, 751.76 637.67, 755.36 638.06 C 758.96 638.45, 761.25 636.81, 765.20 636.69 C 769.14 636.57, 776.29 639.52, 779.02 637.34 C 781.76 635.17, 779.24 626.75, 781.60 623.62 C 783.96 620.49, 790.35 621.38, 793.18 618.56 C 796.02 615.75, 798.51 610.64, 798.60 606.72 C 798.70 602.81, 795.39 598.90, 793.78 595.07 C 792.16 591.24, 791.72 584.50, 788.91 583.76 C 786.11 583.03, 780.65 588.60, 776.97 590.65 C 773.28 592.70, 768.89 593.53, 766.79 596.06 C 764.69 598.58, 766.02 603.07, 764.36 605.82 C 762.71 608.57, 760.15 611.37, 756.85 612.57 C 753.55 613.76, 747.71 614.05, 744.58 612.99 C 741.44 611.94, 739.09 609.24, 738.03 606.23 C 736.97 603.23, 737.43 598.11, 738.21 594.98 C 738.99 591.84, 740.77 589.96, 742.69 587.43 C 744.61 584.91, 747.23 581.96, 749.72 579.84 C 752.21 577.71, 754.66 576.41, 757.62 574.67 C 760.58 572.93, 764.03 571.41, 767.49 569.42 C 770.94 567.43, 778.13 565.05, 778.35 562.73 C 778.56 560.41, 771.95 557.91, 768.75 555.50" stroke="red" stroke-width="3" fill="none" /></svg>