<svg width="800" height="800" viewBox="111.44 50.92 576.08 682.29" xmlns="http://www.w3.org/2000/svg"><path d="M 548.25 409.57 C 546.42 410.87, 544.65 411.54, 542.59 412.65 C 540.54 413.76, 537.98 415.37, 535.92 416.24 C 533.85 417.12, 532.29 417.72, 530.21 417.92 C 528.12 418.12, 525.60 417.69, 523.43 417.46 C 521.26 417.23, 519.30 416.95, 517.17 416.54 C 515.04 416.14, 512.68 415.78, 510.68 415.02 C 508.68 414.26, 506.62 413.43, 505.16 411.98 C 503.71 410.53, 502.91 408.21, 501.96 406.33 C 501.01 404.44, 500.58 402.37, 499.49 400.69 C 498.40 399.00, 497.34 397.33, 495.43 396.22 C 493.53 395.11, 490.31 393.67, 488.05 394.04 C 485.78 394.41, 482.56 396.61, 481.83 398.45 C 481.09 400.29, 482.77 402.98, 483.64 405.09 C 484.51 407.21, 485.99 409.33, 487.05 411.14 C 488.11 412.96, 489.05 414.16, 490.00 415.98 C 490.95 417.81, 491.54 420.40, 492.77 422.11 C 493.99 423.82, 495.61 425.25, 497.36 426.25 C 499.11 427.26, 501.41 427.53, 503.28 428.13 C 505.15 428.73, 506.58 429.24, 508.57 429.86 C 510.55 430.48, 513.07 431.42, 515.18 431.84 C 517.30 432.26, 519.30 432.13, 521.27 432.38 C 523.24 432.62, 525.01 432.80, 527.01 433.29 C 529.02 433.78, 531.17 435.00, 533.29 435.31 C 535.41 435.61, 538.01 436.17, 539.72 435.14 C 541.42 434.10, 541.92 430.66, 543.54 429.09 C 545.16 427.52, 547.32 426.74, 549.45 425.70 C 551.58 424.66, 554.30 424.03, 556.32 422.84 C 558.34 421.65, 559.85 420.36, 561.56 418.58 C 563.26 416.79, 564.70 413.78, 566.57 412.10 C 568.45 410.42, 570.51 409.54, 572.81 408.49 C 575.12 407.43, 577.85 406.07, 580.40 405.77 C 582.95 405.46, 585.42 406.47, 588.09 406.66 C 590.76 406.86, 593.81 406.58, 596.41 406.92 C 599.02 407.27, 601.17 407.98, 603.70 408.74 C 606.23 409.49, 609.27 410.02, 611.58 411.46 C 613.90 412.90, 615.86 415.29, 617.60 417.38 C 619.33 419.46, 620.50 421.84, 621.98 423.97 C 623.47 426.09, 625.37 427.82, 626.49 430.12 C 627.61 432.42, 627.69 435.39, 628.70 437.77 C 629.71 440.16, 631.08 442.33, 632.55 444.44 C 634.02 446.55, 636.95 448.23, 637.51 450.43 C 638.07 452.64, 636.33 455.18, 635.91 457.66 C 635.49 460.14, 636.29 463.59, 635.01 465.31 C 633.73 467.04, 629.95 468.32, 628.25 468.01 C 626.54 467.70, 625.82 465.02, 624.79 463.46 C 623.76 461.90, 622.88 460.44, 622.04 458.62 C 621.21 456.81, 620.70 454.50, 619.77 452.56 C 618.85 450.62, 617.34 448.94, 616.50 446.98 C 615.66 445.02, 615.63 442.70, 614.72 440.80 C 613.81 438.90, 612.39 437.24, 611.03 435.58 C 609.66 433.91, 607.59 432.64, 606.53 430.81 C 605.46 428.97, 606.02 426.10, 604.64 424.57 C 603.27 423.05, 600.48 422.11, 598.27 421.65 C 596.07 421.20, 593.64 422.18, 591.41 421.83 C 589.19 421.48, 587.17 419.71, 584.94 419.56 C 582.70 419.41, 580.10 419.81, 578.00 420.93 C 575.90 422.06, 572.56 424.36, 572.33 426.31 C 572.09 428.26, 574.86 431.01, 576.57 432.62 C 578.28 434.23, 580.47 435.38, 582.59 435.96 C 584.70 436.53, 587.47 435.28, 589.24 436.08 C 591.00 436.88, 591.84 439.15, 593.18 440.74 C 594.53 442.32, 596.01 443.97, 597.32 445.61 C 598.63 447.25, 600.03 448.87, 601.05 450.57 C 602.08 452.26, 602.47 454.00, 603.48 455.79 C 604.48 457.58, 605.74 459.48, 607.06 461.32 C 608.39 463.16, 610.23 465.12, 611.42 466.85 C 612.60 468.58, 613.26 470.17, 614.18 471.72 C 615.10 473.26, 616.66 474.07, 616.92 476.14 C 617.17 478.21, 617.21 483.41, 615.71 484.13 C 614.22 484.86, 610.24 482.07, 607.93 480.51 C 605.62 478.95, 603.64 476.56, 601.87 474.78 C 600.10 473.00, 598.81 471.46, 597.30 469.85 C 595.79 468.24, 594.12 466.67, 592.81 465.12 C 591.51 463.57, 590.67 462.11, 589.45 460.56 C 588.23 459.01, 586.79 457.40, 585.49 455.81 C 584.19 454.23, 583.22 452.18, 581.66 451.07 C 580.11 449.95, 578.02 449.93, 576.15 449.10 C 574.29 448.27, 572.12 447.32, 570.50 446.08 C 568.88 444.83, 567.70 443.44, 566.44 441.63 C 565.18 439.82, 564.66 435.94, 562.94 435.21 C 561.22 434.48, 558.31 436.06, 556.12 437.25 C 553.92 438.44, 550.75 440.53, 549.78 442.34 C 548.82 444.15, 549.51 446.17, 550.34 448.11 C 551.17 450.04, 553.22 452.44, 554.77 453.95 C 556.31 455.47, 558.04 456.00, 559.62 457.19 C 561.20 458.39, 562.55 459.94, 564.26 461.11 C 565.97 462.28, 568.13 463.16, 569.87 464.21 C 571.61 465.27, 573.07 466.16, 574.70 467.46 C 576.34 468.77, 578.04 470.49, 579.68 472.02 C 581.31 473.55, 582.70 475.17, 584.51 476.66 C 586.33 478.14, 588.70 479.43, 590.56 480.94 C 592.42 482.45, 594.06 484.14, 595.69 485.71 C 597.32 487.28, 599.08 488.66, 600.35 490.36 C 601.62 492.06, 603.46 494.22, 603.31 495.93 C 603.17 497.64, 600.79 500.17, 599.47 500.61 C 598.16 501.04, 596.76 499.22, 595.41 498.53 C 594.05 497.84, 593.16 497.58, 591.34 496.45 C 589.53 495.33, 586.56 493.23, 584.49 491.78 C 582.43 490.33, 580.78 489.11, 578.95 487.76 C 577.11 486.41, 575.36 484.94, 573.48 483.66 C 571.59 482.38, 569.53 481.30, 567.66 480.06 C 565.79 478.82, 564.14 477.41, 562.27 476.23 C 560.39 475.05, 558.28 474.03, 556.40 472.97 C 554.52 471.92, 552.62 471.24, 551.00 469.91 C 549.38 468.58, 548.15 466.63, 546.70 464.99 C 545.25 463.35, 543.73 461.89, 542.31 460.07 C 540.89 458.26, 539.48 455.95, 538.17 454.10 C 536.86 452.26, 536.21 449.89, 534.43 449.00 C 532.64 448.11, 529.75 449.15, 527.46 448.78 C 525.17 448.40, 522.83 447.24, 520.69 446.76 C 518.55 446.28, 516.82 446.39, 514.61 445.91 C 512.40 445.43, 509.76 444.48, 507.44 443.87 C 505.13 443.26, 502.93 442.79, 500.72 442.26 C 498.51 441.73, 496.20 441.43, 494.20 440.68 C 492.20 439.94, 490.44 439.05, 488.71 437.79 C 486.98 436.53, 485.34 434.80, 483.84 433.12 C 482.33 431.44, 480.82 429.66, 479.70 427.70 C 478.58 425.74, 478.16 423.38, 477.12 421.35 C 476.07 419.31, 474.39 417.56, 473.43 415.48 C 472.48 413.41, 472.23 411.00, 471.38 408.90 C 470.54 406.80, 470.08 404.27, 468.35 402.88 C 466.62 401.48, 463.23 400.34, 461.02 400.53 C 458.80 400.72, 455.86 402.24, 455.06 404.03 C 454.25 405.81, 455.51 409.01, 456.18 411.24 C 456.86 413.48, 458.24 415.44, 459.13 417.43 C 460.02 419.43, 460.70 421.17, 461.53 423.20 C 462.35 425.23, 463.19 427.56, 464.08 429.63 C 464.97 431.69, 465.77 433.78, 466.85 435.57 C 467.94 437.37, 469.19 438.68, 470.59 440.40 C 472.00 442.12, 473.77 444.12, 475.27 445.89 C 476.77 447.66, 478.07 449.60, 479.57 451.02 C 481.08 452.45, 482.49 453.91, 484.32 454.43 C 486.15 454.95, 488.43 453.73, 490.57 454.15 C 492.70 454.56, 494.77 456.26, 497.11 456.90 C 499.44 457.55, 502.20 457.50, 504.57 458.03 C 506.95 458.56, 509.11 459.44, 511.34 460.07 C 513.57 460.70, 515.72 461.20, 517.94 461.83 C 520.17 462.46, 522.72 462.80, 524.67 463.83 C 526.62 464.86, 528.09 466.59, 529.63 468.03 C 531.17 469.48, 532.58 470.87, 533.91 472.49 C 535.24 474.12, 536.61 475.92, 537.61 477.79 C 538.61 479.66, 538.43 482.47, 539.93 483.72 C 541.42 484.97, 544.54 484.67, 546.56 485.29 C 548.59 485.92, 550.33 486.64, 552.07 487.47 C 553.80 488.30, 555.29 489.33, 556.96 490.29 C 558.62 491.24, 560.48 492.17, 562.07 493.20 C 563.66 494.23, 564.88 495.45, 566.50 496.49 C 568.11 497.53, 569.92 498.64, 571.77 499.44 C 573.62 500.25, 575.41 500.43, 577.61 501.32 C 579.80 502.21, 583.04 503.52, 584.93 504.78 C 586.83 506.05, 587.75 507.61, 588.99 508.92 C 590.22 510.23, 592.91 511.97, 592.34 512.65 C 591.77 513.34, 587.92 512.69, 585.57 513.02 C 583.23 513.35, 580.31 514.48, 578.26 514.64 C 576.21 514.80, 574.96 514.36, 573.27 513.98 C 571.58 513.61, 569.87 512.95, 568.10 512.38 C 566.32 511.80, 564.33 511.36, 562.62 510.53 C 560.91 509.70, 559.52 508.47, 557.83 507.41 C 556.15 506.35, 554.11 505.18, 552.51 504.17 C 550.91 503.16, 549.98 502.33, 548.23 501.33 C 546.49 500.34, 543.92 498.09, 542.06 498.19 C 540.20 498.29, 538.20 500.11, 537.07 501.93 C 535.94 503.75, 535.11 506.94, 535.29 509.13 C 535.46 511.32, 536.82 513.65, 538.14 515.08 C 539.46 516.51, 541.36 517.01, 543.19 517.71 C 545.03 518.40, 547.26 518.55, 549.16 519.25 C 551.06 519.94, 552.59 521.08, 554.60 521.89 C 556.61 522.70, 559.29 523.16, 561.22 524.10 C 563.16 525.03, 564.40 526.73, 566.19 527.52 C 567.98 528.31, 570.00 528.77, 571.96 528.83 C 573.92 528.90, 575.86 528.26, 577.94 527.90 C 580.02 527.55, 582.22 526.75, 584.46 526.72 C 586.69 526.68, 590.80 526.17, 591.34 527.69 C 591.88 529.22, 589.13 533.46, 587.69 535.87 C 586.25 538.29, 584.93 540.94, 582.71 542.18 C 580.49 543.42, 577.01 543.31, 574.36 543.32 C 571.71 543.33, 569.09 542.95, 566.78 542.24 C 564.48 541.54, 562.56 540.21, 560.53 539.10 C 558.50 538.00, 556.77 536.72, 554.63 535.62 C 552.50 534.52, 549.97 533.05, 547.72 532.51 C 545.47 531.98, 542.21 531.29, 541.14 532.43 C 540.07 533.57, 540.75 537.04, 541.29 539.35 C 541.83 541.66, 543.04 544.66, 544.37 546.29 C 545.70 547.93, 547.41 548.25, 549.28 549.17 C 551.15 550.08, 553.59 550.78, 555.60 551.79 C 557.62 552.80, 561.32 554.05, 561.37 555.22 C 561.42 556.40, 557.91 557.51, 555.89 558.84 C 553.88 560.17, 549.91 561.66, 549.30 563.20 C 548.69 564.74, 550.80 566.49, 552.23 568.06 C 553.65 569.63, 556.12 571.24, 557.87 572.61 C 559.61 573.99, 560.77 574.94, 562.70 576.30 C 564.62 577.67, 568.46 578.83, 569.40 580.80 C 570.34 582.76, 569.38 586.06, 568.34 588.11 C 567.29 590.15, 564.63 591.39, 563.15 593.08 C 561.68 594.77, 560.82 596.66, 559.48 598.24 C 558.13 599.81, 556.05 600.84, 555.10 602.52 C 554.14 604.21, 554.67 606.38, 553.75 608.32 C 552.82 610.27, 551.17 612.44, 549.56 614.17 C 547.95 615.90, 545.45 618.93, 544.08 618.70 C 542.71 618.47, 542.25 614.77, 541.32 612.78 C 540.40 610.79, 538.88 608.71, 538.55 606.76 C 538.22 604.80, 538.96 602.84, 539.34 601.04 C 539.72 599.25, 539.75 597.46, 540.82 595.96 C 541.89 594.47, 544.08 593.51, 545.76 592.07 C 547.44 590.63, 550.58 589.01, 550.88 587.33 C 551.18 585.64, 549.13 583.60, 547.58 581.94 C 546.04 580.29, 543.04 579.00, 541.61 577.39 C 540.18 575.77, 540.13 573.97, 539.00 572.24 C 537.87 570.50, 535.62 568.88, 534.84 566.98 C 534.06 565.07, 534.17 562.81, 534.34 560.80 C 534.52 558.79, 536.36 556.79, 535.89 554.93 C 535.42 553.07, 532.64 551.56, 531.51 549.64 C 530.37 547.72, 530.07 545.46, 529.06 543.42 C 528.04 541.37, 525.69 539.41, 525.40 537.37 C 525.11 535.34, 526.53 533.23, 527.33 531.23 C 528.12 529.23, 530.39 527.27, 530.17 525.38 C 529.94 523.49, 527.23 521.72, 525.95 519.87 C 524.68 518.01, 523.68 516.08, 522.50 514.24 C 521.32 512.39, 518.94 510.60, 518.88 508.81 C 518.83 507.01, 521.12 505.45, 522.16 503.46 C 523.19 501.47, 524.08 498.94, 525.11 496.87 C 526.14 494.79, 528.43 493.03, 528.36 490.99 C 528.28 488.95, 525.87 486.48, 524.64 484.64 C 523.40 482.79, 522.33 481.35, 520.92 479.92 C 519.51 478.49, 518.03 477.19, 516.19 476.08 C 514.35 474.96, 512.06 473.90, 509.90 473.22 C 507.74 472.55, 505.45 472.38, 503.24 472.02 C 501.03 471.66, 498.74 471.64, 496.66 471.09 C 494.57 470.54, 492.89 469.27, 490.74 468.72 C 488.59 468.17, 485.39 466.81, 483.75 467.80 C 482.11 468.80, 481.14 472.49, 480.91 474.71 C 480.69 476.93, 481.33 479.34, 482.39 481.11 C 483.45 482.88, 485.46 484.43, 487.29 485.33 C 489.12 486.23, 491.18 486.44, 493.39 486.52 C 495.59 486.59, 498.23 485.55, 500.52 485.76 C 502.80 485.96, 505.48 486.55, 507.10 487.75 C 508.72 488.95, 510.11 491.07, 510.22 492.96 C 510.32 494.86, 509.39 498.10, 507.74 499.14 C 506.09 500.18, 502.52 498.82, 500.31 499.19 C 498.11 499.56, 495.61 499.85, 494.50 501.37 C 493.39 502.89, 493.01 506.36, 493.65 508.32 C 494.29 510.28, 496.49 512.14, 498.33 513.13 C 500.18 514.13, 503.08 513.18, 504.73 514.29 C 506.38 515.40, 507.08 517.99, 508.25 519.81 C 509.43 521.62, 511.16 523.40, 511.79 525.20 C 512.43 527.00, 512.73 528.73, 512.06 530.61 C 511.38 532.48, 508.24 534.57, 507.75 536.45 C 507.26 538.33, 508.11 540.29, 509.09 541.89 C 510.07 543.49, 512.37 544.38, 513.62 546.06 C 514.87 547.75, 515.79 550.08, 516.60 551.98 C 517.40 553.89, 518.78 555.69, 518.46 557.48 C 518.13 559.26, 514.83 560.85, 514.66 562.70 C 514.49 564.54, 516.32 566.89, 517.44 568.53 C 518.57 570.16, 520.20 570.88, 521.39 572.50 C 522.58 574.12, 523.51 576.40, 524.59 578.25 C 525.67 580.10, 527.26 581.86, 527.89 583.61 C 528.52 585.37, 528.78 586.97, 528.38 588.80 C 527.98 590.64, 526.31 592.65, 525.49 594.61 C 524.66 596.57, 523.72 598.68, 523.43 600.56 C 523.13 602.44, 523.30 603.90, 523.71 605.87 C 524.12 607.84, 525.01 610.32, 525.88 612.37 C 526.76 614.43, 527.85 616.21, 528.95 618.19 C 530.05 620.17, 532.05 622.11, 532.47 624.25 C 532.90 626.39, 532.56 629.17, 531.52 631.01 C 530.47 632.86, 527.83 635.37, 526.21 635.32 C 524.58 635.27, 523.19 632.58, 521.77 630.72 C 520.34 628.85, 518.82 626.06, 517.66 624.11 C 516.50 622.15, 515.78 620.84, 514.81 618.98 C 513.83 617.11, 512.81 614.81, 511.81 612.90 C 510.81 610.99, 509.38 609.35, 508.81 607.52 C 508.24 605.69, 508.26 603.89, 508.41 601.91 C 508.55 599.93, 509.07 597.65, 509.67 595.67 C 510.27 593.68, 511.56 591.86, 512.01 590.01 C 512.46 588.16, 513.00 586.43, 512.38 584.58 C 511.75 582.73, 509.63 580.57, 508.27 578.93 C 506.91 577.28, 505.56 576.18, 504.23 574.68 C 502.89 573.17, 501.24 571.54, 500.27 569.90 C 499.29 568.26, 498.13 566.67, 498.37 564.84 C 498.61 563.00, 501.29 560.81, 501.69 558.90 C 502.08 556.98, 501.56 555.05, 500.74 553.35 C 499.92 551.64, 498.30 550.13, 496.77 548.66 C 495.25 547.19, 492.69 546.09, 491.59 544.52 C 490.50 542.94, 489.74 540.95, 490.22 539.21 C 490.70 537.46, 493.38 535.91, 494.47 534.05 C 495.55 532.18, 497.33 529.76, 496.74 528.00 C 496.15 526.25, 492.69 524.82, 490.92 523.53 C 489.15 522.24, 487.69 521.58, 486.13 520.25 C 484.57 518.92, 483.08 516.92, 481.57 515.53 C 480.05 514.15, 477.51 513.59, 477.04 511.94 C 476.56 510.29, 477.76 507.75, 478.72 505.64 C 479.68 503.53, 482.85 501.08, 482.79 499.27 C 482.72 497.47, 480.07 495.99, 478.31 494.82 C 476.54 493.64, 473.68 493.56, 472.19 492.23 C 470.70 490.89, 470.31 488.61, 469.36 486.80 C 468.41 485.00, 466.92 483.28, 466.49 481.39 C 466.05 479.51, 466.56 477.53, 466.75 475.49 C 466.93 473.45, 466.75 471.21, 467.58 469.14 C 468.40 467.06, 471.69 464.82, 471.67 463.04 C 471.66 461.26, 468.95 459.95, 467.50 458.43 C 466.04 456.91, 464.31 455.46, 462.94 453.90 C 461.57 452.34, 460.57 450.80, 459.29 449.07 C 458.00 447.33, 456.46 445.20, 455.24 443.49 C 454.02 441.78, 452.80 440.68, 451.97 438.80 C 451.14 436.92, 450.96 434.21, 450.24 432.23 C 449.53 430.25, 448.50 428.75, 447.70 426.92 C 446.91 425.09, 446.23 423.14, 445.48 421.23 C 444.72 419.32, 443.70 417.55, 443.18 415.45 C 442.65 413.35, 442.71 410.68, 442.33 408.63 C 441.95 406.58, 442.02 404.72, 440.90 403.15 C 439.77 401.59, 437.53 400.57, 435.56 399.25 C 433.58 397.92, 431.13 395.38, 429.04 395.19 C 426.96 395.00, 423.91 396.32, 423.04 398.11 C 422.17 399.90, 423.16 403.57, 423.83 405.94 C 424.50 408.31, 426.27 410.37, 427.05 412.34 C 427.82 414.30, 427.89 415.85, 428.46 417.73 C 429.04 419.61, 429.85 421.66, 430.48 423.60 C 431.11 425.53, 431.54 427.56, 432.25 429.34 C 432.96 431.13, 433.97 432.43, 434.74 434.31 C 435.51 436.19, 436.18 438.63, 436.86 440.63 C 437.55 442.63, 437.97 444.55, 438.83 446.30 C 439.69 448.04, 440.93 449.57, 442.02 451.11 C 443.12 452.65, 444.31 453.89, 445.38 455.53 C 446.45 457.17, 447.13 459.22, 448.45 460.93 C 449.76 462.65, 452.75 464.07, 453.27 465.81 C 453.78 467.55, 451.79 469.39, 451.54 471.37 C 451.28 473.36, 451.67 475.67, 451.73 477.72 C 451.79 479.76, 451.72 481.70, 451.91 483.64 C 452.10 485.58, 452.32 487.52, 452.88 489.36 C 453.45 491.19, 454.27 492.92, 455.31 494.63 C 456.34 496.34, 457.82 498.03, 459.09 499.63 C 460.36 501.23, 462.45 502.47, 462.93 504.22 C 463.41 505.96, 462.43 508.08, 461.97 510.08 C 461.51 512.08, 460.06 514.38, 460.19 516.19 C 460.32 518.01, 461.34 519.67, 462.74 520.98 C 464.14 522.29, 466.73 522.92, 468.60 524.07 C 470.47 525.22, 472.60 526.45, 473.96 527.86 C 475.33 529.27, 476.50 530.78, 476.78 532.52 C 477.05 534.26, 476.15 536.34, 475.60 538.31 C 475.06 540.29, 473.66 542.45, 473.50 544.36 C 473.34 546.27, 473.57 548.25, 474.65 549.77 C 475.73 551.30, 478.41 552.22, 479.98 553.50 C 481.54 554.78, 483.38 555.92, 484.06 557.47 C 484.75 559.01, 484.73 560.89, 484.08 562.78 C 483.43 564.66, 480.37 566.76, 480.16 568.75 C 479.95 570.75, 481.54 573.13, 482.81 574.74 C 484.08 576.35, 486.38 577.16, 487.79 578.41 C 489.21 579.66, 490.17 580.74, 491.31 582.24 C 492.44 583.74, 493.80 585.71, 494.59 587.40 C 495.38 589.08, 496.18 590.51, 496.03 592.35 C 495.89 594.20, 494.31 596.43, 493.71 598.47 C 493.11 600.52, 492.52 602.61, 492.46 604.60 C 492.40 606.59, 492.71 608.61, 493.36 610.39 C 494.01 612.18, 495.39 613.72, 496.35 615.33 C 497.31 616.93, 498.34 618.43, 499.13 620.03 C 499.92 621.63, 500.07 623.20, 501.08 624.92 C 502.09 626.63, 503.76 628.67, 505.20 630.33 C 506.63 631.99, 508.22 633.09, 509.67 634.86 C 511.13 636.63, 513.11 638.89, 513.92 640.93 C 514.73 642.98, 515.25 645.29, 514.55 647.13 C 513.85 648.97, 511.50 652.01, 509.74 651.97 C 507.99 651.93, 505.82 648.54, 504.02 646.88 C 502.21 645.23, 500.48 643.58, 498.93 642.03 C 497.38 640.48, 496.06 639.05, 494.70 637.57 C 493.34 636.09, 492.15 634.63, 490.76 633.17 C 489.38 631.70, 487.42 630.41, 486.39 628.78 C 485.36 627.15, 485.32 625.06, 484.59 623.40 C 483.85 621.74, 482.84 620.46, 481.98 618.84 C 481.12 617.22, 480.44 615.40, 479.41 613.68 C 478.38 611.96, 476.02 610.22, 475.80 608.54 C 475.58 606.86, 477.40 605.41, 478.08 603.58 C 478.75 601.75, 479.57 599.54, 479.85 597.55 C 480.13 595.57, 480.38 593.46, 479.76 591.67 C 479.14 589.88, 477.44 588.25, 476.14 586.82 C 474.84 585.39, 473.62 584.20, 471.96 583.11 C 470.29 582.01, 467.25 581.65, 466.17 580.24 C 465.08 578.82, 465.32 576.44, 465.45 574.63 C 465.57 572.82, 466.37 571.12, 466.92 569.36 C 467.46 567.59, 468.97 565.75, 468.72 564.04 C 468.47 562.34, 466.75 560.62, 465.40 559.12 C 464.05 557.61, 461.84 556.50, 460.63 555.01 C 459.42 553.53, 458.52 551.98, 458.15 550.22 C 457.77 548.47, 457.86 546.44, 458.39 544.49 C 458.92 542.53, 461.33 540.29, 461.32 538.47 C 461.31 536.66, 459.84 534.81, 458.33 533.60 C 456.83 532.39, 454.24 532.14, 452.31 531.22 C 450.38 530.29, 447.87 529.53, 446.77 528.04 C 445.66 526.55, 445.89 524.21, 445.68 522.27 C 445.47 520.33, 445.16 518.32, 445.49 516.42 C 445.81 514.52, 447.62 512.72, 447.62 510.86 C 447.62 509.00, 446.42 507.05, 445.51 505.27 C 444.60 503.49, 443.19 501.85, 442.18 500.17 C 441.16 498.48, 440.04 497.01, 439.41 495.16 C 438.77 493.31, 438.72 491.06, 438.37 489.09 C 438.01 487.12, 437.47 485.26, 437.29 483.34 C 437.10 481.42, 437.29 479.55, 437.26 477.56 C 437.24 475.56, 437.52 473.38, 437.12 471.36 C 436.73 469.35, 435.95 467.23, 434.90 465.45 C 433.84 463.67, 431.92 462.49, 430.79 460.69 C 429.65 458.89, 429.08 456.73, 428.09 454.66 C 427.11 452.59, 425.79 450.17, 424.88 448.29 C 423.97 446.41, 423.35 445.24, 422.62 443.38 C 421.88 441.51, 421.17 439.23, 420.48 437.09 C 419.79 434.95, 419.14 432.66, 418.46 430.52 C 417.78 428.39, 417.18 426.34, 416.39 424.29 C 415.60 422.24, 414.42 420.30, 413.70 418.21 C 412.98 416.11, 412.48 413.95, 412.07 411.73 C 411.66 409.50, 411.90 406.90, 411.25 404.85 C 410.60 402.81, 409.84 400.73, 408.17 399.45 C 406.50 398.18, 403.52 397.04, 401.22 397.20 C 398.93 397.35, 395.47 398.79, 394.40 400.39 C 393.32 402.00, 394.29 404.71, 394.75 406.83 C 395.20 408.94, 396.33 410.99, 397.14 413.08 C 397.95 415.18, 398.87 417.25, 399.61 419.39 C 400.36 421.53, 400.96 423.80, 401.62 425.91 C 402.29 428.03, 402.87 429.98, 403.59 432.07 C 404.30 434.17, 405.26 436.43, 405.91 438.49 C 406.57 440.55, 406.93 442.42, 407.52 444.44 C 408.11 446.47, 408.52 448.63, 409.45 450.64 C 410.37 452.66, 412.06 454.62, 413.05 456.54 C 414.04 458.46, 414.49 460.29, 415.36 462.16 C 416.23 464.03, 417.36 465.87, 418.25 467.77 C 419.14 469.67, 420.03 471.62, 420.70 473.56 C 421.36 475.49, 422.03 477.44, 422.26 479.38 C 422.48 481.33, 421.99 483.19, 422.03 485.23 C 422.08 487.26, 422.05 489.58, 422.52 491.60 C 422.99 493.62, 424.24 495.39, 424.83 497.33 C 425.43 499.28, 425.35 501.44, 426.07 503.27 C 426.79 505.11, 428.39 506.62, 429.15 508.35 C 429.91 510.08, 430.58 511.72, 430.63 513.65 C 430.68 515.59, 429.42 517.95, 429.42 519.98 C 429.42 522.02, 430.24 523.93, 430.62 525.87 C 431.00 527.81, 431.43 529.67, 431.72 531.63 C 432.01 533.59, 431.40 536.01, 432.35 537.62 C 433.31 539.22, 435.57 540.22, 437.44 541.26 C 439.31 542.29, 442.76 542.43, 443.57 543.83 C 444.37 545.23, 442.35 547.71, 442.27 549.65 C 442.19 551.60, 442.43 553.62, 443.08 555.49 C 443.74 557.37, 444.98 559.25, 446.20 560.88 C 447.42 562.51, 449.42 563.69, 450.40 565.29 C 451.37 566.90, 451.99 568.64, 452.03 570.52 C 452.07 572.40, 450.97 574.57, 450.64 576.56 C 450.31 578.54, 450.03 580.49, 450.06 582.41 C 450.10 584.34, 450.03 586.49, 450.87 588.08 C 451.70 589.68, 453.35 590.98, 455.10 591.99 C 456.84 593.00, 459.72 593.12, 461.32 594.13 C 462.92 595.15, 464.49 596.40, 464.71 598.06 C 464.93 599.73, 463.54 602.27, 462.63 604.13 C 461.72 605.99, 459.67 607.37, 459.26 609.24 C 458.84 611.11, 459.38 613.66, 460.13 615.36 C 460.87 617.06, 462.50 618.07, 463.72 619.44 C 464.93 620.81, 466.38 622.05, 467.41 623.59 C 468.44 625.12, 469.26 626.91, 469.89 628.64 C 470.52 630.37, 470.49 632.31, 471.19 633.97 C 471.89 635.64, 472.76 637.27, 474.10 638.64 C 475.44 640.00, 477.66 640.99, 479.23 642.17 C 480.79 643.36, 482.04 644.44, 483.48 645.73 C 484.92 647.03, 486.28 648.60, 487.88 649.91 C 489.48 651.23, 491.28 652.12, 493.08 653.60 C 494.87 655.08, 497.70 657.02, 498.64 658.80 C 499.59 660.58, 499.45 662.40, 498.77 664.27 C 498.08 666.14, 496.20 669.85, 494.55 670.01 C 492.90 670.17, 490.98 666.72, 488.85 665.22 C 486.72 663.71, 483.84 662.17, 481.75 660.99 C 479.65 659.81, 477.93 659.09, 476.29 658.11 C 474.66 657.14, 473.34 656.39, 471.95 655.15 C 470.56 653.92, 469.51 651.79, 467.93 650.70 C 466.36 649.61, 464.05 649.53, 462.51 648.61 C 460.96 647.68, 459.59 646.69, 458.67 645.15 C 457.75 643.60, 457.40 641.27, 457.00 639.34 C 456.59 637.40, 456.95 635.16, 456.25 633.52 C 455.54 631.89, 454.32 630.63, 452.78 629.52 C 451.23 628.41, 447.98 628.28, 447.00 626.86 C 446.02 625.43, 447.05 622.98, 446.90 620.97 C 446.75 618.96, 446.35 616.84, 446.07 614.80 C 445.79 612.76, 444.99 610.69, 445.23 608.75 C 445.47 606.81, 447.90 604.68, 447.51 603.15 C 447.12 601.62, 444.63 600.66, 442.90 599.55 C 441.17 598.44, 438.27 597.94, 437.14 596.49 C 436.02 595.04, 436.32 592.79, 436.14 590.86 C 435.96 588.93, 435.95 587.01, 436.07 584.91 C 436.19 582.82, 436.81 580.33, 436.86 578.28 C 436.91 576.22, 436.84 574.44, 436.38 572.57 C 435.92 570.70, 435.02 568.80, 434.10 567.06 C 433.19 565.31, 431.72 564.01, 430.88 562.10 C 430.05 560.20, 429.94 557.55, 429.11 555.63 C 428.28 553.70, 427.46 551.77, 425.91 550.55 C 424.37 549.33, 420.96 549.71, 419.83 548.32 C 418.70 546.92, 419.49 544.22, 419.13 542.18 C 418.76 540.14, 417.99 538.11, 417.64 536.09 C 417.28 534.06, 417.26 532.11, 416.99 530.02 C 416.72 527.94, 416.27 525.72, 416.00 523.57 C 415.74 521.43, 415.74 519.10, 415.42 517.13 C 415.10 515.17, 414.84 513.64, 414.11 511.80 C 413.38 509.97, 411.67 508.00, 411.05 506.12 C 410.43 504.24, 410.81 502.45, 410.41 500.54 C 410.00 498.62, 409.02 496.70, 408.63 494.65 C 408.23 492.60, 408.19 490.30, 408.04 488.24 C 407.89 486.17, 407.96 484.24, 407.71 482.24 C 407.46 480.25, 407.23 478.19, 406.55 476.26 C 405.86 474.33, 404.45 472.63, 403.61 470.65 C 402.77 468.68, 402.37 466.39, 401.50 464.41 C 400.62 462.44, 399.37 460.77, 398.36 458.81 C 397.34 456.85, 396.19 454.66, 395.39 452.63 C 394.58 450.59, 394.09 448.71, 393.52 446.59 C 392.96 444.48, 392.66 442.10, 392.00 439.91 C 391.34 437.73, 390.36 435.67, 389.58 433.49 C 388.79 431.32, 387.93 429.14, 387.27 426.87 C 386.60 424.60, 386.12 422.18, 385.60 419.88 C 385.07 417.59, 385.06 415.27, 384.12 413.09 C 383.19 410.91, 381.72 407.63, 380.00 406.82 C 378.27 406.01, 375.64 406.92, 373.78 408.24 C 371.91 409.56, 369.35 412.68, 368.81 414.73 C 368.27 416.78, 369.78 418.45, 370.53 420.53 C 371.29 422.60, 372.56 424.86, 373.34 427.17 C 374.12 429.48, 374.53 432.03, 375.22 434.37 C 375.90 436.72, 376.89 439.04, 377.45 441.24 C 378.00 443.45, 378.09 445.47, 378.54 447.60 C 378.99 449.74, 379.46 452.05, 380.17 454.04 C 380.87 456.03, 381.91 457.68, 382.77 459.52 C 383.63 461.37, 384.37 463.07, 385.34 465.11 C 386.31 467.15, 387.76 469.66, 388.58 471.77 C 389.40 473.89, 389.61 475.80, 390.28 477.78 C 390.95 479.77, 392.17 481.61, 392.61 483.71 C 393.06 485.81, 392.81 488.20, 392.96 490.39 C 393.10 492.59, 393.23 494.84, 393.48 496.85 C 393.74 498.87, 394.13 500.49, 394.50 502.49 C 394.87 504.50, 394.96 506.77, 395.70 508.88 C 396.43 510.99, 398.07 513.06, 398.90 515.16 C 399.73 517.26, 400.24 519.41, 400.67 521.47 C 401.10 523.53, 401.18 525.30, 401.47 527.52 C 401.77 529.74, 402.06 532.57, 402.42 534.79 C 402.79 537.00, 403.22 538.67, 403.68 540.83 C 404.14 543.00, 404.79 545.63, 405.18 547.77 C 405.58 549.92, 405.87 551.56, 406.03 553.69 C 406.18 555.83, 404.90 559.11, 406.12 560.58 C 407.34 562.05, 411.47 561.45, 413.36 562.49 C 415.25 563.53, 416.27 564.98, 417.47 566.83 C 418.66 568.69, 419.82 571.51, 420.53 573.63 C 421.24 575.74, 421.54 577.35, 421.73 579.52 C 421.91 581.69, 421.68 584.27, 421.65 586.64 C 421.62 589.02, 421.67 591.48, 421.55 593.76 C 421.43 596.03, 420.49 598.35, 420.90 600.29 C 421.31 602.23, 422.53 603.87, 424.04 605.42 C 425.54 606.97, 428.67 607.85, 429.91 609.57 C 431.15 611.30, 431.12 613.59, 431.47 615.78 C 431.82 617.97, 431.83 620.47, 431.99 622.74 C 432.15 625.01, 432.39 627.10, 432.44 629.41 C 432.50 631.73, 431.25 634.95, 432.31 636.61 C 433.38 638.27, 437.18 638.26, 438.83 639.39 C 440.49 640.51, 441.41 641.63, 442.25 643.36 C 443.09 645.09, 443.40 647.78, 443.89 649.77 C 444.38 651.77, 444.53 653.30, 445.21 655.35 C 445.89 657.39, 446.47 660.95, 447.98 662.06 C 449.48 663.18, 452.09 661.76, 454.23 662.04 C 456.38 662.31, 458.65 662.67, 460.85 663.74 C 463.05 664.81, 467.17 667.03, 467.45 668.45 C 467.73 669.88, 464.38 670.89, 462.54 672.26 C 460.69 673.64, 458.37 675.50, 456.39 676.72 C 454.41 677.93, 452.72 678.47, 450.64 679.55 C 448.56 680.63, 445.43 683.99, 443.90 683.21 C 442.38 682.42, 442.90 676.96, 441.49 674.84 C 440.08 672.72, 436.92 672.20, 435.45 670.47 C 433.99 668.74, 433.53 666.57, 432.71 664.46 C 431.88 662.34, 431.27 659.98, 430.49 657.78 C 429.71 655.59, 429.45 652.96, 428.05 651.27 C 426.65 649.58, 424.36 648.62, 422.10 647.66 C 419.84 646.70, 415.20 647.15, 414.49 645.51 C 413.78 643.87, 417.10 640.26, 417.82 637.84 C 418.54 635.41, 418.54 633.46, 418.80 630.94 C 419.06 628.43, 419.77 625.39, 419.38 622.74 C 418.98 620.10, 417.82 616.11, 416.42 615.07 C 415.01 614.03, 412.63 615.10, 410.96 616.52 C 409.28 617.93, 407.47 621.24, 406.38 623.57 C 405.28 625.89, 405.21 628.11, 404.39 630.46 C 403.57 632.81, 403.10 636.48, 401.46 637.67 C 399.83 638.86, 396.93 638.16, 394.57 637.60 C 392.22 637.03, 387.94 636.16, 387.33 634.29 C 386.72 632.42, 389.83 628.75, 390.92 626.37 C 392.01 623.99, 392.94 622.03, 393.87 620.00 C 394.81 617.96, 395.56 615.95, 396.56 614.16 C 397.55 612.37, 398.44 610.79, 399.84 609.27 C 401.24 607.75, 403.67 606.71, 404.97 605.03 C 406.28 603.34, 407.24 601.25, 407.67 599.15 C 408.09 597.06, 407.29 594.67, 407.51 592.46 C 407.73 590.26, 408.95 588.26, 408.98 585.92 C 409.01 583.58, 408.68 580.66, 407.69 578.42 C 406.71 576.19, 404.79 572.81, 403.07 572.49 C 401.35 572.17, 398.84 574.56, 397.38 576.48 C 395.93 578.41, 395.10 581.59, 394.34 584.03 C 393.58 586.47, 393.42 588.91, 392.82 591.10 C 392.22 593.29, 391.89 595.16, 390.76 597.17 C 389.63 599.18, 387.32 601.16, 386.03 603.13 C 384.75 605.11, 383.95 607.03, 383.06 609.03 C 382.18 611.02, 381.56 613.10, 380.72 615.10 C 379.88 617.11, 379.09 619.09, 378.01 621.07 C 376.93 623.04, 376.07 626.70, 374.26 626.93 C 372.46 627.17, 368.52 624.58, 367.19 622.46 C 365.85 620.35, 365.93 616.88, 366.25 614.23 C 366.57 611.59, 368.04 608.93, 369.12 606.58 C 370.20 604.22, 371.52 602.34, 372.72 600.10 C 373.92 597.86, 375.17 595.41, 376.32 593.15 C 377.47 590.89, 378.68 588.85, 379.61 586.55 C 380.54 584.26, 380.99 581.76, 381.91 579.40 C 382.83 577.03, 383.94 574.59, 385.13 572.35 C 386.33 570.12, 387.90 567.95, 389.08 565.98 C 390.26 564.02, 391.87 562.68, 392.20 560.56 C 392.54 558.45, 391.35 555.63, 391.10 553.30 C 390.84 550.97, 390.98 548.69, 390.70 546.59 C 390.42 544.49, 389.87 542.75, 389.42 540.69 C 388.96 538.62, 388.36 536.28, 387.95 534.22 C 387.54 532.17, 387.31 530.40, 386.96 528.37 C 386.60 526.33, 386.27 524.05, 385.81 522.03 C 385.34 520.01, 384.88 518.15, 384.16 516.25 C 383.44 514.34, 382.22 512.44, 381.47 510.60 C 380.73 508.75, 380.03 507.17, 379.69 505.19 C 379.35 503.20, 379.55 500.88, 379.45 498.70 C 379.36 496.52, 379.45 494.32, 379.13 492.10 C 378.82 489.89, 377.99 487.54, 377.56 485.41 C 377.13 483.27, 377.16 481.35, 376.54 479.27 C 375.92 477.19, 374.77 475.01, 373.86 472.94 C 372.95 470.86, 372.21 468.73, 371.10 466.83 C 369.99 464.92, 368.19 463.32, 367.21 461.51 C 366.24 459.70, 365.53 458.03, 365.24 455.98 C 364.96 453.94, 365.71 451.47, 365.52 449.25 C 365.33 447.03, 364.66 444.84, 364.11 442.67 C 363.56 440.50, 362.84 438.42, 362.21 436.23 C 361.59 434.05, 361.29 431.68, 360.36 429.57 C 359.43 427.46, 358.43 424.31, 356.63 423.59 C 354.84 422.86, 351.38 424.18, 349.59 425.24 C 347.81 426.29, 346.11 427.86, 345.92 429.93 C 345.73 432.00, 347.87 435.34, 348.44 437.66 C 349.01 439.99, 348.96 441.80, 349.33 443.88 C 349.69 445.96, 350.46 448.14, 350.62 450.13 C 350.78 452.13, 350.54 453.73, 350.29 455.86 C 350.04 457.98, 348.75 460.95, 349.13 462.87 C 349.50 464.80, 351.13 465.86, 352.52 467.39 C 353.91 468.93, 356.15 470.23, 357.48 472.09 C 358.81 473.95, 359.76 476.44, 360.50 478.56 C 361.24 480.67, 361.42 482.70, 361.90 484.78 C 362.38 486.87, 362.91 489.04, 363.39 491.09 C 363.87 493.14, 364.74 494.94, 364.80 497.08 C 364.86 499.23, 364.00 501.72, 363.77 503.97 C 363.55 506.22, 362.79 508.57, 363.45 510.58 C 364.11 512.59, 366.60 514.01, 367.74 516.02 C 368.88 518.04, 369.69 520.54, 370.28 522.68 C 370.88 524.83, 370.97 526.80, 371.32 528.89 C 371.67 530.98, 371.86 533.10, 372.38 535.22 C 372.90 537.35, 373.88 539.46, 374.42 541.64 C 374.97 543.82, 375.43 546.08, 375.64 548.32 C 375.85 550.55, 375.88 552.82, 375.66 555.06 C 375.45 557.31, 374.93 559.61, 374.34 561.78 C 373.75 563.96, 373.01 565.77, 372.10 568.10 C 371.20 570.44, 369.94 573.35, 368.93 575.78 C 367.91 578.21, 367.27 580.60, 366.02 582.69 C 364.77 584.78, 362.90 586.47, 361.42 588.32 C 359.94 590.17, 357.91 591.77, 357.16 593.78 C 356.40 595.78, 357.41 597.95, 356.89 600.37 C 356.36 602.78, 355.22 605.98, 354.02 608.29 C 352.83 610.60, 351.20 614.51, 349.71 614.22 C 348.23 613.93, 346.21 609.15, 345.10 606.54 C 343.98 603.92, 343.83 600.79, 343.02 598.53 C 342.22 596.27, 341.75 594.47, 340.27 592.99 C 338.79 591.52, 335.53 591.29, 334.14 589.66 C 332.75 588.04, 332.38 585.63, 331.92 583.24 C 331.46 580.85, 331.50 577.80, 331.36 575.34 C 331.22 572.89, 331.31 571.00, 331.06 568.50 C 330.82 566.01, 331.34 561.58, 329.89 560.35 C 328.45 559.12, 324.52 560.50, 322.39 561.12 C 320.26 561.74, 318.04 562.28, 317.11 564.09 C 316.18 565.91, 316.78 569.41, 316.83 572.00 C 316.88 574.60, 317.21 577.14, 317.42 579.69 C 317.62 582.24, 317.93 584.87, 318.06 587.32 C 318.20 589.76, 317.87 592.03, 318.25 594.36 C 318.64 596.69, 319.10 599.57, 320.39 601.29 C 321.68 603.02, 324.33 603.59, 325.98 604.71 C 327.64 605.84, 329.04 606.46, 330.33 608.04 C 331.62 609.62, 332.97 611.82, 333.74 614.20 C 334.50 616.59, 335.62 620.90, 334.90 622.35 C 334.18 623.79, 331.39 622.73, 329.43 622.88 C 327.47 623.04, 325.16 623.71, 323.14 623.26 C 321.11 622.82, 319.03 621.64, 317.28 620.21 C 315.53 618.78, 314.32 616.49, 312.63 614.69 C 310.93 612.89, 308.40 611.53, 307.11 609.41 C 305.81 607.30, 305.25 604.55, 304.85 602.02 C 304.46 599.49, 305.01 596.71, 304.75 594.25 C 304.49 591.78, 303.49 589.64, 303.31 587.24 C 303.12 584.84, 303.53 582.38, 303.62 579.84 C 303.71 577.29, 303.63 574.66, 303.85 571.99 C 304.07 569.31, 305.35 566.16, 304.94 563.79 C 304.52 561.41, 303.19 559.00, 301.37 557.73 C 299.54 556.46, 295.94 555.60, 293.97 556.18 C 292.00 556.76, 290.25 559.56, 289.53 561.22 C 288.81 562.87, 289.66 564.49, 289.67 566.09 C 289.68 567.70, 289.75 568.91, 289.60 570.83 C 289.45 572.75, 289.17 575.41, 288.77 577.61 C 288.36 579.82, 287.32 581.73, 287.18 584.07 C 287.04 586.41, 287.68 589.13, 287.93 591.65 C 288.18 594.17, 288.54 596.58, 288.67 599.17 C 288.80 601.76, 290.10 605.70, 288.72 607.18 C 287.34 608.67, 283.13 608.22, 280.41 608.08 C 277.70 607.95, 273.67 607.94, 272.43 606.37 C 271.18 604.80, 272.66 601.18, 272.92 598.67 C 273.19 596.16, 274.06 593.65, 274.03 591.32 C 273.99 588.98, 272.97 586.85, 272.70 584.67 C 272.43 582.49, 271.97 580.26, 272.40 578.23 C 272.83 576.20, 274.38 574.58, 275.27 572.49 C 276.17 570.41, 277.45 568.23, 277.77 565.73 C 278.09 563.24, 278.40 558.83, 277.20 557.52 C 276.00 556.21, 272.71 556.88, 270.57 557.87 C 268.42 558.86, 266.11 561.62, 264.34 563.46 C 262.58 565.30, 261.57 567.17, 259.98 568.90 C 258.39 570.62, 255.92 572.03, 254.81 573.82 C 253.70 575.62, 253.04 577.63, 253.30 579.67 C 253.56 581.70, 255.63 584.07, 256.38 586.02 C 257.13 587.96, 257.60 589.24, 257.82 591.33 C 258.04 593.41, 257.92 596.03, 257.69 598.52 C 257.45 601.02, 257.67 605.12, 256.40 606.31 C 255.13 607.51, 252.15 606.41, 250.07 605.70 C 247.99 604.98, 245.51 603.67, 243.91 602.01 C 242.32 600.35, 240.95 597.88, 240.51 595.74 C 240.08 593.61, 241.45 591.52, 241.31 589.19 C 241.17 586.86, 240.69 583.95, 239.67 581.77 C 238.65 579.59, 235.12 578.10, 235.18 576.11 C 235.23 574.13, 238.40 571.85, 240.01 569.85 C 241.62 567.86, 243.04 566.09, 244.81 564.12 C 246.58 562.15, 248.67 559.90, 250.62 558.03 C 252.58 556.16, 254.61 554.64, 256.54 552.90 C 258.47 551.16, 260.26 549.24, 262.21 547.60 C 264.15 545.97, 266.06 543.76, 268.20 543.09 C 270.35 542.42, 272.77 543.17, 275.08 543.56 C 277.40 543.95, 279.78 545.32, 282.08 545.43 C 284.39 545.54, 286.78 544.94, 288.92 544.23 C 291.06 543.53, 292.89 541.45, 294.92 541.18 C 296.96 540.92, 299.02 541.89, 301.11 542.65 C 303.21 543.42, 305.58 544.69, 307.50 545.77 C 309.42 546.86, 310.64 548.86, 312.62 549.16 C 314.59 549.46, 317.21 547.96, 319.35 547.56 C 321.48 547.15, 323.38 546.82, 325.42 546.72 C 327.46 546.62, 329.70 547.61, 331.58 546.96 C 333.46 546.31, 334.69 543.96, 336.70 542.82 C 338.70 541.68, 342.04 539.38, 343.61 540.11 C 345.17 540.83, 345.80 544.88, 346.10 547.18 C 346.40 549.49, 345.79 551.84, 345.40 553.94 C 345.01 556.04, 343.99 557.69, 343.74 559.79 C 343.49 561.89, 343.90 564.10, 343.92 566.55 C 343.94 569.00, 343.34 571.94, 343.84 574.49 C 344.35 577.03, 345.45 581.06, 346.96 581.83 C 348.47 582.59, 351.17 580.76, 352.91 579.09 C 354.65 577.43, 356.49 574.12, 357.41 571.84 C 358.33 569.56, 358.02 567.46, 358.43 565.41 C 358.83 563.36, 359.26 561.58, 359.82 559.56 C 360.39 557.55, 361.58 555.37, 361.83 553.32 C 362.08 551.28, 361.55 549.28, 361.33 547.30 C 361.11 545.31, 361.19 543.32, 360.52 541.41 C 359.85 539.50, 357.96 537.72, 357.31 535.82 C 356.67 533.92, 356.82 532.12, 356.65 530.02 C 356.47 527.93, 357.14 525.16, 356.25 523.26 C 355.37 521.35, 353.30 518.82, 351.33 518.60 C 349.37 518.38, 346.42 520.74, 344.46 521.94 C 342.50 523.14, 341.51 524.83, 339.58 525.80 C 337.65 526.77, 334.98 527.02, 332.90 527.78 C 330.81 528.54, 329.09 529.61, 327.06 530.35 C 325.02 531.09, 322.84 531.89, 320.69 532.22 C 318.55 532.56, 316.51 532.76, 314.19 532.36 C 311.87 531.96, 308.04 531.29, 306.80 529.82 C 305.55 528.35, 306.05 525.54, 306.70 523.52 C 307.36 521.51, 308.99 518.89, 310.72 517.74 C 312.45 516.60, 314.93 516.80, 317.08 516.65 C 319.23 516.51, 321.71 517.36, 323.61 516.88 C 325.51 516.40, 326.80 514.78, 328.48 513.76 C 330.17 512.74, 331.91 511.62, 333.71 510.78 C 335.51 509.93, 337.30 509.37, 339.29 508.69 C 341.29 508.01, 343.74 507.60, 345.68 506.72 C 347.62 505.84, 350.30 505.05, 350.95 503.40 C 351.60 501.75, 349.91 498.88, 349.58 496.83 C 349.25 494.78, 349.19 493.09, 348.97 491.09 C 348.75 489.08, 348.81 486.85, 348.23 484.81 C 347.66 482.77, 346.94 480.32, 345.51 478.85 C 344.08 477.39, 341.44 475.66, 339.63 476.03 C 337.82 476.39, 335.80 478.99, 334.67 481.04 C 333.54 483.08, 333.02 486.11, 332.84 488.31 C 332.66 490.51, 334.41 492.90, 333.59 494.26 C 332.77 495.61, 329.85 495.57, 327.92 496.46 C 325.98 497.35, 323.93 498.77, 321.99 499.61 C 320.04 500.44, 318.36 501.17, 316.27 501.48 C 314.18 501.79, 311.56 501.33, 309.46 501.48 C 307.35 501.64, 305.35 501.29, 303.63 502.42 C 301.91 503.55, 300.53 506.36, 299.12 508.29 C 297.71 510.21, 296.24 512.11, 295.16 514.00 C 294.08 515.88, 293.36 517.65, 292.65 519.57 C 291.94 521.50, 292.04 523.85, 290.92 525.55 C 289.81 527.25, 287.95 529.02, 285.96 529.78 C 283.97 530.55, 281.07 530.61, 278.99 530.14 C 276.91 529.66, 274.10 528.69, 273.46 526.92 C 272.82 525.15, 274.27 521.61, 275.16 519.51 C 276.06 517.41, 277.72 516.19, 278.84 514.30 C 279.95 512.42, 280.71 510.00, 281.83 508.20 C 282.95 506.40, 284.39 505.12, 285.56 503.50 C 286.73 501.87, 287.59 500.19, 288.85 498.45 C 290.11 496.70, 291.87 494.93, 293.11 493.02 C 294.36 491.11, 294.75 488.01, 296.31 487.00 C 297.87 485.98, 300.42 486.82, 302.49 486.92 C 304.57 487.03, 306.52 487.67, 308.76 487.61 C 311.00 487.55, 314.09 487.44, 315.92 486.58 C 317.76 485.73, 318.79 484.15, 319.78 482.47 C 320.77 480.79, 320.99 478.39, 321.87 476.50 C 322.75 474.61, 323.69 472.73, 325.03 471.14 C 326.37 469.54, 328.26 468.15, 329.91 466.93 C 331.57 465.71, 333.87 465.33, 334.97 463.79 C 336.07 462.25, 336.28 459.79, 336.53 457.69 C 336.79 455.58, 336.64 453.30, 336.49 451.15 C 336.34 449.00, 335.86 446.97, 335.62 444.79 C 335.37 442.61, 335.34 440.45, 335.00 438.06 C 334.66 435.68, 334.82 431.93, 333.59 430.48 C 332.36 429.02, 329.88 428.99, 327.62 429.33 C 325.37 429.67, 321.46 430.99, 320.08 432.54 C 318.71 434.08, 319.21 436.48, 319.38 438.60 C 319.55 440.73, 320.76 442.98, 321.12 445.27 C 321.49 447.57, 321.93 450.45, 321.56 452.37 C 321.20 454.30, 320.21 455.28, 318.93 456.82 C 317.66 458.35, 315.39 459.87, 313.92 461.59 C 312.46 463.31, 311.42 465.46, 310.17 467.14 C 308.92 468.82, 308.10 470.86, 306.42 471.64 C 304.73 472.43, 302.14 471.80, 300.05 471.85 C 297.96 471.90, 296.03 471.74, 293.88 471.91 C 291.72 472.09, 289.00 472.11, 287.13 472.91 C 285.25 473.72, 283.64 474.99, 282.65 476.74 C 281.65 478.49, 282.14 481.28, 281.17 483.41 C 280.21 485.55, 278.28 487.64, 276.85 489.55 C 275.43 491.45, 274.16 493.24, 272.60 494.85 C 271.03 496.47, 268.63 497.57, 267.44 499.25 C 266.24 500.94, 266.08 503.03, 265.41 504.94 C 264.75 506.86, 264.49 508.75, 263.42 510.76 C 262.35 512.77, 259.81 514.90, 258.99 517.00 C 258.17 519.10, 258.44 521.10, 258.51 523.37 C 258.59 525.64, 260.03 528.62, 259.45 530.62 C 258.86 532.62, 256.59 533.72, 254.99 535.37 C 253.39 537.01, 251.65 538.83, 249.85 540.51 C 248.05 542.19, 246.08 543.82, 244.17 545.44 C 242.26 547.07, 240.18 548.88, 238.37 550.27 C 236.57 551.65, 235.44 552.78, 233.33 553.73 C 231.23 554.68, 227.13 554.54, 225.76 555.96 C 224.40 557.39, 225.55 560.08, 225.15 562.27 C 224.75 564.46, 224.64 567.12, 223.38 569.09 C 222.12 571.06, 219.14 573.75, 217.57 574.06 C 216.00 574.37, 215.18 571.97, 213.96 570.96 C 212.74 569.95, 211.12 569.72, 210.27 568.00 C 209.41 566.29, 209.77 563.04, 208.84 560.68 C 207.91 558.33, 204.45 555.98, 204.67 553.89 C 204.89 551.80, 207.98 549.56, 210.17 548.17 C 212.37 546.77, 215.51 546.63, 217.86 545.52 C 220.22 544.41, 222.26 542.76, 224.29 541.49 C 226.32 540.23, 228.01 539.10, 230.04 537.93 C 232.07 536.76, 234.34 535.89, 236.47 534.47 C 238.59 533.05, 241.34 531.41, 242.79 529.40 C 244.23 527.38, 245.93 523.95, 245.13 522.38 C 244.33 520.81, 240.45 520.16, 237.99 519.98 C 235.53 519.80, 232.67 520.51, 230.37 521.29 C 228.06 522.06, 226.23 523.60, 224.15 524.64 C 222.06 525.68, 219.94 526.48, 217.84 527.53 C 215.75 528.58, 213.73 529.80, 211.56 530.93 C 209.39 532.06, 207.34 533.60, 204.83 534.32 C 202.31 535.03, 198.18 536.18, 196.47 535.23 C 194.76 534.27, 195.05 530.67, 194.58 528.57 C 194.11 526.47, 192.48 524.23, 193.65 522.63 C 194.83 521.02, 199.25 519.99, 201.64 518.95 C 204.04 517.91, 205.71 517.28, 208.03 516.38 C 210.35 515.49, 213.23 514.49, 215.56 513.57 C 217.90 512.64, 219.68 511.64, 222.02 510.82 C 224.36 509.99, 227.00 509.14, 229.63 508.62 C 232.26 508.10, 235.10 507.66, 237.80 507.70 C 240.50 507.75, 243.59 509.22, 245.82 508.88 C 248.06 508.55, 250.07 507.47, 251.20 505.68 C 252.33 503.89, 253.41 500.14, 252.60 498.14 C 251.78 496.14, 248.52 494.56, 246.32 493.70 C 244.11 492.84, 241.51 493.02, 239.35 492.99 C 237.18 492.96, 235.42 493.25, 233.33 493.53 C 231.24 493.82, 228.97 494.28, 226.80 494.73 C 224.63 495.17, 222.37 495.51, 220.29 496.21 C 218.21 496.91, 216.38 498.21, 214.32 498.94 C 212.27 499.67, 210.13 499.81, 207.95 500.58 C 205.76 501.36, 203.57 502.74, 201.19 503.60 C 198.80 504.45, 196.07 505.24, 193.61 505.70 C 191.15 506.16, 188.56 507.32, 186.42 506.36 C 184.28 505.41, 181.94 502.44, 180.79 499.98 C 179.64 497.52, 178.48 493.23, 179.53 491.61 C 180.58 489.99, 184.62 490.48, 187.09 490.24 C 189.55 490.00, 192.08 490.36, 194.33 490.17 C 196.57 489.97, 198.39 489.72, 200.53 489.08 C 202.68 488.43, 204.95 487.18, 207.18 486.27 C 209.41 485.36, 211.73 484.38, 213.92 483.62 C 216.11 482.85, 218.09 482.21, 220.34 481.69 C 222.59 481.17, 225.06 480.71, 227.43 480.51 C 229.81 480.30, 232.18 480.71, 234.57 480.46 C 236.96 480.21, 239.43 479.20, 241.79 478.99 C 244.16 478.79, 246.72 478.53, 248.76 479.23 C 250.80 479.94, 252.08 481.94, 254.04 483.21 C 255.99 484.47, 258.55 487.05, 260.48 486.83 C 262.41 486.60, 264.17 483.77, 265.63 481.86 C 267.08 479.95, 269.45 477.28, 269.19 475.39 C 268.94 473.49, 265.93 471.81, 264.10 470.49 C 262.26 469.17, 260.07 468.51, 258.18 467.47 C 256.30 466.42, 254.66 465.24, 252.78 464.24 C 250.91 463.24, 248.92 461.47, 246.93 461.47 C 244.94 461.47, 242.94 463.54, 240.83 464.25 C 238.72 464.96, 236.45 465.40, 234.27 465.72 C 232.09 466.05, 229.99 466.25, 227.75 466.22 C 225.51 466.19, 223.04 465.21, 220.82 465.56 C 218.61 465.90, 216.65 467.55, 214.46 468.31 C 212.27 469.08, 209.75 469.45, 207.70 470.16 C 205.64 470.86, 204.15 471.77, 202.13 472.54 C 200.11 473.30, 198.04 474.13, 195.59 474.73 C 193.14 475.32, 190.05 476.04, 187.43 476.11 C 184.80 476.18, 180.36 476.48, 179.83 475.13 C 179.31 473.77, 182.61 470.09, 184.27 467.96 C 185.92 465.83, 187.92 463.80, 189.74 462.36 C 191.56 460.91, 193.22 460.16, 195.17 459.30 C 197.12 458.43, 199.43 457.81, 201.44 457.17 C 203.46 456.53, 205.31 456.31, 207.29 455.45 C 209.26 454.60, 211.24 452.67, 213.29 452.07 C 215.34 451.47, 217.47 451.81, 219.58 451.87 C 221.69 451.94, 223.83 452.36, 225.94 452.47 C 228.05 452.58, 229.95 452.94, 232.23 452.52 C 234.52 452.10, 238.51 451.59, 239.65 449.95 C 240.79 448.31, 239.86 444.68, 239.06 442.67 C 238.25 440.66, 236.64 438.79, 234.82 437.89 C 233.00 436.99, 230.39 437.45, 228.13 437.27 C 225.86 437.10, 223.51 437.14, 221.24 436.84 C 218.96 436.54, 216.76 435.76, 214.46 435.46 C 212.16 435.16, 209.27 434.16, 207.41 435.03 C 205.55 435.91, 205.10 439.34, 203.31 440.70 C 201.52 442.07, 198.89 442.44, 196.67 443.21 C 194.46 443.99, 192.27 444.68, 190.03 445.35 C 187.79 446.03, 185.14 446.28, 183.24 447.27 C 181.34 448.25, 179.89 449.67, 178.63 451.27 C 177.37 452.87, 176.93 455.14, 175.70 456.86 C 174.47 458.59, 172.81 460.17, 171.27 461.64 C 169.73 463.11, 168.10 466.20, 166.46 465.67 C 164.83 465.13, 162.29 461.06, 161.46 458.41 C 160.62 455.77, 160.56 452.28, 161.44 449.79 C 162.31 447.31, 165.80 445.89, 166.72 443.51 C 167.63 441.14, 165.67 437.36, 166.93 435.52 C 168.19 433.68, 171.93 432.81, 174.28 432.48 C 176.63 432.15, 178.62 433.59, 181.04 433.52 C 183.46 433.45, 186.40 432.92, 188.78 432.07 C 191.16 431.21, 194.66 430.07, 195.34 428.40 C 196.02 426.72, 194.44 423.74, 192.88 422.03 C 191.32 420.32, 188.29 418.89, 185.97 418.14 C 183.65 417.39, 181.34 417.57, 178.95 417.53 C 176.57 417.48, 173.46 418.61, 171.65 417.85 C 169.84 417.10, 169.15 414.70, 168.07 413.01 C 167.00 411.31, 164.86 409.73, 165.19 407.69 C 165.51 405.66, 167.85 401.95, 170.05 400.80 C 172.24 399.65, 175.83 400.28, 178.34 400.79 C 180.86 401.31, 182.65 403.05, 185.13 403.90 C 187.61 404.76, 190.87 404.88, 193.22 405.91 C 195.58 406.93, 197.32 408.52, 199.25 410.05 C 201.17 411.58, 203.14 413.35, 204.77 415.10 C 206.39 416.85, 207.19 419.43, 208.99 420.53 C 210.79 421.62, 213.35 421.35, 215.58 421.68 C 217.82 422.01, 220.19 422.25, 222.41 422.50 C 224.63 422.75, 226.68 422.69, 228.91 423.18 C 231.13 423.67, 233.49 424.78, 235.75 425.44 C 238.02 426.10, 240.26 426.55, 242.51 427.13 C 244.75 427.72, 247.74 427.60, 249.22 428.95 C 250.71 430.31, 250.86 433.09, 251.41 435.28 C 251.96 437.46, 252.20 439.85, 252.52 442.07 C 252.85 444.29, 252.26 446.99, 253.34 448.60 C 254.43 450.21, 257.21 450.76, 259.04 451.71 C 260.88 452.65, 262.61 453.30, 264.34 454.27 C 266.06 455.23, 267.74 456.03, 269.38 457.50 C 271.02 458.96, 272.41 462.45, 274.19 463.04 C 275.97 463.63, 278.36 462.05, 280.07 461.05 C 281.78 460.04, 282.73 457.59, 284.47 457.03 C 286.21 456.48, 288.53 457.59, 290.52 457.72 C 292.50 457.84, 294.45 458.08, 296.38 457.77 C 298.31 457.46, 300.53 457.03, 302.09 455.85 C 303.65 454.68, 304.76 452.60, 305.72 450.73 C 306.68 448.86, 307.86 446.78, 307.84 444.64 C 307.83 442.51, 307.20 438.86, 305.66 437.91 C 304.11 436.96, 300.73 438.34, 298.55 438.95 C 296.37 439.55, 294.52 441.08, 292.57 441.53 C 290.63 441.99, 288.76 441.46, 286.87 441.67 C 284.98 441.88, 283.18 442.59, 281.22 442.78 C 279.26 442.97, 277.09 443.28, 275.08 442.80 C 273.07 442.32, 270.80 441.15, 269.18 439.90 C 267.56 438.66, 266.13 437.28, 265.35 435.34 C 264.57 433.40, 263.69 430.14, 264.50 428.27 C 265.31 426.40, 268.05 424.58, 270.21 424.12 C 272.36 423.66, 275.38 424.95, 277.42 425.51 C 279.46 426.07, 280.56 427.32, 282.46 427.49 C 284.35 427.66, 286.56 426.78, 288.79 426.52 C 291.02 426.27, 293.41 426.13, 295.84 425.93 C 298.26 425.74, 301.01 425.66, 303.35 425.36 C 305.69 425.06, 307.79 424.89, 309.88 424.15 C 311.97 423.41, 313.85 422.14, 315.89 420.94 C 317.94 419.73, 320.03 417.85, 322.14 416.92 C 324.25 415.99, 326.30 415.34, 328.55 415.33 C 330.80 415.33, 333.50 416.89, 335.63 416.90 C 337.75 416.91, 339.28 416.26, 341.32 415.41 C 343.36 414.56, 345.67 412.69, 347.88 411.82 C 350.08 410.95, 352.76 411.16, 354.53 410.19 C 356.29 409.21, 356.91 407.46, 358.46 405.98 C 360.02 404.51, 362.64 403.19, 363.86 401.34 C 365.07 399.48, 366.17 396.92, 365.75 394.84 C 365.33 392.77, 363.38 389.96, 361.32 388.89 C 359.26 387.81, 355.34 387.62, 353.38 388.38 C 351.42 389.14, 351.00 391.86, 349.57 393.43 C 348.14 395.00, 346.70 396.74, 344.80 397.81 C 342.90 398.87, 340.29 399.20, 338.17 399.82 C 336.04 400.44, 334.22 401.46, 332.06 401.53 C 329.90 401.60, 327.36 400.08, 325.22 400.23 C 323.07 400.39, 321.20 401.38, 319.21 402.47 C 317.21 403.56, 315.38 405.60, 313.26 406.78 C 311.15 407.95, 308.88 408.85, 306.52 409.52 C 304.16 410.19, 301.47 410.53, 299.10 410.81 C 296.73 411.08, 294.52 410.99, 292.31 411.15 C 290.11 411.30, 287.98 412.00, 285.86 411.73 C 283.75 411.45, 281.79 410.18, 279.64 409.49 C 277.48 408.81, 275.11 407.43, 272.93 407.60 C 270.74 407.78, 268.64 409.64, 266.52 410.52 C 264.41 411.39, 262.40 412.24, 260.23 412.86 C 258.06 413.49, 255.87 414.24, 253.50 414.28 C 251.13 414.32, 248.60 413.61, 246.01 413.08 C 243.42 412.56, 240.53 411.91, 237.96 411.14 C 235.39 410.37, 233.06 409.17, 230.59 408.46 C 228.12 407.75, 225.44 407.44, 223.12 406.89 C 220.79 406.33, 218.69 406.13, 216.65 405.13 C 214.60 404.14, 212.79 402.32, 210.85 400.90 C 208.91 399.48, 206.88 398.06, 205.03 396.60 C 203.18 395.14, 201.76 393.39, 199.78 392.13 C 197.79 390.87, 195.41 389.92, 193.11 389.03 C 190.82 388.13, 188.58 387.43, 186.03 386.76 C 183.48 386.09, 179.10 386.72, 177.81 385.02 C 176.52 383.32, 177.40 379.16, 178.29 376.58 C 179.18 374.01, 181.20 370.27, 183.16 369.56 C 185.13 368.84, 187.75 371.46, 190.06 372.29 C 192.38 373.12, 194.82 373.99, 197.06 374.54 C 199.31 375.10, 201.72 374.59, 203.53 375.62 C 205.35 376.64, 206.31 379.00, 207.95 380.69 C 209.58 382.39, 211.38 384.28, 213.35 385.80 C 215.33 387.33, 217.66 388.64, 219.78 389.85 C 221.89 391.06, 223.91 392.20, 226.02 393.08 C 228.13 393.95, 230.24 394.36, 232.42 395.08 C 234.61 395.79, 236.83 396.59, 239.12 397.39 C 241.41 398.19, 243.85 399.51, 246.16 399.90 C 248.47 400.29, 250.66 399.98, 252.99 399.75 C 255.31 399.52, 257.88 399.31, 260.10 398.51 C 262.31 397.70, 264.34 396.11, 266.26 394.92 C 268.19 393.73, 269.78 391.60, 271.65 391.37 C 273.51 391.14, 275.49 392.81, 277.44 393.55 C 279.40 394.29, 281.35 395.30, 283.36 395.80 C 285.36 396.30, 287.45 396.34, 289.47 396.55 C 291.50 396.77, 293.44 397.03, 295.49 397.08 C 297.54 397.14, 299.70 397.24, 301.77 396.88 C 303.84 396.53, 305.91 396.06, 307.92 394.95 C 309.93 393.83, 313.46 391.95, 313.83 390.21 C 314.20 388.47, 311.84 385.96, 310.15 384.50 C 308.46 383.05, 305.80 381.97, 303.69 381.46 C 301.59 380.95, 299.54 381.39, 297.53 381.45 C 295.52 381.50, 293.45 382.13, 291.62 381.79 C 289.80 381.44, 288.47 380.05, 286.59 379.36 C 284.71 378.68, 282.28 378.23, 280.36 377.65 C 278.43 377.07, 276.15 377.17, 275.05 375.86 C 273.94 374.55, 274.59 371.70, 273.74 369.79 C 272.89 367.89, 271.31 366.21, 269.94 364.42 C 268.57 362.62, 267.18 360.37, 265.52 359.04 C 263.86 357.71, 262.00 357.18, 259.99 356.45 C 257.97 355.72, 255.61 355.12, 253.41 354.66 C 251.21 354.20, 249.03 353.59, 246.80 353.67 C 244.57 353.76, 242.42 354.51, 240.04 355.16 C 237.66 355.82, 233.54 355.95, 232.52 357.59 C 231.51 359.23, 232.51 363.15, 233.95 365.00 C 235.39 366.86, 238.89 368.00, 241.16 368.73 C 243.43 369.46, 245.42 369.18, 247.57 369.40 C 249.71 369.62, 252.13 369.19, 254.05 370.05 C 255.96 370.91, 257.97 372.66, 259.04 374.57 C 260.12 376.48, 261.37 379.82, 260.51 381.50 C 259.65 383.18, 256.17 384.14, 253.89 384.64 C 251.62 385.14, 249.09 384.91, 246.86 384.48 C 244.62 384.06, 242.60 382.80, 240.48 382.11 C 238.36 381.41, 236.14 381.06, 234.12 380.31 C 232.11 379.56, 230.34 378.65, 228.41 377.59 C 226.48 376.53, 224.28 375.26, 222.55 373.96 C 220.82 372.66, 218.37 371.72, 218.03 369.78 C 217.70 367.84, 220.52 364.55, 220.53 362.33 C 220.53 360.10, 219.86 357.23, 218.06 356.42 C 216.25 355.62, 212.11 356.91, 209.70 357.48 C 207.28 358.05, 205.81 359.82, 203.58 359.85 C 201.34 359.87, 198.42 358.53, 196.26 357.64 C 194.11 356.76, 192.60 355.76, 190.65 354.52 C 188.70 353.28, 186.31 351.96, 184.56 350.19 C 182.81 348.43, 181.29 346.08, 180.15 343.91 C 179.02 341.74, 178.89 339.39, 177.77 337.16 C 176.65 334.93, 173.59 332.53, 173.42 330.52 C 173.24 328.51, 175.55 327.07, 176.71 325.11 C 177.86 323.15, 178.58 319.77, 180.35 318.77 C 182.12 317.77, 185.60 317.83, 187.34 319.12 C 189.08 320.41, 189.89 324.07, 190.79 326.53 C 191.68 328.99, 191.76 331.61, 192.70 333.86 C 193.64 336.11, 194.75 338.30, 196.41 340.02 C 198.06 341.75, 200.26 343.58, 202.63 344.19 C 204.99 344.80, 208.00 343.70, 210.58 343.68 C 213.16 343.66, 215.73 343.85, 218.13 344.08 C 220.53 344.31, 222.66 345.11, 224.97 345.06 C 227.27 345.01, 229.56 344.24, 231.97 343.76 C 234.37 343.29, 237.00 342.81, 239.42 342.22 C 241.83 341.63, 244.16 340.50, 246.46 340.24 C 248.76 339.97, 251.02 340.27, 253.23 340.62 C 255.44 340.96, 257.45 341.93, 259.72 342.30 C 261.99 342.68, 264.72 342.20, 266.86 342.85 C 269.00 343.50, 270.76 344.88, 272.56 346.21 C 274.36 347.53, 276.17 349.20, 277.64 350.82 C 279.12 352.43, 280.13 354.08, 281.42 355.90 C 282.71 357.72, 284.03 360.04, 285.37 361.73 C 286.71 363.41, 287.61 365.27, 289.46 366.03 C 291.32 366.79, 294.35 365.97, 296.50 366.27 C 298.65 366.56, 300.15 367.28, 302.36 367.82 C 304.57 368.36, 307.44 368.95, 309.74 369.51 C 312.04 370.07, 314.27 370.33, 316.14 371.19 C 318.02 372.04, 319.69 373.09, 320.99 374.63 C 322.29 376.17, 322.97 378.34, 323.95 380.43 C 324.92 382.52, 325.23 386.08, 326.84 387.18 C 328.45 388.28, 331.41 387.61, 333.59 387.02 C 335.77 386.43, 338.80 385.25, 339.90 383.64 C 341.00 382.03, 340.70 379.51, 340.21 377.38 C 339.71 375.25, 338.00 372.64, 336.93 370.86 C 335.87 369.07, 335.00 368.27, 333.82 366.68 C 332.63 365.09, 331.34 362.86, 329.84 361.32 C 328.34 359.79, 326.88 358.23, 324.83 357.46 C 322.77 356.70, 319.89 357.06, 317.49 356.73 C 315.09 356.40, 312.77 355.98, 310.42 355.49 C 308.07 355.00, 305.62 354.67, 303.40 353.80 C 301.18 352.94, 298.83 351.73, 297.10 350.32 C 295.38 348.91, 294.45 347.01, 293.07 345.34 C 291.69 343.67, 290.36 341.87, 288.82 340.29 C 287.27 338.72, 285.47 337.52, 283.79 335.89 C 282.11 334.26, 280.55 331.77, 278.74 330.50 C 276.93 329.22, 275.13 328.57, 272.92 328.23 C 270.71 327.89, 267.81 328.64, 265.46 328.45 C 263.11 328.26, 261.05 327.86, 258.81 327.07 C 256.56 326.28, 254.23 324.02, 252.01 323.71 C 249.79 323.41, 247.72 324.66, 245.47 325.24 C 243.22 325.83, 240.81 326.59, 238.48 327.22 C 236.16 327.85, 233.81 328.73, 231.51 329.04 C 229.20 329.34, 226.79 329.10, 224.66 329.07 C 222.53 329.04, 220.93 328.85, 218.72 328.86 C 216.51 328.88, 213.40 329.40, 211.40 329.16 C 209.41 328.92, 207.99 328.90, 206.77 327.45 C 205.55 326.00, 204.67 322.68, 204.09 320.48 C 203.52 318.28, 202.08 315.48, 203.33 314.27 C 204.57 313.05, 209.13 313.20, 211.54 313.19 C 213.96 313.19, 215.61 313.97, 217.81 314.24 C 220.01 314.52, 222.49 314.77, 224.76 314.85 C 227.03 314.94, 229.15 314.96, 231.42 314.76 C 233.70 314.57, 236.17 314.45, 238.41 313.68 C 240.65 312.91, 243.92 312.03, 244.84 310.15 C 245.76 308.27, 244.95 304.45, 243.91 302.40 C 242.87 300.36, 240.89 298.25, 238.62 297.87 C 236.36 297.48, 232.92 299.77, 230.30 300.10 C 227.68 300.43, 225.35 300.13, 222.90 299.86 C 220.44 299.59, 218.10 298.72, 215.58 298.47 C 213.06 298.23, 210.38 298.15, 207.77 298.41 C 205.17 298.67, 202.39 299.21, 199.94 300.02 C 197.48 300.83, 195.45 303.36, 193.03 303.28 C 190.61 303.20, 186.69 300.95, 185.42 299.53 C 184.15 298.10, 185.44 296.43, 185.41 294.73 C 185.37 293.02, 184.38 291.16, 185.19 289.29 C 185.99 287.43, 188.13 284.20, 190.23 283.52 C 192.32 282.84, 195.29 284.99, 197.75 285.20 C 200.22 285.42, 202.65 285.26, 205.01 284.83 C 207.37 284.40, 209.73 282.74, 211.92 282.63 C 214.10 282.52, 215.99 283.43, 218.15 284.15 C 220.30 284.87, 222.26 286.47, 224.85 286.95 C 227.43 287.43, 232.24 288.01, 233.68 287.04 C 235.11 286.07, 233.99 283.28, 233.46 281.13 C 232.92 278.98, 231.36 276.35, 230.46 274.13 C 229.56 271.92, 229.12 269.71, 228.04 267.86 C 226.96 266.00, 225.88 263.39, 223.97 262.99 C 222.05 262.59, 218.94 264.87, 216.55 265.46 C 214.15 266.05, 211.90 265.96, 209.59 266.55 C 207.28 267.14, 205.27 268.72, 202.69 269.02 C 200.10 269.32, 195.58 269.76, 194.07 268.35 C 192.56 266.94, 192.88 263.01, 193.61 260.55 C 194.34 258.09, 196.56 255.44, 198.43 253.60 C 200.31 251.77, 202.55 249.83, 204.88 249.53 C 207.21 249.24, 210.00 252.16, 212.42 251.84 C 214.84 251.52, 216.98 248.50, 219.39 247.60 C 221.79 246.71, 224.66 245.81, 226.84 246.46 C 229.02 247.11, 230.42 249.86, 232.46 251.49 C 234.49 253.13, 237.56 254.30, 239.06 256.25 C 240.56 258.20, 240.61 260.79, 241.46 263.20 C 242.30 265.60, 243.43 268.33, 244.15 270.68 C 244.86 273.02, 245.14 274.88, 245.75 277.26 C 246.35 279.65, 246.75 282.87, 247.77 284.98 C 248.78 287.09, 250.45 288.20, 251.84 289.91 C 253.22 291.61, 255.08 293.22, 256.07 295.21 C 257.06 297.20, 257.58 299.44, 257.76 301.83 C 257.93 304.21, 256.47 307.53, 257.12 309.52 C 257.77 311.52, 259.67 312.75, 261.66 313.79 C 263.66 314.82, 267.02 316.04, 269.07 315.71 C 271.12 315.39, 273.22 313.74, 273.98 311.82 C 274.74 309.91, 273.87 306.58, 273.64 304.22 C 273.41 301.87, 273.06 299.79, 272.59 297.68 C 272.12 295.57, 271.48 293.68, 270.81 291.57 C 270.14 289.46, 269.57 286.81, 268.56 285.00 C 267.55 283.19, 266.04 282.29, 264.75 280.69 C 263.46 279.08, 261.84 277.19, 260.80 275.37 C 259.75 273.55, 259.34 271.86, 258.47 269.75 C 257.60 267.63, 256.07 265.24, 255.60 262.68 C 255.13 260.13, 254.39 255.77, 255.64 254.41 C 256.89 253.05, 260.93 253.51, 263.11 254.51 C 265.28 255.50, 267.04 258.32, 268.68 260.38 C 270.32 262.44, 271.55 264.98, 272.93 266.88 C 274.31 268.78, 275.47 270.11, 276.98 271.78 C 278.49 273.46, 280.87 275.00, 282.00 276.92 C 283.13 278.84, 283.30 281.10, 283.77 283.29 C 284.25 285.48, 284.33 287.77, 284.86 290.05 C 285.38 292.32, 286.35 294.75, 286.92 296.93 C 287.49 299.11, 288.08 300.98, 288.26 303.13 C 288.44 305.27, 288.48 307.52, 287.99 309.80 C 287.51 312.08, 285.21 314.90, 285.33 316.81 C 285.46 318.73, 287.27 319.99, 288.74 321.30 C 290.20 322.61, 292.63 323.41, 294.13 324.67 C 295.64 325.94, 296.45 327.41, 297.74 328.90 C 299.04 330.38, 300.53 332.10, 301.89 333.59 C 303.25 335.07, 304.61 336.43, 305.91 337.81 C 307.21 339.18, 308.05 340.85, 309.69 341.85 C 311.34 342.84, 313.56 343.45, 315.80 343.75 C 318.05 344.05, 321.94 344.87, 323.16 343.66 C 324.37 342.46, 323.39 338.70, 323.09 336.52 C 322.78 334.33, 322.35 332.28, 321.33 330.55 C 320.30 328.82, 318.48 327.56, 316.96 326.13 C 315.44 324.71, 313.70 323.50, 312.22 322.01 C 310.75 320.52, 309.55 318.77, 308.11 317.19 C 306.66 315.61, 304.24 314.36, 303.57 312.51 C 302.90 310.66, 304.12 308.21, 304.07 306.09 C 304.02 303.97, 303.71 301.92, 303.28 299.80 C 302.84 297.67, 301.98 295.51, 301.46 293.35 C 300.95 291.19, 300.62 289.01, 300.19 286.84 C 299.76 284.67, 299.27 282.42, 298.88 280.32 C 298.49 278.21, 298.03 276.42, 297.85 274.21 C 297.66 272.01, 298.81 268.79, 297.75 267.10 C 296.68 265.41, 293.38 265.32, 291.45 264.07 C 289.53 262.81, 287.92 261.32, 286.22 259.58 C 284.52 257.85, 282.72 255.84, 281.26 253.68 C 279.79 251.51, 278.99 248.54, 277.43 246.60 C 275.87 244.66, 273.94 243.34, 271.90 242.03 C 269.86 240.71, 267.49 239.86, 265.20 238.72 C 262.90 237.58, 260.25 235.17, 258.14 235.19 C 256.03 235.21, 254.59 237.75, 252.55 238.83 C 250.51 239.91, 247.99 241.87, 245.90 241.67 C 243.81 241.46, 241.57 239.45, 240.00 237.59 C 238.43 235.73, 235.96 232.63, 236.49 230.51 C 237.02 228.39, 240.91 226.50, 243.19 224.85 C 245.46 223.21, 247.75 221.49, 250.15 220.65 C 252.54 219.80, 255.08 219.65, 257.56 219.80 C 260.03 219.95, 262.63 220.61, 264.99 221.56 C 267.36 222.51, 269.53 224.14, 271.75 225.49 C 273.97 226.84, 276.08 228.45, 278.32 229.66 C 280.55 230.86, 283.35 231.00, 285.15 232.72 C 286.96 234.44, 287.94 237.63, 289.16 239.98 C 290.37 242.32, 290.83 244.63, 292.46 246.80 C 294.09 248.97, 296.97 252.73, 298.94 253.00 C 300.91 253.27, 303.25 250.30, 304.28 248.43 C 305.32 246.55, 305.02 243.90, 305.14 241.77 C 305.26 239.64, 305.55 237.63, 305.00 235.64 C 304.44 233.64, 302.75 231.79, 301.79 229.79 C 300.84 227.79, 300.48 225.66, 299.24 223.65 C 298.01 221.63, 296.36 219.17, 294.41 217.68 C 292.46 216.20, 289.84 215.48, 287.53 214.72 C 285.22 213.96, 282.39 213.90, 280.55 213.11 C 278.72 212.31, 277.89 211.01, 276.54 209.94 C 275.18 208.88, 272.26 208.39, 272.43 206.73 C 272.60 205.08, 275.45 201.81, 277.56 199.99 C 279.66 198.17, 282.50 195.98, 285.07 195.83 C 287.65 195.68, 290.61 197.81, 293.02 199.07 C 295.43 200.34, 297.33 202.14, 299.53 203.43 C 301.72 204.71, 304.26 205.27, 306.21 206.79 C 308.16 208.31, 310.03 210.55, 311.23 212.54 C 312.42 214.53, 312.53 216.57, 313.37 218.73 C 314.20 220.89, 315.38 223.16, 316.25 225.50 C 317.13 227.85, 318.12 230.45, 318.59 232.82 C 319.07 235.18, 319.03 237.29, 319.11 239.69 C 319.18 242.10, 319.59 244.79, 319.04 247.24 C 318.50 249.68, 317.07 252.17, 315.83 254.37 C 314.59 256.57, 312.26 258.26, 311.60 260.45 C 310.95 262.63, 311.81 265.05, 311.91 267.49 C 312.02 269.94, 311.95 272.70, 312.24 275.10 C 312.54 277.51, 313.20 279.57, 313.69 281.93 C 314.17 284.29, 314.69 286.87, 315.18 289.26 C 315.67 291.65, 316.16 293.97, 316.62 296.24 C 317.07 298.52, 317.28 300.68, 317.91 302.91 C 318.55 305.15, 319.28 307.77, 320.43 309.65 C 321.59 311.53, 323.34 312.57, 324.86 314.21 C 326.39 315.85, 328.00 317.71, 329.58 319.49 C 331.16 321.26, 333.34 322.86, 334.36 324.84 C 335.37 326.82, 335.28 329.16, 335.67 331.36 C 336.05 333.56, 336.62 335.66, 336.66 338.05 C 336.70 340.44, 335.50 343.57, 335.89 345.70 C 336.29 347.82, 337.66 349.05, 339.04 350.82 C 340.42 352.58, 342.69 354.57, 344.17 356.28 C 345.64 357.99, 346.84 359.26, 347.90 361.06 C 348.96 362.87, 349.76 364.87, 350.53 367.12 C 351.30 369.36, 351.10 373.03, 352.52 374.54 C 353.95 376.06, 357.17 376.41, 359.08 376.23 C 360.99 376.04, 362.85 375.14, 364.00 373.43 C 365.14 371.73, 365.52 368.36, 365.96 366.01 C 366.40 363.66, 367.15 361.25, 366.63 359.33 C 366.10 357.41, 364.27 356.05, 362.82 354.51 C 361.37 352.96, 359.53 351.69, 357.92 350.08 C 356.30 348.46, 354.30 346.75, 353.12 344.82 C 351.93 342.89, 351.26 340.71, 350.79 338.51 C 350.32 336.31, 350.57 333.98, 350.30 331.64 C 350.03 329.30, 349.49 326.80, 349.17 324.45 C 348.85 322.11, 349.21 319.50, 348.38 317.55 C 347.55 315.60, 345.84 314.38, 344.16 312.75 C 342.49 311.12, 340.04 309.60, 338.34 307.78 C 336.65 305.96, 335.13 303.80, 333.98 301.83 C 332.83 299.86, 332.07 298.16, 331.45 295.98 C 330.83 293.80, 330.76 291.11, 330.26 288.73 C 329.76 286.35, 328.96 284.03, 328.47 281.71 C 327.97 279.39, 327.60 277.16, 327.30 274.81 C 326.99 272.46, 326.34 269.77, 326.64 267.60 C 326.93 265.42, 328.10 263.87, 329.07 261.76 C 330.03 259.65, 331.47 257.13, 332.44 254.95 C 333.40 252.78, 334.55 250.75, 334.86 248.73 C 335.18 246.70, 334.64 244.94, 334.35 242.83 C 334.05 240.72, 333.31 238.32, 333.08 236.06 C 332.86 233.80, 333.14 231.55, 332.98 229.29 C 332.82 227.03, 332.85 224.86, 332.12 222.52 C 331.38 220.17, 329.57 217.65, 328.57 215.22 C 327.58 212.79, 326.83 210.35, 326.13 207.93 C 325.44 205.51, 324.07 203.04, 324.38 200.70 C 324.70 198.36, 326.26 195.08, 328.02 193.88 C 329.78 192.68, 332.41 193.91, 334.92 193.50 C 337.44 193.09, 340.89 192.55, 343.11 191.43 C 345.33 190.30, 348.05 188.52, 348.26 186.78 C 348.47 185.04, 345.98 182.18, 344.38 180.99 C 342.77 179.80, 340.48 180.01, 338.62 179.63 C 336.76 179.24, 335.19 179.33, 333.21 178.69 C 331.23 178.05, 327.27 177.60, 326.74 175.81 C 326.21 174.02, 328.49 170.24, 330.01 167.97 C 331.53 165.71, 333.74 162.46, 335.86 162.21 C 337.99 161.97, 340.35 165.26, 342.76 166.51 C 345.18 167.75, 348.56 170.19, 350.36 169.69 C 352.17 169.19, 353.41 165.90, 353.58 163.51 C 353.75 161.11, 352.37 157.66, 351.36 155.33 C 350.36 153.01, 347.03 151.25, 347.57 149.55 C 348.10 147.84, 353.10 147.07, 354.59 145.11 C 356.08 143.15, 356.24 140.37, 356.54 137.77 C 356.83 135.17, 355.95 131.98, 356.38 129.51 C 356.81 127.05, 358.00 124.99, 359.13 122.96 C 360.27 120.93, 362.05 119.34, 363.21 117.35 C 364.37 115.37, 364.70 112.76, 366.10 111.03 C 367.50 109.30, 369.60 108.31, 371.61 106.97 C 373.63 105.63, 375.81 103.21, 378.19 102.98 C 380.58 102.75, 384.87 103.90, 385.92 105.59 C 386.97 107.29, 385.48 110.82, 384.49 113.14 C 383.49 115.47, 381.34 117.58, 379.97 119.55 C 378.59 121.51, 377.43 123.05, 376.25 124.94 C 375.06 126.83, 373.67 128.71, 372.83 130.89 C 372.00 133.06, 371.63 135.76, 371.24 137.98 C 370.84 140.20, 370.57 141.97, 370.47 144.20 C 370.37 146.43, 371.47 149.56, 370.61 151.37 C 369.76 153.17, 366.07 153.28, 365.34 155.02 C 364.62 156.75, 365.82 159.35, 366.26 161.76 C 366.70 164.17, 368.18 167.27, 367.98 169.47 C 367.79 171.67, 366.35 173.32, 365.08 174.95 C 363.81 176.58, 360.97 177.35, 360.35 179.23 C 359.73 181.12, 361.10 183.93, 361.38 186.25 C 361.66 188.57, 361.86 190.79, 362.06 193.16 C 362.25 195.52, 363.63 199.05, 362.54 200.42 C 361.45 201.79, 357.83 201.11, 355.50 201.38 C 353.17 201.66, 350.99 201.51, 348.58 202.07 C 346.17 202.62, 342.24 203.20, 341.07 204.71 C 339.89 206.21, 340.91 209.01, 341.55 211.12 C 342.19 213.22, 343.08 216.47, 344.90 217.34 C 346.73 218.21, 350.08 216.62, 352.50 216.34 C 354.92 216.06, 357.90 214.59, 359.41 215.67 C 360.91 216.75, 361.27 220.47, 361.54 222.82 C 361.81 225.17, 362.19 228.49, 361.05 229.75 C 359.91 231.02, 357.12 230.33, 354.69 230.41 C 352.26 230.49, 347.77 229.09, 346.48 230.25 C 345.19 231.41, 346.20 235.15, 346.95 237.36 C 347.70 239.57, 349.66 241.62, 351.00 243.51 C 352.34 245.40, 355.15 247.04, 354.97 248.69 C 354.78 250.33, 351.40 251.75, 349.88 253.39 C 348.37 255.04, 346.93 256.85, 345.87 258.54 C 344.81 260.23, 344.27 261.65, 343.54 263.55 C 342.80 265.45, 341.81 267.80, 341.44 269.92 C 341.08 272.04, 340.97 274.19, 341.35 276.27 C 341.73 278.35, 343.15 280.37, 343.70 282.42 C 344.25 284.46, 344.25 286.51, 344.64 288.52 C 345.03 290.54, 345.28 292.56, 346.05 294.49 C 346.82 296.43, 347.71 298.58, 349.25 300.13 C 350.79 301.68, 353.45 304.08, 355.29 303.78 C 357.12 303.48, 359.08 300.19, 360.27 298.35 C 361.47 296.50, 362.35 294.68, 362.43 292.71 C 362.52 290.75, 361.49 288.44, 360.79 286.55 C 360.09 284.66, 358.90 283.33, 358.24 281.38 C 357.58 279.42, 356.78 276.82, 356.82 274.81 C 356.86 272.81, 357.72 271.15, 358.47 269.33 C 359.22 267.51, 360.15 265.48, 361.30 263.88 C 362.46 262.29, 363.65 260.76, 365.42 259.76 C 367.19 258.75, 370.01 258.88, 371.92 257.86 C 373.83 256.85, 376.86 255.44, 376.89 253.68 C 376.91 251.91, 373.62 249.18, 372.08 247.28 C 370.54 245.38, 367.40 243.77, 367.64 242.25 C 367.87 240.74, 371.67 239.70, 373.48 238.20 C 375.29 236.69, 377.81 235.10, 378.50 233.22 C 379.19 231.33, 377.94 228.98, 377.60 226.89 C 377.25 224.79, 377.01 222.68, 376.43 220.65 C 375.86 218.63, 374.32 216.59, 374.15 214.74 C 373.98 212.88, 374.32 211.14, 375.41 209.51 C 376.50 207.88, 380.06 206.79, 380.67 204.96 C 381.29 203.13, 379.74 200.65, 379.09 198.54 C 378.45 196.43, 377.24 194.38, 376.81 192.31 C 376.37 190.23, 375.68 187.83, 376.47 186.08 C 377.26 184.34, 379.88 183.30, 381.57 181.84 C 383.25 180.38, 386.22 179.15, 386.58 177.33 C 386.94 175.51, 384.53 173.06, 383.74 170.94 C 382.95 168.81, 381.40 166.33, 381.83 164.58 C 382.26 162.82, 385.18 162.14, 386.34 160.43 C 387.50 158.73, 388.77 156.36, 388.79 154.33 C 388.81 152.31, 386.84 150.32, 386.44 148.30 C 386.03 146.28, 386.17 144.24, 386.36 142.22 C 386.56 140.21, 386.79 138.24, 387.61 136.23 C 388.44 134.23, 390.26 132.21, 391.33 130.19 C 392.40 128.16, 393.12 126.16, 394.02 124.07 C 394.92 121.99, 395.50 119.72, 396.74 117.66 C 397.98 115.60, 399.54 112.34, 401.47 111.72 C 403.40 111.11, 406.80 112.50, 408.31 113.96 C 409.82 115.43, 410.67 118.30, 410.52 120.51 C 410.37 122.71, 408.35 125.16, 407.40 127.21 C 406.45 129.26, 405.72 130.89, 404.80 132.82 C 403.89 134.75, 402.51 136.79, 401.90 138.80 C 401.29 140.82, 401.06 142.82, 401.12 144.91 C 401.18 147.00, 401.81 149.13, 402.26 151.32 C 402.72 153.52, 403.93 156.02, 403.87 158.11 C 403.80 160.19, 402.83 161.99, 401.87 163.86 C 400.91 165.73, 398.17 167.41, 398.11 169.32 C 398.05 171.23, 400.36 173.23, 401.49 175.31 C 402.62 177.39, 405.18 180.05, 404.88 181.81 C 404.59 183.57, 401.50 184.61, 399.69 185.88 C 397.88 187.15, 395.24 187.87, 394.00 189.44 C 392.76 191.01, 392.10 193.24, 392.23 195.29 C 392.37 197.34, 394.06 199.62, 394.80 201.73 C 395.53 203.84, 396.99 206.18, 396.65 207.96 C 396.31 209.73, 393.97 210.66, 392.75 212.36 C 391.53 214.06, 389.39 216.20, 389.33 218.14 C 389.27 220.09, 391.56 222.14, 392.39 224.02 C 393.21 225.91, 393.67 227.59, 394.28 229.47 C 394.88 231.36, 396.72 233.60, 396.02 235.35 C 395.33 237.09, 391.69 238.30, 390.12 239.97 C 388.54 241.63, 386.24 243.64, 386.57 245.33 C 386.90 247.03, 390.43 248.54, 392.10 250.13 C 393.77 251.72, 396.49 253.18, 396.58 254.85 C 396.66 256.53, 394.18 258.69, 392.62 260.19 C 391.05 261.69, 388.88 262.64, 387.18 263.85 C 385.49 265.06, 384.21 266.35, 382.47 267.46 C 380.72 268.57, 378.48 269.32, 376.72 270.51 C 374.97 271.70, 372.48 272.85, 371.93 274.60 C 371.38 276.36, 372.61 279.06, 373.41 281.02 C 374.21 282.97, 376.21 284.43, 376.74 286.33 C 377.26 288.23, 376.84 290.45, 376.57 292.44 C 376.30 294.42, 375.64 296.23, 375.11 298.24 C 374.58 300.25, 374.38 302.65, 373.41 304.49 C 372.43 306.34, 370.92 307.79, 369.26 309.30 C 367.60 310.81, 364.64 311.91, 363.46 313.56 C 362.28 315.20, 362.34 317.20, 362.20 319.15 C 362.07 321.10, 362.56 323.12, 362.65 325.23 C 362.74 327.34, 362.26 329.54, 362.75 331.82 C 363.25 334.09, 364.28 336.77, 365.61 338.87 C 366.94 340.96, 369.09 344.38, 370.72 344.37 C 372.34 344.36, 374.20 340.91, 375.35 338.80 C 376.49 336.69, 377.23 333.91, 377.58 331.71 C 377.93 329.52, 377.13 327.59, 377.46 325.66 C 377.79 323.72, 378.52 321.84, 379.55 320.11 C 380.58 318.38, 382.46 316.94, 383.63 315.28 C 384.80 313.61, 385.74 311.91, 386.58 310.12 C 387.42 308.33, 387.94 306.53, 388.65 304.54 C 389.35 302.54, 390.11 300.12, 390.80 298.18 C 391.49 296.24, 392.59 294.81, 392.81 292.91 C 393.04 291.00, 392.61 288.84, 392.15 286.76 C 391.69 284.69, 389.41 282.03, 390.05 280.46 C 390.70 278.89, 394.23 278.51, 396.02 277.33 C 397.82 276.16, 399.37 274.77, 400.84 273.41 C 402.30 272.04, 403.51 270.60, 404.81 269.13 C 406.12 267.65, 407.36 266.13, 408.66 264.55 C 409.96 262.96, 411.83 261.46, 412.60 259.62 C 413.37 257.78, 413.62 255.58, 413.30 253.51 C 412.99 251.45, 411.52 249.13, 410.70 247.22 C 409.88 245.31, 407.75 243.56, 408.36 242.03 C 408.98 240.51, 412.91 239.80, 414.40 238.08 C 415.89 236.35, 417.64 233.63, 417.30 231.69 C 416.96 229.76, 414.04 227.96, 412.37 226.48 C 410.69 225.01, 407.70 224.42, 407.27 222.84 C 406.84 221.27, 408.85 219.03, 409.77 217.04 C 410.70 215.05, 412.31 212.93, 412.82 210.91 C 413.32 208.88, 413.36 207.00, 412.81 204.90 C 412.25 202.80, 409.31 200.23, 409.49 198.32 C 409.67 196.41, 411.99 194.60, 413.86 193.42 C 415.74 192.24, 418.71 192.52, 420.74 191.23 C 422.76 189.94, 425.33 187.55, 426.01 185.69 C 426.70 183.83, 426.14 181.74, 424.86 180.09 C 423.57 178.43, 419.70 177.41, 418.31 175.76 C 416.91 174.11, 415.69 171.99, 416.48 170.20 C 417.27 168.42, 421.85 166.85, 423.05 165.05 C 424.24 163.25, 424.26 161.19, 423.65 159.42 C 423.04 157.66, 420.39 156.29, 419.41 154.46 C 418.42 152.63, 418.13 150.30, 417.73 148.43 C 417.33 146.56, 416.94 145.30, 417.02 143.25 C 417.11 141.19, 417.61 138.36, 418.25 136.08 C 418.88 133.80, 419.49 130.22, 420.85 129.54 C 422.20 128.86, 424.74 130.56, 426.38 132.02 C 428.02 133.48, 429.61 136.29, 430.68 138.27 C 431.75 140.26, 432.12 142.07, 432.81 143.94 C 433.49 145.80, 434.00 147.64, 434.77 149.46 C 435.54 151.28, 436.48 153.12, 437.41 154.85 C 438.35 156.58, 440.19 157.94, 440.39 159.82 C 440.58 161.70, 439.43 164.14, 438.57 166.13 C 437.71 168.12, 434.91 169.96, 435.23 171.77 C 435.56 173.58, 439.29 175.14, 440.52 176.98 C 441.75 178.83, 442.60 180.82, 442.62 182.86 C 442.64 184.90, 441.59 187.17, 440.66 189.23 C 439.72 191.28, 438.34 193.47, 437.00 195.20 C 435.66 196.93, 434.34 198.28, 432.61 199.62 C 430.89 200.96, 427.40 201.62, 426.64 203.23 C 425.89 204.85, 428.15 207.12, 428.10 209.32 C 428.04 211.52, 426.64 214.27, 426.32 216.41 C 426.01 218.56, 425.20 220.54, 426.20 222.18 C 427.21 223.82, 431.09 224.58, 432.35 226.24 C 433.61 227.91, 433.92 230.17, 433.76 232.18 C 433.61 234.18, 432.47 236.42, 431.40 238.27 C 430.32 240.11, 428.25 241.48, 427.31 243.25 C 426.36 245.02, 425.54 246.85, 425.73 248.86 C 425.92 250.88, 427.87 253.22, 428.46 255.35 C 429.04 257.48, 429.82 259.71, 429.26 261.63 C 428.71 263.54, 426.42 265.10, 425.12 266.83 C 423.81 268.57, 422.83 270.33, 421.44 272.04 C 420.05 273.76, 418.41 275.44, 416.79 277.12 C 415.18 278.79, 413.32 280.38, 411.76 282.07 C 410.20 283.77, 408.20 285.39, 407.43 287.29 C 406.66 289.18, 407.48 291.23, 407.15 293.44 C 406.81 295.66, 406.27 298.35, 405.43 300.57 C 404.59 302.79, 403.03 304.66, 402.11 306.76 C 401.19 308.87, 400.80 311.12, 399.90 313.21 C 399.00 315.31, 397.81 317.27, 396.69 319.35 C 395.57 321.42, 394.20 323.53, 393.19 325.68 C 392.18 327.83, 391.34 329.90, 390.63 332.23 C 389.93 334.56, 389.81 337.44, 388.96 339.66 C 388.10 341.88, 386.68 343.50, 385.53 345.54 C 384.38 347.58, 383.01 349.91, 382.03 351.89 C 381.05 353.88, 380.08 355.30, 379.67 357.46 C 379.26 359.62, 379.80 362.50, 379.57 364.84 C 379.34 367.18, 378.85 369.31, 378.31 371.50 C 377.77 373.70, 377.00 375.97, 376.33 377.99 C 375.66 380.02, 374.18 381.52, 374.29 383.66 C 374.39 385.81, 375.64 389.09, 376.96 390.87 C 378.28 392.65, 380.26 394.48, 382.20 394.33 C 384.15 394.18, 387.03 391.63, 388.64 389.98 C 390.25 388.34, 391.41 386.60, 391.85 384.48 C 392.30 382.36, 391.11 379.53, 391.28 377.27 C 391.46 375.01, 392.36 373.16, 392.88 370.94 C 393.39 368.73, 393.86 366.32, 394.36 363.96 C 394.86 361.60, 395.07 359.04, 395.87 356.81 C 396.66 354.58, 398.10 352.79, 399.15 350.58 C 400.20 348.37, 401.20 345.80, 402.16 343.53 C 403.13 341.26, 404.07 339.18, 404.91 336.97 C 405.76 334.76, 406.31 332.51, 407.23 330.27 C 408.15 328.03, 409.40 325.74, 410.42 323.55 C 411.44 321.37, 412.30 319.28, 413.36 317.16 C 414.41 315.04, 415.67 312.97, 416.74 310.84 C 417.82 308.71, 418.96 306.55, 419.81 304.38 C 420.67 302.21, 421.06 299.92, 421.86 297.82 C 422.66 295.72, 423.39 293.69, 424.62 291.78 C 425.85 289.87, 427.82 288.16, 429.24 286.35 C 430.67 284.53, 431.74 282.65, 433.17 280.90 C 434.60 279.15, 436.43 277.56, 437.82 275.86 C 439.21 274.16, 440.15 272.44, 441.53 270.68 C 442.92 268.92, 445.66 267.32, 446.13 265.32 C 446.60 263.32, 444.95 260.86, 444.38 258.67 C 443.80 256.49, 442.55 254.30, 442.69 252.22 C 442.82 250.13, 444.24 248.30, 445.20 246.17 C 446.16 244.05, 447.60 241.65, 448.44 239.47 C 449.29 237.29, 450.24 235.45, 450.26 233.09 C 450.27 230.73, 449.13 227.64, 448.54 225.30 C 447.94 222.96, 447.50 220.95, 446.69 219.03 C 445.88 217.10, 443.72 215.61, 443.66 213.76 C 443.61 211.92, 445.23 210.03, 446.34 207.96 C 447.45 205.89, 448.81 203.40, 450.32 201.34 C 451.84 199.28, 454.01 197.60, 455.43 195.59 C 456.85 193.58, 458.31 191.55, 458.84 189.25 C 459.37 186.96, 458.59 184.39, 458.59 181.83 C 458.60 179.27, 459.49 176.14, 458.87 173.87 C 458.26 171.61, 455.16 170.36, 454.90 168.26 C 454.64 166.16, 457.14 163.61, 457.31 161.29 C 457.48 158.96, 456.45 156.48, 455.90 154.30 C 455.35 152.12, 454.85 150.07, 454.02 148.21 C 453.19 146.35, 452.04 144.84, 450.93 143.16 C 449.83 141.47, 448.50 139.89, 447.39 138.11 C 446.28 136.33, 445.44 134.31, 444.29 132.45 C 443.15 130.59, 441.88 128.74, 440.51 126.96 C 439.14 125.19, 437.62 123.29, 436.09 121.79 C 434.55 120.29, 433.10 119.18, 431.28 117.96 C 429.46 116.73, 426.85 116.17, 425.17 114.41 C 423.48 112.65, 420.99 109.63, 421.20 107.38 C 421.41 105.13, 424.32 101.85, 426.42 100.92 C 428.53 99.98, 431.67 100.83, 433.83 101.78 C 435.99 102.73, 437.46 104.83, 439.36 106.62 C 441.27 108.42, 443.34 110.71, 445.25 112.55 C 447.16 114.40, 449.11 115.80, 450.83 117.71 C 452.55 119.62, 454.11 122.04, 455.57 124.03 C 457.03 126.02, 458.14 127.70, 459.58 129.63 C 461.01 131.57, 462.75 133.63, 464.17 135.63 C 465.60 137.62, 467.20 139.35, 468.13 141.60 C 469.06 143.85, 469.17 146.74, 469.77 149.13 C 470.36 151.51, 471.30 153.40, 471.68 155.92 C 472.07 158.43, 471.66 161.63, 472.05 164.21 C 472.44 166.79, 473.82 169.04, 474.02 171.41 C 474.23 173.79, 473.50 175.99, 473.30 178.46 C 473.10 180.93, 472.53 183.75, 472.81 186.25 C 473.10 188.74, 475.29 191.25, 475.01 193.45 C 474.72 195.65, 472.62 197.56, 471.11 199.43 C 469.59 201.30, 467.59 202.85, 465.93 204.68 C 464.26 206.51, 461.90 208.35, 461.11 210.41 C 460.32 212.47, 460.92 214.80, 461.19 217.04 C 461.45 219.28, 462.16 221.42, 462.68 223.83 C 463.20 226.24, 464.05 229.13, 464.30 231.49 C 464.55 233.85, 464.63 235.73, 464.17 238.00 C 463.72 240.26, 462.45 242.87, 461.57 245.11 C 460.69 247.34, 459.44 249.18, 458.89 251.40 C 458.34 253.63, 457.54 256.60, 458.27 258.46 C 459.01 260.32, 461.07 261.94, 463.32 262.56 C 465.56 263.19, 469.73 263.20, 471.72 262.21 C 473.71 261.22, 474.62 258.60, 475.27 256.61 C 475.92 254.63, 475.11 252.36, 475.63 250.30 C 476.16 248.25, 477.33 246.23, 478.44 244.28 C 479.55 242.33, 482.04 240.54, 482.29 238.61 C 482.55 236.68, 480.80 234.80, 479.98 232.70 C 479.15 230.59, 478.04 228.33, 477.33 226.00 C 476.63 223.66, 475.33 221.04, 475.76 218.66 C 476.18 216.28, 478.00 213.23, 479.87 211.71 C 481.73 210.19, 485.39 208.80, 486.97 209.53 C 488.56 210.27, 488.86 214.04, 489.38 216.13 C 489.91 218.22, 489.70 220.00, 490.11 222.05 C 490.53 224.11, 490.63 227.14, 491.87 228.46 C 493.10 229.77, 495.64 230.33, 497.51 229.94 C 499.38 229.56, 501.98 227.98, 503.09 226.15 C 504.20 224.32, 503.96 221.40, 504.17 218.97 C 504.38 216.55, 503.19 211.98, 504.33 211.59 C 505.47 211.21, 508.76 215.84, 511.04 216.64 C 513.31 217.45, 516.30 217.26, 517.96 216.44 C 519.62 215.61, 519.38 212.71, 521.01 211.67 C 522.65 210.64, 525.55 211.03, 527.78 210.23 C 530.02 209.42, 532.20 206.63, 534.42 206.85 C 536.65 207.07, 539.58 209.72, 541.13 211.52 C 542.69 213.33, 544.26 215.62, 543.78 217.70 C 543.30 219.78, 539.85 222.11, 538.26 224.02 C 536.68 225.92, 536.14 228.54, 534.27 229.13 C 532.41 229.72, 529.35 227.29, 527.07 227.58 C 524.79 227.87, 522.73 229.92, 520.58 230.87 C 518.43 231.81, 516.09 231.94, 514.15 233.25 C 512.20 234.56, 511.05 237.29, 508.93 238.71 C 506.80 240.14, 503.67 240.93, 501.41 241.79 C 499.14 242.65, 496.92 242.50, 495.35 243.89 C 493.78 245.28, 492.78 248.09, 491.98 250.12 C 491.17 252.16, 491.12 253.88, 490.51 256.09 C 489.90 258.31, 489.19 261.22, 488.31 263.41 C 487.43 265.61, 486.64 267.51, 485.25 269.26 C 483.87 271.02, 481.84 272.61, 480.01 273.96 C 478.17 275.30, 476.36 276.92, 474.23 277.33 C 472.09 277.74, 469.55 276.88, 467.17 276.43 C 464.80 275.98, 462.13 274.57, 459.95 274.63 C 457.78 274.69, 455.74 275.38, 454.12 276.78 C 452.50 278.18, 451.60 281.15, 450.22 283.04 C 448.84 284.94, 447.31 286.34, 445.83 288.15 C 444.36 289.96, 442.80 291.99, 441.37 293.89 C 439.94 295.78, 438.50 297.48, 437.25 299.51 C 436.00 301.53, 434.93 303.87, 433.89 306.02 C 432.84 308.16, 432.05 310.24, 430.99 312.37 C 429.93 314.49, 428.57 316.63, 427.53 318.78 C 426.49 320.93, 425.83 323.11, 424.77 325.27 C 423.71 327.42, 422.17 329.61, 421.18 331.71 C 420.19 333.82, 419.72 335.71, 418.84 337.88 C 417.97 340.06, 416.89 342.47, 415.94 344.74 C 415.00 347.00, 414.13 349.31, 413.19 351.48 C 412.24 353.65, 411.05 355.68, 410.28 357.76 C 409.51 359.84, 409.10 361.88, 408.55 363.96 C 408.00 366.03, 407.51 368.08, 407.00 370.20 C 406.49 372.31, 405.77 374.37, 405.49 376.65 C 405.22 378.92, 404.38 382.02, 405.36 383.86 C 406.34 385.70, 409.15 387.27, 411.39 387.70 C 413.62 388.13, 417.12 387.63, 418.77 386.45 C 420.43 385.27, 420.85 382.69, 421.31 380.60 C 421.78 378.51, 421.23 376.16, 421.56 373.91 C 421.89 371.66, 422.75 369.27, 423.30 367.09 C 423.84 364.92, 424.14 363.11, 424.83 360.86 C 425.51 358.61, 426.58 355.95, 427.41 353.59 C 428.25 351.22, 428.85 348.93, 429.84 346.66 C 430.84 344.38, 432.25 342.21, 433.40 339.94 C 434.54 337.67, 435.62 335.23, 436.70 333.02 C 437.78 330.81, 438.69 328.82, 439.86 326.69 C 441.03 324.56, 442.59 322.27, 443.71 320.26 C 444.82 318.25, 445.52 316.55, 446.55 314.62 C 447.58 312.68, 448.59 310.56, 449.88 308.65 C 451.16 306.74, 452.93 305.09, 454.25 303.15 C 455.57 301.21, 456.34 299.03, 457.80 297.04 C 459.26 295.06, 460.85 292.05, 463.03 291.25 C 465.21 290.46, 469.32 290.97, 470.88 292.28 C 472.44 293.58, 472.64 296.67, 472.40 299.07 C 472.17 301.47, 470.56 304.56, 469.47 306.69 C 468.37 308.81, 467.10 310.03, 465.82 311.85 C 464.55 313.67, 463.09 315.64, 461.80 317.62 C 460.52 319.60, 459.36 321.79, 458.09 323.73 C 456.83 325.67, 455.47 327.31, 454.20 329.27 C 452.92 331.22, 451.52 333.47, 450.44 335.47 C 449.35 337.47, 448.72 339.26, 447.71 341.26 C 446.70 343.25, 445.44 345.42, 444.35 347.45 C 443.26 349.48, 441.98 351.42, 441.16 353.44 C 440.33 355.47, 440.04 357.54, 439.40 359.61 C 438.76 361.69, 437.88 363.82, 437.30 365.91 C 436.73 368.00, 436.39 370.07, 435.95 372.15 C 435.51 374.23, 434.87 376.41, 434.65 378.40 C 434.43 380.39, 433.78 382.55, 434.64 384.09 C 435.50 385.63, 437.83 386.32, 439.81 387.64 C 441.79 388.96, 444.40 391.55, 446.52 392.03 C 448.63 392.51, 451.55 391.62, 452.50 390.51 C 453.45 389.39, 452.47 387.35, 452.24 385.33 C 452.00 383.31, 451.29 380.33, 451.07 378.39 C 450.85 376.44, 450.74 375.52, 450.91 373.64 C 451.07 371.75, 451.48 369.13, 452.04 367.07 C 452.61 365.01, 453.63 363.33, 454.29 361.28 C 454.96 359.22, 455.12 356.75, 456.01 354.75 C 456.90 352.74, 458.43 351.25, 459.64 349.25 C 460.84 347.25, 462.00 344.73, 463.22 342.74 C 464.44 340.74, 465.74 339.13, 466.97 337.26 C 468.19 335.39, 469.22 333.37, 470.56 331.54 C 471.91 329.71, 473.67 327.93, 475.04 326.29 C 476.42 324.65, 477.59 323.48, 478.84 321.69 C 480.09 319.91, 481.59 317.66, 482.55 315.58 C 483.51 313.49, 483.95 311.31, 484.59 309.18 C 485.24 307.05, 485.91 305.02, 486.41 302.81 C 486.92 300.60, 487.62 298.20, 487.60 295.90 C 487.58 293.59, 485.65 290.78, 486.31 288.99 C 486.96 287.20, 489.88 286.60, 491.54 285.14 C 493.20 283.68, 494.53 281.88, 496.29 280.21 C 498.04 278.54, 500.97 277.04, 502.05 275.13 C 503.13 273.22, 502.28 270.98, 502.76 268.74 C 503.23 266.50, 504.06 263.86, 504.90 261.67 C 505.74 259.47, 506.24 257.27, 507.78 255.57 C 509.32 253.87, 511.93 252.60, 514.13 251.47 C 516.33 250.33, 518.73 249.71, 520.97 248.78 C 523.22 247.85, 525.23 246.43, 527.62 245.89 C 530.01 245.35, 533.25 244.64, 535.30 245.55 C 537.36 246.47, 539.00 249.22, 539.96 251.37 C 540.92 253.52, 542.02 256.62, 541.08 258.45 C 540.13 260.28, 536.67 261.74, 534.29 262.36 C 531.92 262.98, 529.26 261.74, 526.85 262.14 C 524.43 262.55, 521.46 263.29, 519.81 264.81 C 518.17 266.32, 517.36 268.99, 516.98 271.24 C 516.59 273.49, 517.57 276.01, 517.50 278.32 C 517.43 280.62, 517.72 283.43, 516.56 285.06 C 515.40 286.69, 512.57 287.03, 510.53 288.10 C 508.49 289.18, 505.86 289.91, 504.33 291.51 C 502.79 293.11, 501.98 295.57, 501.32 297.69 C 500.66 299.80, 500.75 301.98, 500.39 304.20 C 500.03 306.43, 499.79 308.76, 499.17 311.03 C 498.55 313.31, 497.40 315.70, 496.67 317.85 C 495.95 320.01, 495.52 322.01, 494.81 323.95 C 494.11 325.89, 493.42 327.82, 492.42 329.49 C 491.42 331.16, 490.21 332.47, 488.82 333.96 C 487.43 335.45, 485.65 336.88, 484.08 338.43 C 482.51 339.97, 480.77 341.50, 479.40 343.24 C 478.03 344.98, 477.16 346.98, 475.88 348.87 C 474.61 350.75, 472.99 352.60, 471.75 354.55 C 470.50 356.51, 469.31 358.51, 468.43 360.59 C 467.55 362.67, 466.92 364.89, 466.44 367.02 C 465.97 369.15, 465.91 371.31, 465.60 373.38 C 465.30 375.44, 464.65 377.17, 464.60 379.42 C 464.54 381.66, 464.31 385.00, 465.25 386.86 C 466.20 388.72, 468.32 390.46, 470.25 390.56 C 472.17 390.67, 475.16 389.07, 476.80 387.49 C 478.44 385.92, 479.46 383.30, 480.08 381.12 C 480.70 378.94, 480.34 376.64, 480.51 374.40 C 480.68 372.15, 480.37 369.85, 481.11 367.65 C 481.84 365.45, 483.55 363.19, 484.95 361.20 C 486.35 359.21, 488.11 357.51, 489.50 355.73 C 490.89 353.96, 491.73 352.05, 493.28 350.56 C 494.83 349.06, 497.11 348.14, 498.78 346.76 C 500.45 345.38, 501.87 343.98, 503.30 342.30 C 504.73 340.61, 506.32 338.68, 507.36 336.67 C 508.41 334.66, 508.90 332.38, 509.56 330.25 C 510.23 328.11, 510.84 326.13, 511.35 323.85 C 511.86 321.56, 512.05 318.90, 512.61 316.53 C 513.17 314.17, 513.88 311.82, 514.70 309.66 C 515.52 307.49, 516.20 305.26, 517.50 303.54 C 518.80 301.83, 520.55 300.61, 522.48 299.39 C 524.40 298.16, 527.30 297.73, 529.05 296.20 C 530.80 294.67, 532.43 292.51, 532.99 290.19 C 533.56 287.88, 531.71 284.31, 532.44 282.31 C 533.18 280.30, 535.42 279.25, 537.40 278.15 C 539.38 277.06, 542.29 276.96, 544.34 275.74 C 546.40 274.52, 547.69 272.39, 549.73 270.83 C 551.77 269.26, 554.85 268.19, 556.58 266.34 C 558.31 264.49, 560.03 262.08, 560.11 259.74 C 560.18 257.40, 557.88 254.83, 557.03 252.30 C 556.18 249.77, 556.14 246.99, 555.00 244.57 C 553.87 242.14, 550.59 240.07, 550.24 237.75 C 549.88 235.43, 551.53 232.88, 552.87 230.64 C 554.22 228.40, 556.09 224.88, 558.33 224.31 C 560.57 223.74, 564.63 225.49, 566.32 227.22 C 568.01 228.95, 567.87 232.07, 568.46 234.67 C 569.06 237.26, 569.28 240.28, 569.89 242.79 C 570.50 245.31, 571.20 247.33, 572.12 249.76 C 573.04 252.19, 574.83 254.83, 575.40 257.38 C 575.97 259.93, 575.98 262.66, 575.53 265.06 C 575.07 267.47, 574.10 269.94, 572.67 271.81 C 571.23 273.67, 568.93 274.76, 566.90 276.22 C 564.88 277.69, 562.58 279.04, 560.51 280.60 C 558.44 282.16, 556.42 284.09, 554.49 285.60 C 552.55 287.11, 550.32 287.95, 548.87 289.67 C 547.42 291.38, 546.47 293.63, 545.76 295.89 C 545.04 298.14, 545.75 301.40, 544.58 303.20 C 543.40 305.00, 540.75 305.51, 538.71 306.68 C 536.68 307.86, 534.10 308.82, 532.36 310.24 C 530.61 311.65, 529.35 313.19, 528.23 315.17 C 527.12 317.14, 526.25 319.81, 525.64 322.07 C 525.04 324.32, 524.98 326.54, 524.59 328.70 C 524.21 330.85, 523.63 332.80, 523.32 335.01 C 523.00 337.21, 523.48 340.13, 522.70 341.93 C 521.92 343.73, 519.98 344.26, 518.63 345.81 C 517.28 347.37, 515.56 349.47, 514.58 351.26 C 513.60 353.04, 513.98 355.22, 512.75 356.51 C 511.51 357.80, 508.98 358.06, 507.16 358.97 C 505.35 359.88, 503.41 360.60, 501.85 361.96 C 500.29 363.33, 499.05 365.56, 497.81 367.16 C 496.57 368.76, 495.30 369.63, 494.40 371.56 C 493.50 373.48, 492.18 376.71, 492.40 378.71 C 492.62 380.70, 493.95 382.53, 495.70 383.52 C 497.45 384.52, 500.80 385.38, 502.89 384.70 C 504.98 384.01, 506.82 381.17, 508.24 379.40 C 509.66 377.62, 509.97 375.23, 511.42 374.05 C 512.87 372.86, 515.00 372.82, 516.92 372.30 C 518.85 371.79, 521.46 372.16, 522.96 370.96 C 524.47 369.77, 525.05 367.06, 525.98 365.13 C 526.90 363.20, 527.39 361.22, 528.53 359.39 C 529.67 357.57, 531.00 355.51, 532.82 354.17 C 534.65 352.83, 538.41 353.02, 539.45 351.36 C 540.49 349.70, 539.26 346.46, 539.08 344.22 C 538.91 341.97, 538.33 340.10, 538.40 337.91 C 538.47 335.72, 539.00 333.34, 539.53 331.06 C 540.06 328.78, 540.32 325.96, 541.60 324.26 C 542.87 322.56, 545.09 321.82, 547.18 320.85 C 549.26 319.88, 551.82 319.18, 554.12 318.43 C 556.41 317.69, 559.97 318.04, 560.96 316.35 C 561.95 314.67, 560.02 310.79, 560.06 308.30 C 560.10 305.81, 560.19 303.48, 561.21 301.40 C 562.23 299.31, 564.33 297.41, 566.17 295.78 C 568.01 294.15, 570.25 293.09, 572.26 291.64 C 574.27 290.19, 576.21 288.58, 578.24 287.06 C 580.28 285.54, 582.27 282.97, 584.47 282.50 C 586.68 282.04, 589.78 282.83, 591.47 284.28 C 593.16 285.73, 594.05 288.93, 594.62 291.20 C 595.19 293.47, 596.11 296.38, 594.89 297.91 C 593.68 299.45, 589.76 299.46, 587.34 300.40 C 584.91 301.34, 582.47 302.10, 580.35 303.54 C 578.22 304.99, 575.51 306.83, 574.58 309.05 C 573.64 311.26, 573.33 315.23, 574.74 316.82 C 576.16 318.42, 580.52 318.54, 583.07 318.61 C 585.61 318.68, 587.69 318.00, 590.02 317.25 C 592.34 316.51, 594.65 315.26, 597.03 314.13 C 599.42 313.00, 601.93 310.61, 604.31 310.45 C 606.69 310.30, 608.87 312.25, 611.32 313.22 C 613.76 314.18, 617.41 314.31, 619.00 316.25 C 620.59 318.19, 621.14 322.30, 620.86 324.87 C 620.58 327.43, 619.23 330.81, 617.32 331.63 C 615.41 332.45, 611.87 330.52, 609.41 329.78 C 606.95 329.05, 604.87 327.03, 602.55 327.21 C 600.23 327.39, 597.88 329.99, 595.51 330.86 C 593.15 331.73, 590.86 332.17, 588.35 332.45 C 585.83 332.72, 582.98 332.78, 580.43 332.50 C 577.87 332.22, 575.46 331.19, 573.03 330.74 C 570.61 330.29, 568.21 329.59, 565.89 329.80 C 563.57 330.01, 561.21 331.04, 559.11 331.99 C 557.01 332.95, 554.47 333.68, 553.29 335.54 C 552.11 337.39, 551.89 340.77, 552.04 343.14 C 552.20 345.50, 552.50 348.67, 554.22 349.73 C 555.94 350.80, 559.97 350.06, 562.35 349.53 C 564.73 349.00, 566.21 347.04, 568.51 346.55 C 570.82 346.07, 573.70 346.39, 576.17 346.64 C 578.64 346.89, 580.87 347.82, 583.33 348.05 C 585.79 348.28, 588.48 348.25, 590.93 348.01 C 593.37 347.77, 595.61 346.96, 597.99 346.60 C 600.38 346.23, 602.74 345.81, 605.24 345.80 C 607.74 345.80, 610.42 346.00, 613.00 346.55 C 615.59 347.11, 619.36 347.38, 620.76 349.13 C 622.15 350.88, 622.00 354.72, 621.37 357.05 C 620.73 359.39, 619.11 362.42, 616.96 363.15 C 614.80 363.88, 611.14 361.77, 608.42 361.43 C 605.70 361.09, 603.16 361.07, 600.64 361.11 C 598.12 361.15, 595.86 361.50, 593.31 361.68 C 590.75 361.86, 587.81 362.24, 585.30 362.18 C 582.80 362.13, 580.72 361.35, 578.27 361.34 C 575.82 361.34, 572.99 361.75, 570.59 362.16 C 568.18 362.58, 566.07 363.29, 563.84 363.83 C 561.60 364.37, 559.42 365.56, 557.19 365.41 C 554.96 365.26, 552.67 363.16, 550.44 362.93 C 548.20 362.69, 545.51 362.94, 543.77 363.99 C 542.02 365.05, 541.07 367.43, 539.95 369.25 C 538.83 371.06, 538.02 372.85, 537.04 374.87 C 536.07 376.89, 535.16 379.56, 534.09 381.36 C 533.02 383.16, 532.33 384.85, 530.64 385.67 C 528.94 386.48, 525.95 385.91, 523.92 386.25 C 521.88 386.59, 520.40 386.71, 518.43 387.70 C 516.46 388.69, 513.03 390.38, 512.08 392.18 C 511.14 393.98, 511.93 396.74, 512.77 398.50 C 513.61 400.26, 515.20 401.93, 517.13 402.75 C 519.06 403.57, 522.17 403.47, 524.33 403.43 C 526.49 403.39, 528.19 403.06, 530.11 402.52 C 532.03 401.99, 533.97 401.06, 535.85 400.20 C 537.73 399.34, 539.71 398.73, 541.39 397.36 C 543.07 395.99, 544.46 393.72, 545.90 391.98 C 547.35 390.25, 549.14 388.98, 550.08 386.95 C 551.01 384.92, 550.06 380.81, 551.53 379.82 C 552.99 378.83, 556.51 381.01, 558.87 381.00 C 561.22 381.00, 563.42 380.25, 565.64 379.79 C 567.86 379.32, 569.89 378.65, 572.18 378.20 C 574.48 377.76, 577.01 377.26, 579.41 377.12 C 581.82 376.98, 584.20 377.30, 586.62 377.34 C 589.04 377.38, 591.49 377.37, 593.92 377.37 C 596.36 377.36, 598.87 377.06, 601.23 377.30 C 603.59 377.54, 605.93 378.64, 608.10 378.81 C 610.26 378.98, 612.14 378.35, 614.22 378.33 C 616.31 378.30, 618.21 378.42, 620.59 378.66 C 622.98 378.89, 627.39 378.71, 628.51 379.75 C 629.63 380.79, 627.74 383.07, 627.30 384.88 C 626.86 386.70, 626.62 388.64, 625.85 390.63 C 625.08 392.62, 624.54 396.00, 622.68 396.83 C 620.81 397.66, 617.19 396.23, 614.67 395.61 C 612.14 394.99, 610.04 393.69, 607.55 393.09 C 605.06 392.50, 602.20 392.32, 599.74 392.04 C 597.28 391.75, 595.22 391.54, 592.79 391.39 C 590.36 391.23, 587.75 391.05, 585.15 391.10 C 582.54 391.14, 579.73 391.23, 577.16 391.66 C 574.59 392.09, 572.03 393.02, 569.73 393.66 C 567.42 394.29, 565.37 394.43, 563.34 395.47 C 561.30 396.51, 559.15 398.32, 557.52 399.88 C 555.89 401.44, 555.11 403.23, 553.57 404.84 C 552.02 406.46, 550.08 408.27, 548.25 409.57" stroke="red" stroke-width="3" fill="black" /></svg>