<svg width="800" height="800" viewBox="80.40 101.26 633.43 600.83" xmlns="http://www.w3.org/2000/svg"><path d="M 628.19 494.41 C 622.30 494.00, 617.96 483.80, 612.76 477.54 C 607.56 471.29, 601.52 463.17, 597.00 456.90 C 592.48 450.63, 587.42 445.92, 585.64 439.90 C 583.85 433.88, 586.94 427.71, 586.29 420.79 C 585.64 413.86, 584.05 405.56, 581.74 398.37 C 579.43 391.18, 577.36 381.25, 572.41 377.66 C 567.46 374.07, 557.96 380.24, 552.05 376.81 C 546.15 373.39, 541.48 362.76, 536.98 357.12 C 532.49 351.47, 530.93 344.66, 525.08 342.94 C 519.23 341.21, 509.17 346.26, 501.87 346.78 C 494.57 347.31, 488.60 346.50, 481.30 346.10 C 473.99 345.71, 465.56 345.15, 458.02 344.40 C 450.48 343.64, 442.35 339.14, 436.03 341.57 C 429.71 344.00, 421.72 352.58, 420.08 358.99 C 418.45 365.40, 421.93 375.11, 426.23 380.02 C 430.53 384.94, 439.03 386.71, 445.90 388.47 C 452.76 390.22, 461.08 389.38, 467.40 390.57 C 473.72 391.77, 477.73 393.45, 483.79 395.63 C 489.86 397.81, 496.91 400.93, 503.80 403.65 C 510.69 406.38, 520.83 407.48, 525.15 411.98 C 529.47 416.47, 527.68 424.47, 529.73 430.61 C 531.77 436.75, 534.05 441.93, 537.42 448.80 C 540.79 455.67, 546.31 464.07, 549.95 471.83 C 553.59 479.59, 555.21 488.93, 559.25 495.38 C 563.28 501.83, 570.43 503.91, 574.14 510.52 C 577.86 517.14, 578.91 527.55, 581.51 535.06 C 584.11 542.58, 588.55 547.98, 589.73 555.61 C 590.91 563.24, 590.73 573.43, 588.57 580.85 C 586.40 588.27, 582.71 595.47, 576.76 600.15 C 570.80 604.83, 561.34 609.17, 552.83 608.91 C 544.32 608.65, 530.38 604.28, 525.71 598.59 C 521.03 592.90, 523.69 582.32, 524.78 574.79 C 525.86 567.25, 532.14 560.82, 532.19 553.38 C 532.25 545.95, 528.11 536.99, 525.09 530.18 C 522.07 523.38, 518.16 517.47, 514.08 512.55 C 510.00 507.64, 503.12 505.77, 500.62 500.69 C 498.11 495.62, 499.55 488.89, 499.03 482.08 C 498.50 475.27, 500.74 465.14, 497.44 459.82 C 494.15 454.50, 485.18 453.44, 479.24 450.16 C 473.29 446.87, 467.06 443.62, 461.79 440.12 C 456.51 436.61, 453.76 431.62, 447.59 429.14 C 441.42 426.66, 431.78 424.67, 424.75 425.24 C 417.72 425.81, 408.65 428.05, 405.40 432.54 C 402.16 437.03, 402.57 446.02, 405.30 452.17 C 408.04 458.31, 417.25 464.19, 421.80 469.38 C 426.36 474.58, 428.16 479.07, 432.63 483.32 C 437.10 487.57, 445.26 490.38, 448.63 494.87 C 452.00 499.36, 450.33 504.34, 452.85 510.25 C 455.37 516.16, 460.53 523.80, 463.77 530.35 C 467.01 536.91, 470.70 543.02, 472.27 549.59 C 473.84 556.17, 472.78 561.85, 473.17 569.80 C 473.56 577.76, 474.53 589.67, 474.63 597.34 C 474.72 605.02, 475.67 608.45, 473.74 615.84 C 471.80 623.22, 468.64 636.26, 463.02 641.66 C 457.41 647.07, 447.37 649.68, 440.06 648.25 C 432.76 646.83, 422.92 639.78, 419.20 633.11 C 415.48 626.44, 417.19 615.91, 417.76 608.22 C 418.34 600.52, 421.27 594.44, 422.64 586.94 C 424.00 579.44, 426.69 570.60, 425.94 563.21 C 425.19 555.81, 421.46 548.39, 418.13 542.55 C 414.81 536.70, 410.18 533.39, 405.99 528.16 C 401.79 522.93, 396.96 517.81, 392.96 511.18 C 388.96 504.56, 385.36 495.19, 381.97 488.41 C 378.57 481.62, 377.06 473.43, 372.60 470.46 C 368.15 467.48, 361.07 467.60, 355.22 470.55 C 349.38 473.51, 340.42 481.92, 337.56 488.21 C 334.70 494.49, 335.92 501.70, 338.06 508.28 C 340.21 514.86, 346.96 521.27, 350.43 527.68 C 353.90 534.10, 355.92 540.19, 358.90 546.76 C 361.88 553.33, 366.46 560.55, 368.33 567.10 C 370.20 573.64, 369.98 578.67, 370.10 586.04 C 370.23 593.41, 370.52 603.73, 369.10 611.31 C 367.69 618.90, 366.30 626.88, 361.62 631.55 C 356.93 636.23, 346.83 635.93, 341.00 639.35 C 335.17 642.78, 332.81 649.99, 326.62 652.09 C 320.43 654.18, 311.42 653.50, 303.86 651.92 C 296.29 650.35, 283.55 648.18, 281.21 642.67 C 278.87 637.15, 286.31 625.81, 289.83 618.83 C 293.35 611.84, 297.04 605.27, 302.33 600.73 C 307.61 596.19, 318.97 596.43, 321.54 591.59 C 324.10 586.75, 320.93 577.54, 317.70 571.69 C 314.47 565.84, 305.28 561.81, 302.18 556.49 C 299.07 551.18, 299.74 545.55, 299.06 539.81 C 298.39 534.06, 298.97 529.33, 298.14 522.03 C 297.32 514.73, 297.99 500.70, 294.11 496.01 C 290.24 491.31, 281.76 491.61, 274.91 493.86 C 268.06 496.12, 259.63 504.51, 253.00 509.54 C 246.37 514.57, 235.76 518.17, 235.13 524.04 C 234.51 529.90, 246.76 537.67, 249.24 544.72 C 251.73 551.76, 249.68 558.89, 250.03 566.31 C 250.39 573.74, 253.04 581.96, 251.37 589.29 C 249.70 596.61, 244.75 603.84, 240.02 610.25 C 235.29 616.66, 228.92 627.63, 222.97 627.73 C 217.02 627.84, 208.99 617.90, 204.31 610.87 C 199.63 603.85, 196.63 593.46, 194.89 585.56 C 193.16 577.66, 193.92 570.45, 193.90 563.46 C 193.89 556.48, 198.39 549.82, 194.82 543.66 C 191.24 537.49, 177.05 533.73, 172.46 526.48 C 167.87 519.23, 164.04 506.21, 167.27 500.17 C 170.50 494.14, 185.00 493.54, 191.83 490.25 C 198.67 486.96, 202.65 483.63, 208.29 480.45 C 213.93 477.27, 219.55 474.65, 225.66 471.17 C 231.76 467.70, 238.60 462.99, 244.92 459.59 C 251.23 456.19, 257.34 453.13, 263.54 450.78 C 269.73 448.42, 275.71 445.99, 282.09 445.46 C 288.47 444.92, 295.32 448.44, 301.82 447.58 C 308.32 446.71, 315.11 443.79, 321.08 440.28 C 327.05 436.77, 332.23 429.49, 337.64 426.52 C 343.05 423.54, 348.01 424.64, 353.53 422.44 C 359.06 420.24, 365.72 417.68, 370.79 413.32 C 375.87 408.96, 382.55 402.92, 384.00 396.29 C 385.45 389.67, 383.60 378.12, 379.49 373.57 C 375.38 369.03, 366.29 370.06, 359.32 369.02 C 352.34 367.97, 343.64 366.63, 337.63 367.31 C 331.62 367.98, 328.60 369.29, 323.24 373.06 C 317.88 376.84, 311.47 385.91, 305.45 389.96 C 299.43 394.01, 293.78 396.20, 287.12 397.39 C 280.46 398.58, 271.88 396.67, 265.47 397.11 C 259.06 397.55, 254.67 397.47, 248.66 400.01 C 242.66 402.55, 235.58 408.48, 229.45 412.37 C 223.31 416.26, 218.49 420.16, 211.84 423.36 C 205.19 426.56, 196.72 428.06, 189.54 431.58 C 182.36 435.10, 175.64 442.11, 168.75 444.48 C 161.86 446.86, 153.65 449.48, 148.19 445.83 C 142.74 442.17, 138.99 430.47, 136.03 422.57 C 133.06 414.68, 128.45 405.99, 130.40 398.46 C 132.36 390.94, 141.21 379.29, 147.77 377.40 C 154.33 375.51, 162.46 385.98, 169.76 387.13 C 177.07 388.27, 183.77 387.25, 191.61 384.28 C 199.45 381.31, 213.61 374.92, 216.83 369.31 C 220.04 363.70, 214.57 356.12, 210.92 350.60 C 207.27 345.08, 202.33 339.33, 194.93 336.18 C 187.53 333.02, 173.67 335.86, 166.51 331.68 C 159.35 327.50, 151.50 316.60, 151.98 311.11 C 152.46 305.62, 163.19 301.47, 169.40 298.76 C 175.60 296.05, 186.71 298.54, 189.20 294.85 C 191.69 291.16, 185.65 282.01, 184.32 276.62 C 183.00 271.22, 181.11 267.67, 181.24 262.50 C 181.38 257.33, 183.03 252.50, 185.13 245.61 C 187.24 238.72, 189.02 227.33, 193.86 221.15 C 198.70 214.97, 207.94 208.40, 214.19 208.56 C 220.44 208.71, 227.61 215.55, 231.36 222.06 C 235.10 228.57, 235.70 240.46, 236.66 247.61 C 237.61 254.77, 237.85 258.45, 237.09 264.97 C 236.32 271.49, 232.30 280.10, 232.05 286.74 C 231.80 293.38, 233.19 299.44, 235.59 304.80 C 237.98 310.16, 243.06 312.50, 246.43 318.90 C 249.80 325.31, 251.57 338.03, 255.80 343.23 C 260.03 348.44, 265.61 349.97, 271.82 350.11 C 278.03 350.25, 287.04 348.03, 293.08 344.09 C 299.12 340.14, 307.21 332.81, 308.07 326.45 C 308.93 320.10, 301.13 312.23, 298.24 305.96 C 295.34 299.68, 292.39 294.90, 290.71 288.82 C 289.03 282.73, 288.01 275.52, 288.15 269.47 C 288.29 263.42, 291.42 258.50, 291.53 252.50 C 291.65 246.50, 290.27 239.65, 288.85 233.45 C 287.43 227.24, 285.28 222.17, 283.00 215.27 C 280.71 208.37, 273.22 196.83, 275.13 192.05 C 277.05 187.28, 287.46 188.18, 294.48 186.62 C 301.50 185.06, 311.72 179.32, 317.24 182.70 C 322.76 186.09, 324.19 199.41, 327.62 206.92 C 331.05 214.44, 335.36 221.05, 337.82 227.79 C 340.28 234.52, 341.90 240.68, 342.38 247.34 C 342.85 254.00, 340.73 261.41, 340.67 267.73 C 340.61 274.05, 341.32 278.66, 342.00 285.25 C 342.69 291.84, 342.46 301.29, 344.77 307.27 C 347.09 313.24, 350.54 317.80, 355.87 321.12 C 361.21 324.44, 369.89 326.13, 376.79 327.18 C 383.68 328.23, 392.94 330.77, 397.24 327.42 C 401.54 324.06, 403.14 314.09, 402.58 307.04 C 402.02 300.00, 396.16 291.88, 393.89 285.16 C 391.62 278.44, 387.89 273.07, 388.96 266.70 C 390.02 260.33, 399.03 253.38, 400.29 246.95 C 401.55 240.52, 398.15 234.62, 396.54 228.12 C 394.92 221.62, 393.82 213.48, 390.62 207.95 C 387.42 202.42, 382.09 200.12, 377.33 194.93 C 372.57 189.75, 364.78 183.94, 362.05 176.85 C 359.32 169.77, 356.58 156.69, 360.94 152.43 C 365.31 148.16, 380.13 151.41, 388.23 151.26 C 396.32 151.11, 403.20 148.46, 409.52 151.53 C 415.84 154.61, 421.47 163.59, 426.15 169.72 C 430.84 175.84, 435.09 180.61, 437.62 188.29 C 440.16 195.96, 436.62 213.63, 441.34 215.78 C 446.07 217.93, 457.89 205.03, 465.98 201.18 C 474.07 197.34, 482.38 191.12, 489.86 192.72 C 497.34 194.31, 509.39 204.03, 510.89 210.75 C 512.39 217.46, 503.32 226.24, 498.85 233.01 C 494.39 239.78, 489.78 248.57, 484.09 251.37 C 478.40 254.16, 471.40 248.84, 464.70 249.78 C 458.01 250.73, 447.90 252.28, 443.92 257.03 C 439.94 261.78, 440.46 271.52, 440.81 278.28 C 441.15 285.04, 441.72 293.02, 445.99 297.59 C 450.26 302.15, 459.23 304.92, 466.45 305.66 C 473.66 306.41, 481.97 303.19, 489.26 302.06 C 496.56 300.94, 504.56 302.42, 510.21 298.91 C 515.86 295.41, 518.65 287.53, 523.18 281.03 C 527.72 274.53, 532.33 266.69, 537.41 259.93 C 542.48 253.17, 547.82 240.47, 553.64 240.46 C 559.45 240.44, 568.13 252.36, 572.29 259.83 C 576.45 267.30, 579.57 277.37, 578.63 285.30 C 577.68 293.22, 568.28 300.59, 566.61 307.38 C 564.95 314.18, 564.09 321.63, 568.64 326.06 C 573.19 330.49, 586.81 330.30, 593.93 333.97 C 601.06 337.64, 605.92 342.26, 611.40 348.07 C 616.88 353.89, 623.35 361.50, 626.82 368.88 C 630.28 376.26, 630.61 384.13, 632.17 392.35 C 633.74 400.58, 632.94 410.87, 636.19 418.22 C 639.43 425.56, 647.04 429.52, 651.65 436.42 C 656.26 443.33, 664.42 452.39, 663.84 459.66 C 663.25 466.93, 654.09 474.26, 648.15 480.05 C 642.21 485.84, 634.09 494.83, 628.19 494.41" stroke="red" stroke-width="3" fill="black" /></svg>